<?xml version="1.0" standalone="no"?>
<!DOCTYPE svg PUBLIC "-//W3C//DTD SVG 1.1//EN" "http://www.w3.org/Graphics/SVG/1.1/DTD/svg11.dtd" >
<svg xmlns="http://www.w3.org/2000/svg">
    <defs>
        <font id="Untitled">
            <font-face font-family=""
                       units-per-em="1000"
                       ascent="790"
                       descent="-230"
                       bbox="-70 -240 1011 1030"
                    />
            <missing-glyph horiz-adv-x="0" />
            
            <glyph glyph-name="&amp;" unicode="&#x26;" horiz-adv-x="693" d=" M394,305 L380,330 L680,480 L693,455 L528,373 Q577,360 613.5,316.5 Q650,273 650,210 Q650,119 576,54.5 Q502,-10 361,-10 Q214,-10 127,55 Q40,120 40,221 Q40,269 63,305 Q86,341 115.5,358.5 Q145,376 181,387 Q217,398 235,400 Q253,402 260,402 Q265,402 267,404 Q269,406 267,408.5 Q265,411 260,412 Q210,425 190,433 Q71,487 70,601 Q70,679 135.5,734.5 Q201,790 309,790 Q358,790 400.5,777.5 Q443,765 461,752 L479,740 L519,790 L579,580 L560,570 Q546,604 530,630.5 Q514,657 485,690 Q456,723 411,741.5 Q366,760 310,760 Q232,760 191,711.5 Q150,663 150,590 Q150,544 169.5,509.5 Q189,475 221.5,456.5 Q254,438 289,429 Q324,420 361,420 L380,420 L380,391 L361,391 Q296,391 244.5,376.5 Q193,362 157,324.5 Q121,287 121,230 Q121,151 194.5,95.5 Q268,40 391,40 Q498,40 559,89.5 Q620,139 620,210 Q620,291 569.5,329.5 Q519,368 483,350"/> 
            <glyph glyph-name="(" unicode="&#x28;" horiz-adv-x="490" d=" M480,790 L490,771 Q415,771 343.5,740 Q272,709 215.5,654 Q159,599 124.5,517 Q90,435 90,340 Q90,246 124.5,164 Q159,82 215.5,27 Q272,-28 343.5,-59 Q415,-90 490,-90 L480,-110 Q368,-110 268.5,-57 Q169,-4 104.5,101 Q40,206 40,340 Q40,474 104.5,579 Q169,684 268.5,737 Q368,790 480,790"/> 
            <glyph glyph-name=")" unicode="&#x29;" horiz-adv-x="461" d=" M20,-110 L10,-90 Q85,-90 157,-59 Q229,-28 285,27 Q341,82 375.5,164 Q410,246 410,340 Q410,435 375.5,517 Q341,599 285,654 Q229,709 157,740 Q85,771 10,771 L20,790 Q132,790 231.5,737 Q331,684 396,579 Q461,474 461,340 Q461,206 396,101 Q331,-4 231.5,-57 Q132,-110 20,-110"/> 
            <glyph glyph-name="," unicode="&#x2C;" horiz-adv-x="210" d=" M90,50 Q90,78 108,94 Q126,110 150,110 Q174,110 192,94 Q210,78 210,50 Q210,30 200,15 L95,-160 L75,-150 L168,8 Q160,-4 135,-4 Q118,-4 104,10.5 Q90,25 90,50"/> 
            <glyph glyph-name="-" unicode="&#x2D;" horiz-adv-x="361" d=" M40,300 L40,330 L361,330 L361,300"/> 
            <glyph glyph-name="." unicode="&#x2E;" horiz-adv-x="210" d=" M90,22 Q90,78 108,94 Q126,110 150,110 Q174,110 192,94 Q210,78 210,50 Q210,22 192,6 Q174,-10 150,-10 Q126,-10 90,22"/> 
            <glyph glyph-name="0" unicode="&#x30;" horiz-adv-x="561" d=" M40,391 Q40,569 108,679.5 Q176,790 300,790 Q424,790 492.5,679 Q561,568 561,391 Q561,212 492.5,101 Q424,-10 300,-10 Q176,-10 108,101 Q40,212 40,391 M121,391 Q121,20 291,20 Q480,20 480,391 Q480,760 310,760 Q121,760 121,391"/> 
            <glyph glyph-name="1" unicode="&#x31;" horiz-adv-x="480" d=" M60,590 L50,620 L280,780 L280,90 Q280,59 330,44 Q380,29 430,30 L480,30 L480,0 L20,0 L20,30 Q24,30 31.5,29.5 Q39,29 59.5,29.5 Q80,30 99,31.5 Q118,33 141.5,37 Q165,41 181.5,47.5 Q198,54 209.5,65 Q221,76 221,90 L221,590 Q221,641 197.5,649.5 Q174,658 130,631"/> 
            <glyph glyph-name="2" unicode="&#x32;" horiz-adv-x="550" d=" M270,790 Q395,790 463,730 Q531,670 531,569 Q531,502 499.5,443.5 Q468,385 415,340 Q362,295 307.5,257 Q253,219 193,174.5 Q133,130 100,90 Q85,74 86.5,62 Q88,50 110,50 L270,50 Q323,50 370,68.5 Q417,87 445,113.5 Q473,140 493.5,166.5 Q514,193 522,212 L531,230 L550,221 L490,-10 L440,0 L10,0 Q15,37 49.5,80.5 Q84,124 133,163.5 Q182,203 237.5,252 Q293,301 340.5,347.5 Q388,394 419,453 Q450,512 450,570 Q450,760 260,760 Q110,760 110,631 Q110,605 107.5,588 Q105,571 93.5,555.5 Q82,540 60,540 Q45,540 32.5,550 Q20,560 20,580 Q20,603 36,636.5 Q52,670 80.5,705.5 Q109,741 159.5,765.5 Q210,790 270,790"/> 
            <glyph glyph-name="3" unicode="&#x33;" horiz-adv-x="561" d=" M561,200 Q561,108 490,49 Q419,-10 300,-10 Q233,-10 180,13 Q127,36 98,72 Q69,108 54.5,146 Q40,184 40,221 L60,230 Q61,222 63.5,209.5 Q66,197 81,164 Q96,131 118.5,106 Q141,81 186.5,60.5 Q232,40 291,40 Q374,40 427,83 Q480,126 480,200 Q480,247 466.5,281.5 Q453,316 431,336.5 Q409,357 376.5,369.5 Q344,382 312,386.5 Q280,391 240,391 L180,391 L180,420 L240,420 Q337,420 388.5,459 Q440,498 440,590 Q440,664 404,712 Q368,760 291,760 Q220,760 190,728.5 Q160,697 160,640 Q160,622 158.5,609 Q157,596 152.5,581 Q148,566 137.5,558 Q127,550 110,550 Q95,550 82.5,560 Q70,570 70,590 Q70,613 84,645 Q98,677 124.5,710.5 Q151,744 197.5,767 Q244,790 300,790 Q407,790 463.5,735.5 Q520,681 520,601 Q520,557 502,521.5 Q484,486 461,467 Q438,448 409,434.5 Q380,421 365,417.5 Q350,414 341,412 L340,412 Q335,411 333,408.5 Q331,406 333,404 Q335,402 340,402 Q345,402 354,401.5 Q363,401 386,397 Q409,393 430,386 Q451,379 476,363.5 Q501,348 519,327.5 Q537,307 549,274 Q561,241 561,200"/> 
            <glyph glyph-name="4" unicode="&#x34;" horiz-adv-x="601" d=" M30,210 L30,250 L391,790 L391,254 L601,260 L601,210 L391,210 L391,90 Q391,59 428,44 Q465,29 502,30 L540,30 L540,0 L180,0 L180,30 Q186,30 196,29.5 Q206,29 232,31 Q258,33 278,38.5 Q298,44 314,57 Q330,70 330,90 L330,210 M310,620 L63,250 Q176,250 330,252 L330,620 Q330,629 326.5,631.5 Q323,634 318.5,630.5 Q314,627 310,620"/> 
            <glyph glyph-name="5" unicode="&#x35;" horiz-adv-x="561" d=" M110,690 L110,430 Q112,433 116,437.5 Q120,442 136,454 Q152,466 171,475.5 Q190,485 222,492.5 Q254,500 291,500 Q338,500 384,484 Q430,468 470.5,438 Q511,408 536,356 Q561,304 561,240 Q561,136 490,63 Q419,-10 291,-10 Q227,-10 176,13 Q125,36 97,72 Q69,108 54.5,146.5 Q40,185 40,221 L60,230 Q60,226 61.5,219 Q63,212 69,192.5 Q75,173 83.5,155 Q92,137 109.5,115 Q127,93 149,77.5 Q171,62 205,51 Q239,40 280,40 Q380,40 430,96 Q480,152 480,240 Q480,340 429,405 Q378,470 291,470 Q249,470 214.5,459.5 Q180,449 161.5,434.5 Q143,420 130.5,405.5 Q118,391 114,380 L110,370 L80,370 L80,780 L420,780 L470,790 L531,631 L510,620 Q508,625 503,632 Q498,639 479.5,658.5 Q461,678 439,692.5 Q417,707 379.5,719 Q342,731 300,731 L180,731 Q154,731 132,720.5 Q110,710 110,690"/> 
            <glyph glyph-name="6" unicode="&#x36;" horiz-adv-x="550" d=" M320,760 Q220,760 170.5,659 Q121,558 121,391 L121,363 Q174,510 320,510 Q420,510 485,439 Q550,368 550,250 Q550,140 481,65 Q412,-10 320,-10 Q194,-10 117,103 Q40,216 40,391 Q40,569 116,679.5 Q192,790 330,790 Q426,790 488,731 Q550,672 550,590 Q550,570 538,560 Q526,550 510,550 Q494,550 483.5,558 Q473,566 468.5,581 Q464,596 462.5,609 Q461,622 461,640 Q461,690 425.5,725 Q390,760 320,760 M300,480 Q247,480 210,452 Q173,424 157.5,381 Q142,338 136.5,309.5 Q131,281 130,257 Q146,147 191.5,83.5 Q237,20 310,20 Q385,20 427.5,82 Q470,144 470,250 Q470,348 422,414 Q374,480 300,480"/> 
            <glyph glyph-name="7" unicode="&#x37;" horiz-adv-x="570" d=" M570,780 Q564,774 554.5,763 Q545,752 517,714 Q489,676 463.5,633.5 Q438,591 407,524.5 Q376,458 353.5,388 Q331,318 315.5,226 Q300,134 300,40 Q300,21 288.5,5.5 Q277,-10 250,-10 Q210,-10 210,60 Q210,139 273,290 Q336,441 398.5,565 Q461,689 461,701 Q461,731 420,731 L270,731 Q228,731 191,719.5 Q154,708 131,692 Q108,676 91,659.5 Q74,643 67,632 L60,620 L40,631 L100,790 L150,780"/> 
            <glyph glyph-name="8" unicode="&#x38;" horiz-adv-x="561" d=" M60,601 Q60,688 125,739 Q190,790 291,790 Q393,790 456.5,742 Q520,694 520,601 Q520,540 480,489.5 Q440,439 374,420 Q417,404 445.5,389 Q474,374 503,351 Q532,328 546.5,295.5 Q561,263 561,221 Q561,118 484.5,54 Q408,-10 300,-10 Q194,-10 117,47 Q40,104 40,210 Q40,274 88.5,329 Q137,384 210,407 Q139,439 99.5,483 Q60,527 60,601 M90,200 Q90,109 149.5,64.5 Q209,20 300,20 Q337,20 370,28.5 Q403,37 433.5,55.5 Q464,74 482,109 Q500,144 500,190 Q500,222 487.5,248 Q475,274 459,291 Q443,308 411.5,325 Q380,342 358,350.5 Q336,359 294.5,374.5 Q253,390 233,398 Q171,376 130.5,324 Q90,272 90,200 M470,601 Q470,679 420,719.5 Q370,760 291,760 Q217,760 169,725.5 Q121,691 121,620 Q121,580 136,550.5 Q151,521 189.5,498 Q228,475 251,465 Q274,455 332,435 Q345,430 351,428 Q406,444 438,488 Q470,532 470,601"/> 
            <glyph glyph-name="9" unicode="&#x39;" horiz-adv-x="561" d=" M280,-10 Q241,-10 208.5,1 Q176,12 155,29.5 Q134,47 117.5,68.5 Q101,90 92.5,111.5 Q84,133 78.5,150.5 Q73,168 72,179 L70,190 L90,200 Q91,193 93,182.5 Q95,172 107.5,144.5 Q120,117 137.5,96 Q155,75 190,57.5 Q225,40 270,40 Q480,40 480,391 Q480,410 479,420 Q426,270 280,270 Q180,270 115,341.5 Q50,413 50,531 Q50,640 119,715 Q188,790 280,790 Q406,790 483.5,677.5 Q561,565 561,391 Q561,216 483.5,103 Q406,-10 280,-10 M300,300 Q347,300 381.5,323.5 Q416,347 432,377 Q448,407 457.5,445 Q467,483 468.5,500.5 Q470,518 470,529 Q453,637 407.5,698.5 Q362,760 291,760 Q216,760 173,698 Q130,636 130,531 Q130,432 178,366 Q226,300 300,300"/> 
            <glyph glyph-name=":" unicode="&#x3A;" horiz-adv-x="207" d=" M89,21 Q89,77 106.5,92.5 Q124,108 148,108 Q172,108 189.5,92.5 Q207,77 207,49 Q207,21 189.5,5.5 Q172,-10 148,-10 Q124,-10 89,21 M89,415 Q89,471 106.5,486.5 Q124,502 148,502 Q172,502 189.5,486.5 Q207,471 207,443 Q207,415 189.5,400 Q172,385 148,385 Q124,385 89,415"/> 
            <glyph glyph-name="A" unicode="&#x41;" horiz-adv-x="801" d=" M280,0 L0,0 L0,30 Q67,26 89,38 Q111,50 130,100 L380,760 L420,790 L680,80 Q690,51 720.5,38.5 Q751,26 776,28 L801,30 L801,0 L480,0 L480,30 Q482,30 485,29.5 Q488,29 498,28.5 Q508,28 517,28.5 Q526,29 539,30 Q552,31 561,34 Q570,37 581,41 Q592,45 596,52 Q600,59 603.5,68 Q607,77 601,90 L534,280 L235,280 L170,100 Q153,53 179.5,39.5 Q206,26 280,30 M387,699 L246,310 L524,310"/> 
            <glyph glyph-name="B" unicode="&#x42;" horiz-adv-x="670" d=" M650,590 Q650,526 599,480 Q548,434 465,414 Q562,391 616,340 Q670,289 670,210 Q670,104 588,52 Q506,0 376,0 L20,0 L20,30 Q26,30 36,29.5 Q46,29 71.5,31 Q97,33 116.5,38.5 Q136,44 152,57 Q168,70 168,90 L168,690 Q168,721 131,736 Q94,751 57,750 L20,750 L20,780 L336,780 Q484,780 567,732.5 Q650,685 650,590 M306,400 L232,400 L232,90 Q232,35 309,30 L346,30 Q586,30 586,210 Q586,318 518,359 Q450,400 306,400 M232,750 L232,430 L336,430 Q448,430 507.5,467 Q567,504 567,590 Q567,670 502,710 Q437,750 327,750"/> 
            <glyph glyph-name="C" unicode="&#x43;" horiz-adv-x="690" d=" M380,790 Q433,790 478.5,777.5 Q524,765 542,752 L561,740 L601,790 L661,580 L640,570 Q625,605 609.5,631 Q594,657 565,690 Q536,723 491.5,741.5 Q447,760 391,760 Q267,760 195.5,656.5 Q124,553 124,391 Q124,233 197,136.5 Q270,40 391,40 Q440,40 482,52.5 Q524,65 551.5,85.5 Q579,106 601.5,130.5 Q624,155 636,179.5 Q648,204 656.5,224.5 Q665,245 668,258 L670,270 L690,260 Q689,254 686.5,244.5 Q684,235 674,207 Q664,179 650,153.5 Q636,128 611,97 Q586,66 555.5,43.5 Q525,21 479,5.5 Q433,-10 380,-10 Q231,-10 135.5,103.5 Q40,217 40,391 Q40,564 135.5,677 Q231,790 380,790"/> 
            <glyph glyph-name="D" unicode="&#x44;" horiz-adv-x="760" d=" M391,780 Q561,780 660.5,672.5 Q760,565 760,391 Q760,217 656,108.5 Q552,0 380,0 L20,0 L20,30 Q26,30 36,29.5 Q46,29 71.5,31.5 Q97,34 116.5,39 Q136,44 152,57.5 Q168,71 168,90 L168,690 Q168,721 131,736 Q94,751 57,750 L20,750 L20,780 M350,750 L232,750 L232,90 Q232,76 237.5,65 Q243,54 255,47.5 Q267,41 278,37.5 Q289,34 308,32.5 Q327,31 338.5,30.5 Q350,30 370,30 Q518,30 597,126 Q676,222 676,391 Q676,750 350,750"/> 
            <glyph glyph-name="E" unicode="&#x45;" horiz-adv-x="680" d=" M232,90 Q232,76 239.5,65 Q247,54 262.5,47.5 Q278,41 292.5,37.5 Q307,34 330.5,32.5 Q354,31 366.5,30.5 Q379,30 400,30 L461,30 Q503,30 539,46.5 Q575,63 596.5,86.5 Q618,110 633.5,133.5 Q649,157 655,174 L661,190 L680,180 L631,0 L20,0 L20,30 Q26,30 36,29.5 Q46,29 71.5,31.5 Q97,34 116.5,39 Q136,44 152,57.5 Q168,71 168,90 L168,690 Q168,721 131,736 Q94,751 57,750 L20,750 L20,780 L601,780 L650,601 L631,590 Q629,597 624.5,607.5 Q620,618 603,645.5 Q586,673 565.5,694 Q545,715 508.5,732.5 Q472,750 430,750 L232,750 L232,410 L410,410 Q454,410 479,445 Q504,480 507,515 L510,550 L531,550 L531,221 L510,221 Q510,227 509.5,238 Q509,249 503.5,276.5 Q498,304 488.5,325 Q479,346 458.5,363 Q438,380 410,380 L232,380"/> 
            <glyph glyph-name="F" unicode="&#x46;" horiz-adv-x="690" d=" M410,380 L232,380 L232,90 Q232,59 269,44 Q306,29 343,30 L380,30 L380,0 L20,0 L20,30 Q26,30 36,29.5 Q46,29 71.5,31 Q97,33 116.5,38.5 Q136,44 152,57 Q168,70 168,90 L168,690 Q168,721 131,736 Q94,751 57,750 L20,750 L20,780 L640,780 L690,601 L670,590 Q668,597 663.5,607.5 Q659,618 642.5,645.5 Q626,673 605.5,694 Q585,715 548.5,732.5 Q512,750 470,750 L232,750 L232,410 L410,410 Q454,410 479,445 Q504,480 507,515 L510,550 L531,550 L531,221 L510,221 Q510,227 509.5,238 Q509,249 503.5,276.5 Q498,304 488.5,325 Q479,346 458.5,363 Q438,380 410,380"/> 
            <glyph glyph-name="G" unicode="&#x47;" horiz-adv-x="670" d=" M670,0 L650,-10 L625,130 Q549,-10 391,-10 Q234,-10 137,103 Q40,216 40,391 Q40,564 135.5,677 Q231,790 380,790 Q433,790 478.5,777.5 Q524,765 542,752 L561,740 L601,790 L661,580 L640,570 Q625,605 609.5,631 Q594,657 565,690 Q536,723 491.5,741.5 Q447,760 391,760 Q267,760 195.5,656.5 Q124,553 124,391 Q124,230 199.5,125 Q275,20 400,20 Q464,20 509.5,46 Q555,72 578,116 Q601,160 610.5,205 Q620,250 620,300 L620,340 L260,340 L260,370 L670,370"/> 
            <glyph glyph-name="H" unicode="&#x48;" horiz-adv-x="880" d=" M669,90 L669,380 L232,380 L232,90 Q232,59 272,44 Q312,29 352,30 L391,30 L391,0 L20,0 L20,30 Q26,30 36,29.5 Q46,29 71.5,31 Q97,33 116.5,38.5 Q136,44 152,57 Q168,70 168,90 L168,690 Q168,721 131,736 Q94,751 57,750 L20,750 L20,780 L391,780 L391,750 Q385,750 374,750.5 Q363,751 335.5,749 Q308,747 287,741.5 Q266,736 249,723 Q232,710 232,690 L232,410 L669,410 L669,690 Q669,721 629.5,736 Q590,751 550,750 L510,750 L510,780 L880,780 L880,750 Q874,750 864,750.5 Q854,751 829,749 Q804,747 784.5,741.5 Q765,736 749,723 Q733,710 733,690 L733,90 Q733,59 769.5,44 Q806,29 843,30 L880,30 L880,0 L510,0 L510,30 Q516,30 527,29.5 Q538,29 565.5,31 Q593,33 614,38.5 Q635,44 652,57 Q669,70 669,90"/> 
            <glyph glyph-name="I" unicode="&#x49;" horiz-adv-x="380" d=" M168,90 L168,690 Q168,721 131,736 Q94,751 57,750 L20,750 L20,780 L380,780 L380,750 Q374,750 364,750.5 Q354,751 328.5,749 Q303,747 283.5,741.5 Q264,736 248,723 Q232,710 232,690 L232,90 Q232,59 269,44 Q306,29 343,30 L380,30 L380,0 L20,0 L20,30 Q26,30 36,29.5 Q46,29 71.5,31 Q97,33 116.5,38.5 Q136,44 152,57 Q168,70 168,90"/> 
            <glyph glyph-name="J" unicode="&#x4A;" horiz-adv-x="500" d=" M160,40 Q289,40 289,230 L289,690 Q289,721 252,736 Q215,751 178,750 L140,750 L140,780 L500,780 L500,750 Q494,750 484,750.5 Q474,751 448.5,749 Q423,747 403.5,741.5 Q384,736 368,723 Q352,710 352,690 L352,240 Q352,170 337,116.5 Q322,63 282,26.5 Q242,-10 180,-10 Q135,-10 102,10.5 Q69,31 54,60.5 Q39,90 30.5,119.5 Q22,149 21,170 L20,190 L40,200 Q40,193 40.5,182.5 Q41,172 47.5,144.5 Q54,117 65.5,96 Q77,75 101.5,57.5 Q126,40 160,40"/> 
            <glyph glyph-name="K" unicode="&#x4B;" horiz-adv-x="801" d=" M590,680 L394,484 L661,80 Q679,53 714,40.5 Q749,28 775,29 L801,30 L801,0 L480,0 L480,30 Q482,30 486.5,29.5 Q491,29 502.5,28.5 Q514,28 524.5,29 Q535,30 548.5,32 Q562,34 570.5,38.5 Q579,43 585,49 Q591,55 590,66 Q589,77 580,90 L350,440 L232,322 L232,90 Q232,59 269,44 Q306,29 343,30 L380,30 L380,0 L20,0 L20,30 Q26,30 36,29.5 Q46,29 71.5,31 Q97,33 116.5,38.5 Q136,44 152,57 Q168,70 168,90 L168,690 Q168,721 131,736 Q94,751 57,750 L20,750 L20,780 L380,780 L380,750 Q374,750 364,750.5 Q354,751 328.5,749 Q303,747 283.5,741.5 Q264,736 248,723 Q232,710 232,690 L232,363 L540,680 Q576,718 561.5,736 Q547,754 480,750 L480,780 L760,780 L760,750 Q697,753 664.5,738 Q632,723 590,680"/> 
            <glyph glyph-name="L" unicode="&#x4C;" horiz-adv-x="690" d=" M380,780 L380,750 Q374,750 364,750.5 Q354,751 328.5,749 Q303,747 283.5,741.5 Q264,736 248,723 Q232,710 232,690 L232,90 Q232,30 420,30 L440,30 Q488,30 529,46.5 Q570,63 595,86.5 Q620,110 638,133.5 Q656,157 663,174 L670,190 L690,180 L640,0 L20,0 L20,30 Q26,30 36,29.5 Q46,29 71.5,31.5 Q97,34 116.5,39 Q136,44 152,57.5 Q168,71 168,90 L168,690 Q168,721 131,736 Q94,751 57,750 L20,750 L20,780"/> 
            <glyph glyph-name="M" unicode="&#x4D;" horiz-adv-x="971" d=" M750,780 L971,780 L971,750 Q965,750 955,750.5 Q945,751 919,749 Q893,747 873.5,741.5 Q854,736 838,723 Q822,710 822,690 L822,90 Q822,59 859,44 Q896,29 934,30 L971,30 L971,0 L610,0 L610,30 Q616,30 626,29.5 Q636,29 661.5,31 Q687,33 706.5,38.5 Q726,44 742,57 Q758,70 758,90 L758,703 L461,-10 L172,705 L172,90 Q172,59 204,44 Q236,29 268,30 L300,30 L300,0 L10,0 L10,30 Q15,30 23.5,29.5 Q32,29 54.5,31 Q77,33 93.5,38.5 Q110,44 124,57 Q138,70 138,90 L138,690 Q138,721 106,736 Q74,751 42,750 L10,750 L10,780 L221,780 L476,116"/> 
            <glyph glyph-name="N" unicode="&#x4E;" horiz-adv-x="801" d=" M638,690 Q638,721 606,736 Q574,751 542,750 L510,750 L510,780 L801,780 L801,750 Q796,750 787,750.5 Q778,751 756,749 Q734,747 717,741.5 Q700,736 686,723 Q672,710 672,690 L672,0 L638,0 L182,707 L182,90 Q182,59 214,44 Q246,29 278,30 L310,30 L310,0 L20,0 L20,30 Q25,30 33.5,29.5 Q42,29 64.5,31 Q87,33 103.5,38.5 Q120,44 134,57 Q148,70 148,90 L148,690 Q148,721 116,736 Q84,751 52,750 L20,750 L20,780 L210,780 L638,119"/> 
            <glyph glyph-name="O" unicode="&#x4F;" horiz-adv-x="760" d=" M40,391 Q40,563 141.5,676.5 Q243,790 400,790 Q557,790 658.5,676.5 Q760,563 760,391 Q760,217 658.5,103.5 Q557,-10 400,-10 Q243,-10 141.5,103.5 Q40,217 40,391 M124,391 Q124,228 195.5,124 Q267,20 391,20 Q524,20 600,121.5 Q676,223 676,391 Q676,553 605,656.5 Q534,760 410,760 Q278,760 201,656.5 Q124,553 124,391"/> 
            <glyph glyph-name="P" unicode="&#x50;" horiz-adv-x="701" d=" M406,361 L232,361 L232,90 Q232,59 269,44 Q306,29 343,30 L380,30 L380,0 L20,0 L20,30 Q26,30 36,29.5 Q46,29 71.5,31 Q97,33 116.5,38.5 Q136,44 152,57 Q168,70 168,90 L168,690 Q168,721 131,736 Q94,751 57,750 L20,750 L20,780 L386,780 Q701,780 701,570 Q701,464 619,412.5 Q537,361 406,361 M232,750 L232,391 L376,391 Q616,391 616,570 Q616,750 376,750"/> 
            <glyph glyph-name="Q" unicode="&#x51;" horiz-adv-x="760" d=" M40,391 Q40,563 141.5,676.5 Q243,790 400,790 Q557,790 658.5,676.5 Q760,563 760,391 Q760,211 652,97 L760,-40 L740,-60 L631,77 Q535,-10 400,-10 Q243,-10 141.5,103.5 Q40,217 40,391 M448,310 L470,331 L615,145 Q676,244 676,391 Q676,553 605,656.5 Q534,760 410,760 Q278,760 201,656.5 Q124,553 124,391 Q124,228 195.5,124 Q267,20 391,20 Q521,20 598,119"/> 
            <glyph glyph-name="R" unicode="&#x52;" horiz-adv-x="690" d=" M680,0 L661,-10 L336,361 L232,361 L232,90 Q232,59 269,44 Q306,29 343,30 L380,30 L380,0 L20,0 L20,30 Q26,30 36,29.5 Q46,29 71.5,31 Q97,33 116.5,38.5 Q136,44 152,57 Q168,70 168,90 L168,690 Q168,721 131,736 Q94,751 57,750 L20,750 L20,780 L376,780 Q690,780 690,570 Q690,468 614,416.5 Q538,365 416,361 M232,750 L232,391 L366,391 Q606,391 606,570 Q606,750 366,750"/> 
            <glyph glyph-name="S" unicode="&#x53;" horiz-adv-x="561" d=" M300,-10 Q256,-10 216,2.5 Q176,15 158,28 L140,40 L100,-10 L40,200 L60,210 Q124,20 300,20 Q337,20 370,28.5 Q403,37 433.5,55.5 Q464,74 482,109 Q500,144 500,190 Q500,243 475,278.5 Q450,314 410.5,333 Q371,352 323,366 Q275,380 227,395.5 Q179,411 139.5,433 Q100,455 75,497.5 Q50,540 50,601 Q50,684 113,737 Q176,790 280,790 Q320,790 357.5,777.5 Q395,765 412,752 L430,740 L470,790 L531,580 L510,570 Q484,650 426.5,705 Q369,760 280,760 Q206,760 158,723.5 Q110,687 110,610 Q110,564 135,533 Q160,502 199.5,486 Q239,470 287,457.5 Q335,445 383.5,429 Q432,413 471.5,389.5 Q511,366 536,320.5 Q561,275 561,210 Q561,109 485.5,49.5 Q410,-10 300,-10"/> 
            <glyph glyph-name="T" unicode="&#x54;" horiz-adv-x="771" d=" M550,750 L432,750 L432,90 Q432,59 469,44 Q506,29 543,30 L580,30 L580,0 L221,0 L221,30 Q227,30 237,29.5 Q247,29 272,31 Q297,33 316.5,38.5 Q336,44 352,57 Q368,70 368,90 L368,750 L250,750 Q208,750 172,733.5 Q136,717 114.5,693.5 Q93,670 77.5,646.5 Q62,623 56,606 L50,590 L30,601 L80,780 L720,780 L771,601 L750,590 Q748,597 744,607.5 Q740,618 723,645.5 Q706,673 685.5,694 Q665,715 628.5,732.5 Q592,750 550,750"/> 
            <glyph glyph-name="U" unicode="&#x55;" horiz-adv-x="790" d=" M629,230 L629,690 Q629,721 596.5,736 Q564,751 532,750 L500,750 L500,780 L790,780 L790,750 Q785,750 776.5,750.5 Q768,751 746,749 Q724,747 707,741.5 Q690,736 676.5,723 Q663,710 663,690 L663,230 Q663,128 602.5,59 Q542,-10 410,-10 Q280,-10 219,56 Q158,122 158,240 L158,690 Q158,721 121,736 Q84,751 47,750 L10,750 L10,780 L370,780 L370,750 Q364,750 354,750.5 Q344,751 319,749 Q294,747 274.5,741.5 Q255,736 239,723 Q223,710 223,690 L223,240 Q223,136 268,83 Q313,30 420,30 Q485,30 528.5,46.5 Q572,63 593,93.5 Q614,124 621.5,156 Q629,188 629,230"/> 
            <glyph glyph-name="V" unicode="&#x56;" horiz-adv-x="780" d=" M500,780 L780,780 L780,750 Q713,754 690.5,742 Q668,730 650,680 L400,-10 L150,690 Q139,721 106.5,736 Q74,751 47,750 L20,750 L20,780 L340,780 L340,750 Q338,750 335,750.5 Q332,751 322,751.5 Q312,752 303,751.5 Q294,751 281,750 Q268,749 259.5,746 Q251,743 240,739 Q229,735 225,728 Q221,721 218,712 Q215,703 221,690 L417,128 L610,680 Q627,727 600.5,740.5 Q574,754 500,750"/> 
            <glyph glyph-name="W" unicode="&#x57;" horiz-adv-x="1011" d=" M731,780 L1011,780 L1011,750 Q942,754 918.5,742 Q895,730 880,680 L680,-10 L502,591 L310,-10 L100,701 Q92,730 62,742.5 Q32,755 6,752 L-20,750 L-20,780 L300,780 L300,750 Q297,750 291.5,750.5 Q286,751 270.5,751.5 Q255,752 241.5,751 Q228,750 212,746 Q196,742 186,735.5 Q176,729 171,717.5 Q166,706 170,690 L327,136 L483,657 L470,701 Q462,730 432,742.5 Q402,755 376,752 L350,750 L350,780 L670,780 L670,750 Q667,750 661.5,750.5 Q656,751 641,751.5 Q626,752 612,751 Q598,750 582.5,746 Q567,742 556.5,735.5 Q546,729 541,717.5 Q536,706 540,690 L694,133 L841,680 Q853,729 828.5,741.5 Q804,754 731,750"/> 
            <glyph glyph-name="X" unicode="&#x58;" horiz-adv-x="780" d=" M250,690 L403,450 L561,680 Q587,723 564,738.5 Q541,754 470,750 L470,780 L750,780 L750,750 Q705,753 679.5,746.5 Q654,740 638,726 Q622,712 601,680 L422,420 L640,80 Q658,53 693,40.5 Q728,28 754,29 L780,30 L780,0 L461,0 L461,30 Q463,30 467.5,29.5 Q472,29 483.5,29 Q495,29 505.5,29.5 Q516,30 529,32 Q542,34 551,38.5 Q560,43 566,49.5 Q572,56 571,66.5 Q570,77 561,90 L385,365 L210,110 Q182,67 206.5,46.5 Q231,26 300,30 L300,0 L20,0 L20,30 Q73,26 104.5,42.5 Q136,59 170,110 L365,395 L170,701 Q152,728 119.5,740.5 Q87,753 64,752 L40,750 L40,780 L361,780 L361,750 Q358,750 354,750.5 Q350,751 337,751.5 Q324,752 312.5,751 Q301,750 287,748 Q273,746 263,741.5 Q253,737 246,731 Q239,725 240,714 Q241,703 250,690"/> 
            <glyph glyph-name="Y" unicode="&#x59;" horiz-adv-x="790" d=" M230,690 L430,340 L610,680 Q634,724 608.5,739 Q583,754 510,750 L510,780 L790,780 L790,750 Q725,754 700.5,741 Q676,728 650,680 L442,300 L442,90 Q442,59 479,44 Q516,29 553,30 L590,30 L590,0 L230,0 L230,30 Q236,30 246,29.5 Q256,29 281.5,31 Q307,33 326.5,38.5 Q346,44 362,57 Q378,70 378,90 L378,300 L150,701 Q134,729 101.5,741.5 Q69,754 44,752 L20,750 L20,780 L340,780 L340,750 Q338,750 333.5,750.5 Q329,751 316.5,752 Q304,753 293,752 Q282,751 268,750 Q254,749 244.5,744.5 Q235,740 228,733.5 Q221,727 221.5,715.5 Q222,704 230,690"/> 
            <glyph glyph-name="Z" unicode="&#x5A;" horiz-adv-x="590" d=" M496,750 L270,750 Q228,750 192,733.5 Q156,717 134.5,693.5 Q113,670 97.5,646.5 Q82,623 76,606 L70,590 L50,601 L100,780 L590,780 L105,30 L370,30 Q412,30 448,46.5 Q484,63 505.5,86.5 Q527,110 542.5,133.5 Q558,157 564,174 L570,190 L590,180 L540,0 L10,0"/> 
            <glyph glyph-name="a" unicode="&#x61;" horiz-adv-x="601" d=" M280,480 Q230,480 204,465.5 Q178,451 172.5,430.5 Q167,410 165,389.5 Q163,369 151,354.5 Q139,340 110,340 Q95,340 82.5,350 Q70,360 70,380 Q70,425 132.5,467.5 Q195,510 280,510 Q364,510 422,473.5 Q480,437 480,361 L480,100 Q480,40 520,40 Q542,40 557,57.5 Q572,75 576,92 L580,110 L601,100 Q562,-10 500,-10 Q463,-10 441.5,17.5 Q420,45 420,90 L430,179 Q427,168 422.5,153.5 Q418,139 400.5,107.5 Q383,76 360,52 Q337,28 294.5,9 Q252,-10 200,-10 Q135,-10 87.5,23.5 Q40,57 40,121 Q40,175 68,208.5 Q96,242 138.5,254 Q181,266 230,274.5 Q279,283 321.5,287.5 Q364,292 392,310.5 Q420,329 420,361 Q420,408 382,444 Q344,480 280,480 M420,260 L420,291 Q391,273 347,265.5 Q303,258 266.5,255.5 Q230,253 195.5,244.5 Q161,236 141,208.5 Q121,181 121,130 Q121,73 151,46.5 Q181,20 230,20 Q279,20 318,47 Q357,74 378,114 Q399,154 409.5,192 Q420,230 420,260"/> 
            <glyph glyph-name="b" unicode="&#x62;" horiz-adv-x="531" d=" M30,650 L20,680 L180,790 L180,419 Q230,510 330,510 Q415,510 473,438.5 Q531,367 531,250 Q531,138 470.5,64 Q410,-10 320,-10 Q221,-10 174,81 L121,-10 L121,620 Q121,640 116.5,654 Q112,668 102,676 Q92,684 73.5,677.5 Q55,671 30,650 M180,320 L180,160 Q187,93 225,56.5 Q263,20 310,20 Q377,20 413.5,82 Q450,144 450,250 Q450,348 410,414 Q370,480 310,480 Q266,480 235.5,453.5 Q205,427 193.5,393 Q182,359 180,320"/> 
            <glyph glyph-name="c" unicode="&#x63;" horiz-adv-x="470" d=" M260,510 Q354,510 402,461.5 Q450,413 450,361 Q450,340 438,330 Q426,320 410,320 Q381,320 369.5,336.5 Q358,353 357,376.5 Q356,400 353.5,423.5 Q351,447 331,463.5 Q311,480 270,480 Q197,480 159,419 Q121,358 121,250 Q121,154 168,97 Q215,40 291,40 Q333,40 364.5,55.5 Q396,71 411.5,93 Q427,115 436.5,137 Q446,159 448,174 L450,190 L470,180 Q469,172 466,159.5 Q463,147 448.5,114 Q434,81 414,56 Q394,31 356,10.5 Q318,-10 270,-10 Q172,-10 106,64 Q40,138 40,250 Q40,363 101.5,436.5 Q163,510 260,510"/> 
            <glyph glyph-name="d" unicode="&#x64;" horiz-adv-x="580" d=" M410,-10 L427,128 Q372,-10 250,-10 Q158,-10 99,61 Q40,132 40,250 Q40,362 100,436 Q160,510 250,510 Q359,510 420,419 L420,620 Q420,648 412.5,664 Q405,680 384,679 Q363,678 330,650 L320,680 L480,790 L480,90 Q480,59 505,51.5 Q530,44 555,52 L580,60 L580,30 M420,230 L420,340 Q413,409 370,444.5 Q327,480 260,480 Q193,480 157,418.5 Q121,357 121,250 Q121,151 162.5,85.5 Q204,20 270,20 Q313,20 344,42.5 Q375,65 390.5,99.5 Q406,134 413,167 Q420,200 420,230"/> 
            <glyph glyph-name="e" unicode="&#x65;" horiz-adv-x="470" d=" M461,280 L122,280 Q121,270 121,250 Q121,154 168,97 Q215,40 291,40 Q333,40 364.5,55.5 Q396,71 411.5,93 Q427,115 436.5,137 Q446,159 448,174 L450,190 L470,180 Q469,172 466,159.5 Q463,147 448.5,114 Q434,81 414,56 Q394,31 356,10.5 Q318,-10 270,-10 Q172,-10 106,64 Q40,138 40,250 Q40,363 101.5,436.5 Q163,510 260,510 Q365,510 413,445 Q461,380 461,280 M270,480 Q208,480 171,435.5 Q134,391 124,310 L380,310 Q380,480 270,480"/> 
            <glyph glyph-name="f" unicode="&#x66;" horiz-adv-x="380" d=" M20,470 L20,500 L121,500 L121,561 Q121,613 142,664.5 Q163,716 208,753 Q253,790 310,790 Q380,790 380,740 Q380,690 340,690 Q316,690 291,715 Q266,740 240,740 Q209,740 194.5,703.5 Q180,667 180,576 L180,500 L320,500 L320,470 L180,470 L180,90 Q180,59 208,44 Q236,29 264,30 L291,30 L291,0 L20,0 L20,30 Q24,30 31,29.5 Q38,29 55.5,31 Q73,33 86,38.5 Q99,44 110,57 Q121,70 121,90 L121,470"/> 
            <glyph glyph-name="g" unicode="&#x67;" horiz-adv-x="580" d=" M520,601 Q545,601 562.5,588.5 Q580,576 580,550 Q580,500 540,500 Q530,500 515,505 Q500,510 490,510 Q461,510 461,480 Q461,465 470,425 Q479,385 480,339 L480,330 Q480,246 418,198 Q356,150 280,150 L273,150 Q121,148 121,90 Q121,50 190,50 L400,50 Q561,50 561,-70 Q561,-149 481.5,-194.5 Q402,-240 291,-240 Q40,-240 40,-110 Q40,-29 149,-7 Q107,-1 83.5,19 Q60,39 60,70 Q60,151 197,166 Q146,186 113,228.5 Q80,271 80,330 Q80,414 142,462 Q204,510 280,510 Q327,510 373.5,489 Q420,468 448,429 Q446,439 440.5,456.5 Q435,474 432.5,485.5 Q430,497 430,510 Q430,544 454.5,572.5 Q479,601 520,601 M380,-10 L210,-10 Q206,-10 199,-10.5 Q192,-11 175,-16 Q158,-21 145,-29.5 Q132,-38 121,-56.5 Q110,-75 110,-100 Q110,-210 291,-210 Q389,-210 449.5,-177.5 Q510,-145 510,-90 Q510,-53 475.5,-31.5 Q441,-10 380,-10 M150,330 Q150,261 188.5,220.5 Q227,180 270,180 Q323,180 366.5,217.5 Q410,255 410,330 Q410,399 371.5,439.5 Q333,480 291,480 Q237,480 193.5,442.5 Q150,405 150,330"/> 
            <glyph glyph-name="h" unicode="&#x68;" horiz-adv-x="590" d=" M490,400 L490,90 Q490,59 515,44 Q540,29 565,30 L590,30 L590,0 L330,0 L330,30 Q334,30 341,29.5 Q348,29 365,31 Q382,33 395,38.5 Q408,44 419,57 Q430,70 430,90 L430,340 Q430,396 401,423 Q372,450 330,450 Q271,450 225.5,396 Q180,342 180,280 L180,90 Q180,59 205,44 Q230,29 255,30 L280,30 L280,0 L20,0 L20,30 Q24,30 31,29.5 Q38,29 55.5,31 Q73,33 86,38.5 Q99,44 110,57 Q121,70 121,90 L121,620 Q121,640 116.5,654 Q112,668 102,676 Q92,684 73.5,677.5 Q55,671 30,650 L20,680 L180,790 L180,365 Q274,510 370,510 Q428,510 459,479 Q490,448 490,400"/> 
            <glyph glyph-name="i" unicode="&#x69;" horiz-adv-x="280" d=" M20,400 L30,370 Q55,392 73.5,398 Q92,404 102,396.5 Q112,389 116.5,375 Q121,361 121,340 L121,90 Q121,59 95.5,44 Q70,29 45,30 L20,30 L20,0 L280,0 L280,30 Q276,30 269,29.5 Q262,29 245,31 Q228,33 215,38.5 Q202,44 191,57 Q180,70 180,90 L180,510 M70,652 Q70,708 88,724 Q106,740 130,740 Q154,740 172,724 Q190,708 190,680 Q190,652 172,636 Q154,620 130,620 Q106,620 70,652"/> 
            <glyph glyph-name="j" unicode="&#x6A;" horiz-adv-x="200" d=" M130,-26 Q130,-116 115.5,-153 Q101,-190 70,-190 Q45,-190 20,-165 Q-5,-140 -30,-140 Q-70,-140 -70,-190 Q-70,-240 0,-240 Q57,-240 102,-203 Q147,-166 168.5,-114 Q190,-62 190,-10 L190,510 L30,400 L40,370 Q73,398 94,399.5 Q115,401 122.5,384.5 Q130,368 130,340 M80,652 Q80,708 98,724 Q116,740 140,740 Q164,740 182,724 Q200,708 200,680 Q200,652 182,636 Q164,620 140,620 Q116,620 80,652"/> 
            <glyph glyph-name="k" unicode="&#x6B;" horiz-adv-x="580" d=" M280,500 L550,500 L550,470 Q507,470 479,455 Q451,440 410,400 L305,293 L461,80 Q480,53 510,40.5 Q540,28 560,29 L580,30 L580,0 L320,0 L320,30 Q322,30 326,29.5 Q330,29 341,29.5 Q352,30 360.5,31.5 Q369,33 378,37 Q387,41 391,47 Q395,53 393,64.5 Q391,76 380,90 L259,247 L180,167 L180,90 Q180,59 205,44 Q230,29 255,30 L280,30 L280,0 L20,0 L20,30 Q24,30 31,29.5 Q38,29 55.5,31 Q73,33 86,38.5 Q99,44 110,57 Q121,70 121,90 L121,620 Q121,640 116.5,654 Q112,668 102,676 Q92,684 73.5,677.5 Q55,671 30,650 L20,680 L180,790 L180,208 Q200,230 230,260 L370,400 Q418,448 347,464 Q319,470 280,470"/> 
            <glyph glyph-name="l" unicode="&#x6C;" horiz-adv-x="280" d=" M30,650 L20,680 L180,790 L180,90 Q180,59 205,44 Q230,29 255,30 L280,30 L280,0 L20,0 L20,30 Q24,30 31,29.5 Q38,29 55.5,31 Q73,33 86,38.5 Q99,44 110,57 Q121,70 121,90 L121,620 Q121,640 116.5,654 Q112,668 102,676 Q92,684 73.5,677.5 Q55,671 30,650"/> 
            <glyph glyph-name="m" unicode="&#x6D;" horiz-adv-x="890" d=" M790,400 L790,90 Q790,59 815,44 Q840,29 865,30 L890,30 L890,0 L631,0 L631,30 Q635,30 642,29.5 Q649,29 666,31 Q683,33 696,38.5 Q709,44 720,57 Q731,70 731,90 L731,340 Q731,396 702,423 Q673,450 631,450 Q572,450 526,396 Q480,342 480,280 L480,90 Q480,59 505,44 Q530,29 555,30 L580,30 L580,0 L320,0 L320,30 Q324,30 331,29.5 Q338,29 355,31 Q372,33 385,38.5 Q398,44 409,57 Q420,70 420,90 L420,340 Q420,396 391,423 Q362,450 320,450 Q261,450 215.5,396 Q170,342 170,280 L170,90 Q170,59 195,44 Q220,29 245,30 L270,30 L270,0 L10,0 L10,30 Q14,30 21,29.5 Q28,29 45,31 Q62,33 75,38.5 Q88,44 99,57 Q110,70 110,90 L110,340 Q110,368 102.5,384.5 Q95,401 74,399.5 Q53,398 20,370 L10,400 L200,510 L160,350 Q213,433 261,471.5 Q309,510 361,510 Q418,510 449,479 Q480,448 480,400 L480,365 Q530,440 575.5,475 Q621,510 670,510 Q728,510 759,479 Q790,448 790,400"/> 
            <glyph glyph-name="n" unicode="&#x6E;" horiz-adv-x="590" d=" M490,400 L490,90 Q490,59 515,44 Q540,29 565,30 L590,30 L590,0 L330,0 L330,30 Q334,30 341,29.5 Q348,29 365,31 Q382,33 395,38.5 Q408,44 419,57 Q430,70 430,90 L430,340 Q430,396 401,423 Q372,450 330,450 Q271,450 225.5,396 Q180,342 180,280 L180,90 Q180,59 205,44 Q230,29 255,30 L280,30 L280,0 L20,0 L20,30 Q24,30 31,29.5 Q38,29 55.5,31 Q73,33 86,38.5 Q99,44 110,57 Q121,70 121,90 L121,340 Q121,361 116.5,375 Q112,389 102,396.5 Q92,404 73.5,398 Q55,392 30,370 L20,400 L210,510 L170,350 Q223,434 270.5,472 Q318,510 370,510 Q428,510 459,479 Q490,448 490,400"/> 
            <glyph glyph-name="o" unicode="&#x6F;" horiz-adv-x="561" d=" M40,138 Q40,362 114,436 Q188,510 300,510 Q413,510 487,436 Q561,362 561,250 Q561,138 487,64 Q413,-10 300,-10 Q188,-10 40,138 M121,250 Q121,149 165.5,84.5 Q210,20 291,20 Q380,20 430,82 Q480,144 480,250 Q480,351 435,415.5 Q390,480 310,480 Q221,480 171,418.5 Q121,357 121,250"/> 
            <glyph glyph-name="p" unicode="&#x70;" horiz-adv-x="561" d=" M30,370 L20,400 L200,510 L171,355 Q219,510 350,510 Q437,510 499,438 Q561,366 561,250 Q561,139 496.5,64.5 Q432,-10 340,-10 Q225,-10 180,75 L180,-140 Q180,-171 205,-186 Q230,-201 255,-200 L280,-200 L280,-230 L20,-230 L20,-200 Q24,-200 31,-200.5 Q38,-201 55.5,-199 Q73,-197 86,-191.5 Q99,-186 110,-173 Q121,-160 121,-140 L121,340 Q121,361 116.5,375 Q112,389 102,396.5 Q92,404 73.5,398 Q55,392 30,370 M180,285 L180,160 Q187,91 228,55.5 Q269,20 330,20 Q398,20 439,82.5 Q480,145 480,250 Q480,346 435.5,413 Q391,480 330,480 Q295,480 267,463.5 Q239,447 224,423.5 Q209,400 198.5,371 Q188,342 184.5,321.5 Q181,301 180,285"/> 
            <glyph glyph-name="q" unicode="&#x71;" horiz-adv-x="580" d=" M424,417 L480,510 L480,-140 Q480,-171 505,-186 Q530,-201 555,-200 L580,-200 L580,-230 L320,-230 L320,-200 Q324,-200 331,-200.5 Q338,-201 355,-199 Q372,-197 385,-191.5 Q398,-186 409,-173 Q420,-160 420,-140 L420,84 Q364,-10 250,-10 Q164,-10 102,62 Q40,134 40,250 Q40,361 104.5,435.5 Q169,510 260,510 Q373,510 424,417 M420,179 L420,340 Q413,409 372,444.5 Q331,480 270,480 Q197,480 159,419 Q121,358 121,250 Q121,151 162.5,85.5 Q204,20 270,20 Q311,20 341,35 Q371,50 387,74.5 Q403,99 411,125 Q419,151 420,179"/> 
            <glyph glyph-name="r" unicode="&#x72;" horiz-adv-x="410" d=" M180,361 L180,90 Q180,59 208,44 Q236,29 264,30 L291,30 L291,0 L20,0 L20,30 Q24,30 31,29.5 Q38,29 55.5,31 Q73,33 86,38.5 Q99,44 110,57 Q121,70 121,90 L121,340 Q121,361 116.5,375 Q112,389 102,396.5 Q92,404 73.5,398 Q55,392 30,370 L20,400 L210,510 L170,380 Q300,510 361,510 Q379,510 394.5,500 Q410,490 410,470 Q410,447 399.5,433.5 Q389,420 370,420 Q362,420 347,425 Q332,430 310,430 Q288,430 266,423 Q244,416 229.5,406 Q215,396 203,385.5 Q191,375 186,368"/> 
            <glyph glyph-name="s" unicode="&#x73;" horiz-adv-x="450" d=" M410,320 Q406,327 399.5,337.5 Q393,348 371,375.5 Q349,403 325.5,424 Q302,445 268,462.5 Q234,480 200,480 Q158,480 134,456 Q110,432 110,400 Q110,359 145,335.5 Q180,312 230,300 Q280,288 330,273.5 Q380,259 415,223.5 Q450,188 450,130 Q450,74 404.5,32 Q359,-10 280,-10 Q244,-10 209,5 Q174,20 157,35 L140,50 L100,-10 L30,190 L50,200 Q54,193 60.5,181.5 Q67,170 90.5,141 Q114,112 139,89.5 Q164,67 202.5,48.5 Q241,30 280,30 Q337,30 364,55 Q391,80 391,121 Q391,162 356,186 Q321,210 270.5,222.5 Q220,235 170,249 Q120,263 85,295.5 Q50,328 50,380 Q50,434 92,472 Q134,510 200,510 Q222,510 243,505 Q264,500 277,493 Q290,486 300.5,478.5 Q311,471 316,466 L320,461 L361,510 L430,330"/> 
            <glyph glyph-name="t" unicode="&#x74;" horiz-adv-x="430" d=" M0,470 L0,500 L30,500 Q160,500 160,731 L190,731 L190,500 L391,500 L391,470 L190,470 L190,170 Q190,106 210,73 Q230,40 280,40 Q314,40 339.5,56.5 Q365,73 378,96.5 Q391,120 398.5,143.5 Q406,167 408,184 L410,200 L430,190 Q425,162 415.5,132.5 Q406,103 387,68.5 Q368,34 335,12 Q302,-10 260,-10 Q200,-10 165,32.5 Q130,75 130,150 L130,470"/> 
            <glyph glyph-name="u" unicode="&#x75;" horiz-adv-x="580" d=" M100,140 L100,410 Q100,441 77.5,456 Q55,471 32,470 L10,470 L10,500 L160,500 L160,170 Q160,50 270,50 Q342,50 381,99 Q420,148 420,221 L420,410 Q420,441 397.5,456 Q375,471 352,470 L330,470 L330,500 L480,500 L480,90 Q480,59 505,51.5 Q530,44 555,52 L580,60 L580,30 L410,-10 L430,150 Q357,-10 240,-10 Q169,-10 134.5,32.5 Q100,75 100,140"/> 
            <glyph glyph-name="v" unicode="&#x76;" horiz-adv-x="520" d=" M250,0 L80,420 Q69,447 46.5,459.5 Q24,472 7,471 L-10,470 L-10,500 L230,500 L230,470 Q228,470 224,470.5 Q220,471 209,471 Q198,471 189.5,469.5 Q181,468 169.5,464.5 Q158,461 153.5,454 Q149,447 145.5,436.5 Q142,426 150,410 L270,104 L380,400 Q386,416 386.5,428.5 Q387,441 381,448 Q375,455 367.5,460 Q360,465 345.5,467 Q331,469 320,469.5 Q309,470 291,470 L291,500 L520,500 L520,470 Q471,470 449.5,458 Q428,446 410,400"/> 
            <glyph glyph-name="w" unicode="&#x77;" horiz-adv-x="720" d=" M334,408 L330,420 Q320,447 300,459.5 Q280,472 265,471 L250,470 L250,500 L490,500 L490,470 Q488,470 484,470.5 Q480,471 467.5,471.5 Q455,472 446,470 Q437,468 424.5,465 Q412,462 406.5,455 Q401,448 396.5,437 Q392,426 400,410 L501,116 L590,400 Q595,417 595.5,429 Q596,441 591.5,448.5 Q587,456 581.5,460.5 Q576,465 564.5,467 Q553,469 544,469.5 Q535,470 520,470 L520,500 L720,500 L720,470 Q691,470 676,467 Q661,464 646,448 Q631,432 620,400 L480,0 L349,366 L221,0 L70,420 Q61,448 38.5,460.5 Q16,473 -2,472 L-20,470 L-20,500 L221,500 L221,470 Q219,470 215.5,470.5 Q212,471 200.5,471.5 Q189,472 181,470 Q173,468 161,465 Q149,462 144.5,455 Q140,448 136.5,437 Q133,426 140,410 L241,115"/> 
            <glyph glyph-name="x" unicode="&#x78;" horiz-adv-x="580" d=" M295,221 L204,100 Q185,74 181,59 Q177,44 191,38 Q205,32 217.5,31 Q230,30 260,30 L260,0 L30,0 L30,30 Q59,30 71,31 Q83,32 101.5,38.5 Q120,45 135,59.5 Q150,74 170,100 L278,244 L150,420 Q130,448 102.5,460.5 Q75,473 58,472 L40,470 L40,500 L291,500 L291,470 Q289,470 285,470.5 Q281,471 270,471 Q259,471 250,470 Q241,469 231.5,465 Q222,461 218,454.5 Q214,448 216.5,436.5 Q219,425 230,410 L315,293 L395,400 Q408,417 413.5,429.5 Q419,442 416.5,449.5 Q414,457 410,461.5 Q406,466 392,467.5 Q378,469 369,469.5 Q360,470 340,470 L340,500 L570,500 L570,470 Q518,470 492,459 Q466,448 430,400 L332,270 L470,80 Q490,52 517.5,39.5 Q545,27 562,28 L580,30 L580,0 L330,0 L330,30 Q332,30 336,29.5 Q340,29 351,29 Q362,29 371,30 Q380,31 389,35 Q398,39 402,45.5 Q406,52 404,63.5 Q402,75 391,90"/> 
            <glyph glyph-name="y" unicode="&#x79;" horiz-adv-x="510" d=" M235,41 L80,420 Q69,447 46.5,459.5 Q24,472 7,471 L-10,470 L-10,500 L230,500 L230,470 Q228,470 224.5,470.5 Q221,471 210,471.5 Q199,472 190.5,471 Q182,470 170.5,467.5 Q159,465 154.5,459 Q150,453 146.5,443.5 Q143,434 150,420 L267,127 L370,400 Q376,416 376.5,428 Q377,440 371,447.5 Q365,455 357,459.5 Q349,464 335,466.5 Q321,469 309.5,469.5 Q298,470 280,470 L280,500 L510,500 L510,470 Q461,470 439.5,458.5 Q418,447 400,400 L221,-80 Q195,-149 145,-194.5 Q95,-240 30,-240 Q-60,-240 -60,-190 Q-60,-140 -20,-140 Q5,-140 30,-165 Q55,-190 80,-190 Q116,-190 140.5,-169.5 Q165,-149 190,-80"/> 
            <glyph glyph-name="z" unicode="&#x7A;" horiz-adv-x="470" d=" M461,490 L140,50 Q135,42 133.5,35.5 Q132,29 136,24.5 Q140,20 150,20 L200,20 Q253,20 298.5,34.5 Q344,49 371,69.5 Q398,90 417,110.5 Q436,131 443,146 L450,160 L470,150 L410,-10 L361,0 L40,0 L40,10 L361,450 Q369,461 366.5,470.5 Q364,480 350,480 L300,480 Q258,480 221,465.5 Q184,451 161,430.5 Q138,410 121,389.5 Q104,369 97,354 L90,340 L70,350 L130,510 L180,500 L461,500"/> 
            <glyph glyph-name="À" unicode="&#xC0;" horiz-adv-x="801" d=" M280,0 L0,0 L0,30 Q67,26 89,38 Q111,50 130,100 L380,760 L420,790 L680,80 Q690,51 720.5,38.5 Q751,26 776,28 L801,30 L801,0 L480,0 L480,30 Q482,30 485,29.5 Q488,29 498,28.5 Q508,28 517,28.5 Q526,29 539,30 Q552,31 561,34 Q570,37 581,41 Q592,45 596,52 Q600,59 603.5,68 Q607,77 601,90 L534,280 L235,280 L170,100 Q153,53 179.5,39.5 Q206,26 280,30 M387,699 L246,310 L524,310 M305,1011 L325,1030 L495,841 L476,820"/> 
            <glyph glyph-name="È" unicode="&#xC8;" horiz-adv-x="680" d=" M232,90 Q232,76 239.5,65 Q247,54 262.5,47.5 Q278,41 292.5,37.5 Q307,34 330.5,32.5 Q354,31 366.5,30.5 Q379,30 400,30 L461,30 Q503,30 539,46.5 Q575,63 596.5,86.5 Q618,110 633.5,133.5 Q649,157 655,174 L661,190 L680,180 L631,0 L20,0 L20,30 Q26,30 36,29.5 Q46,29 71.5,31.5 Q97,34 116.5,39 Q136,44 152,57.5 Q168,71 168,90 L168,690 Q168,721 131,736 Q94,751 57,750 L20,750 L20,780 L601,780 L650,601 L631,590 Q629,597 624.5,607.5 Q620,618 603,645.5 Q586,673 565.5,694 Q545,715 508.5,732.5 Q472,750 430,750 L232,750 L232,410 L410,410 Q454,410 479,445 Q504,480 507,515 L510,550 L531,550 L531,221 L510,221 Q510,227 509.5,238 Q509,249 503.5,276.5 Q498,304 488.5,325 Q479,346 458.5,363 Q438,380 410,380 L232,380 M255,1011 L275,1030 L445,841 L426,820"/> 
            <glyph glyph-name="É" unicode="&#xC9;" horiz-adv-x="680" d=" M232,90 Q232,76 239.5,65 Q247,54 262.5,47.5 Q278,41 292.5,37.5 Q307,34 330.5,32.5 Q354,31 366.5,30.5 Q379,30 400,30 L461,30 Q503,30 539,46.5 Q575,63 596.5,86.5 Q618,110 633.5,133.5 Q649,157 655,174 L661,190 L680,180 L631,0 L20,0 L20,30 Q26,30 36,29.5 Q46,29 71.5,31.5 Q97,34 116.5,39 Q136,44 152,57.5 Q168,71 168,90 L168,690 Q168,721 131,736 Q94,751 57,750 L20,750 L20,780 L601,780 L650,601 L631,590 Q629,597 624.5,607.5 Q620,618 603,645.5 Q586,673 565.5,694 Q545,715 508.5,732.5 Q472,750 430,750 L232,750 L232,410 L410,410 Q454,410 479,445 Q504,480 507,515 L510,550 L531,550 L531,221 L510,221 Q510,227 509.5,238 Q509,249 503.5,276.5 Q498,304 488.5,325 Q479,346 458.5,363 Q438,380 410,380 L232,380 M426,1030 L445,1011 L275,820 L255,841"/> 
            <glyph glyph-name="Ò" unicode="&#xD2;" horiz-adv-x="760" d=" M40,391 Q40,563 141.5,676.5 Q243,790 400,790 Q557,790 658.5,676.5 Q760,563 760,391 Q760,217 658.5,103.5 Q557,-10 400,-10 Q243,-10 141.5,103.5 Q40,217 40,391 M124,391 Q124,228 195.5,124 Q267,20 391,20 Q524,20 600,121.5 Q676,223 676,391 Q676,553 605,656.5 Q534,760 410,760 Q278,760 201,656.5 Q124,553 124,391 M305,1011 L325,1030 L495,841 L476,820"/> 
            <glyph glyph-name="Ù" unicode="&#xD9;" horiz-adv-x="790" d=" M629,690 L629,230 Q629,188 621.5,156 Q614,124 593,93.5 Q572,63 528.5,46.5 Q485,30 420,30 Q313,30 268,83 Q223,136 223,240 L223,690 Q223,721 259.5,736 Q296,751 333,750 L370,750 L370,780 L10,780 L10,750 Q16,750 26,750.5 Q36,751 61.5,749 Q87,747 106.5,741.5 Q126,736 142,723 Q158,710 158,690 L158,240 Q158,122 219,56 Q280,-10 410,-10 Q542,-10 602.5,59 Q663,128 663,230 L663,690 Q663,721 694.5,736 Q726,751 758,750 L790,750 L790,780 L500,780 L500,750 Q505,750 514,750.5 Q523,751 545,749 Q567,747 584,741.5 Q601,736 615,723 Q629,710 629,690 M305,1011 L325,1030 L495,841 L476,820"/> 
            <glyph glyph-name="à" unicode="&#xE0;" horiz-adv-x="601" d=" M280,480 Q230,480 204,465.5 Q178,451 172.5,430.5 Q167,410 165,389.5 Q163,369 151,354.5 Q139,340 110,340 Q95,340 82.5,350 Q70,360 70,380 Q70,425 132.5,467.5 Q195,510 280,510 Q364,510 422,473.5 Q480,437 480,361 L480,100 Q480,40 520,40 Q542,40 557,57.5 Q572,75 576,92 L580,110 L601,100 Q562,-10 500,-10 Q463,-10 441.5,17.5 Q420,45 420,90 L430,179 Q427,168 422.5,153.5 Q418,139 400.5,107.5 Q383,76 360,52 Q337,28 294.5,9 Q252,-10 200,-10 Q135,-10 87.5,23.5 Q40,57 40,121 Q40,175 68,208.5 Q96,242 138.5,254 Q181,266 230,274.5 Q279,283 321.5,287.5 Q364,292 392,310.5 Q420,329 420,361 Q420,408 382,444 Q344,480 280,480 M420,260 L420,291 Q391,273 347,265.5 Q303,258 266.5,255.5 Q230,253 195.5,244.5 Q161,236 141,208.5 Q121,181 121,130 Q121,73 151,46.5 Q181,20 230,20 Q279,20 318,47 Q357,74 378,114 Q399,154 409.5,192 Q420,230 420,260 M205,771 L225,790 L395,601 L376,580"/> 
            <glyph glyph-name="è" unicode="&#xE8;" horiz-adv-x="470" d=" M461,280 L122,280 Q121,270 121,250 Q121,154 168,97 Q215,40 291,40 Q333,40 364.5,55.5 Q396,71 411.5,93 Q427,115 436.5,137 Q446,159 448,174 L450,190 L470,180 Q469,172 466,159.5 Q463,147 448.5,114 Q434,81 414,56 Q394,31 356,10.5 Q318,-10 270,-10 Q172,-10 106,64 Q40,138 40,250 Q40,363 101.5,436.5 Q163,510 260,510 Q365,510 413,445 Q461,380 461,280 M270,480 Q208,480 171,435.5 Q134,391 124,310 L380,310 Q380,480 270,480 M155,771 L175,790 L345,601 L326,580"/> 
            <glyph glyph-name="é" unicode="&#xE9;" horiz-adv-x="470" d=" M461,280 L122,280 Q121,270 121,250 Q121,154 168,97 Q215,40 291,40 Q333,40 364.5,55.5 Q396,71 411.5,93 Q427,115 436.5,137 Q446,159 448,174 L450,190 L470,180 Q469,172 466,159.5 Q463,147 448.5,114 Q434,81 414,56 Q394,31 356,10.5 Q318,-10 270,-10 Q172,-10 106,64 Q40,138 40,250 Q40,363 101.5,436.5 Q163,510 260,510 Q365,510 413,445 Q461,380 461,280 M270,480 Q208,480 171,435.5 Q134,391 124,310 L380,310 Q380,480 270,480 M326,790 L345,771 L175,580 L155,601"/> 
            <glyph glyph-name="ò" unicode="&#xF2;" horiz-adv-x="561" d=" M40,138 Q40,362 114,436 Q188,510 300,510 Q413,510 487,436 Q561,362 561,250 Q561,138 487,64 Q413,-10 300,-10 Q188,-10 40,138 M121,250 Q121,149 165.5,84.5 Q210,20 291,20 Q380,20 430,82 Q480,144 480,250 Q480,351 435,415.5 Q390,480 310,480 Q221,480 171,418.5 Q121,357 121,250 M205,771 L225,790 L395,601 L376,580"/> 
            <glyph glyph-name="ù" unicode="&#xF9;" horiz-adv-x="580" d=" M100,140 L100,410 Q100,441 77.5,456 Q55,471 32,470 L10,470 L10,500 L160,500 L160,170 Q160,50 270,50 Q342,50 381,99 Q420,148 420,221 L420,410 Q420,441 397.5,456 Q375,471 352,470 L330,470 L330,500 L480,500 L480,90 Q480,59 505,51.5 Q530,44 555,52 L580,60 L580,30 L410,-10 L430,150 Q357,-10 240,-10 Q169,-10 134.5,32.5 Q100,75 100,140 M205,771 L225,790 L395,601 L376,580"/> 
            <glyph glyph-name="‘" unicode="&#x2018;" horiz-adv-x="222" d=" M207,571 Q207,544 189,528 Q171,512 148,512 Q124,512 106.5,527.5 Q89,543 89,571 Q89,591 99,606 L202,778 L222,768 L128,612 Q142,626 163,626 Q180,626 193.5,611 Q207,596 207,571"/> 
            <glyph glyph-name="’" unicode="&#x2019;" horiz-adv-x="207" d=" M89,720 Q89,748 106.5,763 Q124,778 148,778 Q172,778 189.5,763 Q207,748 207,720 Q207,699 197,686 L94,512 L74,523 L166,679 Q160,666 133,666 Q116,666 102.5,680.5 Q89,695 89,720"/> 
            <glyph glyph-name="	" unicode="&#x9;" horiz-adv-x="693" d=" M394,305 L380,330 L680,480 L693,455 L528,373 Q577,360 613.5,316.5 Q650,273 650,210 Q650,119 576,54.5 Q502,-10 361,-10 Q214,-10 127,55 Q40,120 40,221 Q40,269 63,305 Q86,341 115.5,358.5 Q145,376 181,387 Q217,398 235,400 Q253,402 260,402 Q265,402 267,404 Q269,406 267,408.5 Q265,411 260,412 Q210,425 190,433 Q71,487 70,601 Q70,679 135.5,734.5 Q201,790 309,790 Q358,790 400.5,777.5 Q443,765 461,752 L479,740 L519,790 L579,580 L560,570 Q546,604 530,630.5 Q514,657 485,690 Q456,723 411,741.5 Q366,760 310,760 Q232,760 191,711.5 Q150,663 150,590 Q150,544 169.5,509.5 Q189,475 221.5,456.5 Q254,438 289,429 Q324,420 361,420 L380,420 L380,391 L361,391 Q296,391 244.5,376.5 Q193,362 157,324.5 Q121,287 121,230 Q121,151 194.5,95.5 Q268,40 391,40 Q498,40 559,89.5 Q620,139 620,210 Q620,291 569.5,329.5 Q519,368 483,350"/> 
            <glyph glyph-name="" unicode="&#xD;" horiz-adv-x="693" d=" M394,305 L380,330 L680,480 L693,455 L528,373 Q577,360 613.5,316.5 Q650,273 650,210 Q650,119 576,54.5 Q502,-10 361,-10 Q214,-10 127,55 Q40,120 40,221 Q40,269 63,305 Q86,341 115.5,358.5 Q145,376 181,387 Q217,398 235,400 Q253,402 260,402 Q265,402 267,404 Q269,406 267,408.5 Q265,411 260,412 Q210,425 190,433 Q71,487 70,601 Q70,679 135.5,734.5 Q201,790 309,790 Q358,790 400.5,777.5 Q443,765 461,752 L479,740 L519,790 L579,580 L560,570 Q546,604 530,630.5 Q514,657 485,690 Q456,723 411,741.5 Q366,760 310,760 Q232,760 191,711.5 Q150,663 150,590 Q150,544 169.5,509.5 Q189,475 221.5,456.5 Q254,438 289,429 Q324,420 361,420 L380,420 L380,391 L361,391 Q296,391 244.5,376.5 Q193,362 157,324.5 Q121,287 121,230 Q121,151 194.5,95.5 Q268,40 391,40 Q498,40 559,89.5 Q620,139 620,210 Q620,291 569.5,329.5 Q519,368 483,350"/> 
            <glyph glyph-name="&amp;" unicode="&#x26;" horiz-adv-x="490" d=" M480,790 L490,771 Q415,771 343.5,740 Q272,709 215.5,654 Q159,599 124.5,517 Q90,435 90,340 Q90,246 124.5,164 Q159,82 215.5,27 Q272,-28 343.5,-59 Q415,-90 490,-90 L480,-110 Q368,-110 268.5,-57 Q169,-4 104.5,101 Q40,206 40,340 Q40,474 104.5,579 Q169,684 268.5,737 Q368,790 480,790"/> 
            <glyph glyph-name="(" unicode="&#x28;" horiz-adv-x="461" d=" M20,-110 L10,-90 Q85,-90 157,-59 Q229,-28 285,27 Q341,82 375.5,164 Q410,246 410,340 Q410,435 375.5,517 Q341,599 285,654 Q229,709 157,740 Q85,771 10,771 L20,790 Q132,790 231.5,737 Q331,684 396,579 Q461,474 461,340 Q461,206 396,101 Q331,-4 231.5,-57 Q132,-110 20,-110"/> 
            <glyph glyph-name=")" unicode="&#x29;" horiz-adv-x="210" d=" M90,50 Q90,78 108,94 Q126,110 150,110 Q174,110 192,94 Q210,78 210,50 Q210,30 200,15 L95,-160 L75,-150 L168,8 Q160,-4 135,-4 Q118,-4 104,10.5 Q90,25 90,50"/> 
            <glyph glyph-name="," unicode="&#x2C;" horiz-adv-x="361" d=" M40,300 L40,330 L361,330 L361,300"/> 
            <glyph glyph-name="-" unicode="&#x2D;" horiz-adv-x="210" d=" M90,22 Q90,78 108,94 Q126,110 150,110 Q174,110 192,94 Q210,78 210,50 Q210,22 192,6 Q174,-10 150,-10 Q126,-10 90,22"/> 
            <glyph glyph-name="." unicode="&#x2E;" horiz-adv-x="561" d=" M40,391 Q40,569 108,679.5 Q176,790 300,790 Q424,790 492.5,679 Q561,568 561,391 Q561,212 492.5,101 Q424,-10 300,-10 Q176,-10 108,101 Q40,212 40,391 M121,391 Q121,20 291,20 Q480,20 480,391 Q480,760 310,760 Q121,760 121,391"/> 
            <glyph glyph-name="0" unicode="&#x30;" horiz-adv-x="480" d=" M60,590 L50,620 L280,780 L280,90 Q280,59 330,44 Q380,29 430,30 L480,30 L480,0 L20,0 L20,30 Q24,30 31.5,29.5 Q39,29 59.5,29.5 Q80,30 99,31.5 Q118,33 141.5,37 Q165,41 181.5,47.5 Q198,54 209.5,65 Q221,76 221,90 L221,590 Q221,641 197.5,649.5 Q174,658 130,631"/> 
            <glyph glyph-name="1" unicode="&#x31;" horiz-adv-x="550" d=" M270,790 Q395,790 463,730 Q531,670 531,569 Q531,502 499.5,443.5 Q468,385 415,340 Q362,295 307.5,257 Q253,219 193,174.5 Q133,130 100,90 Q85,74 86.5,62 Q88,50 110,50 L270,50 Q323,50 370,68.5 Q417,87 445,113.5 Q473,140 493.5,166.5 Q514,193 522,212 L531,230 L550,221 L490,-10 L440,0 L10,0 Q15,37 49.5,80.5 Q84,124 133,163.5 Q182,203 237.5,252 Q293,301 340.5,347.5 Q388,394 419,453 Q450,512 450,570 Q450,760 260,760 Q110,760 110,631 Q110,605 107.5,588 Q105,571 93.5,555.5 Q82,540 60,540 Q45,540 32.5,550 Q20,560 20,580 Q20,603 36,636.5 Q52,670 80.5,705.5 Q109,741 159.5,765.5 Q210,790 270,790"/> 
            <glyph glyph-name="2" unicode="&#x32;" horiz-adv-x="561" d=" M561,200 Q561,108 490,49 Q419,-10 300,-10 Q233,-10 180,13 Q127,36 98,72 Q69,108 54.5,146 Q40,184 40,221 L60,230 Q61,222 63.5,209.5 Q66,197 81,164 Q96,131 118.5,106 Q141,81 186.5,60.5 Q232,40 291,40 Q374,40 427,83 Q480,126 480,200 Q480,247 466.5,281.5 Q453,316 431,336.5 Q409,357 376.5,369.5 Q344,382 312,386.5 Q280,391 240,391 L180,391 L180,420 L240,420 Q337,420 388.5,459 Q440,498 440,590 Q440,664 404,712 Q368,760 291,760 Q220,760 190,728.5 Q160,697 160,640 Q160,622 158.5,609 Q157,596 152.5,581 Q148,566 137.5,558 Q127,550 110,550 Q95,550 82.5,560 Q70,570 70,590 Q70,613 84,645 Q98,677 124.5,710.5 Q151,744 197.5,767 Q244,790 300,790 Q407,790 463.5,735.5 Q520,681 520,601 Q520,557 502,521.5 Q484,486 461,467 Q438,448 409,434.5 Q380,421 365,417.5 Q350,414 341,412 L340,412 Q335,411 333,408.5 Q331,406 333,404 Q335,402 340,402 Q345,402 354,401.5 Q363,401 386,397 Q409,393 430,386 Q451,379 476,363.5 Q501,348 519,327.5 Q537,307 549,274 Q561,241 561,200"/> 
            <glyph glyph-name="3" unicode="&#x33;" horiz-adv-x="601" d=" M30,210 L30,250 L391,790 L391,254 L601,260 L601,210 L391,210 L391,90 Q391,59 428,44 Q465,29 502,30 L540,30 L540,0 L180,0 L180,30 Q186,30 196,29.5 Q206,29 232,31 Q258,33 278,38.5 Q298,44 314,57 Q330,70 330,90 L330,210 M310,620 L63,250 Q176,250 330,252 L330,620 Q330,629 326.5,631.5 Q323,634 318.5,630.5 Q314,627 310,620"/> 
            <glyph glyph-name="4" unicode="&#x34;" horiz-adv-x="561" d=" M110,690 L110,430 Q112,433 116,437.5 Q120,442 136,454 Q152,466 171,475.5 Q190,485 222,492.5 Q254,500 291,500 Q338,500 384,484 Q430,468 470.5,438 Q511,408 536,356 Q561,304 561,240 Q561,136 490,63 Q419,-10 291,-10 Q227,-10 176,13 Q125,36 97,72 Q69,108 54.5,146.5 Q40,185 40,221 L60,230 Q60,226 61.5,219 Q63,212 69,192.5 Q75,173 83.5,155 Q92,137 109.5,115 Q127,93 149,77.5 Q171,62 205,51 Q239,40 280,40 Q380,40 430,96 Q480,152 480,240 Q480,340 429,405 Q378,470 291,470 Q249,470 214.5,459.5 Q180,449 161.5,434.5 Q143,420 130.5,405.5 Q118,391 114,380 L110,370 L80,370 L80,780 L420,780 L470,790 L531,631 L510,620 Q508,625 503,632 Q498,639 479.5,658.5 Q461,678 439,692.5 Q417,707 379.5,719 Q342,731 300,731 L180,731 Q154,731 132,720.5 Q110,710 110,690"/> 
            <glyph glyph-name="5" unicode="&#x35;" horiz-adv-x="550" d=" M320,760 Q220,760 170.5,659 Q121,558 121,391 L121,363 Q174,510 320,510 Q420,510 485,439 Q550,368 550,250 Q550,140 481,65 Q412,-10 320,-10 Q194,-10 117,103 Q40,216 40,391 Q40,569 116,679.5 Q192,790 330,790 Q426,790 488,731 Q550,672 550,590 Q550,570 538,560 Q526,550 510,550 Q494,550 483.5,558 Q473,566 468.5,581 Q464,596 462.5,609 Q461,622 461,640 Q461,690 425.5,725 Q390,760 320,760 M300,480 Q247,480 210,452 Q173,424 157.5,381 Q142,338 136.5,309.5 Q131,281 130,257 Q146,147 191.5,83.5 Q237,20 310,20 Q385,20 427.5,82 Q470,144 470,250 Q470,348 422,414 Q374,480 300,480"/> 
            <glyph glyph-name="6" unicode="&#x36;" horiz-adv-x="570" d=" M570,780 Q564,774 554.5,763 Q545,752 517,714 Q489,676 463.5,633.5 Q438,591 407,524.5 Q376,458 353.5,388 Q331,318 315.5,226 Q300,134 300,40 Q300,21 288.5,5.5 Q277,-10 250,-10 Q210,-10 210,60 Q210,139 273,290 Q336,441 398.5,565 Q461,689 461,701 Q461,731 420,731 L270,731 Q228,731 191,719.5 Q154,708 131,692 Q108,676 91,659.5 Q74,643 67,632 L60,620 L40,631 L100,790 L150,780"/> 
            <glyph glyph-name="7" unicode="&#x37;" horiz-adv-x="561" d=" M60,601 Q60,688 125,739 Q190,790 291,790 Q393,790 456.5,742 Q520,694 520,601 Q520,540 480,489.5 Q440,439 374,420 Q417,404 445.5,389 Q474,374 503,351 Q532,328 546.5,295.5 Q561,263 561,221 Q561,118 484.5,54 Q408,-10 300,-10 Q194,-10 117,47 Q40,104 40,210 Q40,274 88.5,329 Q137,384 210,407 Q139,439 99.5,483 Q60,527 60,601 M90,200 Q90,109 149.5,64.5 Q209,20 300,20 Q337,20 370,28.5 Q403,37 433.5,55.5 Q464,74 482,109 Q500,144 500,190 Q500,222 487.5,248 Q475,274 459,291 Q443,308 411.5,325 Q380,342 358,350.5 Q336,359 294.5,374.5 Q253,390 233,398 Q171,376 130.5,324 Q90,272 90,200 M470,601 Q470,679 420,719.5 Q370,760 291,760 Q217,760 169,725.5 Q121,691 121,620 Q121,580 136,550.5 Q151,521 189.5,498 Q228,475 251,465 Q274,455 332,435 Q345,430 351,428 Q406,444 438,488 Q470,532 470,601"/> 
            <glyph glyph-name="8" unicode="&#x38;" horiz-adv-x="561" d=" M280,-10 Q241,-10 208.5,1 Q176,12 155,29.5 Q134,47 117.5,68.5 Q101,90 92.5,111.5 Q84,133 78.5,150.5 Q73,168 72,179 L70,190 L90,200 Q91,193 93,182.5 Q95,172 107.5,144.5 Q120,117 137.5,96 Q155,75 190,57.5 Q225,40 270,40 Q480,40 480,391 Q480,410 479,420 Q426,270 280,270 Q180,270 115,341.5 Q50,413 50,531 Q50,640 119,715 Q188,790 280,790 Q406,790 483.5,677.5 Q561,565 561,391 Q561,216 483.5,103 Q406,-10 280,-10 M300,300 Q347,300 381.5,323.5 Q416,347 432,377 Q448,407 457.5,445 Q467,483 468.5,500.5 Q470,518 470,529 Q453,637 407.5,698.5 Q362,760 291,760 Q216,760 173,698 Q130,636 130,531 Q130,432 178,366 Q226,300 300,300"/> 
            <glyph glyph-name="9" unicode="&#x39;" horiz-adv-x="207" d=" M89,21 Q89,77 106.5,92.5 Q124,108 148,108 Q172,108 189.5,92.5 Q207,77 207,49 Q207,21 189.5,5.5 Q172,-10 148,-10 Q124,-10 89,21 M89,415 Q89,471 106.5,486.5 Q124,502 148,502 Q172,502 189.5,486.5 Q207,471 207,443 Q207,415 189.5,400 Q172,385 148,385 Q124,385 89,415"/> 
            <glyph glyph-name=":" unicode="&#x3A;" horiz-adv-x="801" d=" M280,0 L0,0 L0,30 Q67,26 89,38 Q111,50 130,100 L380,760 L420,790 L680,80 Q690,51 720.5,38.5 Q751,26 776,28 L801,30 L801,0 L480,0 L480,30 Q482,30 485,29.5 Q488,29 498,28.5 Q508,28 517,28.5 Q526,29 539,30 Q552,31 561,34 Q570,37 581,41 Q592,45 596,52 Q600,59 603.5,68 Q607,77 601,90 L534,280 L235,280 L170,100 Q153,53 179.5,39.5 Q206,26 280,30 M387,699 L246,310 L524,310"/> 
            <glyph glyph-name="A" unicode="&#x41;" horiz-adv-x="670" d=" M650,590 Q650,526 599,480 Q548,434 465,414 Q562,391 616,340 Q670,289 670,210 Q670,104 588,52 Q506,0 376,0 L20,0 L20,30 Q26,30 36,29.5 Q46,29 71.5,31 Q97,33 116.5,38.5 Q136,44 152,57 Q168,70 168,90 L168,690 Q168,721 131,736 Q94,751 57,750 L20,750 L20,780 L336,780 Q484,780 567,732.5 Q650,685 650,590 M306,400 L232,400 L232,90 Q232,35 309,30 L346,30 Q586,30 586,210 Q586,318 518,359 Q450,400 306,400 M232,750 L232,430 L336,430 Q448,430 507.5,467 Q567,504 567,590 Q567,670 502,710 Q437,750 327,750"/> 
            <glyph glyph-name="B" unicode="&#x42;" horiz-adv-x="690" d=" M380,790 Q433,790 478.5,777.5 Q524,765 542,752 L561,740 L601,790 L661,580 L640,570 Q625,605 609.5,631 Q594,657 565,690 Q536,723 491.5,741.5 Q447,760 391,760 Q267,760 195.5,656.5 Q124,553 124,391 Q124,233 197,136.5 Q270,40 391,40 Q440,40 482,52.5 Q524,65 551.5,85.5 Q579,106 601.5,130.5 Q624,155 636,179.5 Q648,204 656.5,224.5 Q665,245 668,258 L670,270 L690,260 Q689,254 686.5,244.5 Q684,235 674,207 Q664,179 650,153.5 Q636,128 611,97 Q586,66 555.5,43.5 Q525,21 479,5.5 Q433,-10 380,-10 Q231,-10 135.5,103.5 Q40,217 40,391 Q40,564 135.5,677 Q231,790 380,790"/> 
            <glyph glyph-name="C" unicode="&#x43;" horiz-adv-x="760" d=" M391,780 Q561,780 660.5,672.5 Q760,565 760,391 Q760,217 656,108.5 Q552,0 380,0 L20,0 L20,30 Q26,30 36,29.5 Q46,29 71.5,31.5 Q97,34 116.5,39 Q136,44 152,57.5 Q168,71 168,90 L168,690 Q168,721 131,736 Q94,751 57,750 L20,750 L20,780 M350,750 L232,750 L232,90 Q232,76 237.5,65 Q243,54 255,47.5 Q267,41 278,37.5 Q289,34 308,32.5 Q327,31 338.5,30.5 Q350,30 370,30 Q518,30 597,126 Q676,222 676,391 Q676,750 350,750"/> 
            <glyph glyph-name="D" unicode="&#x44;" horiz-adv-x="680" d=" M232,90 Q232,76 239.5,65 Q247,54 262.5,47.5 Q278,41 292.5,37.5 Q307,34 330.5,32.5 Q354,31 366.5,30.5 Q379,30 400,30 L461,30 Q503,30 539,46.5 Q575,63 596.5,86.5 Q618,110 633.5,133.5 Q649,157 655,174 L661,190 L680,180 L631,0 L20,0 L20,30 Q26,30 36,29.5 Q46,29 71.5,31.5 Q97,34 116.5,39 Q136,44 152,57.5 Q168,71 168,90 L168,690 Q168,721 131,736 Q94,751 57,750 L20,750 L20,780 L601,780 L650,601 L631,590 Q629,597 624.5,607.5 Q620,618 603,645.5 Q586,673 565.5,694 Q545,715 508.5,732.5 Q472,750 430,750 L232,750 L232,410 L410,410 Q454,410 479,445 Q504,480 507,515 L510,550 L531,550 L531,221 L510,221 Q510,227 509.5,238 Q509,249 503.5,276.5 Q498,304 488.5,325 Q479,346 458.5,363 Q438,380 410,380 L232,380"/> 
            <glyph glyph-name="E" unicode="&#x45;" horiz-adv-x="690" d=" M410,380 L232,380 L232,90 Q232,59 269,44 Q306,29 343,30 L380,30 L380,0 L20,0 L20,30 Q26,30 36,29.5 Q46,29 71.5,31 Q97,33 116.5,38.5 Q136,44 152,57 Q168,70 168,90 L168,690 Q168,721 131,736 Q94,751 57,750 L20,750 L20,780 L640,780 L690,601 L670,590 Q668,597 663.5,607.5 Q659,618 642.5,645.5 Q626,673 605.5,694 Q585,715 548.5,732.5 Q512,750 470,750 L232,750 L232,410 L410,410 Q454,410 479,445 Q504,480 507,515 L510,550 L531,550 L531,221 L510,221 Q510,227 509.5,238 Q509,249 503.5,276.5 Q498,304 488.5,325 Q479,346 458.5,363 Q438,380 410,380"/> 
            <glyph glyph-name="F" unicode="&#x46;" horiz-adv-x="670" d=" M670,0 L650,-10 L625,130 Q549,-10 391,-10 Q234,-10 137,103 Q40,216 40,391 Q40,564 135.5,677 Q231,790 380,790 Q433,790 478.5,777.5 Q524,765 542,752 L561,740 L601,790 L661,580 L640,570 Q625,605 609.5,631 Q594,657 565,690 Q536,723 491.5,741.5 Q447,760 391,760 Q267,760 195.5,656.5 Q124,553 124,391 Q124,230 199.5,125 Q275,20 400,20 Q464,20 509.5,46 Q555,72 578,116 Q601,160 610.5,205 Q620,250 620,300 L620,340 L260,340 L260,370 L670,370"/> 
            <glyph glyph-name="G" unicode="&#x47;" horiz-adv-x="880" d=" M669,90 L669,380 L232,380 L232,90 Q232,59 272,44 Q312,29 352,30 L391,30 L391,0 L20,0 L20,30 Q26,30 36,29.5 Q46,29 71.5,31 Q97,33 116.5,38.5 Q136,44 152,57 Q168,70 168,90 L168,690 Q168,721 131,736 Q94,751 57,750 L20,750 L20,780 L391,780 L391,750 Q385,750 374,750.5 Q363,751 335.5,749 Q308,747 287,741.5 Q266,736 249,723 Q232,710 232,690 L232,410 L669,410 L669,690 Q669,721 629.5,736 Q590,751 550,750 L510,750 L510,780 L880,780 L880,750 Q874,750 864,750.5 Q854,751 829,749 Q804,747 784.5,741.5 Q765,736 749,723 Q733,710 733,690 L733,90 Q733,59 769.5,44 Q806,29 843,30 L880,30 L880,0 L510,0 L510,30 Q516,30 527,29.5 Q538,29 565.5,31 Q593,33 614,38.5 Q635,44 652,57 Q669,70 669,90"/> 
            <glyph glyph-name="H" unicode="&#x48;" horiz-adv-x="380" d=" M168,90 L168,690 Q168,721 131,736 Q94,751 57,750 L20,750 L20,780 L380,780 L380,750 Q374,750 364,750.5 Q354,751 328.5,749 Q303,747 283.5,741.5 Q264,736 248,723 Q232,710 232,690 L232,90 Q232,59 269,44 Q306,29 343,30 L380,30 L380,0 L20,0 L20,30 Q26,30 36,29.5 Q46,29 71.5,31 Q97,33 116.5,38.5 Q136,44 152,57 Q168,70 168,90"/> 
            <glyph glyph-name="I" unicode="&#x49;" horiz-adv-x="500" d=" M160,40 Q289,40 289,230 L289,690 Q289,721 252,736 Q215,751 178,750 L140,750 L140,780 L500,780 L500,750 Q494,750 484,750.5 Q474,751 448.5,749 Q423,747 403.5,741.5 Q384,736 368,723 Q352,710 352,690 L352,240 Q352,170 337,116.5 Q322,63 282,26.5 Q242,-10 180,-10 Q135,-10 102,10.5 Q69,31 54,60.5 Q39,90 30.5,119.5 Q22,149 21,170 L20,190 L40,200 Q40,193 40.5,182.5 Q41,172 47.5,144.5 Q54,117 65.5,96 Q77,75 101.5,57.5 Q126,40 160,40"/> 
            <glyph glyph-name="J" unicode="&#x4A;" horiz-adv-x="801" d=" M590,680 L394,484 L661,80 Q679,53 714,40.5 Q749,28 775,29 L801,30 L801,0 L480,0 L480,30 Q482,30 486.5,29.5 Q491,29 502.5,28.5 Q514,28 524.5,29 Q535,30 548.5,32 Q562,34 570.5,38.5 Q579,43 585,49 Q591,55 590,66 Q589,77 580,90 L350,440 L232,322 L232,90 Q232,59 269,44 Q306,29 343,30 L380,30 L380,0 L20,0 L20,30 Q26,30 36,29.5 Q46,29 71.5,31 Q97,33 116.5,38.5 Q136,44 152,57 Q168,70 168,90 L168,690 Q168,721 131,736 Q94,751 57,750 L20,750 L20,780 L380,780 L380,750 Q374,750 364,750.5 Q354,751 328.5,749 Q303,747 283.5,741.5 Q264,736 248,723 Q232,710 232,690 L232,363 L540,680 Q576,718 561.5,736 Q547,754 480,750 L480,780 L760,780 L760,750 Q697,753 664.5,738 Q632,723 590,680"/> 
            <glyph glyph-name="K" unicode="&#x4B;" horiz-adv-x="690" d=" M380,780 L380,750 Q374,750 364,750.5 Q354,751 328.5,749 Q303,747 283.5,741.5 Q264,736 248,723 Q232,710 232,690 L232,90 Q232,30 420,30 L440,30 Q488,30 529,46.5 Q570,63 595,86.5 Q620,110 638,133.5 Q656,157 663,174 L670,190 L690,180 L640,0 L20,0 L20,30 Q26,30 36,29.5 Q46,29 71.5,31.5 Q97,34 116.5,39 Q136,44 152,57.5 Q168,71 168,90 L168,690 Q168,721 131,736 Q94,751 57,750 L20,750 L20,780"/> 
            <glyph glyph-name="L" unicode="&#x4C;" horiz-adv-x="971" d=" M750,780 L971,780 L971,750 Q965,750 955,750.5 Q945,751 919,749 Q893,747 873.5,741.5 Q854,736 838,723 Q822,710 822,690 L822,90 Q822,59 859,44 Q896,29 934,30 L971,30 L971,0 L610,0 L610,30 Q616,30 626,29.5 Q636,29 661.5,31 Q687,33 706.5,38.5 Q726,44 742,57 Q758,70 758,90 L758,703 L461,-10 L172,705 L172,90 Q172,59 204,44 Q236,29 268,30 L300,30 L300,0 L10,0 L10,30 Q15,30 23.5,29.5 Q32,29 54.5,31 Q77,33 93.5,38.5 Q110,44 124,57 Q138,70 138,90 L138,690 Q138,721 106,736 Q74,751 42,750 L10,750 L10,780 L221,780 L476,116"/> 
            <glyph glyph-name="M" unicode="&#x4D;" horiz-adv-x="801" d=" M638,690 Q638,721 606,736 Q574,751 542,750 L510,750 L510,780 L801,780 L801,750 Q796,750 787,750.5 Q778,751 756,749 Q734,747 717,741.5 Q700,736 686,723 Q672,710 672,690 L672,0 L638,0 L182,707 L182,90 Q182,59 214,44 Q246,29 278,30 L310,30 L310,0 L20,0 L20,30 Q25,30 33.5,29.5 Q42,29 64.5,31 Q87,33 103.5,38.5 Q120,44 134,57 Q148,70 148,90 L148,690 Q148,721 116,736 Q84,751 52,750 L20,750 L20,780 L210,780 L638,119"/> 
            <glyph glyph-name="N" unicode="&#x4E;" horiz-adv-x="760" d=" M40,391 Q40,563 141.5,676.5 Q243,790 400,790 Q557,790 658.5,676.5 Q760,563 760,391 Q760,217 658.5,103.5 Q557,-10 400,-10 Q243,-10 141.5,103.5 Q40,217 40,391 M124,391 Q124,228 195.5,124 Q267,20 391,20 Q524,20 600,121.5 Q676,223 676,391 Q676,553 605,656.5 Q534,760 410,760 Q278,760 201,656.5 Q124,553 124,391"/> 
            <glyph glyph-name="O" unicode="&#x4F;" horiz-adv-x="701" d=" M406,361 L232,361 L232,90 Q232,59 269,44 Q306,29 343,30 L380,30 L380,0 L20,0 L20,30 Q26,30 36,29.5 Q46,29 71.5,31 Q97,33 116.5,38.5 Q136,44 152,57 Q168,70 168,90 L168,690 Q168,721 131,736 Q94,751 57,750 L20,750 L20,780 L386,780 Q701,780 701,570 Q701,464 619,412.5 Q537,361 406,361 M232,750 L232,391 L376,391 Q616,391 616,570 Q616,750 376,750"/> 
            <glyph glyph-name="P" unicode="&#x50;" horiz-adv-x="760" d=" M40,391 Q40,563 141.5,676.5 Q243,790 400,790 Q557,790 658.5,676.5 Q760,563 760,391 Q760,211 652,97 L760,-40 L740,-60 L631,77 Q535,-10 400,-10 Q243,-10 141.5,103.5 Q40,217 40,391 M448,310 L470,331 L615,145 Q676,244 676,391 Q676,553 605,656.5 Q534,760 410,760 Q278,760 201,656.5 Q124,553 124,391 Q124,228 195.5,124 Q267,20 391,20 Q521,20 598,119"/> 
            <glyph glyph-name="Q" unicode="&#x51;" horiz-adv-x="690" d=" M680,0 L661,-10 L336,361 L232,361 L232,90 Q232,59 269,44 Q306,29 343,30 L380,30 L380,0 L20,0 L20,30 Q26,30 36,29.5 Q46,29 71.5,31 Q97,33 116.5,38.5 Q136,44 152,57 Q168,70 168,90 L168,690 Q168,721 131,736 Q94,751 57,750 L20,750 L20,780 L376,780 Q690,780 690,570 Q690,468 614,416.5 Q538,365 416,361 M232,750 L232,391 L366,391 Q606,391 606,570 Q606,750 366,750"/> 
            <glyph glyph-name="R" unicode="&#x52;" horiz-adv-x="561" d=" M300,-10 Q256,-10 216,2.5 Q176,15 158,28 L140,40 L100,-10 L40,200 L60,210 Q124,20 300,20 Q337,20 370,28.5 Q403,37 433.5,55.5 Q464,74 482,109 Q500,144 500,190 Q500,243 475,278.5 Q450,314 410.5,333 Q371,352 323,366 Q275,380 227,395.5 Q179,411 139.5,433 Q100,455 75,497.5 Q50,540 50,601 Q50,684 113,737 Q176,790 280,790 Q320,790 357.5,777.5 Q395,765 412,752 L430,740 L470,790 L531,580 L510,570 Q484,650 426.5,705 Q369,760 280,760 Q206,760 158,723.5 Q110,687 110,610 Q110,564 135,533 Q160,502 199.5,486 Q239,470 287,457.5 Q335,445 383.5,429 Q432,413 471.5,389.5 Q511,366 536,320.5 Q561,275 561,210 Q561,109 485.5,49.5 Q410,-10 300,-10"/> 
            <glyph glyph-name="S" unicode="&#x53;" horiz-adv-x="771" d=" M550,750 L432,750 L432,90 Q432,59 469,44 Q506,29 543,30 L580,30 L580,0 L221,0 L221,30 Q227,30 237,29.5 Q247,29 272,31 Q297,33 316.5,38.5 Q336,44 352,57 Q368,70 368,90 L368,750 L250,750 Q208,750 172,733.5 Q136,717 114.5,693.5 Q93,670 77.5,646.5 Q62,623 56,606 L50,590 L30,601 L80,780 L720,780 L771,601 L750,590 Q748,597 744,607.5 Q740,618 723,645.5 Q706,673 685.5,694 Q665,715 628.5,732.5 Q592,750 550,750"/> 
            <glyph glyph-name="T" unicode="&#x54;" horiz-adv-x="790" d=" M629,230 L629,690 Q629,721 596.5,736 Q564,751 532,750 L500,750 L500,780 L790,780 L790,750 Q785,750 776.5,750.5 Q768,751 746,749 Q724,747 707,741.5 Q690,736 676.5,723 Q663,710 663,690 L663,230 Q663,128 602.5,59 Q542,-10 410,-10 Q280,-10 219,56 Q158,122 158,240 L158,690 Q158,721 121,736 Q84,751 47,750 L10,750 L10,780 L370,780 L370,750 Q364,750 354,750.5 Q344,751 319,749 Q294,747 274.5,741.5 Q255,736 239,723 Q223,710 223,690 L223,240 Q223,136 268,83 Q313,30 420,30 Q485,30 528.5,46.5 Q572,63 593,93.5 Q614,124 621.5,156 Q629,188 629,230"/> 
            <glyph glyph-name="U" unicode="&#x55;" horiz-adv-x="780" d=" M500,780 L780,780 L780,750 Q713,754 690.5,742 Q668,730 650,680 L400,-10 L150,690 Q139,721 106.5,736 Q74,751 47,750 L20,750 L20,780 L340,780 L340,750 Q338,750 335,750.5 Q332,751 322,751.5 Q312,752 303,751.5 Q294,751 281,750 Q268,749 259.5,746 Q251,743 240,739 Q229,735 225,728 Q221,721 218,712 Q215,703 221,690 L417,128 L610,680 Q627,727 600.5,740.5 Q574,754 500,750"/> 
            <glyph glyph-name="V" unicode="&#x56;" horiz-adv-x="1011" d=" M731,780 L1011,780 L1011,750 Q942,754 918.5,742 Q895,730 880,680 L680,-10 L502,591 L310,-10 L100,701 Q92,730 62,742.5 Q32,755 6,752 L-20,750 L-20,780 L300,780 L300,750 Q297,750 291.5,750.5 Q286,751 270.5,751.5 Q255,752 241.5,751 Q228,750 212,746 Q196,742 186,735.5 Q176,729 171,717.5 Q166,706 170,690 L327,136 L483,657 L470,701 Q462,730 432,742.5 Q402,755 376,752 L350,750 L350,780 L670,780 L670,750 Q667,750 661.5,750.5 Q656,751 641,751.5 Q626,752 612,751 Q598,750 582.5,746 Q567,742 556.5,735.5 Q546,729 541,717.5 Q536,706 540,690 L694,133 L841,680 Q853,729 828.5,741.5 Q804,754 731,750"/> 
            <glyph glyph-name="W" unicode="&#x57;" horiz-adv-x="780" d=" M250,690 L403,450 L561,680 Q587,723 564,738.5 Q541,754 470,750 L470,780 L750,780 L750,750 Q705,753 679.5,746.5 Q654,740 638,726 Q622,712 601,680 L422,420 L640,80 Q658,53 693,40.5 Q728,28 754,29 L780,30 L780,0 L461,0 L461,30 Q463,30 467.5,29.5 Q472,29 483.5,29 Q495,29 505.5,29.5 Q516,30 529,32 Q542,34 551,38.5 Q560,43 566,49.5 Q572,56 571,66.5 Q570,77 561,90 L385,365 L210,110 Q182,67 206.5,46.5 Q231,26 300,30 L300,0 L20,0 L20,30 Q73,26 104.5,42.5 Q136,59 170,110 L365,395 L170,701 Q152,728 119.5,740.5 Q87,753 64,752 L40,750 L40,780 L361,780 L361,750 Q358,750 354,750.5 Q350,751 337,751.5 Q324,752 312.5,751 Q301,750 287,748 Q273,746 263,741.5 Q253,737 246,731 Q239,725 240,714 Q241,703 250,690"/> 
            <glyph glyph-name="X" unicode="&#x58;" horiz-adv-x="790" d=" M230,690 L430,340 L610,680 Q634,724 608.5,739 Q583,754 510,750 L510,780 L790,780 L790,750 Q725,754 700.5,741 Q676,728 650,680 L442,300 L442,90 Q442,59 479,44 Q516,29 553,30 L590,30 L590,0 L230,0 L230,30 Q236,30 246,29.5 Q256,29 281.5,31 Q307,33 326.5,38.5 Q346,44 362,57 Q378,70 378,90 L378,300 L150,701 Q134,729 101.5,741.5 Q69,754 44,752 L20,750 L20,780 L340,780 L340,750 Q338,750 333.5,750.5 Q329,751 316.5,752 Q304,753 293,752 Q282,751 268,750 Q254,749 244.5,744.5 Q235,740 228,733.5 Q221,727 221.5,715.5 Q222,704 230,690"/> 
            <glyph glyph-name="Y" unicode="&#x59;" horiz-adv-x="590" d=" M496,750 L270,750 Q228,750 192,733.5 Q156,717 134.5,693.5 Q113,670 97.5,646.5 Q82,623 76,606 L70,590 L50,601 L100,780 L590,780 L105,30 L370,30 Q412,30 448,46.5 Q484,63 505.5,86.5 Q527,110 542.5,133.5 Q558,157 564,174 L570,190 L590,180 L540,0 L10,0"/> 
            <glyph glyph-name="Z" unicode="&#x5A;" horiz-adv-x="601" d=" M280,480 Q230,480 204,465.5 Q178,451 172.5,430.5 Q167,410 165,389.5 Q163,369 151,354.5 Q139,340 110,340 Q95,340 82.5,350 Q70,360 70,380 Q70,425 132.5,467.5 Q195,510 280,510 Q364,510 422,473.5 Q480,437 480,361 L480,100 Q480,40 520,40 Q542,40 557,57.5 Q572,75 576,92 L580,110 L601,100 Q562,-10 500,-10 Q463,-10 441.5,17.5 Q420,45 420,90 L430,179 Q427,168 422.5,153.5 Q418,139 400.5,107.5 Q383,76 360,52 Q337,28 294.5,9 Q252,-10 200,-10 Q135,-10 87.5,23.5 Q40,57 40,121 Q40,175 68,208.5 Q96,242 138.5,254 Q181,266 230,274.5 Q279,283 321.5,287.5 Q364,292 392,310.5 Q420,329 420,361 Q420,408 382,444 Q344,480 280,480 M420,260 L420,291 Q391,273 347,265.5 Q303,258 266.5,255.5 Q230,253 195.5,244.5 Q161,236 141,208.5 Q121,181 121,130 Q121,73 151,46.5 Q181,20 230,20 Q279,20 318,47 Q357,74 378,114 Q399,154 409.5,192 Q420,230 420,260"/> 
            <glyph glyph-name="a" unicode="&#x61;" horiz-adv-x="531" d=" M30,650 L20,680 L180,790 L180,419 Q230,510 330,510 Q415,510 473,438.5 Q531,367 531,250 Q531,138 470.5,64 Q410,-10 320,-10 Q221,-10 174,81 L121,-10 L121,620 Q121,640 116.5,654 Q112,668 102,676 Q92,684 73.5,677.5 Q55,671 30,650 M180,320 L180,160 Q187,93 225,56.5 Q263,20 310,20 Q377,20 413.5,82 Q450,144 450,250 Q450,348 410,414 Q370,480 310,480 Q266,480 235.5,453.5 Q205,427 193.5,393 Q182,359 180,320"/> 
            <glyph glyph-name="b" unicode="&#x62;" horiz-adv-x="470" d=" M260,510 Q354,510 402,461.5 Q450,413 450,361 Q450,340 438,330 Q426,320 410,320 Q381,320 369.5,336.5 Q358,353 357,376.5 Q356,400 353.5,423.5 Q351,447 331,463.5 Q311,480 270,480 Q197,480 159,419 Q121,358 121,250 Q121,154 168,97 Q215,40 291,40 Q333,40 364.5,55.5 Q396,71 411.5,93 Q427,115 436.5,137 Q446,159 448,174 L450,190 L470,180 Q469,172 466,159.5 Q463,147 448.5,114 Q434,81 414,56 Q394,31 356,10.5 Q318,-10 270,-10 Q172,-10 106,64 Q40,138 40,250 Q40,363 101.5,436.5 Q163,510 260,510"/> 
            <glyph glyph-name="c" unicode="&#x63;" horiz-adv-x="580" d=" M410,-10 L427,128 Q372,-10 250,-10 Q158,-10 99,61 Q40,132 40,250 Q40,362 100,436 Q160,510 250,510 Q359,510 420,419 L420,620 Q420,648 412.5,664 Q405,680 384,679 Q363,678 330,650 L320,680 L480,790 L480,90 Q480,59 505,51.5 Q530,44 555,52 L580,60 L580,30 M420,230 L420,340 Q413,409 370,444.5 Q327,480 260,480 Q193,480 157,418.5 Q121,357 121,250 Q121,151 162.5,85.5 Q204,20 270,20 Q313,20 344,42.5 Q375,65 390.5,99.5 Q406,134 413,167 Q420,200 420,230"/> 
            <glyph glyph-name="d" unicode="&#x64;" horiz-adv-x="470" d=" M461,280 L122,280 Q121,270 121,250 Q121,154 168,97 Q215,40 291,40 Q333,40 364.5,55.5 Q396,71 411.5,93 Q427,115 436.5,137 Q446,159 448,174 L450,190 L470,180 Q469,172 466,159.5 Q463,147 448.5,114 Q434,81 414,56 Q394,31 356,10.5 Q318,-10 270,-10 Q172,-10 106,64 Q40,138 40,250 Q40,363 101.5,436.5 Q163,510 260,510 Q365,510 413,445 Q461,380 461,280 M270,480 Q208,480 171,435.5 Q134,391 124,310 L380,310 Q380,480 270,480"/> 
            <glyph glyph-name="e" unicode="&#x65;" horiz-adv-x="380" d=" M20,470 L20,500 L121,500 L121,561 Q121,613 142,664.5 Q163,716 208,753 Q253,790 310,790 Q380,790 380,740 Q380,690 340,690 Q316,690 291,715 Q266,740 240,740 Q209,740 194.5,703.5 Q180,667 180,576 L180,500 L320,500 L320,470 L180,470 L180,90 Q180,59 208,44 Q236,29 264,30 L291,30 L291,0 L20,0 L20,30 Q24,30 31,29.5 Q38,29 55.5,31 Q73,33 86,38.5 Q99,44 110,57 Q121,70 121,90 L121,470"/> 
            <glyph glyph-name="f" unicode="&#x66;" horiz-adv-x="580" d=" M520,601 Q545,601 562.5,588.5 Q580,576 580,550 Q580,500 540,500 Q530,500 515,505 Q500,510 490,510 Q461,510 461,480 Q461,465 470,425 Q479,385 480,339 L480,330 Q480,246 418,198 Q356,150 280,150 L273,150 Q121,148 121,90 Q121,50 190,50 L400,50 Q561,50 561,-70 Q561,-149 481.5,-194.5 Q402,-240 291,-240 Q40,-240 40,-110 Q40,-29 149,-7 Q107,-1 83.5,19 Q60,39 60,70 Q60,151 197,166 Q146,186 113,228.5 Q80,271 80,330 Q80,414 142,462 Q204,510 280,510 Q327,510 373.5,489 Q420,468 448,429 Q446,439 440.5,456.5 Q435,474 432.5,485.5 Q430,497 430,510 Q430,544 454.5,572.5 Q479,601 520,601 M380,-10 L210,-10 Q206,-10 199,-10.5 Q192,-11 175,-16 Q158,-21 145,-29.5 Q132,-38 121,-56.5 Q110,-75 110,-100 Q110,-210 291,-210 Q389,-210 449.5,-177.5 Q510,-145 510,-90 Q510,-53 475.5,-31.5 Q441,-10 380,-10 M150,330 Q150,261 188.5,220.5 Q227,180 270,180 Q323,180 366.5,217.5 Q410,255 410,330 Q410,399 371.5,439.5 Q333,480 291,480 Q237,480 193.5,442.5 Q150,405 150,330"/> 
            <glyph glyph-name="g" unicode="&#x67;" horiz-adv-x="590" d=" M490,400 L490,90 Q490,59 515,44 Q540,29 565,30 L590,30 L590,0 L330,0 L330,30 Q334,30 341,29.5 Q348,29 365,31 Q382,33 395,38.5 Q408,44 419,57 Q430,70 430,90 L430,340 Q430,396 401,423 Q372,450 330,450 Q271,450 225.5,396 Q180,342 180,280 L180,90 Q180,59 205,44 Q230,29 255,30 L280,30 L280,0 L20,0 L20,30 Q24,30 31,29.5 Q38,29 55.5,31 Q73,33 86,38.5 Q99,44 110,57 Q121,70 121,90 L121,620 Q121,640 116.5,654 Q112,668 102,676 Q92,684 73.5,677.5 Q55,671 30,650 L20,680 L180,790 L180,365 Q274,510 370,510 Q428,510 459,479 Q490,448 490,400"/> 
            <glyph glyph-name="h" unicode="&#x68;" horiz-adv-x="280" d=" M20,400 L30,370 Q55,392 73.5,398 Q92,404 102,396.5 Q112,389 116.5,375 Q121,361 121,340 L121,90 Q121,59 95.5,44 Q70,29 45,30 L20,30 L20,0 L280,0 L280,30 Q276,30 269,29.5 Q262,29 245,31 Q228,33 215,38.5 Q202,44 191,57 Q180,70 180,90 L180,510 M70,652 Q70,708 88,724 Q106,740 130,740 Q154,740 172,724 Q190,708 190,680 Q190,652 172,636 Q154,620 130,620 Q106,620 70,652"/> 
            <glyph glyph-name="i" unicode="&#x69;" horiz-adv-x="200" d=" M130,-26 Q130,-116 115.5,-153 Q101,-190 70,-190 Q45,-190 20,-165 Q-5,-140 -30,-140 Q-70,-140 -70,-190 Q-70,-240 0,-240 Q57,-240 102,-203 Q147,-166 168.5,-114 Q190,-62 190,-10 L190,510 L30,400 L40,370 Q73,398 94,399.5 Q115,401 122.5,384.5 Q130,368 130,340 M80,652 Q80,708 98,724 Q116,740 140,740 Q164,740 182,724 Q200,708 200,680 Q200,652 182,636 Q164,620 140,620 Q116,620 80,652"/> 
            <glyph glyph-name="j" unicode="&#x6A;" horiz-adv-x="580" d=" M280,500 L550,500 L550,470 Q507,470 479,455 Q451,440 410,400 L305,293 L461,80 Q480,53 510,40.5 Q540,28 560,29 L580,30 L580,0 L320,0 L320,30 Q322,30 326,29.5 Q330,29 341,29.5 Q352,30 360.5,31.5 Q369,33 378,37 Q387,41 391,47 Q395,53 393,64.5 Q391,76 380,90 L259,247 L180,167 L180,90 Q180,59 205,44 Q230,29 255,30 L280,30 L280,0 L20,0 L20,30 Q24,30 31,29.5 Q38,29 55.5,31 Q73,33 86,38.5 Q99,44 110,57 Q121,70 121,90 L121,620 Q121,640 116.5,654 Q112,668 102,676 Q92,684 73.5,677.5 Q55,671 30,650 L20,680 L180,790 L180,208 Q200,230 230,260 L370,400 Q418,448 347,464 Q319,470 280,470"/> 
            <glyph glyph-name="k" unicode="&#x6B;" horiz-adv-x="280" d=" M30,650 L20,680 L180,790 L180,90 Q180,59 205,44 Q230,29 255,30 L280,30 L280,0 L20,0 L20,30 Q24,30 31,29.5 Q38,29 55.5,31 Q73,33 86,38.5 Q99,44 110,57 Q121,70 121,90 L121,620 Q121,640 116.5,654 Q112,668 102,676 Q92,684 73.5,677.5 Q55,671 30,650"/> 
            <glyph glyph-name="l" unicode="&#x6C;" horiz-adv-x="890" d=" M790,400 L790,90 Q790,59 815,44 Q840,29 865,30 L890,30 L890,0 L631,0 L631,30 Q635,30 642,29.5 Q649,29 666,31 Q683,33 696,38.5 Q709,44 720,57 Q731,70 731,90 L731,340 Q731,396 702,423 Q673,450 631,450 Q572,450 526,396 Q480,342 480,280 L480,90 Q480,59 505,44 Q530,29 555,30 L580,30 L580,0 L320,0 L320,30 Q324,30 331,29.5 Q338,29 355,31 Q372,33 385,38.5 Q398,44 409,57 Q420,70 420,90 L420,340 Q420,396 391,423 Q362,450 320,450 Q261,450 215.5,396 Q170,342 170,280 L170,90 Q170,59 195,44 Q220,29 245,30 L270,30 L270,0 L10,0 L10,30 Q14,30 21,29.5 Q28,29 45,31 Q62,33 75,38.5 Q88,44 99,57 Q110,70 110,90 L110,340 Q110,368 102.5,384.5 Q95,401 74,399.5 Q53,398 20,370 L10,400 L200,510 L160,350 Q213,433 261,471.5 Q309,510 361,510 Q418,510 449,479 Q480,448 480,400 L480,365 Q530,440 575.5,475 Q621,510 670,510 Q728,510 759,479 Q790,448 790,400"/> 
            <glyph glyph-name="m" unicode="&#x6D;" horiz-adv-x="590" d=" M490,400 L490,90 Q490,59 515,44 Q540,29 565,30 L590,30 L590,0 L330,0 L330,30 Q334,30 341,29.5 Q348,29 365,31 Q382,33 395,38.5 Q408,44 419,57 Q430,70 430,90 L430,340 Q430,396 401,423 Q372,450 330,450 Q271,450 225.5,396 Q180,342 180,280 L180,90 Q180,59 205,44 Q230,29 255,30 L280,30 L280,0 L20,0 L20,30 Q24,30 31,29.5 Q38,29 55.5,31 Q73,33 86,38.5 Q99,44 110,57 Q121,70 121,90 L121,340 Q121,361 116.5,375 Q112,389 102,396.5 Q92,404 73.5,398 Q55,392 30,370 L20,400 L210,510 L170,350 Q223,434 270.5,472 Q318,510 370,510 Q428,510 459,479 Q490,448 490,400"/> 
            <glyph glyph-name="n" unicode="&#x6E;" horiz-adv-x="561" d=" M40,138 Q40,362 114,436 Q188,510 300,510 Q413,510 487,436 Q561,362 561,250 Q561,138 487,64 Q413,-10 300,-10 Q188,-10 40,138 M121,250 Q121,149 165.5,84.5 Q210,20 291,20 Q380,20 430,82 Q480,144 480,250 Q480,351 435,415.5 Q390,480 310,480 Q221,480 171,418.5 Q121,357 121,250"/> 
            <glyph glyph-name="o" unicode="&#x6F;" horiz-adv-x="561" d=" M30,370 L20,400 L200,510 L171,355 Q219,510 350,510 Q437,510 499,438 Q561,366 561,250 Q561,139 496.5,64.5 Q432,-10 340,-10 Q225,-10 180,75 L180,-140 Q180,-171 205,-186 Q230,-201 255,-200 L280,-200 L280,-230 L20,-230 L20,-200 Q24,-200 31,-200.5 Q38,-201 55.5,-199 Q73,-197 86,-191.5 Q99,-186 110,-173 Q121,-160 121,-140 L121,340 Q121,361 116.5,375 Q112,389 102,396.5 Q92,404 73.5,398 Q55,392 30,370 M180,285 L180,160 Q187,91 228,55.5 Q269,20 330,20 Q398,20 439,82.5 Q480,145 480,250 Q480,346 435.5,413 Q391,480 330,480 Q295,480 267,463.5 Q239,447 224,423.5 Q209,400 198.5,371 Q188,342 184.5,321.5 Q181,301 180,285"/> 
            <glyph glyph-name="p" unicode="&#x70;" horiz-adv-x="580" d=" M424,417 L480,510 L480,-140 Q480,-171 505,-186 Q530,-201 555,-200 L580,-200 L580,-230 L320,-230 L320,-200 Q324,-200 331,-200.5 Q338,-201 355,-199 Q372,-197 385,-191.5 Q398,-186 409,-173 Q420,-160 420,-140 L420,84 Q364,-10 250,-10 Q164,-10 102,62 Q40,134 40,250 Q40,361 104.5,435.5 Q169,510 260,510 Q373,510 424,417 M420,179 L420,340 Q413,409 372,444.5 Q331,480 270,480 Q197,480 159,419 Q121,358 121,250 Q121,151 162.5,85.5 Q204,20 270,20 Q311,20 341,35 Q371,50 387,74.5 Q403,99 411,125 Q419,151 420,179"/> 
            <glyph glyph-name="q" unicode="&#x71;" horiz-adv-x="410" d=" M180,361 L180,90 Q180,59 208,44 Q236,29 264,30 L291,30 L291,0 L20,0 L20,30 Q24,30 31,29.5 Q38,29 55.5,31 Q73,33 86,38.5 Q99,44 110,57 Q121,70 121,90 L121,340 Q121,361 116.5,375 Q112,389 102,396.5 Q92,404 73.5,398 Q55,392 30,370 L20,400 L210,510 L170,380 Q300,510 361,510 Q379,510 394.5,500 Q410,490 410,470 Q410,447 399.5,433.5 Q389,420 370,420 Q362,420 347,425 Q332,430 310,430 Q288,430 266,423 Q244,416 229.5,406 Q215,396 203,385.5 Q191,375 186,368"/> 
            <glyph glyph-name="r" unicode="&#x72;" horiz-adv-x="450" d=" M410,320 Q406,327 399.5,337.5 Q393,348 371,375.5 Q349,403 325.5,424 Q302,445 268,462.5 Q234,480 200,480 Q158,480 134,456 Q110,432 110,400 Q110,359 145,335.5 Q180,312 230,300 Q280,288 330,273.5 Q380,259 415,223.5 Q450,188 450,130 Q450,74 404.5,32 Q359,-10 280,-10 Q244,-10 209,5 Q174,20 157,35 L140,50 L100,-10 L30,190 L50,200 Q54,193 60.5,181.5 Q67,170 90.5,141 Q114,112 139,89.5 Q164,67 202.5,48.5 Q241,30 280,30 Q337,30 364,55 Q391,80 391,121 Q391,162 356,186 Q321,210 270.5,222.5 Q220,235 170,249 Q120,263 85,295.5 Q50,328 50,380 Q50,434 92,472 Q134,510 200,510 Q222,510 243,505 Q264,500 277,493 Q290,486 300.5,478.5 Q311,471 316,466 L320,461 L361,510 L430,330"/> 
            <glyph glyph-name="s" unicode="&#x73;" horiz-adv-x="430" d=" M0,470 L0,500 L30,500 Q160,500 160,731 L190,731 L190,500 L391,500 L391,470 L190,470 L190,170 Q190,106 210,73 Q230,40 280,40 Q314,40 339.5,56.5 Q365,73 378,96.5 Q391,120 398.5,143.5 Q406,167 408,184 L410,200 L430,190 Q425,162 415.5,132.5 Q406,103 387,68.5 Q368,34 335,12 Q302,-10 260,-10 Q200,-10 165,32.5 Q130,75 130,150 L130,470"/> 
            <glyph glyph-name="t" unicode="&#x74;" horiz-adv-x="580" d=" M100,140 L100,410 Q100,441 77.5,456 Q55,471 32,470 L10,470 L10,500 L160,500 L160,170 Q160,50 270,50 Q342,50 381,99 Q420,148 420,221 L420,410 Q420,441 397.5,456 Q375,471 352,470 L330,470 L330,500 L480,500 L480,90 Q480,59 505,51.5 Q530,44 555,52 L580,60 L580,30 L410,-10 L430,150 Q357,-10 240,-10 Q169,-10 134.5,32.5 Q100,75 100,140"/> 
            <glyph glyph-name="u" unicode="&#x75;" horiz-adv-x="520" d=" M250,0 L80,420 Q69,447 46.5,459.5 Q24,472 7,471 L-10,470 L-10,500 L230,500 L230,470 Q228,470 224,470.5 Q220,471 209,471 Q198,471 189.5,469.5 Q181,468 169.5,464.5 Q158,461 153.5,454 Q149,447 145.5,436.5 Q142,426 150,410 L270,104 L380,400 Q386,416 386.5,428.5 Q387,441 381,448 Q375,455 367.5,460 Q360,465 345.5,467 Q331,469 320,469.5 Q309,470 291,470 L291,500 L520,500 L520,470 Q471,470 449.5,458 Q428,446 410,400"/> 
            <glyph glyph-name="v" unicode="&#x76;" horiz-adv-x="720" d=" M334,408 L330,420 Q320,447 300,459.5 Q280,472 265,471 L250,470 L250,500 L490,500 L490,470 Q488,470 484,470.5 Q480,471 467.5,471.5 Q455,472 446,470 Q437,468 424.5,465 Q412,462 406.5,455 Q401,448 396.5,437 Q392,426 400,410 L501,116 L590,400 Q595,417 595.5,429 Q596,441 591.5,448.5 Q587,456 581.5,460.5 Q576,465 564.5,467 Q553,469 544,469.5 Q535,470 520,470 L520,500 L720,500 L720,470 Q691,470 676,467 Q661,464 646,448 Q631,432 620,400 L480,0 L349,366 L221,0 L70,420 Q61,448 38.5,460.5 Q16,473 -2,472 L-20,470 L-20,500 L221,500 L221,470 Q219,470 215.5,470.5 Q212,471 200.5,471.5 Q189,472 181,470 Q173,468 161,465 Q149,462 144.5,455 Q140,448 136.5,437 Q133,426 140,410 L241,115"/> 
            <glyph glyph-name="w" unicode="&#x77;" horiz-adv-x="580" d=" M295,221 L204,100 Q185,74 181,59 Q177,44 191,38 Q205,32 217.5,31 Q230,30 260,30 L260,0 L30,0 L30,30 Q59,30 71,31 Q83,32 101.5,38.5 Q120,45 135,59.5 Q150,74 170,100 L278,244 L150,420 Q130,448 102.5,460.5 Q75,473 58,472 L40,470 L40,500 L291,500 L291,470 Q289,470 285,470.5 Q281,471 270,471 Q259,471 250,470 Q241,469 231.5,465 Q222,461 218,454.5 Q214,448 216.5,436.5 Q219,425 230,410 L315,293 L395,400 Q408,417 413.5,429.5 Q419,442 416.5,449.5 Q414,457 410,461.5 Q406,466 392,467.5 Q378,469 369,469.5 Q360,470 340,470 L340,500 L570,500 L570,470 Q518,470 492,459 Q466,448 430,400 L332,270 L470,80 Q490,52 517.5,39.5 Q545,27 562,28 L580,30 L580,0 L330,0 L330,30 Q332,30 336,29.5 Q340,29 351,29 Q362,29 371,30 Q380,31 389,35 Q398,39 402,45.5 Q406,52 404,63.5 Q402,75 391,90"/> 
            <glyph glyph-name="x" unicode="&#x78;" horiz-adv-x="510" d=" M235,41 L80,420 Q69,447 46.5,459.5 Q24,472 7,471 L-10,470 L-10,500 L230,500 L230,470 Q228,470 224.5,470.5 Q221,471 210,471.5 Q199,472 190.5,471 Q182,470 170.5,467.5 Q159,465 154.5,459 Q150,453 146.5,443.5 Q143,434 150,420 L267,127 L370,400 Q376,416 376.5,428 Q377,440 371,447.5 Q365,455 357,459.5 Q349,464 335,466.5 Q321,469 309.5,469.5 Q298,470 280,470 L280,500 L510,500 L510,470 Q461,470 439.5,458.5 Q418,447 400,400 L221,-80 Q195,-149 145,-194.5 Q95,-240 30,-240 Q-60,-240 -60,-190 Q-60,-140 -20,-140 Q5,-140 30,-165 Q55,-190 80,-190 Q116,-190 140.5,-169.5 Q165,-149 190,-80"/> 
            <glyph glyph-name="y" unicode="&#x79;" horiz-adv-x="470" d=" M461,490 L140,50 Q135,42 133.5,35.5 Q132,29 136,24.5 Q140,20 150,20 L200,20 Q253,20 298.5,34.5 Q344,49 371,69.5 Q398,90 417,110.5 Q436,131 443,146 L450,160 L470,150 L410,-10 L361,0 L40,0 L40,10 L361,450 Q369,461 366.5,470.5 Q364,480 350,480 L300,480 Q258,480 221,465.5 Q184,451 161,430.5 Q138,410 121,389.5 Q104,369 97,354 L90,340 L70,350 L130,510 L180,500 L461,500"/> 
            <glyph glyph-name="z" unicode="&#x7A;" horiz-adv-x="801" d=" M280,0 L0,0 L0,30 Q67,26 89,38 Q111,50 130,100 L380,760 L420,790 L680,80 Q690,51 720.5,38.5 Q751,26 776,28 L801,30 L801,0 L480,0 L480,30 Q482,30 485,29.5 Q488,29 498,28.5 Q508,28 517,28.5 Q526,29 539,30 Q552,31 561,34 Q570,37 581,41 Q592,45 596,52 Q600,59 603.5,68 Q607,77 601,90 L534,280 L235,280 L170,100 Q153,53 179.5,39.5 Q206,26 280,30 M387,699 L246,310 L524,310 M305,1011 L325,1030 L495,841 L476,820"/> 
            <glyph glyph-name="" unicode="&#x83;" horiz-adv-x="760" d=" M40,391 Q40,563 141.5,676.5 Q243,790 400,790 Q557,790 658.5,676.5 Q760,563 760,391 Q760,217 658.5,103.5 Q557,-10 400,-10 Q243,-10 141.5,103.5 Q40,217 40,391 M124,391 Q124,228 195.5,124 Q267,20 391,20 Q524,20 600,121.5 Q676,223 676,391 Q676,553 605,656.5 Q534,760 410,760 Q278,760 201,656.5 Q124,553 124,391 M305,1011 L325,1030 L495,841 L476,820"/> 
            <glyph glyph-name="" unicode="&#x88;" horiz-adv-x="470" d=" M461,280 L122,280 Q121,270 121,250 Q121,154 168,97 Q215,40 291,40 Q333,40 364.5,55.5 Q396,71 411.5,93 Q427,115 436.5,137 Q446,159 448,174 L450,190 L470,180 Q469,172 466,159.5 Q463,147 448.5,114 Q434,81 414,56 Q394,31 356,10.5 Q318,-10 270,-10 Q172,-10 106,64 Q40,138 40,250 Q40,363 101.5,436.5 Q163,510 260,510 Q365,510 413,445 Q461,380 461,280 M270,480 Q208,480 171,435.5 Q134,391 124,310 L380,310 Q380,480 270,480 M155,771 L175,790 L345,601 L326,580"/> 
            <glyph glyph-name="" unicode="&#x8E;" horiz-adv-x="561" d=" M40,138 Q40,362 114,436 Q188,510 300,510 Q413,510 487,436 Q561,362 561,250 Q561,138 487,64 Q413,-10 300,-10 Q188,-10 40,138 M121,250 Q121,149 165.5,84.5 Q210,20 291,20 Q380,20 430,82 Q480,144 480,250 Q480,351 435,415.5 Q390,480 310,480 Q221,480 171,418.5 Q121,357 121,250 M205,771 L225,790 L395,601 L376,580"/> 
            <glyph glyph-name="" unicode="&#x8F;" horiz-adv-x="470" d=" M461,280 L122,280 Q121,270 121,250 Q121,154 168,97 Q215,40 291,40 Q333,40 364.5,55.5 Q396,71 411.5,93 Q427,115 436.5,137 Q446,159 448,174 L450,190 L470,180 Q469,172 466,159.5 Q463,147 448.5,114 Q434,81 414,56 Q394,31 356,10.5 Q318,-10 270,-10 Q172,-10 106,64 Q40,138 40,250 Q40,363 101.5,436.5 Q163,510 260,510 Q365,510 413,445 Q461,380 461,280 M270,480 Q208,480 171,435.5 Q134,391 124,310 L380,310 Q380,480 270,480 M326,790 L345,771 L175,580 L155,601"/> 
            <glyph glyph-name="" unicode="&#x98;" horiz-adv-x="580" d=" M100,140 L100,410 Q100,441 77.5,456 Q55,471 32,470 L10,470 L10,500 L160,500 L160,170 Q160,50 270,50 Q342,50 381,99 Q420,148 420,221 L420,410 Q420,441 397.5,456 Q375,471 352,470 L330,470 L330,500 L480,500 L480,90 Q480,59 505,51.5 Q530,44 555,52 L580,60 L580,30 L410,-10 L430,150 Q357,-10 240,-10 Q169,-10 134.5,32.5 Q100,75 100,140 M205,771 L225,790 L395,601 L376,580"/> 
            <glyph glyph-name="" unicode="&#x9D;" horiz-adv-x="222" d=" M207,571 Q207,544 189,528 Q171,512 148,512 Q124,512 106.5,527.5 Q89,543 89,571 Q89,591 99,606 L202,778 L222,768 L128,612 Q142,626 163,626 Q180,626 193.5,611 Q207,596 207,571"/> 
            <glyph glyph-name="Ë" unicode="&#xCB;" horiz-adv-x="680" d=" M232,90 Q232,76 239.5,65 Q247,54 262.5,47.5 Q278,41 292.5,37.5 Q307,34 330.5,32.5 Q354,31 366.5,30.5 Q379,30 400,30 L461,30 Q503,30 539,46.5 Q575,63 596.5,86.5 Q618,110 633.5,133.5 Q649,157 655,174 L661,190 L680,180 L631,0 L20,0 L20,30 Q26,30 36,29.5 Q46,29 71.5,31.5 Q97,34 116.5,39 Q136,44 152,57.5 Q168,71 168,90 L168,690 Q168,721 131,736 Q94,751 57,750 L20,750 L20,780 L601,780 L650,601 L631,590 Q629,597 624.5,607.5 Q620,618 603,645.5 Q586,673 565.5,694 Q545,715 508.5,732.5 Q472,750 430,750 L232,750 L232,410 L410,410 Q454,410 479,445 Q504,480 507,515 L510,550 L531,550 L531,221 L510,221 Q510,227 509.5,238 Q509,249 503.5,276.5 Q498,304 488.5,325 Q479,346 458.5,363 Q438,380 410,380 L232,380 M255,1011 L275,1030 L445,841 L426,820"/> 
            <glyph glyph-name="Ô" unicode="&#xD4;" horiz-adv-x="207" d=" M89,720 Q89,748 106.5,763 Q124,778 148,778 Q172,778 189.5,763 Q207,748 207,720 Q207,699 197,686 L94,512 L74,523 L166,679 Q160,666 133,666 Q116,666 102.5,680.5 Q89,695 89,720"/> 
            <glyph glyph-name="é" unicode="&#xE9;" horiz-adv-x="680" d=" M232,90 Q232,76 239.5,65 Q247,54 262.5,47.5 Q278,41 292.5,37.5 Q307,34 330.5,32.5 Q354,31 366.5,30.5 Q379,30 400,30 L461,30 Q503,30 539,46.5 Q575,63 596.5,86.5 Q618,110 633.5,133.5 Q649,157 655,174 L661,190 L680,180 L631,0 L20,0 L20,30 Q26,30 36,29.5 Q46,29 71.5,31.5 Q97,34 116.5,39 Q136,44 152,57.5 Q168,71 168,90 L168,690 Q168,721 131,736 Q94,751 57,750 L20,750 L20,780 L601,780 L650,601 L631,590 Q629,597 624.5,607.5 Q620,618 603,645.5 Q586,673 565.5,694 Q545,715 508.5,732.5 Q472,750 430,750 L232,750 L232,410 L410,410 Q454,410 479,445 Q504,480 507,515 L510,550 L531,550 L531,221 L510,221 Q510,227 509.5,238 Q509,249 503.5,276.5 Q498,304 488.5,325 Q479,346 458.5,363 Q438,380 410,380 L232,380 M426,1030 L445,1011 L275,820 L255,841"/> 
            <glyph glyph-name="ñ" unicode="&#xF1;" horiz-adv-x="790" d=" M629,690 L629,230 Q629,188 621.5,156 Q614,124 593,93.5 Q572,63 528.5,46.5 Q485,30 420,30 Q313,30 268,83 Q223,136 223,240 L223,690 Q223,721 259.5,736 Q296,751 333,750 L370,750 L370,780 L10,780 L10,750 Q16,750 26,750.5 Q36,751 61.5,749 Q87,747 106.5,741.5 Q126,736 142,723 Q158,710 158,690 L158,240 Q158,122 219,56 Q280,-10 410,-10 Q542,-10 602.5,59 Q663,128 663,230 L663,690 Q663,721 694.5,736 Q726,751 758,750 L790,750 L790,780 L500,780 L500,750 Q505,750 514,750.5 Q523,751 545,749 Q567,747 584,741.5 Q601,736 615,723 Q629,710 629,690 M305,1011 L325,1030 L495,841 L476,820"/> 
            <glyph glyph-name="ô" unicode="&#xF4;" horiz-adv-x="601" d=" M280,480 Q230,480 204,465.5 Q178,451 172.5,430.5 Q167,410 165,389.5 Q163,369 151,354.5 Q139,340 110,340 Q95,340 82.5,350 Q70,360 70,380 Q70,425 132.5,467.5 Q195,510 280,510 Q364,510 422,473.5 Q480,437 480,361 L480,100 Q480,40 520,40 Q542,40 557,57.5 Q572,75 576,92 L580,110 L601,100 Q562,-10 500,-10 Q463,-10 441.5,17.5 Q420,45 420,90 L430,179 Q427,168 422.5,153.5 Q418,139 400.5,107.5 Q383,76 360,52 Q337,28 294.5,9 Q252,-10 200,-10 Q135,-10 87.5,23.5 Q40,57 40,121 Q40,175 68,208.5 Q96,242 138.5,254 Q181,266 230,274.5 Q279,283 321.5,287.5 Q364,292 392,310.5 Q420,329 420,361 Q420,408 382,444 Q344,480 280,480 M420,260 L420,291 Q391,273 347,265.5 Q303,258 266.5,255.5 Q230,253 195.5,244.5 Q161,236 141,208.5 Q121,181 121,130 Q121,73 151,46.5 Q181,20 230,20 Q279,20 318,47 Q357,74 378,114 Q399,154 409.5,192 Q420,230 420,260 M205,771 L225,790 L395,601 L376,580"/> 
            <glyph glyph-name="&amp;" unicode="&#x26;" horiz-adv-x="461" d=" M20,-110 L10,-90 Q85,-90 157,-59 Q229,-28 285,27 Q341,82 375.5,164 Q410,246 410,340 Q410,435 375.5,517 Q341,599 285,654 Q229,709 157,740 Q85,771 10,771 L20,790 Q132,790 231.5,737 Q331,684 396,579 Q461,474 461,340 Q461,206 396,101 Q331,-4 231.5,-57 Q132,-110 20,-110"/> 
            <glyph glyph-name="(" unicode="&#x28;" horiz-adv-x="210" d=" M90,50 Q90,78 108,94 Q126,110 150,110 Q174,110 192,94 Q210,78 210,50 Q210,30 200,15 L95,-160 L75,-150 L168,8 Q160,-4 135,-4 Q118,-4 104,10.5 Q90,25 90,50"/> 
            <glyph glyph-name=")" unicode="&#x29;" horiz-adv-x="361" d=" M40,300 L40,330 L361,330 L361,300"/> 
            <glyph glyph-name="," unicode="&#x2C;" horiz-adv-x="210" d=" M90,22 Q90,78 108,94 Q126,110 150,110 Q174,110 192,94 Q210,78 210,50 Q210,22 192,6 Q174,-10 150,-10 Q126,-10 90,22"/> 
            <glyph glyph-name="-" unicode="&#x2D;" horiz-adv-x="561" d=" M40,391 Q40,569 108,679.5 Q176,790 300,790 Q424,790 492.5,679 Q561,568 561,391 Q561,212 492.5,101 Q424,-10 300,-10 Q176,-10 108,101 Q40,212 40,391 M121,391 Q121,20 291,20 Q480,20 480,391 Q480,760 310,760 Q121,760 121,391"/> 
            <glyph glyph-name="." unicode="&#x2E;" horiz-adv-x="480" d=" M60,590 L50,620 L280,780 L280,90 Q280,59 330,44 Q380,29 430,30 L480,30 L480,0 L20,0 L20,30 Q24,30 31.5,29.5 Q39,29 59.5,29.5 Q80,30 99,31.5 Q118,33 141.5,37 Q165,41 181.5,47.5 Q198,54 209.5,65 Q221,76 221,90 L221,590 Q221,641 197.5,649.5 Q174,658 130,631"/> 
            <glyph glyph-name="0" unicode="&#x30;" horiz-adv-x="550" d=" M270,790 Q395,790 463,730 Q531,670 531,569 Q531,502 499.5,443.5 Q468,385 415,340 Q362,295 307.5,257 Q253,219 193,174.5 Q133,130 100,90 Q85,74 86.5,62 Q88,50 110,50 L270,50 Q323,50 370,68.5 Q417,87 445,113.5 Q473,140 493.5,166.5 Q514,193 522,212 L531,230 L550,221 L490,-10 L440,0 L10,0 Q15,37 49.5,80.5 Q84,124 133,163.5 Q182,203 237.5,252 Q293,301 340.5,347.5 Q388,394 419,453 Q450,512 450,570 Q450,760 260,760 Q110,760 110,631 Q110,605 107.5,588 Q105,571 93.5,555.5 Q82,540 60,540 Q45,540 32.5,550 Q20,560 20,580 Q20,603 36,636.5 Q52,670 80.5,705.5 Q109,741 159.5,765.5 Q210,790 270,790"/> 
            <glyph glyph-name="1" unicode="&#x31;" horiz-adv-x="561" d=" M561,200 Q561,108 490,49 Q419,-10 300,-10 Q233,-10 180,13 Q127,36 98,72 Q69,108 54.5,146 Q40,184 40,221 L60,230 Q61,222 63.5,209.5 Q66,197 81,164 Q96,131 118.5,106 Q141,81 186.5,60.5 Q232,40 291,40 Q374,40 427,83 Q480,126 480,200 Q480,247 466.5,281.5 Q453,316 431,336.5 Q409,357 376.5,369.5 Q344,382 312,386.5 Q280,391 240,391 L180,391 L180,420 L240,420 Q337,420 388.5,459 Q440,498 440,590 Q440,664 404,712 Q368,760 291,760 Q220,760 190,728.5 Q160,697 160,640 Q160,622 158.5,609 Q157,596 152.5,581 Q148,566 137.5,558 Q127,550 110,550 Q95,550 82.5,560 Q70,570 70,590 Q70,613 84,645 Q98,677 124.5,710.5 Q151,744 197.5,767 Q244,790 300,790 Q407,790 463.5,735.5 Q520,681 520,601 Q520,557 502,521.5 Q484,486 461,467 Q438,448 409,434.5 Q380,421 365,417.5 Q350,414 341,412 L340,412 Q335,411 333,408.5 Q331,406 333,404 Q335,402 340,402 Q345,402 354,401.5 Q363,401 386,397 Q409,393 430,386 Q451,379 476,363.5 Q501,348 519,327.5 Q537,307 549,274 Q561,241 561,200"/> 
            <glyph glyph-name="2" unicode="&#x32;" horiz-adv-x="601" d=" M30,210 L30,250 L391,790 L391,254 L601,260 L601,210 L391,210 L391,90 Q391,59 428,44 Q465,29 502,30 L540,30 L540,0 L180,0 L180,30 Q186,30 196,29.5 Q206,29 232,31 Q258,33 278,38.5 Q298,44 314,57 Q330,70 330,90 L330,210 M310,620 L63,250 Q176,250 330,252 L330,620 Q330,629 326.5,631.5 Q323,634 318.5,630.5 Q314,627 310,620"/> 
            <glyph glyph-name="3" unicode="&#x33;" horiz-adv-x="561" d=" M110,690 L110,430 Q112,433 116,437.5 Q120,442 136,454 Q152,466 171,475.5 Q190,485 222,492.5 Q254,500 291,500 Q338,500 384,484 Q430,468 470.5,438 Q511,408 536,356 Q561,304 561,240 Q561,136 490,63 Q419,-10 291,-10 Q227,-10 176,13 Q125,36 97,72 Q69,108 54.5,146.5 Q40,185 40,221 L60,230 Q60,226 61.5,219 Q63,212 69,192.5 Q75,173 83.5,155 Q92,137 109.5,115 Q127,93 149,77.5 Q171,62 205,51 Q239,40 280,40 Q380,40 430,96 Q480,152 480,240 Q480,340 429,405 Q378,470 291,470 Q249,470 214.5,459.5 Q180,449 161.5,434.5 Q143,420 130.5,405.5 Q118,391 114,380 L110,370 L80,370 L80,780 L420,780 L470,790 L531,631 L510,620 Q508,625 503,632 Q498,639 479.5,658.5 Q461,678 439,692.5 Q417,707 379.5,719 Q342,731 300,731 L180,731 Q154,731 132,720.5 Q110,710 110,690"/> 
            <glyph glyph-name="4" unicode="&#x34;" horiz-adv-x="550" d=" M320,760 Q220,760 170.5,659 Q121,558 121,391 L121,363 Q174,510 320,510 Q420,510 485,439 Q550,368 550,250 Q550,140 481,65 Q412,-10 320,-10 Q194,-10 117,103 Q40,216 40,391 Q40,569 116,679.5 Q192,790 330,790 Q426,790 488,731 Q550,672 550,590 Q550,570 538,560 Q526,550 510,550 Q494,550 483.5,558 Q473,566 468.5,581 Q464,596 462.5,609 Q461,622 461,640 Q461,690 425.5,725 Q390,760 320,760 M300,480 Q247,480 210,452 Q173,424 157.5,381 Q142,338 136.5,309.5 Q131,281 130,257 Q146,147 191.5,83.5 Q237,20 310,20 Q385,20 427.5,82 Q470,144 470,250 Q470,348 422,414 Q374,480 300,480"/> 
            <glyph glyph-name="5" unicode="&#x35;" horiz-adv-x="570" d=" M570,780 Q564,774 554.5,763 Q545,752 517,714 Q489,676 463.5,633.5 Q438,591 407,524.5 Q376,458 353.5,388 Q331,318 315.5,226 Q300,134 300,40 Q300,21 288.5,5.5 Q277,-10 250,-10 Q210,-10 210,60 Q210,139 273,290 Q336,441 398.5,565 Q461,689 461,701 Q461,731 420,731 L270,731 Q228,731 191,719.5 Q154,708 131,692 Q108,676 91,659.5 Q74,643 67,632 L60,620 L40,631 L100,790 L150,780"/> 
            <glyph glyph-name="6" unicode="&#x36;" horiz-adv-x="561" d=" M60,601 Q60,688 125,739 Q190,790 291,790 Q393,790 456.5,742 Q520,694 520,601 Q520,540 480,489.5 Q440,439 374,420 Q417,404 445.5,389 Q474,374 503,351 Q532,328 546.5,295.5 Q561,263 561,221 Q561,118 484.5,54 Q408,-10 300,-10 Q194,-10 117,47 Q40,104 40,210 Q40,274 88.5,329 Q137,384 210,407 Q139,439 99.5,483 Q60,527 60,601 M90,200 Q90,109 149.5,64.5 Q209,20 300,20 Q337,20 370,28.5 Q403,37 433.5,55.5 Q464,74 482,109 Q500,144 500,190 Q500,222 487.5,248 Q475,274 459,291 Q443,308 411.5,325 Q380,342 358,350.5 Q336,359 294.5,374.5 Q253,390 233,398 Q171,376 130.5,324 Q90,272 90,200 M470,601 Q470,679 420,719.5 Q370,760 291,760 Q217,760 169,725.5 Q121,691 121,620 Q121,580 136,550.5 Q151,521 189.5,498 Q228,475 251,465 Q274,455 332,435 Q345,430 351,428 Q406,444 438,488 Q470,532 470,601"/> 
            <glyph glyph-name="7" unicode="&#x37;" horiz-adv-x="561" d=" M280,-10 Q241,-10 208.5,1 Q176,12 155,29.5 Q134,47 117.5,68.5 Q101,90 92.5,111.5 Q84,133 78.5,150.5 Q73,168 72,179 L70,190 L90,200 Q91,193 93,182.5 Q95,172 107.5,144.5 Q120,117 137.5,96 Q155,75 190,57.5 Q225,40 270,40 Q480,40 480,391 Q480,410 479,420 Q426,270 280,270 Q180,270 115,341.5 Q50,413 50,531 Q50,640 119,715 Q188,790 280,790 Q406,790 483.5,677.5 Q561,565 561,391 Q561,216 483.5,103 Q406,-10 280,-10 M300,300 Q347,300 381.5,323.5 Q416,347 432,377 Q448,407 457.5,445 Q467,483 468.5,500.5 Q470,518 470,529 Q453,637 407.5,698.5 Q362,760 291,760 Q216,760 173,698 Q130,636 130,531 Q130,432 178,366 Q226,300 300,300"/> 
            <glyph glyph-name="8" unicode="&#x38;" horiz-adv-x="207" d=" M89,21 Q89,77 106.5,92.5 Q124,108 148,108 Q172,108 189.5,92.5 Q207,77 207,49 Q207,21 189.5,5.5 Q172,-10 148,-10 Q124,-10 89,21 M89,415 Q89,471 106.5,486.5 Q124,502 148,502 Q172,502 189.5,486.5 Q207,471 207,443 Q207,415 189.5,400 Q172,385 148,385 Q124,385 89,415"/> 
            <glyph glyph-name="9" unicode="&#x39;" horiz-adv-x="801" d=" M280,0 L0,0 L0,30 Q67,26 89,38 Q111,50 130,100 L380,760 L420,790 L680,80 Q690,51 720.5,38.5 Q751,26 776,28 L801,30 L801,0 L480,0 L480,30 Q482,30 485,29.5 Q488,29 498,28.5 Q508,28 517,28.5 Q526,29 539,30 Q552,31 561,34 Q570,37 581,41 Q592,45 596,52 Q600,59 603.5,68 Q607,77 601,90 L534,280 L235,280 L170,100 Q153,53 179.5,39.5 Q206,26 280,30 M387,699 L246,310 L524,310"/> 
            <glyph glyph-name=":" unicode="&#x3A;" horiz-adv-x="670" d=" M650,590 Q650,526 599,480 Q548,434 465,414 Q562,391 616,340 Q670,289 670,210 Q670,104 588,52 Q506,0 376,0 L20,0 L20,30 Q26,30 36,29.5 Q46,29 71.5,31 Q97,33 116.5,38.5 Q136,44 152,57 Q168,70 168,90 L168,690 Q168,721 131,736 Q94,751 57,750 L20,750 L20,780 L336,780 Q484,780 567,732.5 Q650,685 650,590 M306,400 L232,400 L232,90 Q232,35 309,30 L346,30 Q586,30 586,210 Q586,318 518,359 Q450,400 306,400 M232,750 L232,430 L336,430 Q448,430 507.5,467 Q567,504 567,590 Q567,670 502,710 Q437,750 327,750"/> 
            </font>
</defs>
</svg>
