<?xml version="1.0" standalone="no"?>
<!DOCTYPE svg PUBLIC "-//W3C//DTD SVG 1.1//EN" "http://www.w3.org/Graphics/SVG/1.1/DTD/svg11.dtd" >
<svg xmlns="http://www.w3.org/2000/svg">
    <defs>
        <font id="SportingGrotesque-Normal">
            <font-face font-family="SportingGrotesque-Normal"
                       units-per-em="1000"
                       ascent="1062"
                       descent="-571"
                       bbox="-90 -238 1309 1043"
                    />
            <missing-glyph horiz-adv-x="0" />
            
            <glyph glyph-name="&amp;" unicode="&#x26;" horiz-adv-x="843" d=" M60,682 L60,777 L733,777 L733,682 L455,395 Q570,252 675,85 L843,85 L843,0 L727,0 Q758,-52 784.5,-101.5 Q811,-151 822,-174 L834,-198 L702,-238 Q666,-141 590,0 L20,0 L20,95 L321,406 Q200,557 60,682 M542,85 Q468,210 385,323 L155,85 M598,692 L169,692 Q279,599 388,475"/> 
            <glyph glyph-name="(" unicode="&#x28;" horiz-adv-x="361" d=" M40,244 Q40,434 72.5,518 Q105,602 155,657 Q205,712 259,746 Q313,780 361,787 L361,746 Q333,740 300,721.5 Q267,703 231.5,668 Q196,633 167,588 Q138,543 119.5,477.5 Q101,412 101,339 Q101,266 119.5,200.5 Q138,135 167,90 Q196,45 231.5,10 Q267,-25 300,-43.5 Q333,-62 361,-68 L361,-109 Q313,-102 259,-68 Q205,-34 155,21 Q105,76 40,244"/> 
            <glyph glyph-name=")" unicode="&#x29;" horiz-adv-x="341" d=" M341,434 Q341,244 308.5,160 Q276,76 226,21 Q176,-34 122,-68 Q68,-102 20,-109 L20,-68 Q48,-62 81,-43.5 Q114,-25 149.5,10 Q185,45 214,90 Q243,135 261.5,200.5 Q280,266 280,339 Q280,412 261.5,477.5 Q243,543 214,588 Q185,633 149.5,668 Q114,703 81,721.5 Q48,740 20,746 L20,787 Q68,780 122,746 Q176,712 226,657 Q276,602 341,434"/> 
            <glyph glyph-name="," unicode="&#x2C;" horiz-adv-x="220" d=" M220,145 L220,25 Q220,-30 200,-80 Q180,-130 160,-153 L140,-176 L52,-150 Q56,-148 62,-144 Q68,-140 84.5,-125.5 Q101,-111 114.5,-95 Q128,-79 141.5,-53 Q155,-27 161,0 L90,0 L90,145"/> 
            <glyph glyph-name="-" unicode="&#x2D;" horiz-adv-x="462" d=" M462,260 L40,260 L40,335 L462,335"/> 
            <glyph glyph-name="." unicode="&#x2E;" horiz-adv-x="220" d=" M90,0 L90,145 L220,145 L220,0"/> 
            <glyph glyph-name="0" unicode="&#x30;" horiz-adv-x="740" d=" M740,389 Q740,207 652.5,96.5 Q565,-14 400,-14 Q235,-14 147.5,96.5 Q60,207 60,389 Q60,570 147.5,680.5 Q235,791 400,791 Q565,791 652.5,680.5 Q740,570 740,389 M603,389 Q603,527 554.5,609.5 Q506,692 400,692 Q294,692 245.5,609.5 Q197,527 197,389 Q197,250 245.5,167.5 Q294,85 400,85 Q506,85 554.5,167.5 Q603,250 603,389"/> 
            <glyph glyph-name="1" unicode="&#x31;" horiz-adv-x="750" d=" M750,0 L110,0 L110,85 L410,85 L409,692 Q409,632 397,595 Q385,558 352.5,530.5 Q320,503 261.5,491.5 Q203,480 110,480 L110,579 Q266,579 338,623 Q410,667 410,777 L540,777 L540,85 L750,85"/> 
            <glyph glyph-name="2" unicode="&#x32;" horiz-adv-x="730" d=" M715,536 Q715,479 690,424 Q665,369 631.5,329.5 Q598,290 544,247.5 Q490,205 452.5,181.5 Q415,158 360,126 Q305,94 290,85 L730,85 L730,0 L90,0 L90,75 Q100,79 117.5,87 Q135,95 186,121 Q237,147 283,175 Q329,203 385,245.5 Q441,288 481.5,330.5 Q522,373 550,426.5 Q578,480 578,532 Q578,602 533.5,647 Q489,692 400,692 Q314,692 271.5,647 Q229,602 229,534 Q229,505 239,477.5 Q249,450 262.5,431.5 Q276,413 290,399 Q304,385 314,378 L324,372 L190,333 Q186,336 179.5,342 Q173,348 157,367.5 Q141,387 128.5,409.5 Q116,432 105.5,467 Q95,502 95,539 Q95,638 176,714.5 Q257,791 403,791 Q553,791 634,720 Q715,649 715,536"/> 
            <glyph glyph-name="3" unicode="&#x33;" horiz-adv-x="740" d=" M387,356 L337,356 L337,441 L387,441 Q476,441 529.5,475.5 Q583,510 583,569 Q583,623 537.5,657.5 Q492,692 417,692 Q359,692 318,673 Q277,654 260,627.5 Q243,601 234,574 Q225,547 225,528 L225,509 L91,549 Q92,554 93.5,562.5 Q95,571 104,596.5 Q113,622 126,644.5 Q139,667 165,695 Q191,723 224,743 Q257,763 308.5,777 Q360,791 422,791 Q554,791 637,732.5 Q720,674 720,587 Q720,544 701.5,511 Q683,478 659,461 Q635,444 603,433.5 Q571,423 552,420 Q533,417 518,417 Q535,417 555,414 Q575,411 610.5,399 Q646,387 672.5,367.5 Q699,348 719.5,310 Q740,272 740,221 Q740,143 693.5,88.5 Q647,34 574,10 Q501,-14 410,-14 Q339,-14 280.5,1 Q222,16 185.5,39.5 Q149,63 121.5,91.5 Q94,120 81,149 Q68,178 60.5,201.5 Q53,225 52,240 L50,255 L184,294 Q183,286 183.5,271.5 Q184,257 194.5,221 Q205,185 225.5,157.5 Q246,130 293,107.5 Q340,85 407,85 Q499,85 551,120.5 Q603,156 603,222 Q603,356 387,356"/> 
            <glyph glyph-name="4" unicode="&#x34;" horiz-adv-x="790" d=" M40,188 L40,313 L462,777 L634,777 L634,273 L790,273 L790,188 L634,188 L634,0 L504,0 L504,188 M504,682 L141,273 L504,273"/> 
            <glyph glyph-name="5" unicode="&#x35;" horiz-adv-x="740" d=" M740,255 Q740,129 649,57.5 Q558,-14 406,-14 Q335,-14 277.5,1 Q220,16 184,39.5 Q148,63 121,91.5 Q94,120 81,149 Q68,178 60.5,201.5 Q53,225 52,240 L50,255 L184,294 Q186,293 184,282 Q182,271 186.5,252.5 Q191,234 196.5,212 Q202,190 219,167.5 Q236,145 258,126.5 Q280,108 318.5,96.5 Q357,85 406,85 Q495,85 549,132 Q603,179 603,255 Q603,331 549,377.5 Q495,424 406,424 Q354,424 313,412 Q272,400 257,388 L242,376 L109,376 L180,777 L704,777 L704,692 L291,692 L244,422 Q246,426 250.5,433 Q255,440 272.5,457.5 Q290,475 312,488 Q334,501 373,512 Q412,523 457,523 Q572,523 656,447.5 Q740,372 740,255"/> 
            <glyph glyph-name="6" unicode="&#x36;" horiz-adv-x="740" d=" M468,500 Q580,500 660,434.5 Q740,369 740,243 Q740,131 648.5,58.5 Q557,-14 416,-14 Q249,-14 154.5,97.5 Q60,209 60,389 Q60,567 156.5,679 Q253,791 420,791 Q493,791 552,768 Q611,745 643,712.5 Q675,680 696,647.5 Q717,615 724,592 L730,569 L597,529 Q596,536 594,547 Q592,558 581,586 Q570,614 552.5,635.5 Q535,657 500,674.5 Q465,692 420,692 Q312,692 254.5,607.5 Q197,523 197,389 Q197,371 199,335 Q221,415 294,457.5 Q367,500 468,500 M416,85 Q509,85 556,128.5 Q603,172 603,243 Q603,314 556,357.5 Q509,401 416,401 Q338,401 284,359 Q230,317 215,251 Q238,173 288.5,129 Q339,85 416,85"/> 
            <glyph glyph-name="7" unicode="&#x37;" horiz-adv-x="770" d=" M770,777 L770,662 Q763,662 751,659.5 Q739,657 702.5,642.5 Q666,628 630.5,604.5 Q595,581 547,530.5 Q499,480 457,413 Q415,346 372.5,238.5 Q330,131 300,0 L160,0 Q188,129 230.5,236.5 Q273,344 316,412.5 Q359,481 410.5,535.5 Q462,590 500.5,617 Q539,644 581,663 Q623,682 637.5,686 Q652,690 664,692 L30,692 L30,777"/> 
            <glyph glyph-name="8" unicode="&#x38;" horiz-adv-x="760" d=" M730,574 Q730,534 711.5,501 Q693,468 670,449.5 Q647,431 616.5,417 Q586,403 570.5,399 Q555,395 544,393 Q558,392 572.5,390 Q587,388 624.5,376.5 Q662,365 689,347.5 Q716,330 738,295 Q760,260 760,214 Q760,137 708.5,84.5 Q657,32 578,9 Q499,-14 400,-14 Q301,-14 222,9 Q143,32 91.5,84.5 Q40,137 40,214 Q40,257 59.5,292 Q79,327 104,346.5 Q129,366 161.5,380 Q194,394 210.5,398.5 Q227,403 239,405 Q229,407 214.5,411 Q200,415 172.5,428 Q145,441 124,458 Q103,475 86.5,506 Q70,537 70,574 Q70,670 165,730.5 Q260,791 400,791 Q540,791 635,730.5 Q730,670 730,574 M623,214 Q623,250 604.5,277.5 Q586,305 561,319.5 Q536,334 502.5,342.5 Q469,351 445.5,353.5 Q422,356 400,356 Q302,356 239.5,322.5 Q177,289 177,214 Q177,148 239,116.5 Q301,85 400,85 Q499,85 561,116.5 Q623,148 623,214 M207,574 Q207,535 228,508 Q249,481 282.5,469 Q316,457 344,453 Q372,449 400,449 Q593,449 593,574 Q593,624 544.5,658 Q496,692 400,692 Q304,692 255.5,658 Q207,624 207,574"/> 
            <glyph glyph-name="9" unicode="&#x39;" horiz-adv-x="740" d=" M332,277 Q220,277 140,342.5 Q60,408 60,534 Q60,646 151.5,718.5 Q243,791 384,791 Q551,791 645.5,679.5 Q740,568 740,388 Q740,210 643.5,98 Q547,-14 380,-14 Q307,-14 248,9 Q189,32 157,64.5 Q125,97 104,129.5 Q83,162 76,185 L70,208 L203,248 Q204,241 206,230 Q208,219 219,191 Q230,163 247.5,141.5 Q265,120 300,102.5 Q335,85 380,85 Q488,85 545.5,169.5 Q603,254 603,388 Q603,415 600,442 Q580,369 513,323 Q446,277 332,277 M384,692 Q291,692 244,648.5 Q197,605 197,534 Q197,463 244,419.5 Q291,376 384,376 Q462,376 515.5,419 Q569,462 585,526 Q562,604 511,648 Q460,692 384,692"/> 
            <glyph glyph-name=":" unicode="&#x3A;" horiz-adv-x="220" d=" M90,0 L90,145 L220,145 L220,0 M90,410 L90,555 L220,555 L220,410"/> 
            <glyph glyph-name="A" unicode="&#x41;" horiz-adv-x="954" d=" M815,0 L704,247 L269,247 L158,0 L20,0 L380,777 L594,777 L954,0 M470,692 L308,332 L666,332 L505,692"/> 
            <glyph glyph-name="B" unicode="&#x42;" horiz-adv-x="789" d=" M789,221 Q789,110 704,55 Q619,0 440,0 L90,0 L90,777 L420,777 Q769,777 769,587 Q769,547 752.5,514.5 Q736,482 715.5,465.5 Q695,449 667.5,437 Q640,425 626.5,422 Q613,419 603,418 Q611,417 616.5,416.5 Q622,416 643.5,410.5 Q665,405 680.5,397.5 Q696,390 718,374.5 Q740,359 754,339.5 Q768,320 778.5,289 Q789,258 789,221 M440,356 L220,356 L220,85 L440,85 Q488,85 524,91 Q560,97 590.5,111.5 Q621,126 636.5,153.5 Q652,181 652,221 Q652,274 622.5,305 Q593,336 549.5,346 Q506,356 440,356 M220,692 L220,441 L420,441 Q520,441 576,469 Q632,497 632,567 Q632,637 576,664.5 Q520,692 420,692"/> 
            <glyph glyph-name="C" unicode="&#x43;" horiz-adv-x="924" d=" M790,332 L924,293 M903,469 L769,429 M903,469 L769,429 Q769,434 768,443.5 Q767,453 760.5,480.5 Q754,508 744,533 Q734,558 713,588 Q692,618 664,640 Q636,662 591.5,677 Q547,692 493,692 Q356,692 276.5,606.5 Q197,521 197,388 Q197,257 281,171 Q365,85 503,85 Q560,85 607,98.5 Q654,112 683,134 Q712,156 733.5,182 Q755,208 765.5,234.5 Q776,261 782,283 Q788,305 789,318 L790,332 L924,293 Q923,287 921,275.5 Q919,264 908.5,232.5 Q898,201 881.5,172 Q865,143 832,107.5 Q799,72 757,46.5 Q715,21 649,3.5 Q583,-14 503,-14 Q299,-14 179.5,98 Q60,210 60,388 Q60,568 175,679.5 Q290,791 493,791 Q570,791 634.5,773 Q699,755 740,727 Q781,699 813,664.5 Q845,630 861,595.5 Q877,561 887.5,533 Q898,505 900,487"/> 
            <glyph glyph-name="D" unicode="&#x44;" horiz-adv-x="863" d=" M90,777 L440,777 Q635,777 749,672.5 Q863,568 863,388 Q863,208 749,104 Q635,0 440,0 L90,0 M380,692 L220,692 L220,85 L380,85 Q547,85 636.5,162 Q726,239 726,388 Q726,537 636,614.5 Q546,692 380,692"/> 
            <glyph glyph-name="E" unicode="&#x45;" horiz-adv-x="705" d=" M90,0 L90,777 L676,777 L676,692 L220,692 L220,432 L648,432 L648,347 L220,347 L220,85 L705,85 L705,0"/> 
            <glyph glyph-name="F" unicode="&#x46;" horiz-adv-x="676" d=" M90,0 L90,777 L676,777 L676,692 L220,692 L220,432 L648,432 L648,347 L220,347 L220,0"/> 
            <glyph glyph-name="G" unicode="&#x47;" horiz-adv-x="900" d=" M900,499 L766,459 M900,499 L766,459 Q766,464 764.5,472.5 Q763,481 755.5,505 Q748,529 737.5,551 Q727,573 705.5,600 Q684,627 656.5,646 Q629,665 586.5,678.5 Q544,692 493,692 Q356,692 276.5,606.5 Q197,521 197,388 Q197,257 274.5,171 Q352,85 483,85 Q536,85 579.5,97.5 Q623,110 650.5,129.5 Q678,149 699,173 Q720,197 730.5,221 Q741,245 747.5,264.5 Q754,284 756,296 L757,309 L464,309 L464,394 L887,394 L887,0 L757,0 L757,149 Q753,140 747.5,128.5 Q742,117 719.5,89 Q697,61 667,40.5 Q637,20 583,3 Q529,-14 463,-14 Q281,-14 170.5,98.5 Q60,211 60,388 Q60,568 175,679.5 Q290,791 493,791 Q567,791 629,775 Q691,759 731.5,733 Q772,707 804,676 Q836,645 853.5,614 Q871,583 882,557 Q893,531 896,515"/> 
            <glyph glyph-name="H" unicode="&#x48;" horiz-adv-x="840" d=" M710,0 L710,347 L220,347 L220,0 L90,0 L90,777 L220,777 L220,432 L710,432 L710,777 L840,777 L840,0"/> 
            <glyph glyph-name="I" unicode="&#x49;" horiz-adv-x="220" d=" M90,777 L220,777 L220,0 L90,0"/> 
            <glyph glyph-name="J" unicode="&#x4A;" horiz-adv-x="684" d=" M194,332 Q190,317 190,299 Q190,203 236,144 Q282,85 372,85 Q462,85 508,144 Q554,203 554,299 L554,777 L684,777 L684,299 Q684,143 601.5,64.5 Q519,-14 372,-14 Q227,-14 144,63 Q61,140 60,293"/> 
            <glyph glyph-name="K" unicode="&#x4B;" horiz-adv-x="842" d=" M692,0 L347,392 L220,280 L220,0 L90,0 L90,777 L220,777 L220,409 L622,777 L782,777 L431,467 L842,0"/> 
            <glyph glyph-name="L" unicode="&#x4C;" horiz-adv-x="665" d=" M90,0 L90,777 L220,777 L220,85 L665,85 L665,0"/> 
            <glyph glyph-name="M" unicode="&#x4D;" horiz-adv-x="1132" d=" M611,85 L932,777 L1132,777 L1132,0 L1002,0 L1002,642 L696,0 L526,0 L220,642 L220,0 L90,0 L90,777 L290,777"/> 
            <glyph glyph-name="N" unicode="&#x4E;" horiz-adv-x="841" d=" M841,777 L841,0 L681,0 L220,642 L220,0 L90,0 L90,777 L250,777 L711,135 L711,777"/> 
            <glyph glyph-name="O" unicode="&#x4F;" horiz-adv-x="967" d=" M967,565 Q967,211 842.5,98.5 Q718,-14 513,-14 Q308,-14 184,98.5 Q60,211 60,388 Q60,566 184,678.5 Q308,791 513,791 Q718,791 967,565 M830,388 Q830,519 741.5,605.5 Q653,692 513,692 Q374,692 285.5,605.5 Q197,519 197,388 Q197,258 285.5,171.5 Q374,85 513,85 Q653,85 741.5,171.5 Q830,258 830,388"/> 
            <glyph glyph-name="P" unicode="&#x50;" horiz-adv-x="769" d=" M220,692 L220,441 M90,0 L90,777 L420,777 Q600,777 684.5,726 Q769,675 769,567 Q769,459 684,407.5 Q599,356 420,356 L220,356 L220,0 M220,692 L220,441 L420,441 Q520,441 576,469 Q632,497 632,567 Q632,637 576,664.5 Q520,692 420,692"/> 
            <glyph glyph-name="Q" unicode="&#x51;" horiz-adv-x="967" d=" M893,-46 L922,-153 Q921,-156 917.5,-160 Q914,-164 901.5,-174.5 Q889,-185 872,-193.5 Q855,-202 825.5,-208.5 Q796,-215 760,-215 Q671,-215 629,-172.5 Q587,-130 586,-72 Q586,-31 599,-8 Q558,-14 513,-14 Q308,-14 184,98.5 Q60,211 60,388 Q60,566 184,678.5 Q308,791 513,791 Q718,791 842.5,678 Q967,565 967,388 Q967,252 890.5,151 Q814,50 681,10 L682,10 Q654,0 654,-36 Q654,-117 759,-117 Q793,-117 819,-109.5 Q845,-102 858.5,-92 Q872,-82 880.5,-71.5 Q889,-61 891,-54 M830,388 Q830,519 741.5,605.5 Q653,692 513,692 Q374,692 285.5,605.5 Q197,519 197,388 Q197,258 285.5,171.5 Q374,85 513,85 Q653,85 741.5,171.5 Q830,258 830,388"/> 
            <glyph glyph-name="R" unicode="&#x52;" horiz-adv-x="789" d=" M220,692 L220,441 M90,0 L90,777 L420,777 Q600,777 684.5,726 Q769,675 769,567 Q769,481 704.5,436 Q640,391 534,391 Q598,383 647,351.5 Q696,320 712,258 Q754,98 766,56 Q778,14 789,0 L654,0 Q643,14 632.5,53 Q622,92 588,236 Q572,303 521.5,329.5 Q471,356 350,356 L220,356 L220,0 M220,692 L220,441 L420,441 Q520,441 576,469 Q632,497 632,567 Q632,637 576,664.5 Q520,692 420,692"/> 
            <glyph glyph-name="S" unicode="&#x53;" horiz-adv-x="774" d=" M348,476 L546,432 Q774,381 774,208 Q774,102 681,44 Q588,-14 441,-14 Q334,-14 252.5,14 Q171,42 127.5,86 Q84,130 63,174.5 Q42,219 40,263 L174,302 Q174,297 173.5,289.5 Q173,282 176,259.5 Q179,237 187,216.5 Q195,196 213.5,171 Q232,146 259.5,128 Q287,110 333,97.5 Q379,85 438,85 Q530,85 584.5,118.5 Q639,152 639,202 Q639,254 599,278.5 Q559,303 463,326 L274,370 Q176,393 126,445 Q76,497 76,568 Q76,663 155.5,727 Q235,791 389,791 Q458,791 515,778 Q572,765 607,744.5 Q642,724 668.5,699.5 Q695,675 707.5,650.5 Q720,626 727.5,605.5 Q735,585 736,572 L737,559 L603,523 Q604,530 603.5,541.5 Q603,553 592.5,582 Q582,611 562,633 Q542,655 495.5,673.5 Q449,692 383,692 Q305,692 258,661 Q211,630 211,580 Q211,538 245,514.5 Q279,491 348,476"/> 
            <glyph glyph-name="T" unicode="&#x54;" horiz-adv-x="787" d=" M0,692 L0,777 L787,777 L787,692 L457,692 L457,0 L330,0 L330,692"/> 
            <glyph glyph-name="U" unicode="&#x55;" horiz-adv-x="826" d=" M696,777 L826,777 L826,321 Q826,-14 458,-14 Q90,-14 90,321 L90,777 L220,777 L220,321 Q220,247 235.5,199 Q251,151 284.5,127 Q318,103 358,94 Q398,85 458,85 Q518,85 558,94 Q598,103 631.5,127 Q665,151 680.5,199 Q696,247 696,321"/> 
            <glyph glyph-name="V" unicode="&#x56;" horiz-adv-x="894" d=" M894,777 L549,0 L365,0 L20,777 L159,777 L457,85 L755,777"/> 
            <glyph glyph-name="W" unicode="&#x57;" horiz-adv-x="1309" d=" M1309,777 L1044,0 L860,0 L664,642 L469,0 L285,0 L20,777 L159,777 L377,85 L585,777 L744,777 L952,85 L1170,777"/> 
            <glyph glyph-name="X" unicode="&#x58;" horiz-adv-x="842" d=" M10,0 L351,388 L10,777 L160,777 L426,474 L692,777 L842,777 L501,388 L842,0 L692,0 L426,303 L160,0"/> 
            <glyph glyph-name="Y" unicode="&#x59;" horiz-adv-x="842" d=" M361,377 L10,777 L160,777 L426,474 L692,777 L842,777 L491,377 L491,0 L361,0"/> 
            <glyph glyph-name="Z" unicode="&#x5A;" horiz-adv-x="723" d=" M723,85 L723,0 L20,0 L20,95 L558,692 L20,692 L20,777 L723,777 L723,682 L185,85"/> 
            <glyph glyph-name="a" unicode="&#x61;" horiz-adv-x="704" d=" M571,366 L565,133 Q563,75 609,75 Q631,75 648.5,87.5 Q666,100 673,112 L680,125 L704,36 Q700,30 691,22 Q682,14 648.5,0 Q615,-14 574,-14 Q521,-14 485.5,16.5 Q450,47 450,115 L450,209 Q445,197 441,188 Q437,179 421,147.5 Q405,116 385.5,92.5 Q366,69 339.5,42.5 Q313,16 277.5,1 Q242,-14 204,-14 Q144,-14 107,20.5 Q70,55 70,108 Q70,146 88.5,183 Q107,220 147.5,257.5 Q188,295 266,323.5 Q344,352 450,364 Q448,365 450,376 Q452,387 445.5,404.5 Q439,422 429,439 Q419,456 393,468 Q367,480 331,480 Q295,480 265,468.5 Q235,457 219,440.5 Q203,424 192,407.5 Q181,391 178,380 L174,368 L50,404 Q52,411 57,422 Q62,433 83.5,461.5 Q105,490 133,511.5 Q161,533 213,551 Q265,569 327,569 Q447,569 510,512 Q573,455 571,366 M197,133 Q197,75 250,75 Q298,75 347.5,122 Q397,169 424,220 Q451,271 450,295 L450,330 Q371,310 317,283 Q263,256 239,227.5 Q215,199 206,177 Q197,155 197,133"/> 
            <glyph glyph-name="b" unicode="&#x62;" horiz-adv-x="687" d=" M284,75 Q458,75 508.5,130.5 Q559,186 559,277 Q559,368 508.5,424 Q458,480 371,480 Q284,480 234.5,421.5 Q185,363 185,277 Q185,191 284,75 M210,777 L210,452 Q212,457 216,465 Q220,473 237,493 Q254,513 274.5,528.5 Q295,544 331,556.5 Q367,569 409,569 Q533,569 610,487 Q687,405 687,277 Q687,149 610,67.5 Q533,-14 409,-14 Q360,-14 320,1 Q280,16 258,37.5 Q236,59 221,80.5 Q206,102 201,117 L196,132 L158,0 L90,0 L90,766 Q118,766 148,769 Q178,772 194,774"/> 
            <glyph glyph-name="c" unicode="&#x63;" horiz-adv-x="667" d=" M543,221 L667,185 Q666,181 664.5,174 Q663,167 654,146 Q645,125 632.5,106.5 Q620,88 596,65 Q572,42 542.5,25.5 Q513,9 467.5,-2.5 Q422,-14 368,-14 Q240,-14 150,64.5 Q60,143 60,278 Q60,406 142,487.5 Q224,569 363,569 Q428,569 479.5,552.5 Q531,536 561.5,510 Q592,484 612.5,449 Q633,414 641,381.5 Q649,349 651,314 L527,278 Q534,362 494,421 Q454,480 363,480 Q280,480 234,424.5 Q188,369 188,278 Q188,183 242,129 Q296,75 383,75 Q428,75 460.5,90 Q493,105 508,126.5 Q523,148 532,169.5 Q541,191 542,206"/> 
            <glyph glyph-name="d" unicode="&#x64;" horiz-adv-x="657" d=" M537,452 L537,766 Q565,766 595,769 Q625,772 641,774 L657,777 L657,0 L589,0 L551,132 Q549,126 545.5,116 Q542,106 526.5,81 Q511,56 489.5,37 Q468,18 427.5,2 Q387,-14 338,-14 Q214,-14 137,67.5 Q60,149 60,277 Q60,405 137,487 Q214,569 338,569 Q380,569 416,557 Q452,545 473,528 Q494,511 509.5,493.5 Q525,476 531,464 M289,75 Q463,75 512.5,133 Q562,191 562,277 Q562,363 512.5,421.5 Q463,480 376,480 Q289,480 238.5,424 Q188,368 188,277 Q188,186 289,75"/> 
            <glyph glyph-name="e" unicode="&#x65;" horiz-adv-x="667" d=" M383,75 Q428,75 461,90 Q494,105 509,126.5 Q524,148 532.5,169.5 Q541,191 542,206 L543,221 L667,185 Q666,177 662,163.5 Q658,150 637.5,115.5 Q617,81 587.5,55 Q558,29 500,7.5 Q442,-14 368,-14 Q240,-14 150,64.5 Q60,143 60,278 Q60,406 142.5,487.5 Q225,569 368,569 Q432,569 482,552 Q532,535 561,508 Q590,481 610.5,448.5 Q631,416 638.5,383.5 Q646,351 650,324 Q654,297 653,280 L652,263 L188,273 Q189,180 243,127.5 Q297,75 383,75 M193,334 L525,339 Q525,345 523.5,354.5 Q522,364 512.5,388 Q503,412 487,431 Q471,450 438,465 Q405,480 361,480 Q292,480 249,440.5 Q206,401 193,334"/> 
            <glyph glyph-name="f" unicode="&#x66;" horiz-adv-x="616" d=" M330,712 Q278,712 248,689 Q218,666 218,626 Q218,606 225.5,588.5 Q233,571 240,563 L248,555 L452,555 L452,480 L254,480 L254,0 L134,0 L134,480 L10,480 L10,555 L169,555 Q165,556 160.5,558 Q156,560 144,567.5 Q132,575 123.5,584.5 Q115,594 108,610.5 Q101,627 101,646 Q101,703 156.5,747 Q212,791 326,791 Q392,791 446,774 Q500,757 530.5,732.5 Q561,708 581.5,684 Q602,660 609,643 L616,626 L492,590 Q491,595 488,603 Q485,611 473,632 Q461,653 445,669.5 Q429,686 398.5,699 Q368,712 330,712"/> 
            <glyph glyph-name="g" unicode="&#x67;" horiz-adv-x="717" d=" M367,182 Q309,182 270,190 Q198,181 198,130 Q198,75 284,75 L474,75 Q594,75 645.5,33 Q697,-9 697,-74 Q697,-233 403,-233 L273,-233 Q149,-233 99.5,-195 Q50,-157 50,-107 Q50,-55 98,-25 Q146,5 219,7 Q204,8 184.5,11.5 Q165,15 136.5,24.5 Q108,34 89,55 Q70,76 70,106 Q70,132 86.5,151.5 Q103,171 130,181 Q157,191 179,195.5 Q201,200 224,202 Q151,225 114.5,271.5 Q78,318 78,375 Q78,457 150.5,513 Q223,569 364,569 Q489,569 564,522 Q542,566 545,597.5 Q548,629 586.5,644 Q625,659 693,651 L717,562 Q628,578 599,541 Q582,517 604,489 Q650,440 650,375 Q650,293 578,237.5 Q506,182 367,182 M206,375 Q206,324 244.5,290.5 Q283,257 364,257 Q445,257 483,290.5 Q521,324 521,375 Q521,427 483,460.5 Q445,494 364,494 Q282,494 244,460.5 Q206,427 206,375 M465,-13 L295,0 Q290,0 282.5,-0.5 Q275,-1 255,-5.5 Q235,-10 219.5,-18.5 Q204,-27 191.5,-45 Q179,-63 179,-87 Q179,-134 222.5,-153 Q266,-172 378,-172 Q479,-172 523.5,-152.5 Q568,-133 568,-87 Q568,-54 544.5,-35.5 Q521,-17 465,-13"/> 
            <glyph glyph-name="h" unicode="&#x68;" horiz-adv-x="658" d=" M210,777 L210,416 Q211,424 215.5,437.5 Q220,451 235,475.5 Q250,500 271.5,519.5 Q293,539 333.5,554 Q374,569 425,569 Q658,569 658,344 L658,0 L538,0 L538,342 Q538,480 381,480 Q338,480 305.5,467.5 Q273,455 255.5,437.5 Q238,420 227,397.5 Q216,375 213,359 Q210,343 210,330 L210,0 L90,0 L90,766 Q122,766 152,769 Q182,772 196,774"/> 
            <glyph glyph-name="i" unicode="&#x69;" horiz-adv-x="210" d=" M90,0 L90,555 L210,555 L210,0 M90,681 L90,777 L210,777 L210,681"/> 
            <glyph glyph-name="j" unicode="&#x6A;" horiz-adv-x="221" d=" M101,7 L101,555 L221,555 L221,15 Q221,-102 170.5,-169.5 Q120,-237 24,-237 Q-12,-237 -40.5,-225.5 Q-69,-214 -80,-202 L-90,-191 L-66,-102 Q-64,-107 -59,-114 Q-54,-121 -36.5,-133 Q-19,-145 2,-145 Q101,-145 101,7 M101,681 L101,777 L221,777 L221,681"/> 
            <glyph glyph-name="k" unicode="&#x6B;" horiz-adv-x="654" d=" M90,0 L90,766 Q122,766 152,769 Q182,772 196,774 L210,777 L210,325 L454,555 L600,555 L352,321 L654,0 L499,0 L267,251 L210,197 L210,0"/> 
            <glyph glyph-name="l" unicode="&#x6C;" horiz-adv-x="210" d=" M90,0 L90,766 Q118,766 148,769 Q178,772 194,774 L210,777 L210,0"/> 
            <glyph glyph-name="m" unicode="&#x6D;" horiz-adv-x="1046" d=" M926,0 L926,342 Q926,480 789,480 Q740,480 705,462 Q670,444 655,417 Q640,390 634,368.5 Q628,347 628,330 L628,0 L508,0 L508,349 Q504,480 371,480 Q322,480 287,462 Q252,444 237,417 Q222,390 216,368.5 Q210,347 210,330 L210,0 L90,0 L90,555 L148,555 L199,390 Q200,397 203,409 Q206,421 221,452 Q236,483 258,506.5 Q280,530 324,549.5 Q368,569 425,569 Q598,569 623,415 Q630,438 642.5,460.5 Q655,483 679.5,509.5 Q704,536 746.5,552.5 Q789,569 843,569 Q954,569 1000,512 Q1046,455 1046,344 L1046,0"/> 
            <glyph glyph-name="n" unicode="&#x6E;" horiz-adv-x="658" d=" M538,0 L538,342 Q538,480 381,480 Q338,480 305.5,467.5 Q273,455 255.5,437.5 Q238,420 227,397.5 Q216,375 213,359 Q210,343 210,330 L210,0 L90,0 L90,555 L148,555 L199,390 Q200,397 202,409 Q204,421 218,452 Q232,483 253.5,506.5 Q275,530 320.5,549.5 Q366,569 425,569 Q658,569 658,344 L658,0"/> 
            <glyph glyph-name="o" unicode="&#x6F;" horiz-adv-x="690" d=" M60,278 Q60,404 145,486.5 Q230,569 375,569 Q520,569 605,486.5 Q690,404 690,278 Q690,151 605,68.5 Q520,-14 375,-14 Q230,-14 145,68.5 Q60,151 60,278 M188,369 Q188,187 238.5,131 Q289,75 375,75 Q460,75 511,131 Q562,187 562,278 Q562,369 511,424.5 Q460,480 375,480 Q289,480 188,369"/> 
            <glyph glyph-name="p" unicode="&#x70;" horiz-adv-x="687" d=" M90,555 L158,555 L196,423 Q198,429 201.5,439 Q205,449 220.5,474 Q236,499 257.5,518 Q279,537 319.5,553 Q360,569 409,569 Q533,569 610,487.5 Q687,406 687,278 Q687,150 610,68 Q533,-14 409,-14 Q366,-14 330,-2 Q294,10 272.5,27.5 Q251,45 236,62.5 Q221,80 216,92 L210,104 L210,-223 L90,-223 M458,480 Q284,480 234.5,422 Q185,364 185,278 Q185,192 234.5,133.5 Q284,75 371,75 Q458,75 508.5,131 Q559,187 559,278 Q559,369 458,480"/> 
            <glyph glyph-name="q" unicode="&#x71;" horiz-adv-x="657" d=" M589,555 L657,555 L657,-223 L537,-223 L537,103 Q535,98 531,90 Q527,82 510,62 Q493,42 472.5,26.5 Q452,11 416,-1.5 Q380,-14 338,-14 Q214,-14 137,68 Q60,150 60,278 Q60,406 137,487.5 Q214,569 338,569 Q387,569 427,554 Q467,539 489,517.5 Q511,496 526,474.5 Q541,453 546,438 L551,423 M463,480 Q289,480 238.5,424.5 Q188,369 188,278 Q188,187 238.5,131 Q289,75 376,75 Q463,75 512.5,133.5 Q562,192 562,278 Q562,364 463,480"/> 
            <glyph glyph-name="r" unicode="&#x72;" horiz-adv-x="492" d=" M210,329 L210,0 L90,0 L90,555 L148,555 L199,390 Q200,397 202,409 Q204,421 215.5,452 Q227,483 244,506.5 Q261,530 294.5,549.5 Q328,569 371,569 Q492,569 492,433 Q492,401 487,371.5 Q482,342 477,328 L472,315 L348,279 Q369,343 369,407 Q369,480 320,480 Q285,480 258,448 Q231,416 220.5,382.5 Q210,349 210,329"/> 
            <glyph glyph-name="s" unicode="&#x73;" horiz-adv-x="607" d=" M576,402 L452,366 Q452,371 452,378.5 Q452,386 445.5,405.5 Q439,425 425.5,440 Q412,455 380.5,467.5 Q349,480 304,480 Q246,480 217.5,460.5 Q189,441 189,409 Q189,357 301,338 L437,314 Q607,284 607,160 Q607,82 536,34 Q465,-14 360,-14 Q279,-14 216,6.5 Q153,27 121,56.5 Q89,86 69,115 Q49,144 44,164 L40,185 L164,221 Q164,218 163.5,212.5 Q163,207 165.5,192 Q168,177 173.5,163.5 Q179,150 193,133 Q207,116 227.5,104 Q248,92 282.5,83.5 Q317,75 361,75 Q416,75 447.5,96 Q479,117 479,150 Q479,210 363,231 L241,253 Q153,269 112,309 Q71,349 71,403 Q71,480 138,524.5 Q205,569 306,569 Q358,569 401,560 Q444,551 471,536 Q498,521 518.5,503.5 Q539,486 549.5,468 Q560,450 566.5,435 Q573,420 574,411"/> 
            <glyph glyph-name="t" unicode="&#x74;" horiz-adv-x="512" d=" M20,480 L20,555 L149,555 L149,681 L264,761 L264,555 L492,555 L492,480 L264,480 L264,201 Q264,75 361,75 Q388,75 411,83 Q434,91 447.5,103 Q461,115 471,127 Q481,139 484,147 L488,155 L512,66 Q510,63 505.5,57.5 Q501,52 485.5,38 Q470,24 451.5,13.5 Q433,3 401.5,-5.5 Q370,-14 336,-14 Q244,-14 194,36 Q144,86 144,188 L144,480"/> 
            <glyph glyph-name="u" unicode="&#x75;" horiz-adv-x="658" d=" M210,555 L210,213 Q210,75 367,75 Q410,75 442.5,87.5 Q475,100 492.5,117.5 Q510,135 521,157.5 Q532,180 535,196 Q538,212 538,225 L538,555 L658,555 L658,0 L600,0 L549,165 Q548,158 546,146 Q544,134 530,103 Q516,72 494.5,48.5 Q473,25 427.5,5.5 Q382,-14 323,-14 Q90,-14 90,211 L90,555"/> 
            <glyph glyph-name="v" unicode="&#x76;" horiz-adv-x="658" d=" M658,555 L399,0 L268,0 L10,555 L148,555 L334,107 L522,555"/> 
            <glyph glyph-name="w" unicode="&#x77;" horiz-adv-x="1001" d=" M225,0 L10,555 L148,555 L297,107 L433,555 L578,555 L715,107 L863,555 L1001,555 L787,0 L655,0 L506,465 L356,0"/> 
            <glyph glyph-name="x" unicode="&#x78;" horiz-adv-x="652" d=" M10,0 L262,276 L10,555 L159,555 L331,350 L503,555 L652,555 L399,276 L652,0 L499,0 L331,204 L164,0"/> 
            <glyph glyph-name="y" unicode="&#x79;" horiz-adv-x="626" d=" M246,-1 L262,35 L10,555 L148,555 L323,162 L490,555 L626,555 L357,0 Q297,-124 246,-180.5 Q195,-237 129,-237 Q96,-237 68.5,-225.5 Q41,-214 30,-202 L19,-191 L33,-102 Q36,-107 41,-114.5 Q46,-122 64,-133.5 Q82,-145 104,-145 Q140,-145 179,-105 Q218,-65 246,-1"/> 
            <glyph glyph-name="z" unicode="&#x7A;" horiz-adv-x="570" d=" M40,0 L40,85 L420,480 L40,480 L40,555 L570,555 L570,470 L195,75 L570,75 L570,0"/> 
            <glyph glyph-name="À" unicode="&#xC0;" horiz-adv-x="954" d=" M815,0 L704,247 L269,247 L158,0 L20,0 L380,777 L594,777 L954,0 M470,692 L308,332 L666,332 L505,692 M296,1043 L446,1043 L562,855 L495,855"/> 
            <glyph glyph-name="È" unicode="&#xC8;" horiz-adv-x="705" d=" M90,0 L90,777 L676,777 L676,692 L220,692 L220,432 L648,432 L648,347 L220,347 L220,85 L705,85 L705,0 M206,1043 L356,1043 L472,855 L405,855"/> 
            <glyph glyph-name="É" unicode="&#xC9;" horiz-adv-x="705" d=" M90,0 L90,777 L676,777 L676,692 L220,692 L220,432 L648,432 L648,347 L220,347 L220,85 L705,85 L705,0 M436,1043 L586,1043 L387,855 L320,855"/> 
            <glyph glyph-name="Ò" unicode="&#xD2;" horiz-adv-x="967" d=" M967,565 Q967,211 842.5,98.5 Q718,-14 513,-14 Q308,-14 184,98.5 Q60,211 60,388 Q60,566 184,678.5 Q308,791 513,791 Q718,791 967,565 M830,388 Q830,519 741.5,605.5 Q653,692 513,692 Q374,692 285.5,605.5 Q197,519 197,388 Q197,258 285.5,171.5 Q374,85 513,85 Q653,85 741.5,171.5 Q830,258 830,388 M293,1043 L443,1043 L559,855 L492,855"/> 
            <glyph glyph-name="Ù" unicode="&#xD9;" horiz-adv-x="826" d=" M696,777 L826,777 L826,321 Q826,-14 458,-14 Q90,-14 90,321 L90,777 L220,777 L220,321 Q220,247 235.5,199 Q251,151 284.5,127 Q318,103 358,94 Q398,85 458,85 Q518,85 558,94 Q598,103 631.5,127 Q665,151 680.5,199 Q696,247 696,321 M256,1043 L406,1043 L522,855 L455,855"/> 
            <glyph glyph-name="à" unicode="&#xE0;" horiz-adv-x="704" d=" M565,133 L571,366 Q573,455 510,512 Q447,569 327,569 Q281,569 241.5,560 Q202,551 174.5,536.5 Q147,522 124.5,504 Q102,486 88.5,468.5 Q75,451 66,436.5 Q57,422 54,413 L50,404 L174,368 Q175,373 177.5,380.5 Q180,388 192,407 Q204,426 219.5,441 Q235,456 265,468 Q295,480 331,480 Q367,480 392.5,468 Q418,456 429,439 Q440,422 445.5,405 Q451,388 450,376 L450,364 Q344,352 266,323.5 Q188,295 147.5,257.5 Q107,220 88.5,183 Q70,146 70,108 Q70,55 107,20.5 Q144,-14 204,-14 Q242,-14 277.5,1 Q313,16 339.5,42.5 Q366,69 385.5,92.5 Q405,116 421,147.5 Q437,179 441,188 Q445,197 450,209 L450,115 Q450,47 485.5,16.5 Q521,-14 574,-14 Q615,-14 647.5,-1.5 Q680,11 692,24 L704,36 L680,125 Q678,119 673,111 Q668,103 649.5,89 Q631,75 609,75 Q563,75 565,133 M197,133 Q197,155 206,177 Q215,199 239,227.5 Q263,256 317,283 Q371,310 450,330 L450,295 Q451,271 424,220 Q397,169 347.5,122 Q298,75 250,75 Q197,75 197,133 M135,821 L285,821 L401,633 L334,633"/> 
            <glyph glyph-name="è" unicode="&#xE8;" horiz-adv-x="667" d=" M383,75 Q297,75 243,127.5 Q189,180 188,273 L652,263 Q653,269 653,280 Q653,291 650,323 Q647,355 639,384 Q631,413 610.5,448 Q590,483 561,508.5 Q532,534 482,551.5 Q432,569 368,569 Q225,569 142.5,487.5 Q60,406 60,278 Q60,143 150,64.5 Q240,-14 368,-14 Q442,-14 500,6.5 Q558,27 588,56.5 Q618,86 637.5,115 Q657,144 662,164 L667,185 L543,221 Q543,215 542,205 Q541,195 532.5,170 Q524,145 509,126 Q494,107 461,91 Q428,75 383,75 M525,339 L193,334 Q206,401 249,440.5 Q292,480 361,480 Q405,480 438,465.5 Q471,451 487,430.5 Q503,410 512.5,389 Q522,368 524,354 M170,821 L320,821 L436,633 L369,633"/> 
            <glyph glyph-name="é" unicode="&#xE9;" horiz-adv-x="667" d=" M383,75 Q297,75 243,127.5 Q189,180 188,273 L652,263 Q653,269 653,280 Q653,291 650,323 Q647,355 639,384 Q631,413 610.5,448 Q590,483 561,508.5 Q532,534 482,551.5 Q432,569 368,569 Q225,569 142.5,487.5 Q60,406 60,278 Q60,143 150,64.5 Q240,-14 368,-14 Q442,-14 500,6.5 Q558,27 588,56.5 Q618,86 637.5,115 Q657,144 662,164 L667,185 L543,221 Q543,215 542,205 Q541,195 532.5,170 Q524,145 509,126 Q494,107 461,91 Q428,75 383,75 M525,339 L193,334 Q206,401 249,440.5 Q292,480 361,480 Q405,480 438,465.5 Q471,451 487,430.5 Q503,410 512.5,389 Q522,368 524,354 M420,821 L570,821 L371,633 L304,633"/> 
            <glyph glyph-name="ò" unicode="&#xF2;" horiz-adv-x="690" d=" M60,278 Q60,404 145,486.5 Q230,569 375,569 Q520,569 605,486.5 Q690,404 690,278 Q690,151 605,68.5 Q520,-14 375,-14 Q230,-14 145,68.5 Q60,151 60,278 M188,369 Q188,187 238.5,131 Q289,75 375,75 Q460,75 511,131 Q562,187 562,278 Q562,369 511,424.5 Q460,480 375,480 Q289,480 188,369 M174,821 L324,821 L440,633 L373,633"/> 
            <glyph glyph-name="ù" unicode="&#xF9;" horiz-adv-x="658" d=" M210,555 L210,213 Q210,75 367,75 Q410,75 442.5,87.5 Q475,100 492.5,117.5 Q510,135 521,157.5 Q532,180 535,196 Q538,212 538,225 L538,555 L658,555 L658,0 L600,0 L549,165 Q548,158 546,146 Q544,134 530,103 Q516,72 494.5,48.5 Q473,25 427.5,5.5 Q382,-14 323,-14 Q90,-14 90,211 L90,555 M183,821 L333,821 L449,633 L382,633"/> 
            <glyph glyph-name="‘" unicode="&#x2018;" horiz-adv-x="258" d=" M90,481 L90,601 Q90,656 110,706 Q130,756 150,779 L170,802 L258,776 Q254,774 248,770 Q242,766 225.5,751.5 Q209,737 195.5,721 Q182,705 168.5,679 Q155,653 149,626 L220,626 L220,481"/> 
            <glyph glyph-name="’" unicode="&#x2019;" horiz-adv-x="220" d=" M220,802 L220,682 Q220,627 200,577 Q180,527 160,504 L140,481 L52,507 Q56,509 62,513 Q68,517 84.5,531.5 Q101,546 114.5,562 Q128,578 141.5,604 Q155,630 161,657 L90,657 L90,802"/> 
            <glyph glyph-name="	" unicode="&#x9;" horiz-adv-x="843" d=" M60,682 L60,777 L733,777 L733,682 L455,395 Q570,252 675,85 L843,85 L843,0 L727,0 Q758,-52 784.5,-101.5 Q811,-151 822,-174 L834,-198 L702,-238 Q666,-141 590,0 L20,0 L20,95 L321,406 Q200,557 60,682 M542,85 Q468,210 385,323 L155,85 M598,692 L169,692 Q279,599 388,475"/> 
            <glyph glyph-name="" unicode="&#xD;" horiz-adv-x="843" d=" M60,682 L60,777 L733,777 L733,682 L455,395 Q570,252 675,85 L843,85 L843,0 L727,0 Q758,-52 784.5,-101.5 Q811,-151 822,-174 L834,-198 L702,-238 Q666,-141 590,0 L20,0 L20,95 L321,406 Q200,557 60,682 M542,85 Q468,210 385,323 L155,85 M598,692 L169,692 Q279,599 388,475"/> 
            <glyph glyph-name="&amp;" unicode="&#x26;" horiz-adv-x="361" d=" M40,244 Q40,434 72.5,518 Q105,602 155,657 Q205,712 259,746 Q313,780 361,787 L361,746 Q333,740 300,721.5 Q267,703 231.5,668 Q196,633 167,588 Q138,543 119.5,477.5 Q101,412 101,339 Q101,266 119.5,200.5 Q138,135 167,90 Q196,45 231.5,10 Q267,-25 300,-43.5 Q333,-62 361,-68 L361,-109 Q313,-102 259,-68 Q205,-34 155,21 Q105,76 40,244"/> 
            <glyph glyph-name="(" unicode="&#x28;" horiz-adv-x="341" d=" M341,434 Q341,244 308.5,160 Q276,76 226,21 Q176,-34 122,-68 Q68,-102 20,-109 L20,-68 Q48,-62 81,-43.5 Q114,-25 149.5,10 Q185,45 214,90 Q243,135 261.5,200.5 Q280,266 280,339 Q280,412 261.5,477.5 Q243,543 214,588 Q185,633 149.5,668 Q114,703 81,721.5 Q48,740 20,746 L20,787 Q68,780 122,746 Q176,712 226,657 Q276,602 341,434"/> 
            <glyph glyph-name=")" unicode="&#x29;" horiz-adv-x="220" d=" M220,145 L220,25 Q220,-30 200,-80 Q180,-130 160,-153 L140,-176 L52,-150 Q56,-148 62,-144 Q68,-140 84.5,-125.5 Q101,-111 114.5,-95 Q128,-79 141.5,-53 Q155,-27 161,0 L90,0 L90,145"/> 
            <glyph glyph-name="," unicode="&#x2C;" horiz-adv-x="462" d=" M462,260 L40,260 L40,335 L462,335"/> 
            <glyph glyph-name="-" unicode="&#x2D;" horiz-adv-x="220" d=" M90,0 L90,145 L220,145 L220,0"/> 
            <glyph glyph-name="." unicode="&#x2E;" horiz-adv-x="740" d=" M740,389 Q740,207 652.5,96.5 Q565,-14 400,-14 Q235,-14 147.5,96.5 Q60,207 60,389 Q60,570 147.5,680.5 Q235,791 400,791 Q565,791 652.5,680.5 Q740,570 740,389 M603,389 Q603,527 554.5,609.5 Q506,692 400,692 Q294,692 245.5,609.5 Q197,527 197,389 Q197,250 245.5,167.5 Q294,85 400,85 Q506,85 554.5,167.5 Q603,250 603,389"/> 
            <glyph glyph-name="0" unicode="&#x30;" horiz-adv-x="750" d=" M750,0 L110,0 L110,85 L410,85 L409,692 Q409,632 397,595 Q385,558 352.5,530.5 Q320,503 261.5,491.5 Q203,480 110,480 L110,579 Q266,579 338,623 Q410,667 410,777 L540,777 L540,85 L750,85"/> 
            <glyph glyph-name="1" unicode="&#x31;" horiz-adv-x="730" d=" M715,536 Q715,479 690,424 Q665,369 631.5,329.5 Q598,290 544,247.5 Q490,205 452.5,181.5 Q415,158 360,126 Q305,94 290,85 L730,85 L730,0 L90,0 L90,75 Q100,79 117.5,87 Q135,95 186,121 Q237,147 283,175 Q329,203 385,245.5 Q441,288 481.5,330.5 Q522,373 550,426.5 Q578,480 578,532 Q578,602 533.5,647 Q489,692 400,692 Q314,692 271.5,647 Q229,602 229,534 Q229,505 239,477.5 Q249,450 262.5,431.5 Q276,413 290,399 Q304,385 314,378 L324,372 L190,333 Q186,336 179.5,342 Q173,348 157,367.5 Q141,387 128.5,409.5 Q116,432 105.5,467 Q95,502 95,539 Q95,638 176,714.5 Q257,791 403,791 Q553,791 634,720 Q715,649 715,536"/> 
            <glyph glyph-name="2" unicode="&#x32;" horiz-adv-x="740" d=" M387,356 L337,356 L337,441 L387,441 Q476,441 529.5,475.5 Q583,510 583,569 Q583,623 537.5,657.5 Q492,692 417,692 Q359,692 318,673 Q277,654 260,627.5 Q243,601 234,574 Q225,547 225,528 L225,509 L91,549 Q92,554 93.5,562.5 Q95,571 104,596.5 Q113,622 126,644.5 Q139,667 165,695 Q191,723 224,743 Q257,763 308.5,777 Q360,791 422,791 Q554,791 637,732.5 Q720,674 720,587 Q720,544 701.5,511 Q683,478 659,461 Q635,444 603,433.5 Q571,423 552,420 Q533,417 518,417 Q535,417 555,414 Q575,411 610.5,399 Q646,387 672.5,367.5 Q699,348 719.5,310 Q740,272 740,221 Q740,143 693.5,88.5 Q647,34 574,10 Q501,-14 410,-14 Q339,-14 280.5,1 Q222,16 185.5,39.5 Q149,63 121.5,91.5 Q94,120 81,149 Q68,178 60.5,201.5 Q53,225 52,240 L50,255 L184,294 Q183,286 183.5,271.5 Q184,257 194.5,221 Q205,185 225.5,157.5 Q246,130 293,107.5 Q340,85 407,85 Q499,85 551,120.5 Q603,156 603,222 Q603,356 387,356"/> 
            <glyph glyph-name="3" unicode="&#x33;" horiz-adv-x="790" d=" M40,188 L40,313 L462,777 L634,777 L634,273 L790,273 L790,188 L634,188 L634,0 L504,0 L504,188 M504,682 L141,273 L504,273"/> 
            <glyph glyph-name="4" unicode="&#x34;" horiz-adv-x="740" d=" M740,255 Q740,129 649,57.5 Q558,-14 406,-14 Q335,-14 277.5,1 Q220,16 184,39.5 Q148,63 121,91.5 Q94,120 81,149 Q68,178 60.5,201.5 Q53,225 52,240 L50,255 L184,294 Q186,293 184,282 Q182,271 186.5,252.5 Q191,234 196.5,212 Q202,190 219,167.5 Q236,145 258,126.5 Q280,108 318.5,96.5 Q357,85 406,85 Q495,85 549,132 Q603,179 603,255 Q603,331 549,377.5 Q495,424 406,424 Q354,424 313,412 Q272,400 257,388 L242,376 L109,376 L180,777 L704,777 L704,692 L291,692 L244,422 Q246,426 250.5,433 Q255,440 272.5,457.5 Q290,475 312,488 Q334,501 373,512 Q412,523 457,523 Q572,523 656,447.5 Q740,372 740,255"/> 
            <glyph glyph-name="5" unicode="&#x35;" horiz-adv-x="740" d=" M468,500 Q580,500 660,434.5 Q740,369 740,243 Q740,131 648.5,58.5 Q557,-14 416,-14 Q249,-14 154.5,97.5 Q60,209 60,389 Q60,567 156.5,679 Q253,791 420,791 Q493,791 552,768 Q611,745 643,712.5 Q675,680 696,647.5 Q717,615 724,592 L730,569 L597,529 Q596,536 594,547 Q592,558 581,586 Q570,614 552.5,635.5 Q535,657 500,674.5 Q465,692 420,692 Q312,692 254.5,607.5 Q197,523 197,389 Q197,371 199,335 Q221,415 294,457.5 Q367,500 468,500 M416,85 Q509,85 556,128.5 Q603,172 603,243 Q603,314 556,357.5 Q509,401 416,401 Q338,401 284,359 Q230,317 215,251 Q238,173 288.5,129 Q339,85 416,85"/> 
            <glyph glyph-name="6" unicode="&#x36;" horiz-adv-x="770" d=" M770,777 L770,662 Q763,662 751,659.5 Q739,657 702.5,642.5 Q666,628 630.5,604.5 Q595,581 547,530.5 Q499,480 457,413 Q415,346 372.5,238.5 Q330,131 300,0 L160,0 Q188,129 230.5,236.5 Q273,344 316,412.5 Q359,481 410.5,535.5 Q462,590 500.5,617 Q539,644 581,663 Q623,682 637.5,686 Q652,690 664,692 L30,692 L30,777"/> 
            <glyph glyph-name="7" unicode="&#x37;" horiz-adv-x="760" d=" M730,574 Q730,534 711.5,501 Q693,468 670,449.5 Q647,431 616.5,417 Q586,403 570.5,399 Q555,395 544,393 Q558,392 572.5,390 Q587,388 624.5,376.5 Q662,365 689,347.5 Q716,330 738,295 Q760,260 760,214 Q760,137 708.5,84.5 Q657,32 578,9 Q499,-14 400,-14 Q301,-14 222,9 Q143,32 91.5,84.5 Q40,137 40,214 Q40,257 59.5,292 Q79,327 104,346.5 Q129,366 161.5,380 Q194,394 210.5,398.5 Q227,403 239,405 Q229,407 214.5,411 Q200,415 172.5,428 Q145,441 124,458 Q103,475 86.5,506 Q70,537 70,574 Q70,670 165,730.5 Q260,791 400,791 Q540,791 635,730.5 Q730,670 730,574 M623,214 Q623,250 604.5,277.5 Q586,305 561,319.5 Q536,334 502.5,342.5 Q469,351 445.5,353.5 Q422,356 400,356 Q302,356 239.5,322.5 Q177,289 177,214 Q177,148 239,116.5 Q301,85 400,85 Q499,85 561,116.5 Q623,148 623,214 M207,574 Q207,535 228,508 Q249,481 282.5,469 Q316,457 344,453 Q372,449 400,449 Q593,449 593,574 Q593,624 544.5,658 Q496,692 400,692 Q304,692 255.5,658 Q207,624 207,574"/> 
            <glyph glyph-name="8" unicode="&#x38;" horiz-adv-x="740" d=" M332,277 Q220,277 140,342.5 Q60,408 60,534 Q60,646 151.5,718.5 Q243,791 384,791 Q551,791 645.5,679.5 Q740,568 740,388 Q740,210 643.5,98 Q547,-14 380,-14 Q307,-14 248,9 Q189,32 157,64.5 Q125,97 104,129.5 Q83,162 76,185 L70,208 L203,248 Q204,241 206,230 Q208,219 219,191 Q230,163 247.5,141.5 Q265,120 300,102.5 Q335,85 380,85 Q488,85 545.5,169.5 Q603,254 603,388 Q603,415 600,442 Q580,369 513,323 Q446,277 332,277 M384,692 Q291,692 244,648.5 Q197,605 197,534 Q197,463 244,419.5 Q291,376 384,376 Q462,376 515.5,419 Q569,462 585,526 Q562,604 511,648 Q460,692 384,692"/> 
            <glyph glyph-name="9" unicode="&#x39;" horiz-adv-x="220" d=" M90,0 L90,145 L220,145 L220,0 M90,410 L90,555 L220,555 L220,410"/> 
            <glyph glyph-name=":" unicode="&#x3A;" horiz-adv-x="954" d=" M815,0 L704,247 L269,247 L158,0 L20,0 L380,777 L594,777 L954,0 M470,692 L308,332 L666,332 L505,692"/> 
            <glyph glyph-name="A" unicode="&#x41;" horiz-adv-x="789" d=" M789,221 Q789,110 704,55 Q619,0 440,0 L90,0 L90,777 L420,777 Q769,777 769,587 Q769,547 752.5,514.5 Q736,482 715.5,465.5 Q695,449 667.5,437 Q640,425 626.5,422 Q613,419 603,418 Q611,417 616.5,416.5 Q622,416 643.5,410.5 Q665,405 680.5,397.5 Q696,390 718,374.5 Q740,359 754,339.5 Q768,320 778.5,289 Q789,258 789,221 M440,356 L220,356 L220,85 L440,85 Q488,85 524,91 Q560,97 590.5,111.5 Q621,126 636.5,153.5 Q652,181 652,221 Q652,274 622.5,305 Q593,336 549.5,346 Q506,356 440,356 M220,692 L220,441 L420,441 Q520,441 576,469 Q632,497 632,567 Q632,637 576,664.5 Q520,692 420,692"/> 
            <glyph glyph-name="B" unicode="&#x42;" horiz-adv-x="924" d=" M790,332 L924,293 M903,469 L769,429 M903,469 L769,429 Q769,434 768,443.5 Q767,453 760.5,480.5 Q754,508 744,533 Q734,558 713,588 Q692,618 664,640 Q636,662 591.5,677 Q547,692 493,692 Q356,692 276.5,606.5 Q197,521 197,388 Q197,257 281,171 Q365,85 503,85 Q560,85 607,98.5 Q654,112 683,134 Q712,156 733.5,182 Q755,208 765.5,234.5 Q776,261 782,283 Q788,305 789,318 L790,332 L924,293 Q923,287 921,275.5 Q919,264 908.5,232.5 Q898,201 881.5,172 Q865,143 832,107.5 Q799,72 757,46.5 Q715,21 649,3.5 Q583,-14 503,-14 Q299,-14 179.5,98 Q60,210 60,388 Q60,568 175,679.5 Q290,791 493,791 Q570,791 634.5,773 Q699,755 740,727 Q781,699 813,664.5 Q845,630 861,595.5 Q877,561 887.5,533 Q898,505 900,487"/> 
            <glyph glyph-name="C" unicode="&#x43;" horiz-adv-x="863" d=" M90,777 L440,777 Q635,777 749,672.5 Q863,568 863,388 Q863,208 749,104 Q635,0 440,0 L90,0 M380,692 L220,692 L220,85 L380,85 Q547,85 636.5,162 Q726,239 726,388 Q726,537 636,614.5 Q546,692 380,692"/> 
            <glyph glyph-name="D" unicode="&#x44;" horiz-adv-x="705" d=" M90,0 L90,777 L676,777 L676,692 L220,692 L220,432 L648,432 L648,347 L220,347 L220,85 L705,85 L705,0"/> 
            <glyph glyph-name="E" unicode="&#x45;" horiz-adv-x="676" d=" M90,0 L90,777 L676,777 L676,692 L220,692 L220,432 L648,432 L648,347 L220,347 L220,0"/> 
            <glyph glyph-name="F" unicode="&#x46;" horiz-adv-x="900" d=" M900,499 L766,459 M900,499 L766,459 Q766,464 764.5,472.5 Q763,481 755.5,505 Q748,529 737.5,551 Q727,573 705.5,600 Q684,627 656.5,646 Q629,665 586.5,678.5 Q544,692 493,692 Q356,692 276.5,606.5 Q197,521 197,388 Q197,257 274.5,171 Q352,85 483,85 Q536,85 579.5,97.5 Q623,110 650.5,129.5 Q678,149 699,173 Q720,197 730.5,221 Q741,245 747.5,264.5 Q754,284 756,296 L757,309 L464,309 L464,394 L887,394 L887,0 L757,0 L757,149 Q753,140 747.5,128.5 Q742,117 719.5,89 Q697,61 667,40.5 Q637,20 583,3 Q529,-14 463,-14 Q281,-14 170.5,98.5 Q60,211 60,388 Q60,568 175,679.5 Q290,791 493,791 Q567,791 629,775 Q691,759 731.5,733 Q772,707 804,676 Q836,645 853.5,614 Q871,583 882,557 Q893,531 896,515"/> 
            <glyph glyph-name="G" unicode="&#x47;" horiz-adv-x="840" d=" M710,0 L710,347 L220,347 L220,0 L90,0 L90,777 L220,777 L220,432 L710,432 L710,777 L840,777 L840,0"/> 
            <glyph glyph-name="H" unicode="&#x48;" horiz-adv-x="220" d=" M90,777 L220,777 L220,0 L90,0"/> 
            <glyph glyph-name="I" unicode="&#x49;" horiz-adv-x="684" d=" M194,332 Q190,317 190,299 Q190,203 236,144 Q282,85 372,85 Q462,85 508,144 Q554,203 554,299 L554,777 L684,777 L684,299 Q684,143 601.5,64.5 Q519,-14 372,-14 Q227,-14 144,63 Q61,140 60,293"/> 
            <glyph glyph-name="J" unicode="&#x4A;" horiz-adv-x="842" d=" M692,0 L347,392 L220,280 L220,0 L90,0 L90,777 L220,777 L220,409 L622,777 L782,777 L431,467 L842,0"/> 
            <glyph glyph-name="K" unicode="&#x4B;" horiz-adv-x="665" d=" M90,0 L90,777 L220,777 L220,85 L665,85 L665,0"/> 
            <glyph glyph-name="L" unicode="&#x4C;" horiz-adv-x="1132" d=" M611,85 L932,777 L1132,777 L1132,0 L1002,0 L1002,642 L696,0 L526,0 L220,642 L220,0 L90,0 L90,777 L290,777"/> 
            <glyph glyph-name="M" unicode="&#x4D;" horiz-adv-x="841" d=" M841,777 L841,0 L681,0 L220,642 L220,0 L90,0 L90,777 L250,777 L711,135 L711,777"/> 
            <glyph glyph-name="N" unicode="&#x4E;" horiz-adv-x="967" d=" M967,565 Q967,211 842.5,98.5 Q718,-14 513,-14 Q308,-14 184,98.5 Q60,211 60,388 Q60,566 184,678.5 Q308,791 513,791 Q718,791 967,565 M830,388 Q830,519 741.5,605.5 Q653,692 513,692 Q374,692 285.5,605.5 Q197,519 197,388 Q197,258 285.5,171.5 Q374,85 513,85 Q653,85 741.5,171.5 Q830,258 830,388"/> 
            <glyph glyph-name="O" unicode="&#x4F;" horiz-adv-x="769" d=" M220,692 L220,441 M90,0 L90,777 L420,777 Q600,777 684.5,726 Q769,675 769,567 Q769,459 684,407.5 Q599,356 420,356 L220,356 L220,0 M220,692 L220,441 L420,441 Q520,441 576,469 Q632,497 632,567 Q632,637 576,664.5 Q520,692 420,692"/> 
            <glyph glyph-name="P" unicode="&#x50;" horiz-adv-x="967" d=" M893,-46 L922,-153 Q921,-156 917.5,-160 Q914,-164 901.5,-174.5 Q889,-185 872,-193.5 Q855,-202 825.5,-208.5 Q796,-215 760,-215 Q671,-215 629,-172.5 Q587,-130 586,-72 Q586,-31 599,-8 Q558,-14 513,-14 Q308,-14 184,98.5 Q60,211 60,388 Q60,566 184,678.5 Q308,791 513,791 Q718,791 842.5,678 Q967,565 967,388 Q967,252 890.5,151 Q814,50 681,10 L682,10 Q654,0 654,-36 Q654,-117 759,-117 Q793,-117 819,-109.5 Q845,-102 858.5,-92 Q872,-82 880.5,-71.5 Q889,-61 891,-54 M830,388 Q830,519 741.5,605.5 Q653,692 513,692 Q374,692 285.5,605.5 Q197,519 197,388 Q197,258 285.5,171.5 Q374,85 513,85 Q653,85 741.5,171.5 Q830,258 830,388"/> 
            <glyph glyph-name="Q" unicode="&#x51;" horiz-adv-x="789" d=" M220,692 L220,441 M90,0 L90,777 L420,777 Q600,777 684.5,726 Q769,675 769,567 Q769,481 704.5,436 Q640,391 534,391 Q598,383 647,351.5 Q696,320 712,258 Q754,98 766,56 Q778,14 789,0 L654,0 Q643,14 632.5,53 Q622,92 588,236 Q572,303 521.5,329.5 Q471,356 350,356 L220,356 L220,0 M220,692 L220,441 L420,441 Q520,441 576,469 Q632,497 632,567 Q632,637 576,664.5 Q520,692 420,692"/> 
            <glyph glyph-name="R" unicode="&#x52;" horiz-adv-x="774" d=" M348,476 L546,432 Q774,381 774,208 Q774,102 681,44 Q588,-14 441,-14 Q334,-14 252.5,14 Q171,42 127.5,86 Q84,130 63,174.5 Q42,219 40,263 L174,302 Q174,297 173.5,289.5 Q173,282 176,259.5 Q179,237 187,216.5 Q195,196 213.5,171 Q232,146 259.5,128 Q287,110 333,97.5 Q379,85 438,85 Q530,85 584.5,118.5 Q639,152 639,202 Q639,254 599,278.5 Q559,303 463,326 L274,370 Q176,393 126,445 Q76,497 76,568 Q76,663 155.5,727 Q235,791 389,791 Q458,791 515,778 Q572,765 607,744.5 Q642,724 668.5,699.5 Q695,675 707.5,650.5 Q720,626 727.5,605.5 Q735,585 736,572 L737,559 L603,523 Q604,530 603.5,541.5 Q603,553 592.5,582 Q582,611 562,633 Q542,655 495.5,673.5 Q449,692 383,692 Q305,692 258,661 Q211,630 211,580 Q211,538 245,514.5 Q279,491 348,476"/> 
            <glyph glyph-name="S" unicode="&#x53;" horiz-adv-x="787" d=" M0,692 L0,777 L787,777 L787,692 L457,692 L457,0 L330,0 L330,692"/> 
            <glyph glyph-name="T" unicode="&#x54;" horiz-adv-x="826" d=" M696,777 L826,777 L826,321 Q826,-14 458,-14 Q90,-14 90,321 L90,777 L220,777 L220,321 Q220,247 235.5,199 Q251,151 284.5,127 Q318,103 358,94 Q398,85 458,85 Q518,85 558,94 Q598,103 631.5,127 Q665,151 680.5,199 Q696,247 696,321"/> 
            <glyph glyph-name="U" unicode="&#x55;" horiz-adv-x="894" d=" M894,777 L549,0 L365,0 L20,777 L159,777 L457,85 L755,777"/> 
            <glyph glyph-name="V" unicode="&#x56;" horiz-adv-x="1309" d=" M1309,777 L1044,0 L860,0 L664,642 L469,0 L285,0 L20,777 L159,777 L377,85 L585,777 L744,777 L952,85 L1170,777"/> 
            <glyph glyph-name="W" unicode="&#x57;" horiz-adv-x="842" d=" M10,0 L351,388 L10,777 L160,777 L426,474 L692,777 L842,777 L501,388 L842,0 L692,0 L426,303 L160,0"/> 
            <glyph glyph-name="X" unicode="&#x58;" horiz-adv-x="842" d=" M361,377 L10,777 L160,777 L426,474 L692,777 L842,777 L491,377 L491,0 L361,0"/> 
            <glyph glyph-name="Y" unicode="&#x59;" horiz-adv-x="723" d=" M723,85 L723,0 L20,0 L20,95 L558,692 L20,692 L20,777 L723,777 L723,682 L185,85"/> 
            <glyph glyph-name="Z" unicode="&#x5A;" horiz-adv-x="704" d=" M571,366 L565,133 Q563,75 609,75 Q631,75 648.5,87.5 Q666,100 673,112 L680,125 L704,36 Q700,30 691,22 Q682,14 648.5,0 Q615,-14 574,-14 Q521,-14 485.5,16.5 Q450,47 450,115 L450,209 Q445,197 441,188 Q437,179 421,147.5 Q405,116 385.5,92.5 Q366,69 339.5,42.5 Q313,16 277.5,1 Q242,-14 204,-14 Q144,-14 107,20.5 Q70,55 70,108 Q70,146 88.5,183 Q107,220 147.5,257.5 Q188,295 266,323.5 Q344,352 450,364 Q448,365 450,376 Q452,387 445.5,404.5 Q439,422 429,439 Q419,456 393,468 Q367,480 331,480 Q295,480 265,468.5 Q235,457 219,440.5 Q203,424 192,407.5 Q181,391 178,380 L174,368 L50,404 Q52,411 57,422 Q62,433 83.5,461.5 Q105,490 133,511.5 Q161,533 213,551 Q265,569 327,569 Q447,569 510,512 Q573,455 571,366 M197,133 Q197,75 250,75 Q298,75 347.5,122 Q397,169 424,220 Q451,271 450,295 L450,330 Q371,310 317,283 Q263,256 239,227.5 Q215,199 206,177 Q197,155 197,133"/> 
            <glyph glyph-name="a" unicode="&#x61;" horiz-adv-x="687" d=" M284,75 Q458,75 508.5,130.5 Q559,186 559,277 Q559,368 508.5,424 Q458,480 371,480 Q284,480 234.5,421.5 Q185,363 185,277 Q185,191 284,75 M210,777 L210,452 Q212,457 216,465 Q220,473 237,493 Q254,513 274.5,528.5 Q295,544 331,556.5 Q367,569 409,569 Q533,569 610,487 Q687,405 687,277 Q687,149 610,67.5 Q533,-14 409,-14 Q360,-14 320,1 Q280,16 258,37.5 Q236,59 221,80.5 Q206,102 201,117 L196,132 L158,0 L90,0 L90,766 Q118,766 148,769 Q178,772 194,774"/> 
            <glyph glyph-name="b" unicode="&#x62;" horiz-adv-x="667" d=" M543,221 L667,185 Q666,181 664.5,174 Q663,167 654,146 Q645,125 632.5,106.5 Q620,88 596,65 Q572,42 542.5,25.5 Q513,9 467.5,-2.5 Q422,-14 368,-14 Q240,-14 150,64.5 Q60,143 60,278 Q60,406 142,487.5 Q224,569 363,569 Q428,569 479.5,552.5 Q531,536 561.5,510 Q592,484 612.5,449 Q633,414 641,381.5 Q649,349 651,314 L527,278 Q534,362 494,421 Q454,480 363,480 Q280,480 234,424.5 Q188,369 188,278 Q188,183 242,129 Q296,75 383,75 Q428,75 460.5,90 Q493,105 508,126.5 Q523,148 532,169.5 Q541,191 542,206"/> 
            <glyph glyph-name="c" unicode="&#x63;" horiz-adv-x="657" d=" M537,452 L537,766 Q565,766 595,769 Q625,772 641,774 L657,777 L657,0 L589,0 L551,132 Q549,126 545.5,116 Q542,106 526.5,81 Q511,56 489.5,37 Q468,18 427.5,2 Q387,-14 338,-14 Q214,-14 137,67.5 Q60,149 60,277 Q60,405 137,487 Q214,569 338,569 Q380,569 416,557 Q452,545 473,528 Q494,511 509.5,493.5 Q525,476 531,464 M289,75 Q463,75 512.5,133 Q562,191 562,277 Q562,363 512.5,421.5 Q463,480 376,480 Q289,480 238.5,424 Q188,368 188,277 Q188,186 289,75"/> 
            <glyph glyph-name="d" unicode="&#x64;" horiz-adv-x="667" d=" M383,75 Q428,75 461,90 Q494,105 509,126.5 Q524,148 532.5,169.5 Q541,191 542,206 L543,221 L667,185 Q666,177 662,163.5 Q658,150 637.5,115.5 Q617,81 587.5,55 Q558,29 500,7.5 Q442,-14 368,-14 Q240,-14 150,64.5 Q60,143 60,278 Q60,406 142.5,487.5 Q225,569 368,569 Q432,569 482,552 Q532,535 561,508 Q590,481 610.5,448.5 Q631,416 638.5,383.5 Q646,351 650,324 Q654,297 653,280 L652,263 L188,273 Q189,180 243,127.5 Q297,75 383,75 M193,334 L525,339 Q525,345 523.5,354.5 Q522,364 512.5,388 Q503,412 487,431 Q471,450 438,465 Q405,480 361,480 Q292,480 249,440.5 Q206,401 193,334"/> 
            <glyph glyph-name="e" unicode="&#x65;" horiz-adv-x="616" d=" M330,712 Q278,712 248,689 Q218,666 218,626 Q218,606 225.5,588.5 Q233,571 240,563 L248,555 L452,555 L452,480 L254,480 L254,0 L134,0 L134,480 L10,480 L10,555 L169,555 Q165,556 160.5,558 Q156,560 144,567.5 Q132,575 123.5,584.5 Q115,594 108,610.5 Q101,627 101,646 Q101,703 156.5,747 Q212,791 326,791 Q392,791 446,774 Q500,757 530.5,732.5 Q561,708 581.5,684 Q602,660 609,643 L616,626 L492,590 Q491,595 488,603 Q485,611 473,632 Q461,653 445,669.5 Q429,686 398.5,699 Q368,712 330,712"/> 
            <glyph glyph-name="f" unicode="&#x66;" horiz-adv-x="717" d=" M367,182 Q309,182 270,190 Q198,181 198,130 Q198,75 284,75 L474,75 Q594,75 645.5,33 Q697,-9 697,-74 Q697,-233 403,-233 L273,-233 Q149,-233 99.5,-195 Q50,-157 50,-107 Q50,-55 98,-25 Q146,5 219,7 Q204,8 184.5,11.5 Q165,15 136.5,24.5 Q108,34 89,55 Q70,76 70,106 Q70,132 86.5,151.5 Q103,171 130,181 Q157,191 179,195.5 Q201,200 224,202 Q151,225 114.5,271.5 Q78,318 78,375 Q78,457 150.5,513 Q223,569 364,569 Q489,569 564,522 Q542,566 545,597.5 Q548,629 586.5,644 Q625,659 693,651 L717,562 Q628,578 599,541 Q582,517 604,489 Q650,440 650,375 Q650,293 578,237.5 Q506,182 367,182 M206,375 Q206,324 244.5,290.5 Q283,257 364,257 Q445,257 483,290.5 Q521,324 521,375 Q521,427 483,460.5 Q445,494 364,494 Q282,494 244,460.5 Q206,427 206,375 M465,-13 L295,0 Q290,0 282.5,-0.5 Q275,-1 255,-5.5 Q235,-10 219.5,-18.5 Q204,-27 191.5,-45 Q179,-63 179,-87 Q179,-134 222.5,-153 Q266,-172 378,-172 Q479,-172 523.5,-152.5 Q568,-133 568,-87 Q568,-54 544.5,-35.5 Q521,-17 465,-13"/> 
            <glyph glyph-name="g" unicode="&#x67;" horiz-adv-x="658" d=" M210,777 L210,416 Q211,424 215.5,437.5 Q220,451 235,475.5 Q250,500 271.5,519.5 Q293,539 333.5,554 Q374,569 425,569 Q658,569 658,344 L658,0 L538,0 L538,342 Q538,480 381,480 Q338,480 305.5,467.5 Q273,455 255.5,437.5 Q238,420 227,397.5 Q216,375 213,359 Q210,343 210,330 L210,0 L90,0 L90,766 Q122,766 152,769 Q182,772 196,774"/> 
            <glyph glyph-name="h" unicode="&#x68;" horiz-adv-x="210" d=" M90,0 L90,555 L210,555 L210,0 M90,681 L90,777 L210,777 L210,681"/> 
            <glyph glyph-name="i" unicode="&#x69;" horiz-adv-x="221" d=" M101,7 L101,555 L221,555 L221,15 Q221,-102 170.5,-169.5 Q120,-237 24,-237 Q-12,-237 -40.5,-225.5 Q-69,-214 -80,-202 L-90,-191 L-66,-102 Q-64,-107 -59,-114 Q-54,-121 -36.5,-133 Q-19,-145 2,-145 Q101,-145 101,7 M101,681 L101,777 L221,777 L221,681"/> 
            <glyph glyph-name="j" unicode="&#x6A;" horiz-adv-x="654" d=" M90,0 L90,766 Q122,766 152,769 Q182,772 196,774 L210,777 L210,325 L454,555 L600,555 L352,321 L654,0 L499,0 L267,251 L210,197 L210,0"/> 
            <glyph glyph-name="k" unicode="&#x6B;" horiz-adv-x="210" d=" M90,0 L90,766 Q118,766 148,769 Q178,772 194,774 L210,777 L210,0"/> 
            <glyph glyph-name="l" unicode="&#x6C;" horiz-adv-x="1046" d=" M926,0 L926,342 Q926,480 789,480 Q740,480 705,462 Q670,444 655,417 Q640,390 634,368.5 Q628,347 628,330 L628,0 L508,0 L508,349 Q504,480 371,480 Q322,480 287,462 Q252,444 237,417 Q222,390 216,368.5 Q210,347 210,330 L210,0 L90,0 L90,555 L148,555 L199,390 Q200,397 203,409 Q206,421 221,452 Q236,483 258,506.5 Q280,530 324,549.5 Q368,569 425,569 Q598,569 623,415 Q630,438 642.5,460.5 Q655,483 679.5,509.5 Q704,536 746.5,552.5 Q789,569 843,569 Q954,569 1000,512 Q1046,455 1046,344 L1046,0"/> 
            <glyph glyph-name="m" unicode="&#x6D;" horiz-adv-x="658" d=" M538,0 L538,342 Q538,480 381,480 Q338,480 305.5,467.5 Q273,455 255.5,437.5 Q238,420 227,397.5 Q216,375 213,359 Q210,343 210,330 L210,0 L90,0 L90,555 L148,555 L199,390 Q200,397 202,409 Q204,421 218,452 Q232,483 253.5,506.5 Q275,530 320.5,549.5 Q366,569 425,569 Q658,569 658,344 L658,0"/> 
            <glyph glyph-name="n" unicode="&#x6E;" horiz-adv-x="690" d=" M60,278 Q60,404 145,486.5 Q230,569 375,569 Q520,569 605,486.5 Q690,404 690,278 Q690,151 605,68.5 Q520,-14 375,-14 Q230,-14 145,68.5 Q60,151 60,278 M188,369 Q188,187 238.5,131 Q289,75 375,75 Q460,75 511,131 Q562,187 562,278 Q562,369 511,424.5 Q460,480 375,480 Q289,480 188,369"/> 
            <glyph glyph-name="o" unicode="&#x6F;" horiz-adv-x="687" d=" M90,555 L158,555 L196,423 Q198,429 201.5,439 Q205,449 220.5,474 Q236,499 257.5,518 Q279,537 319.5,553 Q360,569 409,569 Q533,569 610,487.5 Q687,406 687,278 Q687,150 610,68 Q533,-14 409,-14 Q366,-14 330,-2 Q294,10 272.5,27.5 Q251,45 236,62.5 Q221,80 216,92 L210,104 L210,-223 L90,-223 M458,480 Q284,480 234.5,422 Q185,364 185,278 Q185,192 234.5,133.5 Q284,75 371,75 Q458,75 508.5,131 Q559,187 559,278 Q559,369 458,480"/> 
            <glyph glyph-name="p" unicode="&#x70;" horiz-adv-x="657" d=" M589,555 L657,555 L657,-223 L537,-223 L537,103 Q535,98 531,90 Q527,82 510,62 Q493,42 472.5,26.5 Q452,11 416,-1.5 Q380,-14 338,-14 Q214,-14 137,68 Q60,150 60,278 Q60,406 137,487.5 Q214,569 338,569 Q387,569 427,554 Q467,539 489,517.5 Q511,496 526,474.5 Q541,453 546,438 L551,423 M463,480 Q289,480 238.5,424.5 Q188,369 188,278 Q188,187 238.5,131 Q289,75 376,75 Q463,75 512.5,133.5 Q562,192 562,278 Q562,364 463,480"/> 
            <glyph glyph-name="q" unicode="&#x71;" horiz-adv-x="492" d=" M210,329 L210,0 L90,0 L90,555 L148,555 L199,390 Q200,397 202,409 Q204,421 215.5,452 Q227,483 244,506.5 Q261,530 294.5,549.5 Q328,569 371,569 Q492,569 492,433 Q492,401 487,371.5 Q482,342 477,328 L472,315 L348,279 Q369,343 369,407 Q369,480 320,480 Q285,480 258,448 Q231,416 220.5,382.5 Q210,349 210,329"/> 
            <glyph glyph-name="r" unicode="&#x72;" horiz-adv-x="607" d=" M576,402 L452,366 Q452,371 452,378.5 Q452,386 445.5,405.5 Q439,425 425.5,440 Q412,455 380.5,467.5 Q349,480 304,480 Q246,480 217.5,460.5 Q189,441 189,409 Q189,357 301,338 L437,314 Q607,284 607,160 Q607,82 536,34 Q465,-14 360,-14 Q279,-14 216,6.5 Q153,27 121,56.5 Q89,86 69,115 Q49,144 44,164 L40,185 L164,221 Q164,218 163.5,212.5 Q163,207 165.5,192 Q168,177 173.5,163.5 Q179,150 193,133 Q207,116 227.5,104 Q248,92 282.5,83.5 Q317,75 361,75 Q416,75 447.5,96 Q479,117 479,150 Q479,210 363,231 L241,253 Q153,269 112,309 Q71,349 71,403 Q71,480 138,524.5 Q205,569 306,569 Q358,569 401,560 Q444,551 471,536 Q498,521 518.5,503.5 Q539,486 549.5,468 Q560,450 566.5,435 Q573,420 574,411"/> 
            <glyph glyph-name="s" unicode="&#x73;" horiz-adv-x="512" d=" M20,480 L20,555 L149,555 L149,681 L264,761 L264,555 L492,555 L492,480 L264,480 L264,201 Q264,75 361,75 Q388,75 411,83 Q434,91 447.5,103 Q461,115 471,127 Q481,139 484,147 L488,155 L512,66 Q510,63 505.5,57.5 Q501,52 485.5,38 Q470,24 451.5,13.5 Q433,3 401.5,-5.5 Q370,-14 336,-14 Q244,-14 194,36 Q144,86 144,188 L144,480"/> 
            <glyph glyph-name="t" unicode="&#x74;" horiz-adv-x="658" d=" M210,555 L210,213 Q210,75 367,75 Q410,75 442.5,87.5 Q475,100 492.5,117.5 Q510,135 521,157.5 Q532,180 535,196 Q538,212 538,225 L538,555 L658,555 L658,0 L600,0 L549,165 Q548,158 546,146 Q544,134 530,103 Q516,72 494.5,48.5 Q473,25 427.5,5.5 Q382,-14 323,-14 Q90,-14 90,211 L90,555"/> 
            <glyph glyph-name="u" unicode="&#x75;" horiz-adv-x="658" d=" M658,555 L399,0 L268,0 L10,555 L148,555 L334,107 L522,555"/> 
            <glyph glyph-name="v" unicode="&#x76;" horiz-adv-x="1001" d=" M225,0 L10,555 L148,555 L297,107 L433,555 L578,555 L715,107 L863,555 L1001,555 L787,0 L655,0 L506,465 L356,0"/> 
            <glyph glyph-name="w" unicode="&#x77;" horiz-adv-x="652" d=" M10,0 L262,276 L10,555 L159,555 L331,350 L503,555 L652,555 L399,276 L652,0 L499,0 L331,204 L164,0"/> 
            <glyph glyph-name="x" unicode="&#x78;" horiz-adv-x="626" d=" M246,-1 L262,35 L10,555 L148,555 L323,162 L490,555 L626,555 L357,0 Q297,-124 246,-180.5 Q195,-237 129,-237 Q96,-237 68.5,-225.5 Q41,-214 30,-202 L19,-191 L33,-102 Q36,-107 41,-114.5 Q46,-122 64,-133.5 Q82,-145 104,-145 Q140,-145 179,-105 Q218,-65 246,-1"/> 
            <glyph glyph-name="y" unicode="&#x79;" horiz-adv-x="570" d=" M40,0 L40,85 L420,480 L40,480 L40,555 L570,555 L570,470 L195,75 L570,75 L570,0"/> 
            <glyph glyph-name="z" unicode="&#x7A;" horiz-adv-x="954" d=" M815,0 L704,247 L269,247 L158,0 L20,0 L380,777 L594,777 L954,0 M470,692 L308,332 L666,332 L505,692 M296,1043 L446,1043 L562,855 L495,855"/> 
            <glyph glyph-name="" unicode="&#x83;" horiz-adv-x="967" d=" M967,565 Q967,211 842.5,98.5 Q718,-14 513,-14 Q308,-14 184,98.5 Q60,211 60,388 Q60,566 184,678.5 Q308,791 513,791 Q718,791 967,565 M830,388 Q830,519 741.5,605.5 Q653,692 513,692 Q374,692 285.5,605.5 Q197,519 197,388 Q197,258 285.5,171.5 Q374,85 513,85 Q653,85 741.5,171.5 Q830,258 830,388 M293,1043 L443,1043 L559,855 L492,855"/> 
            <glyph glyph-name="" unicode="&#x88;" horiz-adv-x="667" d=" M383,75 Q297,75 243,127.5 Q189,180 188,273 L652,263 Q653,269 653,280 Q653,291 650,323 Q647,355 639,384 Q631,413 610.5,448 Q590,483 561,508.5 Q532,534 482,551.5 Q432,569 368,569 Q225,569 142.5,487.5 Q60,406 60,278 Q60,143 150,64.5 Q240,-14 368,-14 Q442,-14 500,6.5 Q558,27 588,56.5 Q618,86 637.5,115 Q657,144 662,164 L667,185 L543,221 Q543,215 542,205 Q541,195 532.5,170 Q524,145 509,126 Q494,107 461,91 Q428,75 383,75 M525,339 L193,334 Q206,401 249,440.5 Q292,480 361,480 Q405,480 438,465.5 Q471,451 487,430.5 Q503,410 512.5,389 Q522,368 524,354 M170,821 L320,821 L436,633 L369,633"/> 
            <glyph glyph-name="" unicode="&#x8E;" horiz-adv-x="690" d=" M60,278 Q60,404 145,486.5 Q230,569 375,569 Q520,569 605,486.5 Q690,404 690,278 Q690,151 605,68.5 Q520,-14 375,-14 Q230,-14 145,68.5 Q60,151 60,278 M188,369 Q188,187 238.5,131 Q289,75 375,75 Q460,75 511,131 Q562,187 562,278 Q562,369 511,424.5 Q460,480 375,480 Q289,480 188,369 M174,821 L324,821 L440,633 L373,633"/> 
            <glyph glyph-name="" unicode="&#x8F;" horiz-adv-x="667" d=" M383,75 Q297,75 243,127.5 Q189,180 188,273 L652,263 Q653,269 653,280 Q653,291 650,323 Q647,355 639,384 Q631,413 610.5,448 Q590,483 561,508.5 Q532,534 482,551.5 Q432,569 368,569 Q225,569 142.5,487.5 Q60,406 60,278 Q60,143 150,64.5 Q240,-14 368,-14 Q442,-14 500,6.5 Q558,27 588,56.5 Q618,86 637.5,115 Q657,144 662,164 L667,185 L543,221 Q543,215 542,205 Q541,195 532.5,170 Q524,145 509,126 Q494,107 461,91 Q428,75 383,75 M525,339 L193,334 Q206,401 249,440.5 Q292,480 361,480 Q405,480 438,465.5 Q471,451 487,430.5 Q503,410 512.5,389 Q522,368 524,354 M420,821 L570,821 L371,633 L304,633"/> 
            <glyph glyph-name="" unicode="&#x98;" horiz-adv-x="658" d=" M210,555 L210,213 Q210,75 367,75 Q410,75 442.5,87.5 Q475,100 492.5,117.5 Q510,135 521,157.5 Q532,180 535,196 Q538,212 538,225 L538,555 L658,555 L658,0 L600,0 L549,165 Q548,158 546,146 Q544,134 530,103 Q516,72 494.5,48.5 Q473,25 427.5,5.5 Q382,-14 323,-14 Q90,-14 90,211 L90,555 M183,821 L333,821 L449,633 L382,633"/> 
            <glyph glyph-name="" unicode="&#x9D;" horiz-adv-x="258" d=" M90,481 L90,601 Q90,656 110,706 Q130,756 150,779 L170,802 L258,776 Q254,774 248,770 Q242,766 225.5,751.5 Q209,737 195.5,721 Q182,705 168.5,679 Q155,653 149,626 L220,626 L220,481"/> 
            <glyph glyph-name="Ë" unicode="&#xCB;" horiz-adv-x="705" d=" M90,0 L90,777 L676,777 L676,692 L220,692 L220,432 L648,432 L648,347 L220,347 L220,85 L705,85 L705,0 M206,1043 L356,1043 L472,855 L405,855"/> 
            <glyph glyph-name="Ô" unicode="&#xD4;" horiz-adv-x="220" d=" M220,802 L220,682 Q220,627 200,577 Q180,527 160,504 L140,481 L52,507 Q56,509 62,513 Q68,517 84.5,531.5 Q101,546 114.5,562 Q128,578 141.5,604 Q155,630 161,657 L90,657 L90,802"/> 
            <glyph glyph-name="é" unicode="&#xE9;" horiz-adv-x="705" d=" M90,0 L90,777 L676,777 L676,692 L220,692 L220,432 L648,432 L648,347 L220,347 L220,85 L705,85 L705,0 M436,1043 L586,1043 L387,855 L320,855"/> 
            <glyph glyph-name="ñ" unicode="&#xF1;" horiz-adv-x="826" d=" M696,777 L826,777 L826,321 Q826,-14 458,-14 Q90,-14 90,321 L90,777 L220,777 L220,321 Q220,247 235.5,199 Q251,151 284.5,127 Q318,103 358,94 Q398,85 458,85 Q518,85 558,94 Q598,103 631.5,127 Q665,151 680.5,199 Q696,247 696,321 M256,1043 L406,1043 L522,855 L455,855"/> 
            <glyph glyph-name="ô" unicode="&#xF4;" horiz-adv-x="704" d=" M565,133 L571,366 Q573,455 510,512 Q447,569 327,569 Q281,569 241.5,560 Q202,551 174.5,536.5 Q147,522 124.5,504 Q102,486 88.5,468.5 Q75,451 66,436.5 Q57,422 54,413 L50,404 L174,368 Q175,373 177.5,380.5 Q180,388 192,407 Q204,426 219.5,441 Q235,456 265,468 Q295,480 331,480 Q367,480 392.5,468 Q418,456 429,439 Q440,422 445.5,405 Q451,388 450,376 L450,364 Q344,352 266,323.5 Q188,295 147.5,257.5 Q107,220 88.5,183 Q70,146 70,108 Q70,55 107,20.5 Q144,-14 204,-14 Q242,-14 277.5,1 Q313,16 339.5,42.5 Q366,69 385.5,92.5 Q405,116 421,147.5 Q437,179 441,188 Q445,197 450,209 L450,115 Q450,47 485.5,16.5 Q521,-14 574,-14 Q615,-14 647.5,-1.5 Q680,11 692,24 L704,36 L680,125 Q678,119 673,111 Q668,103 649.5,89 Q631,75 609,75 Q563,75 565,133 M197,133 Q197,155 206,177 Q215,199 239,227.5 Q263,256 317,283 Q371,310 450,330 L450,295 Q451,271 424,220 Q397,169 347.5,122 Q298,75 250,75 Q197,75 197,133 M135,821 L285,821 L401,633 L334,633"/> 
            <glyph glyph-name="&amp;" unicode="&#x26;" horiz-adv-x="341" d=" M341,434 Q341,244 308.5,160 Q276,76 226,21 Q176,-34 122,-68 Q68,-102 20,-109 L20,-68 Q48,-62 81,-43.5 Q114,-25 149.5,10 Q185,45 214,90 Q243,135 261.5,200.5 Q280,266 280,339 Q280,412 261.5,477.5 Q243,543 214,588 Q185,633 149.5,668 Q114,703 81,721.5 Q48,740 20,746 L20,787 Q68,780 122,746 Q176,712 226,657 Q276,602 341,434"/> 
            <glyph glyph-name="(" unicode="&#x28;" horiz-adv-x="220" d=" M220,145 L220,25 Q220,-30 200,-80 Q180,-130 160,-153 L140,-176 L52,-150 Q56,-148 62,-144 Q68,-140 84.5,-125.5 Q101,-111 114.5,-95 Q128,-79 141.5,-53 Q155,-27 161,0 L90,0 L90,145"/> 
            <glyph glyph-name=")" unicode="&#x29;" horiz-adv-x="462" d=" M462,260 L40,260 L40,335 L462,335"/> 
            <glyph glyph-name="," unicode="&#x2C;" horiz-adv-x="220" d=" M90,0 L90,145 L220,145 L220,0"/> 
            <glyph glyph-name="-" unicode="&#x2D;" horiz-adv-x="740" d=" M740,389 Q740,207 652.5,96.5 Q565,-14 400,-14 Q235,-14 147.5,96.5 Q60,207 60,389 Q60,570 147.5,680.5 Q235,791 400,791 Q565,791 652.5,680.5 Q740,570 740,389 M603,389 Q603,527 554.5,609.5 Q506,692 400,692 Q294,692 245.5,609.5 Q197,527 197,389 Q197,250 245.5,167.5 Q294,85 400,85 Q506,85 554.5,167.5 Q603,250 603,389"/> 
            <glyph glyph-name="." unicode="&#x2E;" horiz-adv-x="750" d=" M750,0 L110,0 L110,85 L410,85 L409,692 Q409,632 397,595 Q385,558 352.5,530.5 Q320,503 261.5,491.5 Q203,480 110,480 L110,579 Q266,579 338,623 Q410,667 410,777 L540,777 L540,85 L750,85"/> 
            <glyph glyph-name="0" unicode="&#x30;" horiz-adv-x="730" d=" M715,536 Q715,479 690,424 Q665,369 631.5,329.5 Q598,290 544,247.5 Q490,205 452.5,181.5 Q415,158 360,126 Q305,94 290,85 L730,85 L730,0 L90,0 L90,75 Q100,79 117.5,87 Q135,95 186,121 Q237,147 283,175 Q329,203 385,245.5 Q441,288 481.5,330.5 Q522,373 550,426.5 Q578,480 578,532 Q578,602 533.5,647 Q489,692 400,692 Q314,692 271.5,647 Q229,602 229,534 Q229,505 239,477.5 Q249,450 262.5,431.5 Q276,413 290,399 Q304,385 314,378 L324,372 L190,333 Q186,336 179.5,342 Q173,348 157,367.5 Q141,387 128.5,409.5 Q116,432 105.5,467 Q95,502 95,539 Q95,638 176,714.5 Q257,791 403,791 Q553,791 634,720 Q715,649 715,536"/> 
            <glyph glyph-name="1" unicode="&#x31;" horiz-adv-x="740" d=" M387,356 L337,356 L337,441 L387,441 Q476,441 529.5,475.5 Q583,510 583,569 Q583,623 537.5,657.5 Q492,692 417,692 Q359,692 318,673 Q277,654 260,627.5 Q243,601 234,574 Q225,547 225,528 L225,509 L91,549 Q92,554 93.5,562.5 Q95,571 104,596.5 Q113,622 126,644.5 Q139,667 165,695 Q191,723 224,743 Q257,763 308.5,777 Q360,791 422,791 Q554,791 637,732.5 Q720,674 720,587 Q720,544 701.5,511 Q683,478 659,461 Q635,444 603,433.5 Q571,423 552,420 Q533,417 518,417 Q535,417 555,414 Q575,411 610.5,399 Q646,387 672.5,367.5 Q699,348 719.5,310 Q740,272 740,221 Q740,143 693.5,88.5 Q647,34 574,10 Q501,-14 410,-14 Q339,-14 280.5,1 Q222,16 185.5,39.5 Q149,63 121.5,91.5 Q94,120 81,149 Q68,178 60.5,201.5 Q53,225 52,240 L50,255 L184,294 Q183,286 183.5,271.5 Q184,257 194.5,221 Q205,185 225.5,157.5 Q246,130 293,107.5 Q340,85 407,85 Q499,85 551,120.5 Q603,156 603,222 Q603,356 387,356"/> 
            <glyph glyph-name="2" unicode="&#x32;" horiz-adv-x="790" d=" M40,188 L40,313 L462,777 L634,777 L634,273 L790,273 L790,188 L634,188 L634,0 L504,0 L504,188 M504,682 L141,273 L504,273"/> 
            <glyph glyph-name="3" unicode="&#x33;" horiz-adv-x="740" d=" M740,255 Q740,129 649,57.5 Q558,-14 406,-14 Q335,-14 277.5,1 Q220,16 184,39.5 Q148,63 121,91.5 Q94,120 81,149 Q68,178 60.5,201.5 Q53,225 52,240 L50,255 L184,294 Q186,293 184,282 Q182,271 186.5,252.5 Q191,234 196.5,212 Q202,190 219,167.5 Q236,145 258,126.5 Q280,108 318.5,96.5 Q357,85 406,85 Q495,85 549,132 Q603,179 603,255 Q603,331 549,377.5 Q495,424 406,424 Q354,424 313,412 Q272,400 257,388 L242,376 L109,376 L180,777 L704,777 L704,692 L291,692 L244,422 Q246,426 250.5,433 Q255,440 272.5,457.5 Q290,475 312,488 Q334,501 373,512 Q412,523 457,523 Q572,523 656,447.5 Q740,372 740,255"/> 
            <glyph glyph-name="4" unicode="&#x34;" horiz-adv-x="740" d=" M468,500 Q580,500 660,434.5 Q740,369 740,243 Q740,131 648.5,58.5 Q557,-14 416,-14 Q249,-14 154.5,97.5 Q60,209 60,389 Q60,567 156.5,679 Q253,791 420,791 Q493,791 552,768 Q611,745 643,712.5 Q675,680 696,647.5 Q717,615 724,592 L730,569 L597,529 Q596,536 594,547 Q592,558 581,586 Q570,614 552.5,635.5 Q535,657 500,674.5 Q465,692 420,692 Q312,692 254.5,607.5 Q197,523 197,389 Q197,371 199,335 Q221,415 294,457.5 Q367,500 468,500 M416,85 Q509,85 556,128.5 Q603,172 603,243 Q603,314 556,357.5 Q509,401 416,401 Q338,401 284,359 Q230,317 215,251 Q238,173 288.5,129 Q339,85 416,85"/> 
            <glyph glyph-name="5" unicode="&#x35;" horiz-adv-x="770" d=" M770,777 L770,662 Q763,662 751,659.5 Q739,657 702.5,642.5 Q666,628 630.5,604.5 Q595,581 547,530.5 Q499,480 457,413 Q415,346 372.5,238.5 Q330,131 300,0 L160,0 Q188,129 230.5,236.5 Q273,344 316,412.5 Q359,481 410.5,535.5 Q462,590 500.5,617 Q539,644 581,663 Q623,682 637.5,686 Q652,690 664,692 L30,692 L30,777"/> 
            <glyph glyph-name="6" unicode="&#x36;" horiz-adv-x="760" d=" M730,574 Q730,534 711.5,501 Q693,468 670,449.5 Q647,431 616.5,417 Q586,403 570.5,399 Q555,395 544,393 Q558,392 572.5,390 Q587,388 624.5,376.5 Q662,365 689,347.5 Q716,330 738,295 Q760,260 760,214 Q760,137 708.5,84.5 Q657,32 578,9 Q499,-14 400,-14 Q301,-14 222,9 Q143,32 91.5,84.5 Q40,137 40,214 Q40,257 59.5,292 Q79,327 104,346.5 Q129,366 161.5,380 Q194,394 210.5,398.5 Q227,403 239,405 Q229,407 214.5,411 Q200,415 172.5,428 Q145,441 124,458 Q103,475 86.5,506 Q70,537 70,574 Q70,670 165,730.5 Q260,791 400,791 Q540,791 635,730.5 Q730,670 730,574 M623,214 Q623,250 604.5,277.5 Q586,305 561,319.5 Q536,334 502.5,342.5 Q469,351 445.5,353.5 Q422,356 400,356 Q302,356 239.5,322.5 Q177,289 177,214 Q177,148 239,116.5 Q301,85 400,85 Q499,85 561,116.5 Q623,148 623,214 M207,574 Q207,535 228,508 Q249,481 282.5,469 Q316,457 344,453 Q372,449 400,449 Q593,449 593,574 Q593,624 544.5,658 Q496,692 400,692 Q304,692 255.5,658 Q207,624 207,574"/> 
            <glyph glyph-name="7" unicode="&#x37;" horiz-adv-x="740" d=" M332,277 Q220,277 140,342.5 Q60,408 60,534 Q60,646 151.5,718.5 Q243,791 384,791 Q551,791 645.5,679.5 Q740,568 740,388 Q740,210 643.5,98 Q547,-14 380,-14 Q307,-14 248,9 Q189,32 157,64.5 Q125,97 104,129.5 Q83,162 76,185 L70,208 L203,248 Q204,241 206,230 Q208,219 219,191 Q230,163 247.5,141.5 Q265,120 300,102.5 Q335,85 380,85 Q488,85 545.5,169.5 Q603,254 603,388 Q603,415 600,442 Q580,369 513,323 Q446,277 332,277 M384,692 Q291,692 244,648.5 Q197,605 197,534 Q197,463 244,419.5 Q291,376 384,376 Q462,376 515.5,419 Q569,462 585,526 Q562,604 511,648 Q460,692 384,692"/> 
            <glyph glyph-name="8" unicode="&#x38;" horiz-adv-x="220" d=" M90,0 L90,145 L220,145 L220,0 M90,410 L90,555 L220,555 L220,410"/> 
            <glyph glyph-name="9" unicode="&#x39;" horiz-adv-x="954" d=" M815,0 L704,247 L269,247 L158,0 L20,0 L380,777 L594,777 L954,0 M470,692 L308,332 L666,332 L505,692"/> 
            <glyph glyph-name=":" unicode="&#x3A;" horiz-adv-x="789" d=" M789,221 Q789,110 704,55 Q619,0 440,0 L90,0 L90,777 L420,777 Q769,777 769,587 Q769,547 752.5,514.5 Q736,482 715.5,465.5 Q695,449 667.5,437 Q640,425 626.5,422 Q613,419 603,418 Q611,417 616.5,416.5 Q622,416 643.5,410.5 Q665,405 680.5,397.5 Q696,390 718,374.5 Q740,359 754,339.5 Q768,320 778.5,289 Q789,258 789,221 M440,356 L220,356 L220,85 L440,85 Q488,85 524,91 Q560,97 590.5,111.5 Q621,126 636.5,153.5 Q652,181 652,221 Q652,274 622.5,305 Q593,336 549.5,346 Q506,356 440,356 M220,692 L220,441 L420,441 Q520,441 576,469 Q632,497 632,567 Q632,637 576,664.5 Q520,692 420,692"/> 
            <glyph glyph-name="A" unicode="&#x41;" horiz-adv-x="924" d=" M790,332 L924,293 M903,469 L769,429 M903,469 L769,429 Q769,434 768,443.5 Q767,453 760.5,480.5 Q754,508 744,533 Q734,558 713,588 Q692,618 664,640 Q636,662 591.5,677 Q547,692 493,692 Q356,692 276.5,606.5 Q197,521 197,388 Q197,257 281,171 Q365,85 503,85 Q560,85 607,98.5 Q654,112 683,134 Q712,156 733.5,182 Q755,208 765.5,234.5 Q776,261 782,283 Q788,305 789,318 L790,332 L924,293 Q923,287 921,275.5 Q919,264 908.5,232.5 Q898,201 881.5,172 Q865,143 832,107.5 Q799,72 757,46.5 Q715,21 649,3.5 Q583,-14 503,-14 Q299,-14 179.5,98 Q60,210 60,388 Q60,568 175,679.5 Q290,791 493,791 Q570,791 634.5,773 Q699,755 740,727 Q781,699 813,664.5 Q845,630 861,595.5 Q877,561 887.5,533 Q898,505 900,487"/> 
            <glyph glyph-name="B" unicode="&#x42;" horiz-adv-x="863" d=" M90,777 L440,777 Q635,777 749,672.5 Q863,568 863,388 Q863,208 749,104 Q635,0 440,0 L90,0 M380,692 L220,692 L220,85 L380,85 Q547,85 636.5,162 Q726,239 726,388 Q726,537 636,614.5 Q546,692 380,692"/> 
            <glyph glyph-name="C" unicode="&#x43;" horiz-adv-x="705" d=" M90,0 L90,777 L676,777 L676,692 L220,692 L220,432 L648,432 L648,347 L220,347 L220,85 L705,85 L705,0"/> 
            <glyph glyph-name="D" unicode="&#x44;" horiz-adv-x="676" d=" M90,0 L90,777 L676,777 L676,692 L220,692 L220,432 L648,432 L648,347 L220,347 L220,0"/> 
            <glyph glyph-name="E" unicode="&#x45;" horiz-adv-x="900" d=" M900,499 L766,459 M900,499 L766,459 Q766,464 764.5,472.5 Q763,481 755.5,505 Q748,529 737.5,551 Q727,573 705.5,600 Q684,627 656.5,646 Q629,665 586.5,678.5 Q544,692 493,692 Q356,692 276.5,606.5 Q197,521 197,388 Q197,257 274.5,171 Q352,85 483,85 Q536,85 579.5,97.5 Q623,110 650.5,129.5 Q678,149 699,173 Q720,197 730.5,221 Q741,245 747.5,264.5 Q754,284 756,296 L757,309 L464,309 L464,394 L887,394 L887,0 L757,0 L757,149 Q753,140 747.5,128.5 Q742,117 719.5,89 Q697,61 667,40.5 Q637,20 583,3 Q529,-14 463,-14 Q281,-14 170.5,98.5 Q60,211 60,388 Q60,568 175,679.5 Q290,791 493,791 Q567,791 629,775 Q691,759 731.5,733 Q772,707 804,676 Q836,645 853.5,614 Q871,583 882,557 Q893,531 896,515"/> 
            <glyph glyph-name="F" unicode="&#x46;" horiz-adv-x="840" d=" M710,0 L710,347 L220,347 L220,0 L90,0 L90,777 L220,777 L220,432 L710,432 L710,777 L840,777 L840,0"/> 
            <glyph glyph-name="G" unicode="&#x47;" horiz-adv-x="220" d=" M90,777 L220,777 L220,0 L90,0"/> 
            <glyph glyph-name="H" unicode="&#x48;" horiz-adv-x="684" d=" M194,332 Q190,317 190,299 Q190,203 236,144 Q282,85 372,85 Q462,85 508,144 Q554,203 554,299 L554,777 L684,777 L684,299 Q684,143 601.5,64.5 Q519,-14 372,-14 Q227,-14 144,63 Q61,140 60,293"/> 
            <glyph glyph-name="I" unicode="&#x49;" horiz-adv-x="842" d=" M692,0 L347,392 L220,280 L220,0 L90,0 L90,777 L220,777 L220,409 L622,777 L782,777 L431,467 L842,0"/> 
            <glyph glyph-name="J" unicode="&#x4A;" horiz-adv-x="665" d=" M90,0 L90,777 L220,777 L220,85 L665,85 L665,0"/> 
            <glyph glyph-name="K" unicode="&#x4B;" horiz-adv-x="1132" d=" M611,85 L932,777 L1132,777 L1132,0 L1002,0 L1002,642 L696,0 L526,0 L220,642 L220,0 L90,0 L90,777 L290,777"/> 
            <glyph glyph-name="L" unicode="&#x4C;" horiz-adv-x="841" d=" M841,777 L841,0 L681,0 L220,642 L220,0 L90,0 L90,777 L250,777 L711,135 L711,777"/> 
            <glyph glyph-name="M" unicode="&#x4D;" horiz-adv-x="967" d=" M967,565 Q967,211 842.5,98.5 Q718,-14 513,-14 Q308,-14 184,98.5 Q60,211 60,388 Q60,566 184,678.5 Q308,791 513,791 Q718,791 967,565 M830,388 Q830,519 741.5,605.5 Q653,692 513,692 Q374,692 285.5,605.5 Q197,519 197,388 Q197,258 285.5,171.5 Q374,85 513,85 Q653,85 741.5,171.5 Q830,258 830,388"/> 
            <glyph glyph-name="N" unicode="&#x4E;" horiz-adv-x="769" d=" M220,692 L220,441 M90,0 L90,777 L420,777 Q600,777 684.5,726 Q769,675 769,567 Q769,459 684,407.5 Q599,356 420,356 L220,356 L220,0 M220,692 L220,441 L420,441 Q520,441 576,469 Q632,497 632,567 Q632,637 576,664.5 Q520,692 420,692"/> 
            <glyph glyph-name="O" unicode="&#x4F;" horiz-adv-x="967" d=" M893,-46 L922,-153 Q921,-156 917.5,-160 Q914,-164 901.5,-174.5 Q889,-185 872,-193.5 Q855,-202 825.5,-208.5 Q796,-215 760,-215 Q671,-215 629,-172.5 Q587,-130 586,-72 Q586,-31 599,-8 Q558,-14 513,-14 Q308,-14 184,98.5 Q60,211 60,388 Q60,566 184,678.5 Q308,791 513,791 Q718,791 842.5,678 Q967,565 967,388 Q967,252 890.5,151 Q814,50 681,10 L682,10 Q654,0 654,-36 Q654,-117 759,-117 Q793,-117 819,-109.5 Q845,-102 858.5,-92 Q872,-82 880.5,-71.5 Q889,-61 891,-54 M830,388 Q830,519 741.5,605.5 Q653,692 513,692 Q374,692 285.5,605.5 Q197,519 197,388 Q197,258 285.5,171.5 Q374,85 513,85 Q653,85 741.5,171.5 Q830,258 830,388"/> 
            <glyph glyph-name="P" unicode="&#x50;" horiz-adv-x="789" d=" M220,692 L220,441 M90,0 L90,777 L420,777 Q600,777 684.5,726 Q769,675 769,567 Q769,481 704.5,436 Q640,391 534,391 Q598,383 647,351.5 Q696,320 712,258 Q754,98 766,56 Q778,14 789,0 L654,0 Q643,14 632.5,53 Q622,92 588,236 Q572,303 521.5,329.5 Q471,356 350,356 L220,356 L220,0 M220,692 L220,441 L420,441 Q520,441 576,469 Q632,497 632,567 Q632,637 576,664.5 Q520,692 420,692"/> 
            <glyph glyph-name="Q" unicode="&#x51;" horiz-adv-x="774" d=" M348,476 L546,432 Q774,381 774,208 Q774,102 681,44 Q588,-14 441,-14 Q334,-14 252.5,14 Q171,42 127.5,86 Q84,130 63,174.5 Q42,219 40,263 L174,302 Q174,297 173.5,289.5 Q173,282 176,259.5 Q179,237 187,216.5 Q195,196 213.5,171 Q232,146 259.5,128 Q287,110 333,97.5 Q379,85 438,85 Q530,85 584.5,118.5 Q639,152 639,202 Q639,254 599,278.5 Q559,303 463,326 L274,370 Q176,393 126,445 Q76,497 76,568 Q76,663 155.5,727 Q235,791 389,791 Q458,791 515,778 Q572,765 607,744.5 Q642,724 668.5,699.5 Q695,675 707.5,650.5 Q720,626 727.5,605.5 Q735,585 736,572 L737,559 L603,523 Q604,530 603.5,541.5 Q603,553 592.5,582 Q582,611 562,633 Q542,655 495.5,673.5 Q449,692 383,692 Q305,692 258,661 Q211,630 211,580 Q211,538 245,514.5 Q279,491 348,476"/> 
            <glyph glyph-name="R" unicode="&#x52;" horiz-adv-x="787" d=" M0,692 L0,777 L787,777 L787,692 L457,692 L457,0 L330,0 L330,692"/> 
            <glyph glyph-name="S" unicode="&#x53;" horiz-adv-x="826" d=" M696,777 L826,777 L826,321 Q826,-14 458,-14 Q90,-14 90,321 L90,777 L220,777 L220,321 Q220,247 235.5,199 Q251,151 284.5,127 Q318,103 358,94 Q398,85 458,85 Q518,85 558,94 Q598,103 631.5,127 Q665,151 680.5,199 Q696,247 696,321"/> 
            <glyph glyph-name="T" unicode="&#x54;" horiz-adv-x="894" d=" M894,777 L549,0 L365,0 L20,777 L159,777 L457,85 L755,777"/> 
            <glyph glyph-name="U" unicode="&#x55;" horiz-adv-x="1309" d=" M1309,777 L1044,0 L860,0 L664,642 L469,0 L285,0 L20,777 L159,777 L377,85 L585,777 L744,777 L952,85 L1170,777"/> 
            <glyph glyph-name="V" unicode="&#x56;" horiz-adv-x="842" d=" M10,0 L351,388 L10,777 L160,777 L426,474 L692,777 L842,777 L501,388 L842,0 L692,0 L426,303 L160,0"/> 
            <glyph glyph-name="W" unicode="&#x57;" horiz-adv-x="842" d=" M361,377 L10,777 L160,777 L426,474 L692,777 L842,777 L491,377 L491,0 L361,0"/> 
            <glyph glyph-name="X" unicode="&#x58;" horiz-adv-x="723" d=" M723,85 L723,0 L20,0 L20,95 L558,692 L20,692 L20,777 L723,777 L723,682 L185,85"/> 
            <glyph glyph-name="Y" unicode="&#x59;" horiz-adv-x="704" d=" M571,366 L565,133 Q563,75 609,75 Q631,75 648.5,87.5 Q666,100 673,112 L680,125 L704,36 Q700,30 691,22 Q682,14 648.5,0 Q615,-14 574,-14 Q521,-14 485.5,16.5 Q450,47 450,115 L450,209 Q445,197 441,188 Q437,179 421,147.5 Q405,116 385.5,92.5 Q366,69 339.5,42.5 Q313,16 277.5,1 Q242,-14 204,-14 Q144,-14 107,20.5 Q70,55 70,108 Q70,146 88.5,183 Q107,220 147.5,257.5 Q188,295 266,323.5 Q344,352 450,364 Q448,365 450,376 Q452,387 445.5,404.5 Q439,422 429,439 Q419,456 393,468 Q367,480 331,480 Q295,480 265,468.5 Q235,457 219,440.5 Q203,424 192,407.5 Q181,391 178,380 L174,368 L50,404 Q52,411 57,422 Q62,433 83.5,461.5 Q105,490 133,511.5 Q161,533 213,551 Q265,569 327,569 Q447,569 510,512 Q573,455 571,366 M197,133 Q197,75 250,75 Q298,75 347.5,122 Q397,169 424,220 Q451,271 450,295 L450,330 Q371,310 317,283 Q263,256 239,227.5 Q215,199 206,177 Q197,155 197,133"/> 
            <glyph glyph-name="Z" unicode="&#x5A;" horiz-adv-x="687" d=" M284,75 Q458,75 508.5,130.5 Q559,186 559,277 Q559,368 508.5,424 Q458,480 371,480 Q284,480 234.5,421.5 Q185,363 185,277 Q185,191 284,75 M210,777 L210,452 Q212,457 216,465 Q220,473 237,493 Q254,513 274.5,528.5 Q295,544 331,556.5 Q367,569 409,569 Q533,569 610,487 Q687,405 687,277 Q687,149 610,67.5 Q533,-14 409,-14 Q360,-14 320,1 Q280,16 258,37.5 Q236,59 221,80.5 Q206,102 201,117 L196,132 L158,0 L90,0 L90,766 Q118,766 148,769 Q178,772 194,774"/> 
            <glyph glyph-name="a" unicode="&#x61;" horiz-adv-x="667" d=" M543,221 L667,185 Q666,181 664.5,174 Q663,167 654,146 Q645,125 632.5,106.5 Q620,88 596,65 Q572,42 542.5,25.5 Q513,9 467.5,-2.5 Q422,-14 368,-14 Q240,-14 150,64.5 Q60,143 60,278 Q60,406 142,487.5 Q224,569 363,569 Q428,569 479.5,552.5 Q531,536 561.5,510 Q592,484 612.5,449 Q633,414 641,381.5 Q649,349 651,314 L527,278 Q534,362 494,421 Q454,480 363,480 Q280,480 234,424.5 Q188,369 188,278 Q188,183 242,129 Q296,75 383,75 Q428,75 460.5,90 Q493,105 508,126.5 Q523,148 532,169.5 Q541,191 542,206"/> 
            <glyph glyph-name="b" unicode="&#x62;" horiz-adv-x="657" d=" M537,452 L537,766 Q565,766 595,769 Q625,772 641,774 L657,777 L657,0 L589,0 L551,132 Q549,126 545.5,116 Q542,106 526.5,81 Q511,56 489.5,37 Q468,18 427.5,2 Q387,-14 338,-14 Q214,-14 137,67.5 Q60,149 60,277 Q60,405 137,487 Q214,569 338,569 Q380,569 416,557 Q452,545 473,528 Q494,511 509.5,493.5 Q525,476 531,464 M289,75 Q463,75 512.5,133 Q562,191 562,277 Q562,363 512.5,421.5 Q463,480 376,480 Q289,480 238.5,424 Q188,368 188,277 Q188,186 289,75"/> 
            <glyph glyph-name="c" unicode="&#x63;" horiz-adv-x="667" d=" M383,75 Q428,75 461,90 Q494,105 509,126.5 Q524,148 532.5,169.5 Q541,191 542,206 L543,221 L667,185 Q666,177 662,163.5 Q658,150 637.5,115.5 Q617,81 587.5,55 Q558,29 500,7.5 Q442,-14 368,-14 Q240,-14 150,64.5 Q60,143 60,278 Q60,406 142.5,487.5 Q225,569 368,569 Q432,569 482,552 Q532,535 561,508 Q590,481 610.5,448.5 Q631,416 638.5,383.5 Q646,351 650,324 Q654,297 653,280 L652,263 L188,273 Q189,180 243,127.5 Q297,75 383,75 M193,334 L525,339 Q525,345 523.5,354.5 Q522,364 512.5,388 Q503,412 487,431 Q471,450 438,465 Q405,480 361,480 Q292,480 249,440.5 Q206,401 193,334"/> 
            <glyph glyph-name="d" unicode="&#x64;" horiz-adv-x="616" d=" M330,712 Q278,712 248,689 Q218,666 218,626 Q218,606 225.5,588.5 Q233,571 240,563 L248,555 L452,555 L452,480 L254,480 L254,0 L134,0 L134,480 L10,480 L10,555 L169,555 Q165,556 160.5,558 Q156,560 144,567.5 Q132,575 123.5,584.5 Q115,594 108,610.5 Q101,627 101,646 Q101,703 156.5,747 Q212,791 326,791 Q392,791 446,774 Q500,757 530.5,732.5 Q561,708 581.5,684 Q602,660 609,643 L616,626 L492,590 Q491,595 488,603 Q485,611 473,632 Q461,653 445,669.5 Q429,686 398.5,699 Q368,712 330,712"/> 
            <glyph glyph-name="e" unicode="&#x65;" horiz-adv-x="717" d=" M367,182 Q309,182 270,190 Q198,181 198,130 Q198,75 284,75 L474,75 Q594,75 645.5,33 Q697,-9 697,-74 Q697,-233 403,-233 L273,-233 Q149,-233 99.5,-195 Q50,-157 50,-107 Q50,-55 98,-25 Q146,5 219,7 Q204,8 184.5,11.5 Q165,15 136.5,24.5 Q108,34 89,55 Q70,76 70,106 Q70,132 86.5,151.5 Q103,171 130,181 Q157,191 179,195.5 Q201,200 224,202 Q151,225 114.5,271.5 Q78,318 78,375 Q78,457 150.5,513 Q223,569 364,569 Q489,569 564,522 Q542,566 545,597.5 Q548,629 586.5,644 Q625,659 693,651 L717,562 Q628,578 599,541 Q582,517 604,489 Q650,440 650,375 Q650,293 578,237.5 Q506,182 367,182 M206,375 Q206,324 244.5,290.5 Q283,257 364,257 Q445,257 483,290.5 Q521,324 521,375 Q521,427 483,460.5 Q445,494 364,494 Q282,494 244,460.5 Q206,427 206,375 M465,-13 L295,0 Q290,0 282.5,-0.5 Q275,-1 255,-5.5 Q235,-10 219.5,-18.5 Q204,-27 191.5,-45 Q179,-63 179,-87 Q179,-134 222.5,-153 Q266,-172 378,-172 Q479,-172 523.5,-152.5 Q568,-133 568,-87 Q568,-54 544.5,-35.5 Q521,-17 465,-13"/> 
            <glyph glyph-name="f" unicode="&#x66;" horiz-adv-x="658" d=" M210,777 L210,416 Q211,424 215.5,437.5 Q220,451 235,475.5 Q250,500 271.5,519.5 Q293,539 333.5,554 Q374,569 425,569 Q658,569 658,344 L658,0 L538,0 L538,342 Q538,480 381,480 Q338,480 305.5,467.5 Q273,455 255.5,437.5 Q238,420 227,397.5 Q216,375 213,359 Q210,343 210,330 L210,0 L90,0 L90,766 Q122,766 152,769 Q182,772 196,774"/> 
            <glyph glyph-name="g" unicode="&#x67;" horiz-adv-x="210" d=" M90,0 L90,555 L210,555 L210,0 M90,681 L90,777 L210,777 L210,681"/> 
            <glyph glyph-name="h" unicode="&#x68;" horiz-adv-x="221" d=" M101,7 L101,555 L221,555 L221,15 Q221,-102 170.5,-169.5 Q120,-237 24,-237 Q-12,-237 -40.5,-225.5 Q-69,-214 -80,-202 L-90,-191 L-66,-102 Q-64,-107 -59,-114 Q-54,-121 -36.5,-133 Q-19,-145 2,-145 Q101,-145 101,7 M101,681 L101,777 L221,777 L221,681"/> 
            <glyph glyph-name="i" unicode="&#x69;" horiz-adv-x="654" d=" M90,0 L90,766 Q122,766 152,769 Q182,772 196,774 L210,777 L210,325 L454,555 L600,555 L352,321 L654,0 L499,0 L267,251 L210,197 L210,0"/> 
            <glyph glyph-name="j" unicode="&#x6A;" horiz-adv-x="210" d=" M90,0 L90,766 Q118,766 148,769 Q178,772 194,774 L210,777 L210,0"/> 
            <glyph glyph-name="k" unicode="&#x6B;" horiz-adv-x="1046" d=" M926,0 L926,342 Q926,480 789,480 Q740,480 705,462 Q670,444 655,417 Q640,390 634,368.5 Q628,347 628,330 L628,0 L508,0 L508,349 Q504,480 371,480 Q322,480 287,462 Q252,444 237,417 Q222,390 216,368.5 Q210,347 210,330 L210,0 L90,0 L90,555 L148,555 L199,390 Q200,397 203,409 Q206,421 221,452 Q236,483 258,506.5 Q280,530 324,549.5 Q368,569 425,569 Q598,569 623,415 Q630,438 642.5,460.5 Q655,483 679.5,509.5 Q704,536 746.5,552.5 Q789,569 843,569 Q954,569 1000,512 Q1046,455 1046,344 L1046,0"/> 
            <glyph glyph-name="l" unicode="&#x6C;" horiz-adv-x="658" d=" M538,0 L538,342 Q538,480 381,480 Q338,480 305.5,467.5 Q273,455 255.5,437.5 Q238,420 227,397.5 Q216,375 213,359 Q210,343 210,330 L210,0 L90,0 L90,555 L148,555 L199,390 Q200,397 202,409 Q204,421 218,452 Q232,483 253.5,506.5 Q275,530 320.5,549.5 Q366,569 425,569 Q658,569 658,344 L658,0"/> 
            <glyph glyph-name="m" unicode="&#x6D;" horiz-adv-x="690" d=" M60,278 Q60,404 145,486.5 Q230,569 375,569 Q520,569 605,486.5 Q690,404 690,278 Q690,151 605,68.5 Q520,-14 375,-14 Q230,-14 145,68.5 Q60,151 60,278 M188,369 Q188,187 238.5,131 Q289,75 375,75 Q460,75 511,131 Q562,187 562,278 Q562,369 511,424.5 Q460,480 375,480 Q289,480 188,369"/> 
            <glyph glyph-name="n" unicode="&#x6E;" horiz-adv-x="687" d=" M90,555 L158,555 L196,423 Q198,429 201.5,439 Q205,449 220.5,474 Q236,499 257.5,518 Q279,537 319.5,553 Q360,569 409,569 Q533,569 610,487.5 Q687,406 687,278 Q687,150 610,68 Q533,-14 409,-14 Q366,-14 330,-2 Q294,10 272.5,27.5 Q251,45 236,62.5 Q221,80 216,92 L210,104 L210,-223 L90,-223 M458,480 Q284,480 234.5,422 Q185,364 185,278 Q185,192 234.5,133.5 Q284,75 371,75 Q458,75 508.5,131 Q559,187 559,278 Q559,369 458,480"/> 
            <glyph glyph-name="o" unicode="&#x6F;" horiz-adv-x="657" d=" M589,555 L657,555 L657,-223 L537,-223 L537,103 Q535,98 531,90 Q527,82 510,62 Q493,42 472.5,26.5 Q452,11 416,-1.5 Q380,-14 338,-14 Q214,-14 137,68 Q60,150 60,278 Q60,406 137,487.5 Q214,569 338,569 Q387,569 427,554 Q467,539 489,517.5 Q511,496 526,474.5 Q541,453 546,438 L551,423 M463,480 Q289,480 238.5,424.5 Q188,369 188,278 Q188,187 238.5,131 Q289,75 376,75 Q463,75 512.5,133.5 Q562,192 562,278 Q562,364 463,480"/> 
            <glyph glyph-name="p" unicode="&#x70;" horiz-adv-x="492" d=" M210,329 L210,0 L90,0 L90,555 L148,555 L199,390 Q200,397 202,409 Q204,421 215.5,452 Q227,483 244,506.5 Q261,530 294.5,549.5 Q328,569 371,569 Q492,569 492,433 Q492,401 487,371.5 Q482,342 477,328 L472,315 L348,279 Q369,343 369,407 Q369,480 320,480 Q285,480 258,448 Q231,416 220.5,382.5 Q210,349 210,329"/> 
            <glyph glyph-name="q" unicode="&#x71;" horiz-adv-x="607" d=" M576,402 L452,366 Q452,371 452,378.5 Q452,386 445.5,405.5 Q439,425 425.5,440 Q412,455 380.5,467.5 Q349,480 304,480 Q246,480 217.5,460.5 Q189,441 189,409 Q189,357 301,338 L437,314 Q607,284 607,160 Q607,82 536,34 Q465,-14 360,-14 Q279,-14 216,6.5 Q153,27 121,56.5 Q89,86 69,115 Q49,144 44,164 L40,185 L164,221 Q164,218 163.5,212.5 Q163,207 165.5,192 Q168,177 173.5,163.5 Q179,150 193,133 Q207,116 227.5,104 Q248,92 282.5,83.5 Q317,75 361,75 Q416,75 447.5,96 Q479,117 479,150 Q479,210 363,231 L241,253 Q153,269 112,309 Q71,349 71,403 Q71,480 138,524.5 Q205,569 306,569 Q358,569 401,560 Q444,551 471,536 Q498,521 518.5,503.5 Q539,486 549.5,468 Q560,450 566.5,435 Q573,420 574,411"/> 
            <glyph glyph-name="r" unicode="&#x72;" horiz-adv-x="512" d=" M20,480 L20,555 L149,555 L149,681 L264,761 L264,555 L492,555 L492,480 L264,480 L264,201 Q264,75 361,75 Q388,75 411,83 Q434,91 447.5,103 Q461,115 471,127 Q481,139 484,147 L488,155 L512,66 Q510,63 505.5,57.5 Q501,52 485.5,38 Q470,24 451.5,13.5 Q433,3 401.5,-5.5 Q370,-14 336,-14 Q244,-14 194,36 Q144,86 144,188 L144,480"/> 
            <glyph glyph-name="s" unicode="&#x73;" horiz-adv-x="658" d=" M210,555 L210,213 Q210,75 367,75 Q410,75 442.5,87.5 Q475,100 492.5,117.5 Q510,135 521,157.5 Q532,180 535,196 Q538,212 538,225 L538,555 L658,555 L658,0 L600,0 L549,165 Q548,158 546,146 Q544,134 530,103 Q516,72 494.5,48.5 Q473,25 427.5,5.5 Q382,-14 323,-14 Q90,-14 90,211 L90,555"/> 
            <glyph glyph-name="t" unicode="&#x74;" horiz-adv-x="658" d=" M658,555 L399,0 L268,0 L10,555 L148,555 L334,107 L522,555"/> 
            <glyph glyph-name="u" unicode="&#x75;" horiz-adv-x="1001" d=" M225,0 L10,555 L148,555 L297,107 L433,555 L578,555 L715,107 L863,555 L1001,555 L787,0 L655,0 L506,465 L356,0"/> 
            <glyph glyph-name="v" unicode="&#x76;" horiz-adv-x="652" d=" M10,0 L262,276 L10,555 L159,555 L331,350 L503,555 L652,555 L399,276 L652,0 L499,0 L331,204 L164,0"/> 
            <glyph glyph-name="w" unicode="&#x77;" horiz-adv-x="626" d=" M246,-1 L262,35 L10,555 L148,555 L323,162 L490,555 L626,555 L357,0 Q297,-124 246,-180.5 Q195,-237 129,-237 Q96,-237 68.5,-225.5 Q41,-214 30,-202 L19,-191 L33,-102 Q36,-107 41,-114.5 Q46,-122 64,-133.5 Q82,-145 104,-145 Q140,-145 179,-105 Q218,-65 246,-1"/> 
            <glyph glyph-name="x" unicode="&#x78;" horiz-adv-x="570" d=" M40,0 L40,85 L420,480 L40,480 L40,555 L570,555 L570,470 L195,75 L570,75 L570,0"/> 
            <glyph glyph-name="y" unicode="&#x79;" horiz-adv-x="954" d=" M815,0 L704,247 L269,247 L158,0 L20,0 L380,777 L594,777 L954,0 M470,692 L308,332 L666,332 L505,692 M296,1043 L446,1043 L562,855 L495,855"/> 
            <glyph glyph-name="z" unicode="&#x7A;" horiz-adv-x="705" d=" M90,0 L90,777 L676,777 L676,692 L220,692 L220,432 L648,432 L648,347 L220,347 L220,85 L705,85 L705,0 M206,1043 L356,1043 L472,855 L405,855"/> 
            <glyph glyph-name="À" unicode="&#xC0;" horiz-adv-x="705" d=" M90,0 L90,777 L676,777 L676,692 L220,692 L220,432 L648,432 L648,347 L220,347 L220,85 L705,85 L705,0 M436,1043 L586,1043 L387,855 L320,855"/> 
            <glyph glyph-name="È" unicode="&#xC8;" horiz-adv-x="967" d=" M967,565 Q967,211 842.5,98.5 Q718,-14 513,-14 Q308,-14 184,98.5 Q60,211 60,388 Q60,566 184,678.5 Q308,791 513,791 Q718,791 967,565 M830,388 Q830,519 741.5,605.5 Q653,692 513,692 Q374,692 285.5,605.5 Q197,519 197,388 Q197,258 285.5,171.5 Q374,85 513,85 Q653,85 741.5,171.5 Q830,258 830,388 M293,1043 L443,1043 L559,855 L492,855"/> 
            <glyph glyph-name="É" unicode="&#xC9;" horiz-adv-x="826" d=" M696,777 L826,777 L826,321 Q826,-14 458,-14 Q90,-14 90,321 L90,777 L220,777 L220,321 Q220,247 235.5,199 Q251,151 284.5,127 Q318,103 358,94 Q398,85 458,85 Q518,85 558,94 Q598,103 631.5,127 Q665,151 680.5,199 Q696,247 696,321 M256,1043 L406,1043 L522,855 L455,855"/> 
            <glyph glyph-name="Ò" unicode="&#xD2;" horiz-adv-x="704" d=" M565,133 L571,366 Q573,455 510,512 Q447,569 327,569 Q281,569 241.5,560 Q202,551 174.5,536.5 Q147,522 124.5,504 Q102,486 88.5,468.5 Q75,451 66,436.5 Q57,422 54,413 L50,404 L174,368 Q175,373 177.5,380.5 Q180,388 192,407 Q204,426 219.5,441 Q235,456 265,468 Q295,480 331,480 Q367,480 392.5,468 Q418,456 429,439 Q440,422 445.5,405 Q451,388 450,376 L450,364 Q344,352 266,323.5 Q188,295 147.5,257.5 Q107,220 88.5,183 Q70,146 70,108 Q70,55 107,20.5 Q144,-14 204,-14 Q242,-14 277.5,1 Q313,16 339.5,42.5 Q366,69 385.5,92.5 Q405,116 421,147.5 Q437,179 441,188 Q445,197 450,209 L450,115 Q450,47 485.5,16.5 Q521,-14 574,-14 Q615,-14 647.5,-1.5 Q680,11 692,24 L704,36 L680,125 Q678,119 673,111 Q668,103 649.5,89 Q631,75 609,75 Q563,75 565,133 M197,133 Q197,155 206,177 Q215,199 239,227.5 Q263,256 317,283 Q371,310 450,330 L450,295 Q451,271 424,220 Q397,169 347.5,122 Q298,75 250,75 Q197,75 197,133 M135,821 L285,821 L401,633 L334,633"/> 
            <glyph glyph-name="Ù" unicode="&#xD9;" horiz-adv-x="667" d=" M383,75 Q297,75 243,127.5 Q189,180 188,273 L652,263 Q653,269 653,280 Q653,291 650,323 Q647,355 639,384 Q631,413 610.5,448 Q590,483 561,508.5 Q532,534 482,551.5 Q432,569 368,569 Q225,569 142.5,487.5 Q60,406 60,278 Q60,143 150,64.5 Q240,-14 368,-14 Q442,-14 500,6.5 Q558,27 588,56.5 Q618,86 637.5,115 Q657,144 662,164 L667,185 L543,221 Q543,215 542,205 Q541,195 532.5,170 Q524,145 509,126 Q494,107 461,91 Q428,75 383,75 M525,339 L193,334 Q206,401 249,440.5 Q292,480 361,480 Q405,480 438,465.5 Q471,451 487,430.5 Q503,410 512.5,389 Q522,368 524,354 M170,821 L320,821 L436,633 L369,633"/> 
            <glyph glyph-name="à" unicode="&#xE0;" horiz-adv-x="667" d=" M383,75 Q297,75 243,127.5 Q189,180 188,273 L652,263 Q653,269 653,280 Q653,291 650,323 Q647,355 639,384 Q631,413 610.5,448 Q590,483 561,508.5 Q532,534 482,551.5 Q432,569 368,569 Q225,569 142.5,487.5 Q60,406 60,278 Q60,143 150,64.5 Q240,-14 368,-14 Q442,-14 500,6.5 Q558,27 588,56.5 Q618,86 637.5,115 Q657,144 662,164 L667,185 L543,221 Q543,215 542,205 Q541,195 532.5,170 Q524,145 509,126 Q494,107 461,91 Q428,75 383,75 M525,339 L193,334 Q206,401 249,440.5 Q292,480 361,480 Q405,480 438,465.5 Q471,451 487,430.5 Q503,410 512.5,389 Q522,368 524,354 M420,821 L570,821 L371,633 L304,633"/> 
            <glyph glyph-name="è" unicode="&#xE8;" horiz-adv-x="690" d=" M60,278 Q60,404 145,486.5 Q230,569 375,569 Q520,569 605,486.5 Q690,404 690,278 Q690,151 605,68.5 Q520,-14 375,-14 Q230,-14 145,68.5 Q60,151 60,278 M188,369 Q188,187 238.5,131 Q289,75 375,75 Q460,75 511,131 Q562,187 562,278 Q562,369 511,424.5 Q460,480 375,480 Q289,480 188,369 M174,821 L324,821 L440,633 L373,633"/> 
            <glyph glyph-name="é" unicode="&#xE9;" horiz-adv-x="658" d=" M210,555 L210,213 Q210,75 367,75 Q410,75 442.5,87.5 Q475,100 492.5,117.5 Q510,135 521,157.5 Q532,180 535,196 Q538,212 538,225 L538,555 L658,555 L658,0 L600,0 L549,165 Q548,158 546,146 Q544,134 530,103 Q516,72 494.5,48.5 Q473,25 427.5,5.5 Q382,-14 323,-14 Q90,-14 90,211 L90,555 M183,821 L333,821 L449,633 L382,633"/> 
            <glyph glyph-name="ò" unicode="&#xF2;" horiz-adv-x="258" d=" M90,481 L90,601 Q90,656 110,706 Q130,756 150,779 L170,802 L258,776 Q254,774 248,770 Q242,766 225.5,751.5 Q209,737 195.5,721 Q182,705 168.5,679 Q155,653 149,626 L220,626 L220,481"/> 
            <glyph glyph-name="ù" unicode="&#xF9;" horiz-adv-x="220" d=" M220,802 L220,682 Q220,627 200,577 Q180,527 160,504 L140,481 L52,507 Q56,509 62,513 Q68,517 84.5,531.5 Q101,546 114.5,562 Q128,578 141.5,604 Q155,630 161,657 L90,657 L90,802"/> 
        </font>
</defs>
</svg>
