<?xml version="1.0" standalone="no"?>
<!DOCTYPE svg PUBLIC "-//W3C//DTD SVG 1.1//EN" "http://www.w3.org/Graphics/SVG/1.1/DTD/svg11.dtd" >
<svg xmlns="http://www.w3.org/2000/svg">
    <defs>
        <font id="SportingGrotesque-Gras">
            <font-face font-family="SportingGrotesque-Gras"
                       units-per-em="1000"
                       ascent="1062"
                       descent="-571"
                       bbox="-136 -237 1417 1019"
                    />
            <missing-glyph horiz-adv-x="0" />
            
            <glyph glyph-name="&amp;" unicode="&#x26;" horiz-adv-x="922" d=" M62,668 L62,777 L808,777 L808,660 L522,393 Q638,263 743,110 L922,110 L922,0 L816,0 Q846,-48 872.5,-93 Q899,-138 910,-160 L921,-181 L741,-230 Q704,-136 625,0 L20,0 L20,117 L331,409 Q199,558 62,668 M557,110 Q480,227 422,299 L220,110 M608,668 L227,668 Q319,599 424,496"/> 
            <glyph glyph-name="(" unicode="&#x28;" horiz-adv-x="361" d=" M40,244 Q40,434 72.5,518 Q105,602 155,657 Q205,712 259,746 Q313,780 361,787 L361,746 Q333,740 300,721.5 Q267,703 231.5,668 Q196,633 167,588 Q138,543 119.5,477.5 Q101,412 101,339 Q101,266 119.5,200.5 Q138,135 167,90 Q196,45 231.5,10 Q267,-25 300,-43.5 Q333,-62 361,-68 L361,-109 Q313,-102 259,-68 Q205,-34 155,21 Q105,76 40,244"/> 
            <glyph glyph-name=")" unicode="&#x29;" horiz-adv-x="341" d=" M341,434 Q341,244 308.5,160 Q276,76 226,21 Q176,-34 122,-68 Q68,-102 20,-109 L20,-68 Q48,-62 81,-43.5 Q114,-25 149.5,10 Q185,45 214,90 Q243,135 261.5,200.5 Q280,266 280,339 Q280,412 261.5,477.5 Q243,543 214,588 Q185,633 149.5,668 Q114,703 81,721.5 Q48,740 20,746 L20,787 Q68,780 122,746 Q176,712 226,657 Q276,602 341,434"/> 
            <glyph glyph-name="," unicode="&#x2C;" horiz-adv-x="238" d=" M238,150 L238,25 Q238,-9 228,-42.5 Q218,-76 203.5,-99 Q189,-122 174.5,-140 Q160,-158 150,-167 L140,-176 L39,-150 Q44,-148 51.5,-144 Q59,-140 78.5,-125.5 Q98,-111 114,-95 Q130,-79 144,-53 Q158,-27 161,0 L60,0 L60,150"/> 
            <glyph glyph-name="-" unicode="&#x2D;" horiz-adv-x="462" d=" M462,248 L40,248 L40,345 L462,345"/> 
            <glyph glyph-name="." unicode="&#x2E;" horiz-adv-x="238" d=" M60,0 L60,150 L238,150 L238,0"/> 
            <glyph glyph-name="0" unicode="&#x30;" horiz-adv-x="816" d=" M63,389 Q63,571 160,681 Q257,791 440,791 Q623,791 719.5,681 Q816,571 816,389 Q816,208 719,97.5 Q622,-13 440,-13 Q257,-13 160,97.5 Q63,208 63,389 M248,389 Q248,265 294.5,187.5 Q341,110 440,110 Q539,110 585,187.5 Q631,265 631,389 Q631,514 585,591 Q539,668 440,668 Q372,668 328,629 Q284,590 266,530 Q248,470 248,389"/> 
            <glyph glyph-name="1" unicode="&#x31;" horiz-adv-x="810" d=" M810,0 L99,0 L99,110 L412,110 L412,598 Q411,588 407,576.5 Q403,565 383.5,542.5 Q364,520 333.5,503 Q303,486 241.5,473 Q180,460 99,460 L99,589 Q261,589 336.5,630.5 Q412,672 412,777 L590,777 L590,110 L810,110"/> 
            <glyph glyph-name="2" unicode="&#x32;" horiz-adv-x="795" d=" M780,529 Q780,471 749.5,415 Q719,359 675.5,317 Q632,275 567.5,232.5 Q503,190 453,164 Q403,138 341,110 L795,110 L795,0 L85,0 L85,100 Q96,104 114,111.5 Q132,119 185,144 Q238,169 286.5,195.5 Q335,222 393.5,261.5 Q452,301 494.5,340.5 Q537,380 566,429 Q595,478 595,525 Q595,585 553,626.5 Q511,668 429,668 Q354,668 313.5,630 Q273,592 273,532 Q273,501 286,473.5 Q299,446 317.5,429 Q336,412 355,399.5 Q374,387 387,382 L400,377 L212,326 Q207,328 199,333 Q191,338 170,356.5 Q149,375 132.5,396.5 Q116,418 103,454.5 Q90,491 90,532 Q90,579 111.5,624 Q133,669 173,707 Q213,745 280.5,768 Q348,791 432,791 Q599,791 689.5,718 Q780,645 780,529"/> 
            <glyph glyph-name="3" unicode="&#x33;" horiz-adv-x="820" d=" M452,346 L358,346 L358,452 L432,452 Q615,452 615,559 Q615,608 575.5,638 Q536,668 476,668 Q434,668 400.5,657.5 Q367,647 347.5,630 Q328,613 314,592.5 Q300,572 294.5,552 Q289,532 286.5,515 Q284,498 284,488 L285,477 L98,528 Q99,533 101,542.5 Q103,552 113,579.5 Q123,607 138,632 Q153,657 182.5,687 Q212,717 248.5,739 Q285,761 342.5,776 Q400,791 468,791 Q617,791 708.5,727.5 Q800,664 800,567 Q800,522 779.5,488 Q759,454 727.5,436.5 Q696,419 679,412.5 Q662,406 648,403 Q659,401 671,398 Q683,395 712.5,382.5 Q742,370 763.5,352.5 Q785,335 802.5,302.5 Q820,270 820,229 Q820,110 716.5,48.5 Q613,-13 456,-13 Q377,-13 312.5,3 Q248,19 207.5,44.5 Q167,70 136.5,101 Q106,132 91.5,162.5 Q77,193 68.5,218.5 Q60,244 58,260 L57,276 L243,324 Q245,323 242.5,312 Q240,301 245,281.5 Q250,262 255,239.5 Q260,217 276.5,194 Q293,171 315,152.5 Q337,134 375.5,122 Q414,110 463,110 Q540,110 588,143 Q636,176 636,230 Q636,346 452,346"/> 
            <glyph glyph-name="4" unicode="&#x34;" horiz-adv-x="847" d=" M20,185 L20,318 L473,777 L683,777 L683,298 L847,298 L847,185 L683,185 L683,0 L505,0 L505,185 M505,618 L194,298 L505,298"/> 
            <glyph glyph-name="5" unicode="&#x35;" horiz-adv-x="820" d=" M820,262 Q820,133 719.5,60 Q619,-13 451,-13 Q373,-13 309,2 Q245,17 205,40.5 Q165,64 135,92.5 Q105,121 90.5,150 Q76,179 67.5,202.5 Q59,226 58,241 L56,256 L242,304 Q242,300 241.5,293 Q241,286 243.5,266 Q246,246 252,227.5 Q258,209 273,186.5 Q288,164 309.5,148 Q331,132 367.5,121 Q404,110 451,110 Q533,110 584,153.5 Q635,197 635,261 Q635,325 584,368.5 Q533,412 451,412 Q404,412 363,398.5 Q322,385 304,372 L287,358 L114,358 L197,777 L783,777 L783,668 L348,668 L303,471 Q305,474 310,478 Q315,482 333,493 Q351,504 372,512.5 Q393,521 428.5,528 Q464,535 503,535 Q633,535 726.5,458 Q820,381 820,262"/> 
            <glyph glyph-name="6" unicode="&#x36;" horiz-adv-x="827" d=" M264,249 Q265,243 268,234 Q271,225 284,201 Q297,177 315.5,158.5 Q334,140 368.5,125 Q403,110 446,110 Q528,110 577.5,150.5 Q627,191 627,249 Q627,316 584.5,358.5 Q542,401 465,401 Q413,401 373.5,385.5 Q334,370 314,347.5 Q294,325 282,302.5 Q270,280 267,264 M473,668 Q360,668 300,585.5 Q240,503 245,370 Q248,376 253.5,386.5 Q259,397 281.5,423.5 Q304,450 333,470.5 Q362,491 414,507.5 Q466,524 527,524 Q601,524 664.5,497 Q728,470 770.5,410 Q813,350 813,268 Q813,145 708.5,66 Q604,-13 447,-13 Q263,-13 161.5,98 Q60,209 60,389 Q60,569 170,680 Q280,791 480,791 Q541,791 593.5,780.5 Q646,770 680.5,752.5 Q715,735 742.5,714.5 Q770,694 785,673.5 Q800,653 810.5,635.5 Q821,618 824,608 L827,597 L643,547 Q642,552 640.5,560 Q639,568 628,589 Q617,610 600.5,626 Q584,642 550.5,655 Q517,668 473,668"/> 
            <glyph glyph-name="7" unicode="&#x37;" horiz-adv-x="848" d=" M848,777 L848,648 Q839,646 824.5,641.5 Q810,637 766.5,616 Q723,595 683.5,567 Q644,539 595.5,486.5 Q547,434 511,370 Q475,306 449.5,209.5 Q424,113 421,0 L233,0 Q239,116 266,215.5 Q293,315 327,380.5 Q361,446 408.5,500 Q456,554 493,582.5 Q530,611 573,633 Q616,655 631,659.5 Q646,664 660,668 L32,668 L32,777"/> 
            <glyph glyph-name="8" unicode="&#x38;" horiz-adv-x="826" d=" M796,582 Q796,544 779,512 Q762,480 739.5,462 Q717,444 691,431 Q665,418 650,413.5 Q635,409 629,408 Q637,407 652.5,403.5 Q668,400 700.5,386.5 Q733,373 759,354.5 Q785,336 805.5,302 Q826,268 826,226 Q826,119 717.5,53 Q609,-13 440,-13 Q270,-13 162,46.5 Q54,106 54,206 Q54,249 74,283.5 Q94,318 118.5,336.5 Q143,355 176,368.5 Q209,382 223.5,385 Q238,388 250,390 Q236,393 216.5,400 Q197,407 163,425.5 Q129,444 106.5,479.5 Q84,515 84,562 Q84,662 185.5,726.5 Q287,791 440,791 Q594,791 695,733 Q796,675 796,582 M640,177 Q640,275 589.5,308.5 Q539,342 440,342 Q341,342 290,308.5 Q239,275 239,226 Q239,177 290,143.5 Q341,110 440,110 Q539,110 640,177 M270,609 Q270,515 315,485.5 Q360,456 440,456 Q520,456 565.5,485.5 Q611,515 611,562 Q611,609 565.5,638.5 Q520,668 440,668 Q360,668 270,609"/> 
            <glyph glyph-name="9" unicode="&#x39;" horiz-adv-x="820" d=" M616,529 Q615,535 612,544 Q609,553 596,577 Q583,601 564.5,619.5 Q546,638 511.5,653 Q477,668 434,668 Q352,668 302.5,627.5 Q253,587 253,529 Q253,462 295.5,419.5 Q338,377 415,377 Q467,377 506.5,392.5 Q546,408 566,430.5 Q586,453 598,475.5 Q610,498 613,514 M407,110 Q520,110 580,192.5 Q640,275 635,408 Q632,402 626.5,391.5 Q621,381 598.5,354.5 Q576,328 547,307.5 Q518,287 466,270.5 Q414,254 353,254 Q279,254 215.5,281 Q152,308 109.5,368 Q67,428 67,510 Q67,633 171.5,712 Q276,791 433,791 Q617,791 718.5,680 Q820,569 820,389 Q820,209 710,98 Q600,-13 400,-13 Q339,-13 286.5,-2.5 Q234,8 199.5,25.5 Q165,43 137.5,63.5 Q110,84 95,104.5 Q80,125 69.5,142.5 Q59,160 56,170 L53,181 L237,231 Q238,226 239.5,218 Q241,210 252,189 Q263,168 279.5,152 Q296,136 329.5,123 Q363,110 407,110"/> 
            <glyph glyph-name=":" unicode="&#x3A;" horiz-adv-x="238" d=" M60,0 L60,150 L238,150 L238,0 M60,405 L60,555 L238,555 L238,405"/> 
            <glyph glyph-name="A" unicode="&#x41;" horiz-adv-x="1053" d=" M861,0 L754,235 L308,235 L201,0 L10,0 L377,777 L686,777 L1053,0 M506,668 L358,345 L704,345 L557,668"/> 
            <glyph glyph-name="B" unicode="&#x42;" horiz-adv-x="862" d=" M90,777 L456,777 Q655,777 748.5,724 Q842,671 842,560 Q842,523 828,494 Q814,465 796,449 Q778,433 755,422 Q732,411 720,407.5 Q708,404 700,403 Q709,402 722.5,398.5 Q736,395 762.5,382.5 Q789,370 809.5,352.5 Q830,335 846,302 Q862,269 862,227 Q862,0 476,0 L90,0 M268,346 L268,110 L486,110 Q574,110 625.5,140 Q677,170 677,228 Q677,285 628,315.5 Q579,346 495,346 M268,452 L466,452 Q657,452 657,560 Q657,668 466,668 L268,668"/> 
            <glyph glyph-name="C" unicode="&#x43;" horiz-adv-x="1023" d=" M1001,452 L818,402 Q819,408 819,417.5 Q819,427 816,454.5 Q813,482 805.5,507 Q798,532 778.5,563 Q759,594 730,616 Q701,638 651.5,653 Q602,668 539,668 Q397,668 321,591.5 Q245,515 245,389 Q245,261 325.5,185.5 Q406,110 539,110 Q601,110 651.5,122.5 Q702,135 732.5,155 Q763,175 785.5,199.5 Q808,224 818,248.5 Q828,273 833.5,293 Q839,313 840,326 L840,338 L1023,291 Q1022,285 1019.5,274 Q1017,263 1003.5,231.5 Q990,200 970.5,171 Q951,142 913,107 Q875,72 827,47 Q779,22 703.5,4.5 Q628,-13 539,-13 Q325,-13 192.5,100 Q60,213 60,389 Q60,566 191,678.5 Q322,791 538,791 Q633,791 710,772.5 Q787,754 834,724 Q881,694 915.5,658 Q950,622 965.5,585.5 Q981,549 990,519 Q999,489 1000,470"/> 
            <glyph glyph-name="D" unicode="&#x44;" horiz-adv-x="940" d=" M90,777 L477,777 Q680,777 810,671.5 Q940,566 940,388 Q940,211 810,105.5 Q680,0 477,0 L90,0 M414,668 L268,668 L268,110 L414,110 Q583,110 669,181.5 Q755,253 755,388 Q755,523 668.5,595.5 Q582,668 414,668"/> 
            <glyph glyph-name="E" unicode="&#x45;" horiz-adv-x="775" d=" M90,0 L90,777 L745,777 L745,668 L268,668 L268,442 L716,442 L716,333 L268,333 L268,110 L775,110 L775,0"/> 
            <glyph glyph-name="F" unicode="&#x46;" horiz-adv-x="744" d=" M90,0 L90,777 L744,777 L744,668 L268,668 L268,442 L716,442 L716,333 L268,333 L268,0"/> 
            <glyph glyph-name="G" unicode="&#x47;" horiz-adv-x="991" d=" M991,512 L808,462 Q808,470 806,484 Q804,498 789,533.5 Q774,569 748,596 Q722,623 666,645.5 Q610,668 534,668 Q393,668 319,589 Q245,510 245,388 Q245,266 323,188 Q401,110 534,110 Q603,110 655.5,130 Q708,150 734,178.5 Q760,207 776.5,235.5 Q793,264 796,284 L800,304 L483,304 L483,413 L967,413 L967,0 L800,0 L800,115 Q797,110 791.5,101.5 Q786,93 762.5,70.5 Q739,48 709,31.5 Q679,15 624.5,1 Q570,-13 506,-13 Q315,-13 187.5,100.5 Q60,214 60,388 Q60,566 189.5,678.5 Q319,791 535,791 Q622,791 694,775.5 Q766,760 812,735.5 Q858,711 893,681.5 Q928,652 946,622 Q964,592 975,567.5 Q986,543 988,528"/> 
            <glyph glyph-name="H" unicode="&#x48;" horiz-adv-x="916" d=" M738,-1 L738,333 L268,333 L268,-1 L90,-1 L90,776 L268,776 L268,442 L738,442 L738,776 L916,776 L916,-1"/> 
            <glyph glyph-name="I" unicode="&#x49;" horiz-adv-x="268" d=" M90,777 L268,777 L268,0 L90,0"/> 
            <glyph glyph-name="J" unicode="&#x4A;" horiz-adv-x="734" d=" M20,303 L203,350 Q195,233 231.5,171.5 Q268,110 376,110 Q477,110 516.5,156 Q556,202 556,289 L556,777 L734,777 L734,303 Q734,146 637.5,66.5 Q541,-13 376,-13 Q213,-13 116.5,66.5 Q20,146 20,303"/> 
            <glyph glyph-name="K" unicode="&#x4B;" horiz-adv-x="952" d=" M730,0 L399,347 L268,238 L268,0 L90,0 L90,777 L268,777 L268,411 L700,777 L922,777 L514,442 L952,0"/> 
            <glyph glyph-name="L" unicode="&#x4C;" horiz-adv-x="733" d=" M90,0 L90,777 L268,777 L268,110 L733,110 L733,0"/> 
            <glyph glyph-name="M" unicode="&#x4D;" horiz-adv-x="1222" d=" M656,170 L915,777 L1222,777 L1222,0 L1044,0 L1044,668 L743,0 L569,0 L268,668 L268,0 L90,0 L90,777 L397,777"/> 
            <glyph glyph-name="N" unicode="&#x4E;" horiz-adv-x="917" d=" M917,777 L917,0 L674,0 L268,607 L268,0 L90,0 L90,777 L333,777 L739,170 L739,777"/> 
            <glyph glyph-name="O" unicode="&#x4F;" horiz-adv-x="1050" d=" M60,212 Q60,566 196,678.5 Q332,791 555,791 Q778,791 914,678.5 Q1050,566 1050,389 Q1050,212 914,99.5 Q778,-13 555,-13 Q332,-13 60,212 M245,512 Q245,266 323,188 Q401,110 555,110 Q709,110 787,188 Q865,266 865,389 Q865,512 787,590 Q709,668 555,668 Q401,668 245,512"/> 
            <glyph glyph-name="P" unicode="&#x50;" horiz-adv-x="842" d=" M90,0 L90,777 L456,777 Q654,777 748,722 Q842,667 842,555 Q842,443 748,388 Q654,333 456,333 L268,333 L268,0 M268,668 L268,442 L466,442 Q657,442 657,555 Q657,668 466,668"/> 
            <glyph glyph-name="Q" unicode="&#x51;" horiz-adv-x="1050" d=" M60,212 Q60,566 196,678.5 Q332,791 555,791 Q778,791 914,678.5 Q1050,566 1050,389 Q1050,253 967.5,152.5 Q885,52 741,11 Q738,10 733.5,8 Q729,6 724,-0.5 Q719,-7 719,-15 Q719,-73 807,-73 Q842,-73 871,-67 Q900,-61 916.5,-52 Q933,-43 944.5,-34 Q956,-25 960,-19 L964,-13 L1000,-134 Q998,-137 994,-141.5 Q990,-146 974.5,-158 Q959,-170 939,-179.5 Q919,-189 884.5,-196.5 Q850,-204 809,-204 Q706,-204 659.5,-164.5 Q613,-125 612,-73 Q612,-21 638,-8 Q593,-13 555,-13 Q332,-13 60,212 M245,512 Q245,266 323,188 Q401,110 555,110 Q709,110 787,188 Q865,266 865,389 Q865,512 787,590 Q709,668 555,668 Q401,668 245,512"/> 
            <glyph glyph-name="R" unicode="&#x52;" horiz-adv-x="875" d=" M90,0 L90,777 L456,777 Q654,777 748,722 Q842,667 842,555 Q842,404 621,379 Q725,366 756,286 Q773,243 799,176 Q858,23 870,6 Q872,3 875,0 L681,0 Q678,5 675,10 Q672,15 669,22.5 Q666,30 663.5,37 Q661,44 657,57.5 Q653,71 650,81 Q647,91 641.5,111 Q636,131 632,146 Q628,161 620.5,189 Q613,217 607,239 Q593,293 544.5,313 Q496,333 378,333 L268,333 L268,0 M268,668 L268,442 L466,442 Q657,442 657,555 Q657,668 466,668"/> 
            <glyph glyph-name="S" unicode="&#x53;" horiz-adv-x="841" d=" M379,487 L593,444 Q728,417 784.5,359 Q841,301 841,217 Q841,107 737.5,47 Q634,-13 471,-13 Q376,-13 299,4 Q222,21 173.5,48 Q125,75 92.5,111 Q60,147 46,182 Q32,217 30,253 L213,300 Q215,299 212.5,289.5 Q210,280 215,262.5 Q220,245 226,225 Q232,205 251,184.5 Q270,164 295.5,147.5 Q321,131 366,120.5 Q411,110 468,110 Q557,110 607.5,134.5 Q658,159 658,203 Q658,224 649.5,239.5 Q641,255 630.5,264.5 Q620,274 594,283 Q568,292 549.5,296.5 Q531,301 490,310 L292,352 Q180,376 119,430.5 Q58,485 58,559 Q58,657 151,724 Q244,791 417,791 Q494,791 557,778.5 Q620,766 659.5,745.5 Q699,725 729,700.5 Q759,676 774,652 Q789,628 797.5,607.5 Q806,587 808,574 L810,562 L627,512 Q627,518 626,528.5 Q625,539 614,566 Q603,593 583,613.5 Q563,634 517.5,651 Q472,668 410,668 Q332,668 287,642.5 Q242,617 242,578 Q242,514 379,487"/> 
            <glyph glyph-name="T" unicode="&#x54;" horiz-adv-x="872" d=" M10,668 L10,777 L872,777 L872,668 L530,668 L530,0 L352,0 L352,668"/> 
            <glyph glyph-name="U" unicode="&#x55;" horiz-adv-x="902" d=" M724,777 L902,777 L902,324 Q902,-13 496,-13 Q90,-13 90,324 L90,777 L268,777 L268,324 Q268,200 324,155 Q380,110 496,110 Q612,110 668,155 Q724,200 724,324"/> 
            <glyph glyph-name="V" unicode="&#x56;" horiz-adv-x="993" d=" M212,777 L502,170 L792,777 L993,777 L596,0 L407,0 L10,777"/> 
            <glyph glyph-name="W" unicode="&#x57;" horiz-adv-x="1417" d=" M1417,777 L1124,0 L912,0 L713,668 L515,0 L301,0 L10,777 L212,777 L413,169 L585,777 L842,777 L1014,170 L1215,777"/> 
            <glyph glyph-name="X" unicode="&#x58;" horiz-adv-x="972" d=" M755,0 L491,275 L227,0 L10,0 L382,388 L10,777 L227,777 L491,501 L755,777 L972,777 L599,388 L972,0"/> 
            <glyph glyph-name="Y" unicode="&#x59;" horiz-adv-x="972" d=" M972,777 L580,365 L580,0 L402,0 L402,365 L10,777 L227,777 L491,485 L755,777"/> 
            <glyph glyph-name="Z" unicode="&#x5A;" horiz-adv-x="798" d=" M798,110 L798,0 L20,0 L20,120 L563,668 L20,668 L20,777 L798,777 L798,658 L255,110"/> 
            <glyph glyph-name="a" unicode="&#x61;" horiz-adv-x="773" d=" M634,359 L625,152 Q623,97 665,97 Q685,97 704,109.5 Q723,122 732,134 L740,147 L773,39 Q768,33 758,24.5 Q748,16 713.5,1.5 Q679,-13 640,-13 Q556,-13 523.5,35 Q491,83 491,175 Q484,162 477,151 Q470,140 443,106 Q416,72 388,49.5 Q360,27 314,7 Q268,-13 220,-13 Q143,-13 99.5,21.5 Q56,56 56,119 Q56,198 157,262.5 Q258,327 469,345 Q469,368 465,385 Q461,402 450.5,420 Q440,438 415.5,448 Q391,458 355,458 Q312,458 281,445.5 Q250,433 235.5,414.5 Q221,396 212.5,378 Q204,360 203,348 L202,335 L30,379 Q31,383 33.5,390 Q36,397 47,416.5 Q58,436 72.5,454 Q87,472 114.5,493.5 Q142,515 174.5,530.5 Q207,546 256.5,557 Q306,568 363,568 Q493,568 565,508 Q637,448 634,359 M228,153 Q228,97 286,97 Q318,97 349,113 Q380,129 401,152 Q422,175 438,198 Q454,221 462,237 L469,253 L469,292 Q344,280 286,240 Q228,200 228,153"/> 
            <glyph glyph-name="b" unicode="&#x62;" horiz-adv-x="745" d=" M314,97 Q484,97 528,147 Q572,197 572,277 Q572,357 528,407.5 Q484,458 399,458 Q314,458 271.5,405.5 Q229,353 229,277 Q229,201 314,97 M255,791 L255,467 Q257,471 260.5,478 Q264,485 280,502.5 Q296,520 316,533 Q336,546 373,557 Q410,568 453,568 Q579,568 662,486 Q745,404 745,277 Q745,150 662,68.5 Q579,-13 452,-13 Q402,-13 360,1.5 Q318,16 294,36.5 Q270,57 253,77.5 Q236,98 230,112 L224,127 L186,0 L90,0 L90,777 Q126,777 167.5,780.5 Q209,784 232,788"/> 
            <glyph glyph-name="c" unicode="&#x63;" horiz-adv-x="727" d=" M567,225 L727,184 Q725,176 720.5,162.5 Q716,149 693,115 Q670,81 637.5,55.5 Q605,30 541,8.5 Q477,-13 397,-13 Q256,-13 158,65 Q60,143 60,278 Q60,404 152.5,486 Q245,568 398,568 Q466,568 520,553.5 Q574,539 605.5,515.5 Q637,492 659.5,464 Q682,436 691,408 Q700,380 704,356.5 Q708,333 708,318 L707,304 L547,263 Q548,271 549,284 Q550,297 545.5,330.5 Q541,364 528.5,390 Q516,416 483,437 Q450,458 400,458 Q318,458 275,407.5 Q232,357 232,278 Q232,195 279.5,146 Q327,97 414,97 Q456,97 487.5,110 Q519,123 533.5,142 Q548,161 556.5,180 Q565,199 566,212"/> 
            <glyph glyph-name="d" unicode="&#x64;" horiz-adv-x="715" d=" M320,97 Q490,97 533,149 Q576,201 576,277 Q576,353 533,405.5 Q490,458 405,458 Q320,458 276.5,407.5 Q233,357 233,277 Q233,197 320,97 M549,467 L549,777 Q586,777 627.5,780.5 Q669,784 692,788 L715,791 L715,0 L619,0 L580,127 Q578,121 573.5,111.5 Q569,102 551.5,78 Q534,54 510.5,35.5 Q487,17 445,2 Q403,-13 353,-13 Q225,-13 142.5,68.5 Q60,150 60,277 Q60,404 142.5,486 Q225,568 352,568 Q395,568 431.5,557.5 Q468,547 488.5,532.5 Q509,518 523.5,503 Q538,488 544,478"/> 
            <glyph glyph-name="e" unicode="&#x65;" horiz-adv-x="727" d=" M236,346 L541,356 Q540,360 538.5,367.5 Q537,375 527.5,393.5 Q518,412 503.5,426 Q489,440 460,451.5 Q431,463 394,463 Q355,463 324.5,451 Q294,439 278.5,422 Q263,405 252.5,387.5 Q242,370 239,358 M712,258 L226,268 Q227,196 273.5,146.5 Q320,97 414,97 Q457,97 488,110 Q519,123 533.5,142 Q548,161 556.5,180 Q565,199 566,212 L567,225 L727,184 Q726,180 724,173 Q722,166 712,145.5 Q702,125 688,106.5 Q674,88 647.5,65 Q621,42 588.5,25.5 Q556,9 506,-2 Q456,-13 397,-13 Q256,-13 158,65 Q60,143 60,278 Q60,404 152,486 Q244,568 397,568 Q461,568 513.5,555 Q566,542 599.5,520.5 Q633,499 657,470.5 Q681,442 693,413 Q705,384 710.5,353.5 Q716,323 716,300 Q716,277 712,258"/> 
            <glyph glyph-name="f" unicode="&#x66;" horiz-adv-x="714" d=" M0,555 L149,555 Q144,557 137.5,562.5 Q131,568 120.5,586.5 Q110,605 110,628 Q110,692 182.5,741.5 Q255,791 381,791 Q438,791 487.5,780.5 Q537,770 570,753.5 Q603,737 629.5,716.5 Q656,696 671.5,676 Q687,656 697,639.5 Q707,623 710,612 L714,602 L542,558 Q542,563 541,571.5 Q540,580 531.5,602.5 Q523,625 508.5,641.5 Q494,658 463,672 Q432,686 389,686 Q321,686 294,657.5 Q267,629 267,594 Q267,583 271,573 Q275,563 279,559 L283,555 L495,555 L495,458 L293,458 L293,0 L128,0 L128,458 L0,458"/> 
            <glyph glyph-name="g" unicode="&#x67;" horiz-adv-x="774" d=" M375,170 Q319,170 278,177 Q223,180 223,140 Q223,97 324,97 L529,97 Q595,97 641.5,82.5 Q688,68 712,42.5 Q736,17 746.5,-10.5 Q757,-38 757,-70 Q757,-148 682.5,-192.5 Q608,-237 479,-237 L258,-237 Q139,-237 84.5,-199 Q30,-161 30,-111 Q30,-88 41,-69 Q52,-50 72,-37.5 Q92,-25 109,-17 Q126,-9 150.5,-4 Q175,1 182,2 Q189,3 201,5 Q191,6 173,10 Q155,14 127.5,24 Q100,34 81,55.5 Q62,77 62,105 Q62,178 202,197 Q133,222 96,267 Q59,312 59,368 Q59,455 143.5,511.5 Q228,568 373,568 Q515,568 601,512 Q577,548 577,568 Q577,605 600,626 Q623,647 664,647 Q682,647 736,643 L774,520 Q722,528 688,528 Q648,528 641,511 Q634,494 652,466 Q687,422 687,368 Q687,282 602.5,226 Q518,170 375,170 M496,-12 L301,0 Q296,0 289,-0.5 Q282,-1 265.5,-5.5 Q249,-10 236.5,-17.5 Q224,-25 214,-42 Q204,-59 204,-82 Q204,-124 244.5,-141 Q285,-158 388,-158 Q488,-158 535.5,-142.5 Q583,-127 583,-81 Q583,-49 563,-32 Q543,-15 496,-12 M226,368 Q226,267 373,267 Q518,267 518,368 Q518,471 373,471 Q226,471 226,368"/> 
            <glyph glyph-name="h" unicode="&#x68;" horiz-adv-x="725" d=" M255,791 L255,419 Q256,428 260,440 Q264,452 278.5,476.5 Q293,501 315,520 Q337,539 378,553.5 Q419,568 472,568 Q598,568 661.5,508 Q725,448 725,340 L725,0 L561,0 L561,348 Q561,402 524.5,430 Q488,458 427,458 Q387,458 354.5,445.5 Q322,433 304.5,415 Q287,397 275,379 Q263,361 259,348 L255,336 L255,0 L90,0 L90,777 Q130,777 171.5,780.5 Q213,784 234,788"/> 
            <glyph glyph-name="i" unicode="&#x69;" horiz-adv-x="255" d=" M90,0 L90,555 L255,555 L255,0 M90,650 L90,777 L255,777 L255,650"/> 
            <glyph glyph-name="j" unicode="&#x6A;" horiz-adv-x="255" d=" M90,5 L90,555 L255,555 L255,13 Q255,-106 193.5,-171.5 Q132,-237 37,-237 Q3,-237 -27,-228.5 Q-57,-220 -76,-208 Q-95,-196 -109.5,-183.5 Q-124,-171 -130,-162 L-136,-154 L-104,-47 Q-103,-50 -100.5,-55.5 Q-98,-61 -89.5,-75 Q-81,-89 -70,-99.5 Q-59,-110 -40.5,-118.5 Q-22,-127 0,-127 Q46,-127 68,-97 Q90,-67 90,5 M90,635 L90,762 L255,762 L255,635"/> 
            <glyph glyph-name="k" unicode="&#x6B;" horiz-adv-x="738" d=" M90,0 L90,777 Q130,777 171.5,780.5 Q213,784 234,788 L255,792 L255,311 L498,555 L698,555 L424,298 L738,0 L537,0 L330,210 L255,138 L255,0"/> 
            <glyph glyph-name="l" unicode="&#x6C;" horiz-adv-x="255" d=" M90,0 L90,777 Q126,777 167.5,780.5 Q209,784 232,788 L255,791 L255,0"/> 
            <glyph glyph-name="m" unicode="&#x6D;" horiz-adv-x="1113" d=" M1113,340 L1113,0 L948,0 L948,343 Q948,367 944.5,384 Q941,401 930.5,419.5 Q920,438 896.5,448 Q873,458 838,458 Q804,458 776,445.5 Q748,433 731.5,415 Q715,397 703.5,379 Q692,361 688,348 L684,336 L684,0 L519,0 L519,343 Q519,367 515.5,384 Q512,401 501.5,419.5 Q491,438 467.5,448 Q444,458 409,458 Q375,458 347,445.5 Q319,433 302.5,415 Q286,397 274.5,379 Q263,361 259,348 L255,336 L255,0 L90,0 L90,555 L186,555 L233,398 Q234,405 236,416.5 Q238,428 252,457 Q266,486 288,508.5 Q310,531 356.5,549.5 Q403,568 463,568 Q503,568 535.5,559 Q568,550 588,536 Q608,522 623,503 Q638,484 645,468 Q652,452 656.5,435 Q661,418 661.5,410.5 Q662,403 662,399 Q663,410 666.5,423 Q670,436 685,464.5 Q700,493 722.5,513.5 Q745,534 789.5,551 Q834,568 892,568 Q999,568 1056,510.5 Q1113,453 1113,340"/> 
            <glyph glyph-name="n" unicode="&#x6E;" horiz-adv-x="725" d=" M560,0 L560,348 Q560,458 420,458 Q383,458 352.5,445.5 Q322,433 305,415 Q288,397 276,379 Q264,361 260,348 L255,336 L255,0 L90,0 L90,555 L186,555 L233,398 Q234,405 236,416.5 Q238,428 252,457 Q266,486 288,508.5 Q310,531 356.5,549.5 Q403,568 465,568 Q725,568 725,340 L725,0"/> 
            <glyph glyph-name="o" unicode="&#x6F;" horiz-adv-x="748" d=" M60,278 Q60,403 153,485.5 Q246,568 403,568 Q562,568 655,485.5 Q748,403 748,278 Q748,152 655,69.5 Q562,-13 403,-13 Q246,-13 153,69.5 Q60,152 60,278 M233,278 Q233,200 273.5,148.5 Q314,97 403,97 Q492,97 533.5,149 Q575,201 575,278 Q575,355 533.5,406.5 Q492,458 403,458 Q313,458 273,406.5 Q233,355 233,278"/> 
            <glyph glyph-name="p" unicode="&#x70;" horiz-adv-x="745" d=" M484,458 Q314,458 271.5,406 Q229,354 229,278 Q229,202 271.5,149.5 Q314,97 399,97 Q484,97 528,147.5 Q572,198 572,278 Q572,358 484,458 M255,89 L255,-223 L90,-223 L90,555 L186,555 L224,428 Q226,434 230.5,443.5 Q235,453 253,477 Q271,501 294.5,519.5 Q318,538 360,553 Q402,568 452,568 Q579,568 662,486.5 Q745,405 745,278 Q745,151 662,69 Q579,-13 453,-13 Q410,-13 373.5,-2.5 Q337,8 316,23 Q295,38 280.5,53 Q266,68 260,78"/> 
            <glyph glyph-name="q" unicode="&#x71;" horiz-adv-x="715" d=" M490,458 Q320,458 276.5,408 Q233,358 233,278 Q233,198 276.5,147.5 Q320,97 405,97 Q490,97 533,149.5 Q576,202 576,278 Q576,354 490,458 M549,-223 L549,88 Q547,84 543.5,77 Q540,70 524.5,52.5 Q509,35 488.5,22 Q468,9 431.5,-2 Q395,-13 352,-13 Q225,-13 142.5,69 Q60,151 60,278 Q60,405 142.5,486.5 Q225,568 353,568 Q403,568 445,553.5 Q487,539 511,518.5 Q535,498 551.5,477.5 Q568,457 574,442 L580,428 L619,555 L715,555 L715,-223"/> 
            <glyph glyph-name="r" unicode="&#x72;" horiz-adv-x="541" d=" M255,337 L255,0 L90,0 L90,555 L186,555 L233,398 Q233,405 234,416.5 Q235,428 243,457 Q251,486 266,508.5 Q281,531 314,549.5 Q347,568 392,568 Q541,568 541,423 Q541,392 537.5,365.5 Q534,339 531,328 L528,317 L368,276 Q385,332 385,408 Q385,458 341,458 Q310,458 288.5,428 Q267,398 261,368"/> 
            <glyph glyph-name="s" unicode="&#x73;" horiz-adv-x="660" d=" M40,181 L200,222 Q200,217 201,208.5 Q202,200 211,178.5 Q220,157 236.5,140.5 Q253,124 289,110.5 Q325,97 374,97 Q427,97 462,112 Q497,127 497,155 Q497,180 471,194.5 Q445,209 385,220 L255,244 Q68,278 68,395 Q68,475 142.5,521.5 Q217,568 330,568 Q387,568 434,559 Q481,550 511,536 Q541,522 564,504.5 Q587,487 599,469.5 Q611,452 618.5,438 Q626,424 628,415 L630,406 L470,365 Q470,369 468.5,375.5 Q467,382 458.5,399 Q450,416 436,429 Q422,442 392.5,452.5 Q363,463 323,463 Q274,463 247.5,445.5 Q221,428 221,405 Q221,382 245.5,372 Q270,362 327,352 L467,329 Q660,297 660,160 Q660,78 578.5,32.5 Q497,-13 372,-13 Q307,-13 253.5,-2.5 Q200,8 166.5,25.5 Q133,43 107.5,63.5 Q82,84 70,104.5 Q58,125 50.5,142.5 Q43,160 42,170"/> 
            <glyph glyph-name="t" unicode="&#x74;" horiz-adv-x="553" d=" M0,458 L0,555 L132,555 L132,664 L291,764 L291,555 L546,555 L546,458 L291,458 L291,206 Q291,97 389,97 Q428,97 461,117 Q494,137 508,157 L521,177 L553,69 Q550,66 545,60.5 Q540,55 520.5,40.5 Q501,26 479,15.5 Q457,5 420.5,-4 Q384,-13 344,-13 Q241,-13 184.5,38 Q128,89 128,194 L128,458"/> 
            <glyph glyph-name="u" unicode="&#x75;" horiz-adv-x="725" d=" M254,555 L254,207 Q254,97 395,97 Q432,97 462.5,109.5 Q493,122 510,140 Q527,158 539,176 Q551,194 556,206 L560,219 L560,555 L725,555 L725,0 L629,0 L582,157 Q581,150 579,138.5 Q577,127 563,98 Q549,69 527,46.5 Q505,24 458.5,5.5 Q412,-13 350,-13 Q90,-13 90,215 L90,555"/> 
            <glyph glyph-name="v" unicode="&#x76;" horiz-adv-x="738" d=" M738,555 L454,0 L294,0 L10,555 L191,555 L374,146 L557,555"/> 
            <glyph glyph-name="w" unicode="&#x77;" horiz-adv-x="1087" d=" M246,0 L10,555 L191,555 L333,146 L469,555 L628,555 L764,146 L906,555 L1087,555 L851,0 L688,0 L548,401 L409,0"/> 
            <glyph glyph-name="x" unicode="&#x78;" horiz-adv-x="748" d=" M201,555 L379,374 L557,555 L748,555 L474,277 L748,0 L557,0 L379,180 L201,0 L10,0 L283,277 L10,555"/> 
            <glyph glyph-name="y" unicode="&#x79;" horiz-adv-x="728" d=" M287,15 L10,555 L191,555 L364,156 L547,555 L728,555 L403,-62 Q353,-157 300.5,-197 Q248,-237 170,-237 Q140,-237 113,-228.5 Q86,-220 69,-208 Q52,-196 39,-183.5 Q26,-171 20,-162 L14,-154 L46,-47 Q47,-50 49.5,-55.5 Q52,-61 60.5,-75 Q69,-89 80.5,-99.5 Q92,-110 111.5,-118.5 Q131,-127 154,-127 Q195,-127 225,-90 Q255,-53 287,15"/> 
            <glyph glyph-name="z" unicode="&#x7A;" horiz-adv-x="645" d=" M60,0 L60,107 L443,458 L60,458 L60,555 L645,555 L645,448 L268,97 L645,97 L645,0"/> 
            <glyph glyph-name="À" unicode="&#xC0;" horiz-adv-x="1053" d=" M861,0 L754,235 L308,235 L201,0 L10,0 L377,777 L686,777 L1053,0 M506,668 L358,345 L704,345 L557,668 M278,1018 L488,1018 L624,875 L507,875"/> 
            <glyph glyph-name="È" unicode="&#xC8;" horiz-adv-x="775" d=" M90,0 L90,777 L745,777 L745,668 L268,668 L268,442 L716,442 L716,333 L268,333 L268,110 L775,110 L775,0 M213,1018 L423,1018 L559,875 L442,875"/> 
            <glyph glyph-name="É" unicode="&#xC9;" horiz-adv-x="775" d=" M90,0 L90,777 L745,777 L745,668 L268,668 L268,442 L716,442 L716,333 L268,333 L268,110 L775,110 L775,0 M459,1019 L669,1019 L440,875 L323,875"/> 
            <glyph glyph-name="Ò" unicode="&#xD2;" horiz-adv-x="1050" d=" M60,212 Q60,566 196,678.5 Q332,791 555,791 Q778,791 914,678.5 Q1050,566 1050,389 Q1050,212 914,99.5 Q778,-13 555,-13 Q332,-13 60,212 M245,512 Q245,266 323,188 Q401,110 555,110 Q709,110 787,188 Q865,266 865,389 Q865,512 787,590 Q709,668 555,668 Q401,668 245,512 M302,1018 L512,1018 L648,875 L531,875"/> 
            <glyph glyph-name="Ù" unicode="&#xD9;" horiz-adv-x="902" d=" M724,777 L902,777 L902,324 Q902,-13 496,-13 Q90,-13 90,324 L90,777 L268,777 L268,324 Q268,200 324,155 Q380,110 496,110 Q612,110 668,155 Q724,200 724,324 M258,1018 L468,1018 L604,875 L487,875"/> 
            <glyph glyph-name="à" unicode="&#xE0;" horiz-adv-x="773" d=" M625,152 L634,359 Q637,448 565,508 Q493,568 363,568 Q306,568 256.5,557.5 Q207,547 174,530.5 Q141,514 114.5,494 Q88,474 72.5,453.5 Q57,433 47,416.5 Q37,400 34,390 L30,379 L202,335 Q202,340 203,348.5 Q204,357 212.5,378 Q221,399 235.5,415 Q250,431 281,444.5 Q312,458 355,458 Q423,458 446,426.5 Q469,395 469,345 Q258,327 157,262.5 Q56,198 56,119 Q56,56 99.5,21.5 Q143,-13 220,-13 Q268,-13 314,7 Q360,27 388,49.5 Q416,72 443,106 Q470,140 477,151 Q484,162 491,175 Q491,83 523.5,35 Q556,-13 640,-13 Q679,-13 712,0 Q745,13 759,26 L773,39 L740,147 Q737,141 731,133 Q725,125 705,111 Q685,97 665,97 Q623,97 625,152 M228,153 Q228,200 286,240 Q344,280 469,292 L469,253 Q466,247 461,236.5 Q456,226 438,199 Q420,172 400.5,151.5 Q381,131 349.5,114 Q318,97 286,97 Q228,97 228,153 M116,791 L326,791 L462,648 L345,648"/> 
            <glyph glyph-name="è" unicode="&#xE8;" horiz-adv-x="727" d=" M541,356 L236,346 Q237,351 239,359 Q241,367 252,387 Q263,407 278.5,422.5 Q294,438 324.5,450.5 Q355,463 394,463 Q431,463 460,452 Q489,441 503.5,425.5 Q518,410 527.5,394 Q537,378 539,367 M226,268 L712,258 Q716,277 716,300 Q716,323 710.5,353.5 Q705,384 693,413 Q681,442 657,470.5 Q633,499 599.5,520.5 Q566,542 513.5,555 Q461,568 397,568 Q244,568 152,486 Q60,404 60,278 Q60,143 158,65 Q256,-13 397,-13 Q456,-13 506,-2 Q556,9 588.5,26 Q621,43 647.5,64 Q674,85 688,106.5 Q702,128 711.5,145 Q721,162 724,173 L727,184 L567,225 Q567,220 566,211.5 Q565,203 556.5,180.5 Q548,158 533.5,141.5 Q519,125 488,111 Q457,97 414,97 Q320,97 273.5,146.5 Q227,196 226,268 M146,791 L356,791 L492,648 L375,648"/> 
            <glyph glyph-name="é" unicode="&#xE9;" horiz-adv-x="727" d=" M541,356 L236,346 Q237,351 239,359 Q241,367 252,387 Q263,407 278.5,422.5 Q294,438 324.5,450.5 Q355,463 394,463 Q431,463 460,452 Q489,441 503.5,425.5 Q518,410 527.5,394 Q537,378 539,367 M226,268 L712,258 Q716,277 716,300 Q716,323 710.5,353.5 Q705,384 693,413 Q681,442 657,470.5 Q633,499 599.5,520.5 Q566,542 513.5,555 Q461,568 397,568 Q244,568 152,486 Q60,404 60,278 Q60,143 158,65 Q256,-13 397,-13 Q456,-13 506,-2 Q556,9 588.5,26 Q621,43 647.5,64 Q674,85 688,106.5 Q702,128 711.5,145 Q721,162 724,173 L727,184 L567,225 Q567,220 566,211.5 Q565,203 556.5,180.5 Q548,158 533.5,141.5 Q519,125 488,111 Q457,97 414,97 Q320,97 273.5,146.5 Q227,196 226,268 M452,791 L662,791 L433,647 L316,647"/> 
            <glyph glyph-name="ò" unicode="&#xF2;" horiz-adv-x="748" d=" M60,278 Q60,403 153,485.5 Q246,568 403,568 Q562,568 655,485.5 Q748,403 748,278 Q748,152 655,69.5 Q562,-13 403,-13 Q246,-13 153,69.5 Q60,152 60,278 M233,278 Q233,200 273.5,148.5 Q314,97 403,97 Q492,97 533.5,149 Q575,201 575,278 Q575,355 533.5,406.5 Q492,458 403,458 Q313,458 273,406.5 Q233,355 233,278 M124,791 L334,791 L470,648 L353,648"/> 
            <glyph glyph-name="ù" unicode="&#xF9;" horiz-adv-x="725" d=" M254,555 L254,207 Q254,97 395,97 Q432,97 462.5,109.5 Q493,122 510,140 Q527,158 539,176 Q551,194 556,206 L560,219 L560,555 L725,555 L725,0 L629,0 L582,157 Q581,150 579,138.5 Q577,127 563,98 Q549,69 527,46.5 Q505,24 458.5,5.5 Q412,-13 350,-13 Q90,-13 90,215 L90,555 M145,791 L355,791 L491,648 L374,648"/> 
            <glyph glyph-name="‘" unicode="&#x2018;" horiz-adv-x="249" d=" M50,481 L50,606 Q50,640 60,673.5 Q70,707 84.5,730 Q99,753 113.5,771 Q128,789 138,798 L148,807 L249,781 Q244,779 236.5,775 Q229,771 209.5,756.5 Q190,742 174,726 Q158,710 144,684 Q130,658 127,631 L228,631 L228,481"/> 
            <glyph glyph-name="’" unicode="&#x2019;" horiz-adv-x="238" d=" M238,807 L238,682 Q238,648 228,614.5 Q218,581 203.5,558 Q189,535 174.5,517 Q160,499 150,490 L140,481 L39,507 Q44,509 51.5,513 Q59,517 78.5,531.5 Q98,546 114,562 Q130,578 144,604 Q158,630 161,657 L60,657 L60,807"/> 
            <glyph glyph-name="	" unicode="&#x9;" horiz-adv-x="922" d=" M62,668 L62,777 L808,777 L808,660 L522,393 Q638,263 743,110 L922,110 L922,0 L816,0 Q846,-48 872.5,-93 Q899,-138 910,-160 L921,-181 L741,-230 Q704,-136 625,0 L20,0 L20,117 L331,409 Q199,558 62,668 M557,110 Q480,227 422,299 L220,110 M608,668 L227,668 Q319,599 424,496"/> 
            <glyph glyph-name="" unicode="&#xD;" horiz-adv-x="922" d=" M62,668 L62,777 L808,777 L808,660 L522,393 Q638,263 743,110 L922,110 L922,0 L816,0 Q846,-48 872.5,-93 Q899,-138 910,-160 L921,-181 L741,-230 Q704,-136 625,0 L20,0 L20,117 L331,409 Q199,558 62,668 M557,110 Q480,227 422,299 L220,110 M608,668 L227,668 Q319,599 424,496"/> 
            <glyph glyph-name="&amp;" unicode="&#x26;" horiz-adv-x="361" d=" M40,244 Q40,434 72.5,518 Q105,602 155,657 Q205,712 259,746 Q313,780 361,787 L361,746 Q333,740 300,721.5 Q267,703 231.5,668 Q196,633 167,588 Q138,543 119.5,477.5 Q101,412 101,339 Q101,266 119.5,200.5 Q138,135 167,90 Q196,45 231.5,10 Q267,-25 300,-43.5 Q333,-62 361,-68 L361,-109 Q313,-102 259,-68 Q205,-34 155,21 Q105,76 40,244"/> 
            <glyph glyph-name="(" unicode="&#x28;" horiz-adv-x="341" d=" M341,434 Q341,244 308.5,160 Q276,76 226,21 Q176,-34 122,-68 Q68,-102 20,-109 L20,-68 Q48,-62 81,-43.5 Q114,-25 149.5,10 Q185,45 214,90 Q243,135 261.5,200.5 Q280,266 280,339 Q280,412 261.5,477.5 Q243,543 214,588 Q185,633 149.5,668 Q114,703 81,721.5 Q48,740 20,746 L20,787 Q68,780 122,746 Q176,712 226,657 Q276,602 341,434"/> 
            <glyph glyph-name=")" unicode="&#x29;" horiz-adv-x="238" d=" M238,150 L238,25 Q238,-9 228,-42.5 Q218,-76 203.5,-99 Q189,-122 174.5,-140 Q160,-158 150,-167 L140,-176 L39,-150 Q44,-148 51.5,-144 Q59,-140 78.5,-125.5 Q98,-111 114,-95 Q130,-79 144,-53 Q158,-27 161,0 L60,0 L60,150"/> 
            <glyph glyph-name="," unicode="&#x2C;" horiz-adv-x="462" d=" M462,248 L40,248 L40,345 L462,345"/> 
            <glyph glyph-name="-" unicode="&#x2D;" horiz-adv-x="238" d=" M60,0 L60,150 L238,150 L238,0"/> 
            <glyph glyph-name="." unicode="&#x2E;" horiz-adv-x="816" d=" M63,389 Q63,571 160,681 Q257,791 440,791 Q623,791 719.5,681 Q816,571 816,389 Q816,208 719,97.5 Q622,-13 440,-13 Q257,-13 160,97.5 Q63,208 63,389 M248,389 Q248,265 294.5,187.5 Q341,110 440,110 Q539,110 585,187.5 Q631,265 631,389 Q631,514 585,591 Q539,668 440,668 Q372,668 328,629 Q284,590 266,530 Q248,470 248,389"/> 
            <glyph glyph-name="0" unicode="&#x30;" horiz-adv-x="810" d=" M810,0 L99,0 L99,110 L412,110 L412,598 Q411,588 407,576.5 Q403,565 383.5,542.5 Q364,520 333.5,503 Q303,486 241.5,473 Q180,460 99,460 L99,589 Q261,589 336.5,630.5 Q412,672 412,777 L590,777 L590,110 L810,110"/> 
            <glyph glyph-name="1" unicode="&#x31;" horiz-adv-x="795" d=" M780,529 Q780,471 749.5,415 Q719,359 675.5,317 Q632,275 567.5,232.5 Q503,190 453,164 Q403,138 341,110 L795,110 L795,0 L85,0 L85,100 Q96,104 114,111.5 Q132,119 185,144 Q238,169 286.5,195.5 Q335,222 393.5,261.5 Q452,301 494.5,340.5 Q537,380 566,429 Q595,478 595,525 Q595,585 553,626.5 Q511,668 429,668 Q354,668 313.5,630 Q273,592 273,532 Q273,501 286,473.5 Q299,446 317.5,429 Q336,412 355,399.5 Q374,387 387,382 L400,377 L212,326 Q207,328 199,333 Q191,338 170,356.5 Q149,375 132.5,396.5 Q116,418 103,454.5 Q90,491 90,532 Q90,579 111.5,624 Q133,669 173,707 Q213,745 280.5,768 Q348,791 432,791 Q599,791 689.5,718 Q780,645 780,529"/> 
            <glyph glyph-name="2" unicode="&#x32;" horiz-adv-x="820" d=" M452,346 L358,346 L358,452 L432,452 Q615,452 615,559 Q615,608 575.5,638 Q536,668 476,668 Q434,668 400.5,657.5 Q367,647 347.5,630 Q328,613 314,592.5 Q300,572 294.5,552 Q289,532 286.5,515 Q284,498 284,488 L285,477 L98,528 Q99,533 101,542.5 Q103,552 113,579.5 Q123,607 138,632 Q153,657 182.5,687 Q212,717 248.5,739 Q285,761 342.5,776 Q400,791 468,791 Q617,791 708.5,727.5 Q800,664 800,567 Q800,522 779.5,488 Q759,454 727.5,436.5 Q696,419 679,412.5 Q662,406 648,403 Q659,401 671,398 Q683,395 712.5,382.5 Q742,370 763.5,352.5 Q785,335 802.5,302.5 Q820,270 820,229 Q820,110 716.5,48.5 Q613,-13 456,-13 Q377,-13 312.5,3 Q248,19 207.5,44.5 Q167,70 136.5,101 Q106,132 91.5,162.5 Q77,193 68.5,218.5 Q60,244 58,260 L57,276 L243,324 Q245,323 242.5,312 Q240,301 245,281.5 Q250,262 255,239.5 Q260,217 276.5,194 Q293,171 315,152.5 Q337,134 375.5,122 Q414,110 463,110 Q540,110 588,143 Q636,176 636,230 Q636,346 452,346"/> 
            <glyph glyph-name="3" unicode="&#x33;" horiz-adv-x="847" d=" M20,185 L20,318 L473,777 L683,777 L683,298 L847,298 L847,185 L683,185 L683,0 L505,0 L505,185 M505,618 L194,298 L505,298"/> 
            <glyph glyph-name="4" unicode="&#x34;" horiz-adv-x="820" d=" M820,262 Q820,133 719.5,60 Q619,-13 451,-13 Q373,-13 309,2 Q245,17 205,40.5 Q165,64 135,92.5 Q105,121 90.5,150 Q76,179 67.5,202.5 Q59,226 58,241 L56,256 L242,304 Q242,300 241.5,293 Q241,286 243.5,266 Q246,246 252,227.5 Q258,209 273,186.5 Q288,164 309.5,148 Q331,132 367.5,121 Q404,110 451,110 Q533,110 584,153.5 Q635,197 635,261 Q635,325 584,368.5 Q533,412 451,412 Q404,412 363,398.5 Q322,385 304,372 L287,358 L114,358 L197,777 L783,777 L783,668 L348,668 L303,471 Q305,474 310,478 Q315,482 333,493 Q351,504 372,512.5 Q393,521 428.5,528 Q464,535 503,535 Q633,535 726.5,458 Q820,381 820,262"/> 
            <glyph glyph-name="5" unicode="&#x35;" horiz-adv-x="827" d=" M264,249 Q265,243 268,234 Q271,225 284,201 Q297,177 315.5,158.5 Q334,140 368.5,125 Q403,110 446,110 Q528,110 577.5,150.5 Q627,191 627,249 Q627,316 584.5,358.5 Q542,401 465,401 Q413,401 373.5,385.5 Q334,370 314,347.5 Q294,325 282,302.5 Q270,280 267,264 M473,668 Q360,668 300,585.5 Q240,503 245,370 Q248,376 253.5,386.5 Q259,397 281.5,423.5 Q304,450 333,470.5 Q362,491 414,507.5 Q466,524 527,524 Q601,524 664.5,497 Q728,470 770.5,410 Q813,350 813,268 Q813,145 708.5,66 Q604,-13 447,-13 Q263,-13 161.5,98 Q60,209 60,389 Q60,569 170,680 Q280,791 480,791 Q541,791 593.5,780.5 Q646,770 680.5,752.5 Q715,735 742.5,714.5 Q770,694 785,673.5 Q800,653 810.5,635.5 Q821,618 824,608 L827,597 L643,547 Q642,552 640.5,560 Q639,568 628,589 Q617,610 600.5,626 Q584,642 550.5,655 Q517,668 473,668"/> 
            <glyph glyph-name="6" unicode="&#x36;" horiz-adv-x="848" d=" M848,777 L848,648 Q839,646 824.5,641.5 Q810,637 766.5,616 Q723,595 683.5,567 Q644,539 595.5,486.5 Q547,434 511,370 Q475,306 449.5,209.5 Q424,113 421,0 L233,0 Q239,116 266,215.5 Q293,315 327,380.5 Q361,446 408.5,500 Q456,554 493,582.5 Q530,611 573,633 Q616,655 631,659.5 Q646,664 660,668 L32,668 L32,777"/> 
            <glyph glyph-name="7" unicode="&#x37;" horiz-adv-x="826" d=" M796,582 Q796,544 779,512 Q762,480 739.5,462 Q717,444 691,431 Q665,418 650,413.5 Q635,409 629,408 Q637,407 652.5,403.5 Q668,400 700.5,386.5 Q733,373 759,354.5 Q785,336 805.5,302 Q826,268 826,226 Q826,119 717.5,53 Q609,-13 440,-13 Q270,-13 162,46.5 Q54,106 54,206 Q54,249 74,283.5 Q94,318 118.5,336.5 Q143,355 176,368.5 Q209,382 223.5,385 Q238,388 250,390 Q236,393 216.5,400 Q197,407 163,425.5 Q129,444 106.5,479.5 Q84,515 84,562 Q84,662 185.5,726.5 Q287,791 440,791 Q594,791 695,733 Q796,675 796,582 M640,177 Q640,275 589.5,308.5 Q539,342 440,342 Q341,342 290,308.5 Q239,275 239,226 Q239,177 290,143.5 Q341,110 440,110 Q539,110 640,177 M270,609 Q270,515 315,485.5 Q360,456 440,456 Q520,456 565.5,485.5 Q611,515 611,562 Q611,609 565.5,638.5 Q520,668 440,668 Q360,668 270,609"/> 
            <glyph glyph-name="8" unicode="&#x38;" horiz-adv-x="820" d=" M616,529 Q615,535 612,544 Q609,553 596,577 Q583,601 564.5,619.5 Q546,638 511.5,653 Q477,668 434,668 Q352,668 302.5,627.5 Q253,587 253,529 Q253,462 295.5,419.5 Q338,377 415,377 Q467,377 506.5,392.5 Q546,408 566,430.5 Q586,453 598,475.5 Q610,498 613,514 M407,110 Q520,110 580,192.5 Q640,275 635,408 Q632,402 626.5,391.5 Q621,381 598.5,354.5 Q576,328 547,307.5 Q518,287 466,270.5 Q414,254 353,254 Q279,254 215.5,281 Q152,308 109.5,368 Q67,428 67,510 Q67,633 171.5,712 Q276,791 433,791 Q617,791 718.5,680 Q820,569 820,389 Q820,209 710,98 Q600,-13 400,-13 Q339,-13 286.5,-2.5 Q234,8 199.5,25.5 Q165,43 137.5,63.5 Q110,84 95,104.5 Q80,125 69.5,142.5 Q59,160 56,170 L53,181 L237,231 Q238,226 239.5,218 Q241,210 252,189 Q263,168 279.5,152 Q296,136 329.5,123 Q363,110 407,110"/> 
            <glyph glyph-name="9" unicode="&#x39;" horiz-adv-x="238" d=" M60,0 L60,150 L238,150 L238,0 M60,405 L60,555 L238,555 L238,405"/> 
            <glyph glyph-name=":" unicode="&#x3A;" horiz-adv-x="1053" d=" M861,0 L754,235 L308,235 L201,0 L10,0 L377,777 L686,777 L1053,0 M506,668 L358,345 L704,345 L557,668"/> 
            <glyph glyph-name="A" unicode="&#x41;" horiz-adv-x="862" d=" M90,777 L456,777 Q655,777 748.5,724 Q842,671 842,560 Q842,523 828,494 Q814,465 796,449 Q778,433 755,422 Q732,411 720,407.5 Q708,404 700,403 Q709,402 722.5,398.5 Q736,395 762.5,382.5 Q789,370 809.5,352.5 Q830,335 846,302 Q862,269 862,227 Q862,0 476,0 L90,0 M268,346 L268,110 L486,110 Q574,110 625.5,140 Q677,170 677,228 Q677,285 628,315.5 Q579,346 495,346 M268,452 L466,452 Q657,452 657,560 Q657,668 466,668 L268,668"/> 
            <glyph glyph-name="B" unicode="&#x42;" horiz-adv-x="1023" d=" M1001,452 L818,402 Q819,408 819,417.5 Q819,427 816,454.5 Q813,482 805.5,507 Q798,532 778.5,563 Q759,594 730,616 Q701,638 651.5,653 Q602,668 539,668 Q397,668 321,591.5 Q245,515 245,389 Q245,261 325.5,185.5 Q406,110 539,110 Q601,110 651.5,122.5 Q702,135 732.5,155 Q763,175 785.5,199.5 Q808,224 818,248.5 Q828,273 833.5,293 Q839,313 840,326 L840,338 L1023,291 Q1022,285 1019.5,274 Q1017,263 1003.5,231.5 Q990,200 970.5,171 Q951,142 913,107 Q875,72 827,47 Q779,22 703.5,4.5 Q628,-13 539,-13 Q325,-13 192.5,100 Q60,213 60,389 Q60,566 191,678.5 Q322,791 538,791 Q633,791 710,772.5 Q787,754 834,724 Q881,694 915.5,658 Q950,622 965.5,585.5 Q981,549 990,519 Q999,489 1000,470"/> 
            <glyph glyph-name="C" unicode="&#x43;" horiz-adv-x="940" d=" M90,777 L477,777 Q680,777 810,671.5 Q940,566 940,388 Q940,211 810,105.5 Q680,0 477,0 L90,0 M414,668 L268,668 L268,110 L414,110 Q583,110 669,181.5 Q755,253 755,388 Q755,523 668.5,595.5 Q582,668 414,668"/> 
            <glyph glyph-name="D" unicode="&#x44;" horiz-adv-x="775" d=" M90,0 L90,777 L745,777 L745,668 L268,668 L268,442 L716,442 L716,333 L268,333 L268,110 L775,110 L775,0"/> 
            <glyph glyph-name="E" unicode="&#x45;" horiz-adv-x="744" d=" M90,0 L90,777 L744,777 L744,668 L268,668 L268,442 L716,442 L716,333 L268,333 L268,0"/> 
            <glyph glyph-name="F" unicode="&#x46;" horiz-adv-x="991" d=" M991,512 L808,462 Q808,470 806,484 Q804,498 789,533.5 Q774,569 748,596 Q722,623 666,645.5 Q610,668 534,668 Q393,668 319,589 Q245,510 245,388 Q245,266 323,188 Q401,110 534,110 Q603,110 655.5,130 Q708,150 734,178.5 Q760,207 776.5,235.5 Q793,264 796,284 L800,304 L483,304 L483,413 L967,413 L967,0 L800,0 L800,115 Q797,110 791.5,101.5 Q786,93 762.5,70.5 Q739,48 709,31.5 Q679,15 624.5,1 Q570,-13 506,-13 Q315,-13 187.5,100.5 Q60,214 60,388 Q60,566 189.5,678.5 Q319,791 535,791 Q622,791 694,775.5 Q766,760 812,735.5 Q858,711 893,681.5 Q928,652 946,622 Q964,592 975,567.5 Q986,543 988,528"/> 
            <glyph glyph-name="G" unicode="&#x47;" horiz-adv-x="916" d=" M738,-1 L738,333 L268,333 L268,-1 L90,-1 L90,776 L268,776 L268,442 L738,442 L738,776 L916,776 L916,-1"/> 
            <glyph glyph-name="H" unicode="&#x48;" horiz-adv-x="268" d=" M90,777 L268,777 L268,0 L90,0"/> 
            <glyph glyph-name="I" unicode="&#x49;" horiz-adv-x="734" d=" M20,303 L203,350 Q195,233 231.5,171.5 Q268,110 376,110 Q477,110 516.5,156 Q556,202 556,289 L556,777 L734,777 L734,303 Q734,146 637.5,66.5 Q541,-13 376,-13 Q213,-13 116.5,66.5 Q20,146 20,303"/> 
            <glyph glyph-name="J" unicode="&#x4A;" horiz-adv-x="952" d=" M730,0 L399,347 L268,238 L268,0 L90,0 L90,777 L268,777 L268,411 L700,777 L922,777 L514,442 L952,0"/> 
            <glyph glyph-name="K" unicode="&#x4B;" horiz-adv-x="733" d=" M90,0 L90,777 L268,777 L268,110 L733,110 L733,0"/> 
            <glyph glyph-name="L" unicode="&#x4C;" horiz-adv-x="1222" d=" M656,170 L915,777 L1222,777 L1222,0 L1044,0 L1044,668 L743,0 L569,0 L268,668 L268,0 L90,0 L90,777 L397,777"/> 
            <glyph glyph-name="M" unicode="&#x4D;" horiz-adv-x="917" d=" M917,777 L917,0 L674,0 L268,607 L268,0 L90,0 L90,777 L333,777 L739,170 L739,777"/> 
            <glyph glyph-name="N" unicode="&#x4E;" horiz-adv-x="1050" d=" M60,212 Q60,566 196,678.5 Q332,791 555,791 Q778,791 914,678.5 Q1050,566 1050,389 Q1050,212 914,99.5 Q778,-13 555,-13 Q332,-13 60,212 M245,512 Q245,266 323,188 Q401,110 555,110 Q709,110 787,188 Q865,266 865,389 Q865,512 787,590 Q709,668 555,668 Q401,668 245,512"/> 
            <glyph glyph-name="O" unicode="&#x4F;" horiz-adv-x="842" d=" M90,0 L90,777 L456,777 Q654,777 748,722 Q842,667 842,555 Q842,443 748,388 Q654,333 456,333 L268,333 L268,0 M268,668 L268,442 L466,442 Q657,442 657,555 Q657,668 466,668"/> 
            <glyph glyph-name="P" unicode="&#x50;" horiz-adv-x="1050" d=" M60,212 Q60,566 196,678.5 Q332,791 555,791 Q778,791 914,678.5 Q1050,566 1050,389 Q1050,253 967.5,152.5 Q885,52 741,11 Q738,10 733.5,8 Q729,6 724,-0.5 Q719,-7 719,-15 Q719,-73 807,-73 Q842,-73 871,-67 Q900,-61 916.5,-52 Q933,-43 944.5,-34 Q956,-25 960,-19 L964,-13 L1000,-134 Q998,-137 994,-141.5 Q990,-146 974.5,-158 Q959,-170 939,-179.5 Q919,-189 884.5,-196.5 Q850,-204 809,-204 Q706,-204 659.5,-164.5 Q613,-125 612,-73 Q612,-21 638,-8 Q593,-13 555,-13 Q332,-13 60,212 M245,512 Q245,266 323,188 Q401,110 555,110 Q709,110 787,188 Q865,266 865,389 Q865,512 787,590 Q709,668 555,668 Q401,668 245,512"/> 
            <glyph glyph-name="Q" unicode="&#x51;" horiz-adv-x="875" d=" M90,0 L90,777 L456,777 Q654,777 748,722 Q842,667 842,555 Q842,404 621,379 Q725,366 756,286 Q773,243 799,176 Q858,23 870,6 Q872,3 875,0 L681,0 Q678,5 675,10 Q672,15 669,22.5 Q666,30 663.5,37 Q661,44 657,57.5 Q653,71 650,81 Q647,91 641.5,111 Q636,131 632,146 Q628,161 620.5,189 Q613,217 607,239 Q593,293 544.5,313 Q496,333 378,333 L268,333 L268,0 M268,668 L268,442 L466,442 Q657,442 657,555 Q657,668 466,668"/> 
            <glyph glyph-name="R" unicode="&#x52;" horiz-adv-x="841" d=" M379,487 L593,444 Q728,417 784.5,359 Q841,301 841,217 Q841,107 737.5,47 Q634,-13 471,-13 Q376,-13 299,4 Q222,21 173.5,48 Q125,75 92.5,111 Q60,147 46,182 Q32,217 30,253 L213,300 Q215,299 212.5,289.5 Q210,280 215,262.5 Q220,245 226,225 Q232,205 251,184.5 Q270,164 295.5,147.5 Q321,131 366,120.5 Q411,110 468,110 Q557,110 607.5,134.5 Q658,159 658,203 Q658,224 649.5,239.5 Q641,255 630.5,264.5 Q620,274 594,283 Q568,292 549.5,296.5 Q531,301 490,310 L292,352 Q180,376 119,430.5 Q58,485 58,559 Q58,657 151,724 Q244,791 417,791 Q494,791 557,778.5 Q620,766 659.5,745.5 Q699,725 729,700.5 Q759,676 774,652 Q789,628 797.5,607.5 Q806,587 808,574 L810,562 L627,512 Q627,518 626,528.5 Q625,539 614,566 Q603,593 583,613.5 Q563,634 517.5,651 Q472,668 410,668 Q332,668 287,642.5 Q242,617 242,578 Q242,514 379,487"/> 
            <glyph glyph-name="S" unicode="&#x53;" horiz-adv-x="872" d=" M10,668 L10,777 L872,777 L872,668 L530,668 L530,0 L352,0 L352,668"/> 
            <glyph glyph-name="T" unicode="&#x54;" horiz-adv-x="902" d=" M724,777 L902,777 L902,324 Q902,-13 496,-13 Q90,-13 90,324 L90,777 L268,777 L268,324 Q268,200 324,155 Q380,110 496,110 Q612,110 668,155 Q724,200 724,324"/> 
            <glyph glyph-name="U" unicode="&#x55;" horiz-adv-x="993" d=" M212,777 L502,170 L792,777 L993,777 L596,0 L407,0 L10,777"/> 
            <glyph glyph-name="V" unicode="&#x56;" horiz-adv-x="1417" d=" M1417,777 L1124,0 L912,0 L713,668 L515,0 L301,0 L10,777 L212,777 L413,169 L585,777 L842,777 L1014,170 L1215,777"/> 
            <glyph glyph-name="W" unicode="&#x57;" horiz-adv-x="972" d=" M755,0 L491,275 L227,0 L10,0 L382,388 L10,777 L227,777 L491,501 L755,777 L972,777 L599,388 L972,0"/> 
            <glyph glyph-name="X" unicode="&#x58;" horiz-adv-x="972" d=" M972,777 L580,365 L580,0 L402,0 L402,365 L10,777 L227,777 L491,485 L755,777"/> 
            <glyph glyph-name="Y" unicode="&#x59;" horiz-adv-x="798" d=" M798,110 L798,0 L20,0 L20,120 L563,668 L20,668 L20,777 L798,777 L798,658 L255,110"/> 
            <glyph glyph-name="Z" unicode="&#x5A;" horiz-adv-x="773" d=" M634,359 L625,152 Q623,97 665,97 Q685,97 704,109.5 Q723,122 732,134 L740,147 L773,39 Q768,33 758,24.5 Q748,16 713.5,1.5 Q679,-13 640,-13 Q556,-13 523.5,35 Q491,83 491,175 Q484,162 477,151 Q470,140 443,106 Q416,72 388,49.5 Q360,27 314,7 Q268,-13 220,-13 Q143,-13 99.5,21.5 Q56,56 56,119 Q56,198 157,262.5 Q258,327 469,345 Q469,368 465,385 Q461,402 450.5,420 Q440,438 415.5,448 Q391,458 355,458 Q312,458 281,445.5 Q250,433 235.5,414.5 Q221,396 212.5,378 Q204,360 203,348 L202,335 L30,379 Q31,383 33.5,390 Q36,397 47,416.5 Q58,436 72.5,454 Q87,472 114.5,493.5 Q142,515 174.5,530.5 Q207,546 256.5,557 Q306,568 363,568 Q493,568 565,508 Q637,448 634,359 M228,153 Q228,97 286,97 Q318,97 349,113 Q380,129 401,152 Q422,175 438,198 Q454,221 462,237 L469,253 L469,292 Q344,280 286,240 Q228,200 228,153"/> 
            <glyph glyph-name="a" unicode="&#x61;" horiz-adv-x="745" d=" M314,97 Q484,97 528,147 Q572,197 572,277 Q572,357 528,407.5 Q484,458 399,458 Q314,458 271.5,405.5 Q229,353 229,277 Q229,201 314,97 M255,791 L255,467 Q257,471 260.5,478 Q264,485 280,502.5 Q296,520 316,533 Q336,546 373,557 Q410,568 453,568 Q579,568 662,486 Q745,404 745,277 Q745,150 662,68.5 Q579,-13 452,-13 Q402,-13 360,1.5 Q318,16 294,36.5 Q270,57 253,77.5 Q236,98 230,112 L224,127 L186,0 L90,0 L90,777 Q126,777 167.5,780.5 Q209,784 232,788"/> 
            <glyph glyph-name="b" unicode="&#x62;" horiz-adv-x="727" d=" M567,225 L727,184 Q725,176 720.5,162.5 Q716,149 693,115 Q670,81 637.5,55.5 Q605,30 541,8.5 Q477,-13 397,-13 Q256,-13 158,65 Q60,143 60,278 Q60,404 152.5,486 Q245,568 398,568 Q466,568 520,553.5 Q574,539 605.5,515.5 Q637,492 659.5,464 Q682,436 691,408 Q700,380 704,356.5 Q708,333 708,318 L707,304 L547,263 Q548,271 549,284 Q550,297 545.5,330.5 Q541,364 528.5,390 Q516,416 483,437 Q450,458 400,458 Q318,458 275,407.5 Q232,357 232,278 Q232,195 279.5,146 Q327,97 414,97 Q456,97 487.5,110 Q519,123 533.5,142 Q548,161 556.5,180 Q565,199 566,212"/> 
            <glyph glyph-name="c" unicode="&#x63;" horiz-adv-x="715" d=" M320,97 Q490,97 533,149 Q576,201 576,277 Q576,353 533,405.5 Q490,458 405,458 Q320,458 276.5,407.5 Q233,357 233,277 Q233,197 320,97 M549,467 L549,777 Q586,777 627.5,780.5 Q669,784 692,788 L715,791 L715,0 L619,0 L580,127 Q578,121 573.5,111.5 Q569,102 551.5,78 Q534,54 510.5,35.5 Q487,17 445,2 Q403,-13 353,-13 Q225,-13 142.5,68.5 Q60,150 60,277 Q60,404 142.5,486 Q225,568 352,568 Q395,568 431.5,557.5 Q468,547 488.5,532.5 Q509,518 523.5,503 Q538,488 544,478"/> 
            <glyph glyph-name="d" unicode="&#x64;" horiz-adv-x="727" d=" M236,346 L541,356 Q540,360 538.5,367.5 Q537,375 527.5,393.5 Q518,412 503.5,426 Q489,440 460,451.5 Q431,463 394,463 Q355,463 324.5,451 Q294,439 278.5,422 Q263,405 252.5,387.5 Q242,370 239,358 M712,258 L226,268 Q227,196 273.5,146.5 Q320,97 414,97 Q457,97 488,110 Q519,123 533.5,142 Q548,161 556.5,180 Q565,199 566,212 L567,225 L727,184 Q726,180 724,173 Q722,166 712,145.5 Q702,125 688,106.5 Q674,88 647.5,65 Q621,42 588.5,25.5 Q556,9 506,-2 Q456,-13 397,-13 Q256,-13 158,65 Q60,143 60,278 Q60,404 152,486 Q244,568 397,568 Q461,568 513.5,555 Q566,542 599.5,520.5 Q633,499 657,470.5 Q681,442 693,413 Q705,384 710.5,353.5 Q716,323 716,300 Q716,277 712,258"/> 
            <glyph glyph-name="e" unicode="&#x65;" horiz-adv-x="714" d=" M0,555 L149,555 Q144,557 137.5,562.5 Q131,568 120.5,586.5 Q110,605 110,628 Q110,692 182.5,741.5 Q255,791 381,791 Q438,791 487.5,780.5 Q537,770 570,753.5 Q603,737 629.5,716.5 Q656,696 671.5,676 Q687,656 697,639.5 Q707,623 710,612 L714,602 L542,558 Q542,563 541,571.5 Q540,580 531.5,602.5 Q523,625 508.5,641.5 Q494,658 463,672 Q432,686 389,686 Q321,686 294,657.5 Q267,629 267,594 Q267,583 271,573 Q275,563 279,559 L283,555 L495,555 L495,458 L293,458 L293,0 L128,0 L128,458 L0,458"/> 
            <glyph glyph-name="f" unicode="&#x66;" horiz-adv-x="774" d=" M375,170 Q319,170 278,177 Q223,180 223,140 Q223,97 324,97 L529,97 Q595,97 641.5,82.5 Q688,68 712,42.5 Q736,17 746.5,-10.5 Q757,-38 757,-70 Q757,-148 682.5,-192.5 Q608,-237 479,-237 L258,-237 Q139,-237 84.5,-199 Q30,-161 30,-111 Q30,-88 41,-69 Q52,-50 72,-37.5 Q92,-25 109,-17 Q126,-9 150.5,-4 Q175,1 182,2 Q189,3 201,5 Q191,6 173,10 Q155,14 127.5,24 Q100,34 81,55.5 Q62,77 62,105 Q62,178 202,197 Q133,222 96,267 Q59,312 59,368 Q59,455 143.5,511.5 Q228,568 373,568 Q515,568 601,512 Q577,548 577,568 Q577,605 600,626 Q623,647 664,647 Q682,647 736,643 L774,520 Q722,528 688,528 Q648,528 641,511 Q634,494 652,466 Q687,422 687,368 Q687,282 602.5,226 Q518,170 375,170 M496,-12 L301,0 Q296,0 289,-0.5 Q282,-1 265.5,-5.5 Q249,-10 236.5,-17.5 Q224,-25 214,-42 Q204,-59 204,-82 Q204,-124 244.5,-141 Q285,-158 388,-158 Q488,-158 535.5,-142.5 Q583,-127 583,-81 Q583,-49 563,-32 Q543,-15 496,-12 M226,368 Q226,267 373,267 Q518,267 518,368 Q518,471 373,471 Q226,471 226,368"/> 
            <glyph glyph-name="g" unicode="&#x67;" horiz-adv-x="725" d=" M255,791 L255,419 Q256,428 260,440 Q264,452 278.5,476.5 Q293,501 315,520 Q337,539 378,553.5 Q419,568 472,568 Q598,568 661.5,508 Q725,448 725,340 L725,0 L561,0 L561,348 Q561,402 524.5,430 Q488,458 427,458 Q387,458 354.5,445.5 Q322,433 304.5,415 Q287,397 275,379 Q263,361 259,348 L255,336 L255,0 L90,0 L90,777 Q130,777 171.5,780.5 Q213,784 234,788"/> 
            <glyph glyph-name="h" unicode="&#x68;" horiz-adv-x="255" d=" M90,0 L90,555 L255,555 L255,0 M90,650 L90,777 L255,777 L255,650"/> 
            <glyph glyph-name="i" unicode="&#x69;" horiz-adv-x="255" d=" M90,5 L90,555 L255,555 L255,13 Q255,-106 193.5,-171.5 Q132,-237 37,-237 Q3,-237 -27,-228.5 Q-57,-220 -76,-208 Q-95,-196 -109.5,-183.5 Q-124,-171 -130,-162 L-136,-154 L-104,-47 Q-103,-50 -100.5,-55.5 Q-98,-61 -89.5,-75 Q-81,-89 -70,-99.5 Q-59,-110 -40.5,-118.5 Q-22,-127 0,-127 Q46,-127 68,-97 Q90,-67 90,5 M90,635 L90,762 L255,762 L255,635"/> 
            <glyph glyph-name="j" unicode="&#x6A;" horiz-adv-x="738" d=" M90,0 L90,777 Q130,777 171.5,780.5 Q213,784 234,788 L255,792 L255,311 L498,555 L698,555 L424,298 L738,0 L537,0 L330,210 L255,138 L255,0"/> 
            <glyph glyph-name="k" unicode="&#x6B;" horiz-adv-x="255" d=" M90,0 L90,777 Q126,777 167.5,780.5 Q209,784 232,788 L255,791 L255,0"/> 
            <glyph glyph-name="l" unicode="&#x6C;" horiz-adv-x="1113" d=" M1113,340 L1113,0 L948,0 L948,343 Q948,367 944.5,384 Q941,401 930.5,419.5 Q920,438 896.5,448 Q873,458 838,458 Q804,458 776,445.5 Q748,433 731.5,415 Q715,397 703.5,379 Q692,361 688,348 L684,336 L684,0 L519,0 L519,343 Q519,367 515.5,384 Q512,401 501.5,419.5 Q491,438 467.5,448 Q444,458 409,458 Q375,458 347,445.5 Q319,433 302.5,415 Q286,397 274.5,379 Q263,361 259,348 L255,336 L255,0 L90,0 L90,555 L186,555 L233,398 Q234,405 236,416.5 Q238,428 252,457 Q266,486 288,508.5 Q310,531 356.5,549.5 Q403,568 463,568 Q503,568 535.5,559 Q568,550 588,536 Q608,522 623,503 Q638,484 645,468 Q652,452 656.5,435 Q661,418 661.5,410.5 Q662,403 662,399 Q663,410 666.5,423 Q670,436 685,464.5 Q700,493 722.5,513.5 Q745,534 789.5,551 Q834,568 892,568 Q999,568 1056,510.5 Q1113,453 1113,340"/> 
            <glyph glyph-name="m" unicode="&#x6D;" horiz-adv-x="725" d=" M560,0 L560,348 Q560,458 420,458 Q383,458 352.5,445.5 Q322,433 305,415 Q288,397 276,379 Q264,361 260,348 L255,336 L255,0 L90,0 L90,555 L186,555 L233,398 Q234,405 236,416.5 Q238,428 252,457 Q266,486 288,508.5 Q310,531 356.5,549.5 Q403,568 465,568 Q725,568 725,340 L725,0"/> 
            <glyph glyph-name="n" unicode="&#x6E;" horiz-adv-x="748" d=" M60,278 Q60,403 153,485.5 Q246,568 403,568 Q562,568 655,485.5 Q748,403 748,278 Q748,152 655,69.5 Q562,-13 403,-13 Q246,-13 153,69.5 Q60,152 60,278 M233,278 Q233,200 273.5,148.5 Q314,97 403,97 Q492,97 533.5,149 Q575,201 575,278 Q575,355 533.5,406.5 Q492,458 403,458 Q313,458 273,406.5 Q233,355 233,278"/> 
            <glyph glyph-name="o" unicode="&#x6F;" horiz-adv-x="745" d=" M484,458 Q314,458 271.5,406 Q229,354 229,278 Q229,202 271.5,149.5 Q314,97 399,97 Q484,97 528,147.5 Q572,198 572,278 Q572,358 484,458 M255,89 L255,-223 L90,-223 L90,555 L186,555 L224,428 Q226,434 230.5,443.5 Q235,453 253,477 Q271,501 294.5,519.5 Q318,538 360,553 Q402,568 452,568 Q579,568 662,486.5 Q745,405 745,278 Q745,151 662,69 Q579,-13 453,-13 Q410,-13 373.5,-2.5 Q337,8 316,23 Q295,38 280.5,53 Q266,68 260,78"/> 
            <glyph glyph-name="p" unicode="&#x70;" horiz-adv-x="715" d=" M490,458 Q320,458 276.5,408 Q233,358 233,278 Q233,198 276.5,147.5 Q320,97 405,97 Q490,97 533,149.5 Q576,202 576,278 Q576,354 490,458 M549,-223 L549,88 Q547,84 543.5,77 Q540,70 524.5,52.5 Q509,35 488.5,22 Q468,9 431.5,-2 Q395,-13 352,-13 Q225,-13 142.5,69 Q60,151 60,278 Q60,405 142.5,486.5 Q225,568 353,568 Q403,568 445,553.5 Q487,539 511,518.5 Q535,498 551.5,477.5 Q568,457 574,442 L580,428 L619,555 L715,555 L715,-223"/> 
            <glyph glyph-name="q" unicode="&#x71;" horiz-adv-x="541" d=" M255,337 L255,0 L90,0 L90,555 L186,555 L233,398 Q233,405 234,416.5 Q235,428 243,457 Q251,486 266,508.5 Q281,531 314,549.5 Q347,568 392,568 Q541,568 541,423 Q541,392 537.5,365.5 Q534,339 531,328 L528,317 L368,276 Q385,332 385,408 Q385,458 341,458 Q310,458 288.5,428 Q267,398 261,368"/> 
            <glyph glyph-name="r" unicode="&#x72;" horiz-adv-x="660" d=" M40,181 L200,222 Q200,217 201,208.5 Q202,200 211,178.5 Q220,157 236.5,140.5 Q253,124 289,110.5 Q325,97 374,97 Q427,97 462,112 Q497,127 497,155 Q497,180 471,194.5 Q445,209 385,220 L255,244 Q68,278 68,395 Q68,475 142.5,521.5 Q217,568 330,568 Q387,568 434,559 Q481,550 511,536 Q541,522 564,504.5 Q587,487 599,469.5 Q611,452 618.5,438 Q626,424 628,415 L630,406 L470,365 Q470,369 468.5,375.5 Q467,382 458.5,399 Q450,416 436,429 Q422,442 392.5,452.5 Q363,463 323,463 Q274,463 247.5,445.5 Q221,428 221,405 Q221,382 245.5,372 Q270,362 327,352 L467,329 Q660,297 660,160 Q660,78 578.5,32.5 Q497,-13 372,-13 Q307,-13 253.5,-2.5 Q200,8 166.5,25.5 Q133,43 107.5,63.5 Q82,84 70,104.5 Q58,125 50.5,142.5 Q43,160 42,170"/> 
            <glyph glyph-name="s" unicode="&#x73;" horiz-adv-x="553" d=" M0,458 L0,555 L132,555 L132,664 L291,764 L291,555 L546,555 L546,458 L291,458 L291,206 Q291,97 389,97 Q428,97 461,117 Q494,137 508,157 L521,177 L553,69 Q550,66 545,60.5 Q540,55 520.5,40.5 Q501,26 479,15.5 Q457,5 420.5,-4 Q384,-13 344,-13 Q241,-13 184.5,38 Q128,89 128,194 L128,458"/> 
            <glyph glyph-name="t" unicode="&#x74;" horiz-adv-x="725" d=" M254,555 L254,207 Q254,97 395,97 Q432,97 462.5,109.5 Q493,122 510,140 Q527,158 539,176 Q551,194 556,206 L560,219 L560,555 L725,555 L725,0 L629,0 L582,157 Q581,150 579,138.5 Q577,127 563,98 Q549,69 527,46.5 Q505,24 458.5,5.5 Q412,-13 350,-13 Q90,-13 90,215 L90,555"/> 
            <glyph glyph-name="u" unicode="&#x75;" horiz-adv-x="738" d=" M738,555 L454,0 L294,0 L10,555 L191,555 L374,146 L557,555"/> 
            <glyph glyph-name="v" unicode="&#x76;" horiz-adv-x="1087" d=" M246,0 L10,555 L191,555 L333,146 L469,555 L628,555 L764,146 L906,555 L1087,555 L851,0 L688,0 L548,401 L409,0"/> 
            <glyph glyph-name="w" unicode="&#x77;" horiz-adv-x="748" d=" M201,555 L379,374 L557,555 L748,555 L474,277 L748,0 L557,0 L379,180 L201,0 L10,0 L283,277 L10,555"/> 
            <glyph glyph-name="x" unicode="&#x78;" horiz-adv-x="728" d=" M287,15 L10,555 L191,555 L364,156 L547,555 L728,555 L403,-62 Q353,-157 300.5,-197 Q248,-237 170,-237 Q140,-237 113,-228.5 Q86,-220 69,-208 Q52,-196 39,-183.5 Q26,-171 20,-162 L14,-154 L46,-47 Q47,-50 49.5,-55.5 Q52,-61 60.5,-75 Q69,-89 80.5,-99.5 Q92,-110 111.5,-118.5 Q131,-127 154,-127 Q195,-127 225,-90 Q255,-53 287,15"/> 
            <glyph glyph-name="y" unicode="&#x79;" horiz-adv-x="645" d=" M60,0 L60,107 L443,458 L60,458 L60,555 L645,555 L645,448 L268,97 L645,97 L645,0"/> 
            <glyph glyph-name="z" unicode="&#x7A;" horiz-adv-x="1053" d=" M861,0 L754,235 L308,235 L201,0 L10,0 L377,777 L686,777 L1053,0 M506,668 L358,345 L704,345 L557,668 M278,1018 L488,1018 L624,875 L507,875"/> 
            <glyph glyph-name="" unicode="&#x83;" horiz-adv-x="1050" d=" M60,212 Q60,566 196,678.5 Q332,791 555,791 Q778,791 914,678.5 Q1050,566 1050,389 Q1050,212 914,99.5 Q778,-13 555,-13 Q332,-13 60,212 M245,512 Q245,266 323,188 Q401,110 555,110 Q709,110 787,188 Q865,266 865,389 Q865,512 787,590 Q709,668 555,668 Q401,668 245,512 M302,1018 L512,1018 L648,875 L531,875"/> 
            <glyph glyph-name="" unicode="&#x88;" horiz-adv-x="727" d=" M541,356 L236,346 Q237,351 239,359 Q241,367 252,387 Q263,407 278.5,422.5 Q294,438 324.5,450.5 Q355,463 394,463 Q431,463 460,452 Q489,441 503.5,425.5 Q518,410 527.5,394 Q537,378 539,367 M226,268 L712,258 Q716,277 716,300 Q716,323 710.5,353.5 Q705,384 693,413 Q681,442 657,470.5 Q633,499 599.5,520.5 Q566,542 513.5,555 Q461,568 397,568 Q244,568 152,486 Q60,404 60,278 Q60,143 158,65 Q256,-13 397,-13 Q456,-13 506,-2 Q556,9 588.5,26 Q621,43 647.5,64 Q674,85 688,106.5 Q702,128 711.5,145 Q721,162 724,173 L727,184 L567,225 Q567,220 566,211.5 Q565,203 556.5,180.5 Q548,158 533.5,141.5 Q519,125 488,111 Q457,97 414,97 Q320,97 273.5,146.5 Q227,196 226,268 M146,791 L356,791 L492,648 L375,648"/> 
            <glyph glyph-name="" unicode="&#x8E;" horiz-adv-x="748" d=" M60,278 Q60,403 153,485.5 Q246,568 403,568 Q562,568 655,485.5 Q748,403 748,278 Q748,152 655,69.5 Q562,-13 403,-13 Q246,-13 153,69.5 Q60,152 60,278 M233,278 Q233,200 273.5,148.5 Q314,97 403,97 Q492,97 533.5,149 Q575,201 575,278 Q575,355 533.5,406.5 Q492,458 403,458 Q313,458 273,406.5 Q233,355 233,278 M124,791 L334,791 L470,648 L353,648"/> 
            <glyph glyph-name="" unicode="&#x8F;" horiz-adv-x="727" d=" M541,356 L236,346 Q237,351 239,359 Q241,367 252,387 Q263,407 278.5,422.5 Q294,438 324.5,450.5 Q355,463 394,463 Q431,463 460,452 Q489,441 503.5,425.5 Q518,410 527.5,394 Q537,378 539,367 M226,268 L712,258 Q716,277 716,300 Q716,323 710.5,353.5 Q705,384 693,413 Q681,442 657,470.5 Q633,499 599.5,520.5 Q566,542 513.5,555 Q461,568 397,568 Q244,568 152,486 Q60,404 60,278 Q60,143 158,65 Q256,-13 397,-13 Q456,-13 506,-2 Q556,9 588.5,26 Q621,43 647.5,64 Q674,85 688,106.5 Q702,128 711.5,145 Q721,162 724,173 L727,184 L567,225 Q567,220 566,211.5 Q565,203 556.5,180.5 Q548,158 533.5,141.5 Q519,125 488,111 Q457,97 414,97 Q320,97 273.5,146.5 Q227,196 226,268 M452,791 L662,791 L433,647 L316,647"/> 
            <glyph glyph-name="" unicode="&#x98;" horiz-adv-x="725" d=" M254,555 L254,207 Q254,97 395,97 Q432,97 462.5,109.5 Q493,122 510,140 Q527,158 539,176 Q551,194 556,206 L560,219 L560,555 L725,555 L725,0 L629,0 L582,157 Q581,150 579,138.5 Q577,127 563,98 Q549,69 527,46.5 Q505,24 458.5,5.5 Q412,-13 350,-13 Q90,-13 90,215 L90,555 M145,791 L355,791 L491,648 L374,648"/> 
            <glyph glyph-name="" unicode="&#x9D;" horiz-adv-x="249" d=" M50,481 L50,606 Q50,640 60,673.5 Q70,707 84.5,730 Q99,753 113.5,771 Q128,789 138,798 L148,807 L249,781 Q244,779 236.5,775 Q229,771 209.5,756.5 Q190,742 174,726 Q158,710 144,684 Q130,658 127,631 L228,631 L228,481"/> 
            <glyph glyph-name="Ë" unicode="&#xCB;" horiz-adv-x="775" d=" M90,0 L90,777 L745,777 L745,668 L268,668 L268,442 L716,442 L716,333 L268,333 L268,110 L775,110 L775,0 M213,1018 L423,1018 L559,875 L442,875"/> 
            <glyph glyph-name="Ô" unicode="&#xD4;" horiz-adv-x="238" d=" M238,807 L238,682 Q238,648 228,614.5 Q218,581 203.5,558 Q189,535 174.5,517 Q160,499 150,490 L140,481 L39,507 Q44,509 51.5,513 Q59,517 78.5,531.5 Q98,546 114,562 Q130,578 144,604 Q158,630 161,657 L60,657 L60,807"/> 
            <glyph glyph-name="é" unicode="&#xE9;" horiz-adv-x="775" d=" M90,0 L90,777 L745,777 L745,668 L268,668 L268,442 L716,442 L716,333 L268,333 L268,110 L775,110 L775,0 M459,1019 L669,1019 L440,875 L323,875"/> 
            <glyph glyph-name="ñ" unicode="&#xF1;" horiz-adv-x="902" d=" M724,777 L902,777 L902,324 Q902,-13 496,-13 Q90,-13 90,324 L90,777 L268,777 L268,324 Q268,200 324,155 Q380,110 496,110 Q612,110 668,155 Q724,200 724,324 M258,1018 L468,1018 L604,875 L487,875"/> 
            <glyph glyph-name="ô" unicode="&#xF4;" horiz-adv-x="773" d=" M625,152 L634,359 Q637,448 565,508 Q493,568 363,568 Q306,568 256.5,557.5 Q207,547 174,530.5 Q141,514 114.5,494 Q88,474 72.5,453.5 Q57,433 47,416.5 Q37,400 34,390 L30,379 L202,335 Q202,340 203,348.5 Q204,357 212.5,378 Q221,399 235.5,415 Q250,431 281,444.5 Q312,458 355,458 Q423,458 446,426.5 Q469,395 469,345 Q258,327 157,262.5 Q56,198 56,119 Q56,56 99.5,21.5 Q143,-13 220,-13 Q268,-13 314,7 Q360,27 388,49.5 Q416,72 443,106 Q470,140 477,151 Q484,162 491,175 Q491,83 523.5,35 Q556,-13 640,-13 Q679,-13 712,0 Q745,13 759,26 L773,39 L740,147 Q737,141 731,133 Q725,125 705,111 Q685,97 665,97 Q623,97 625,152 M228,153 Q228,200 286,240 Q344,280 469,292 L469,253 Q466,247 461,236.5 Q456,226 438,199 Q420,172 400.5,151.5 Q381,131 349.5,114 Q318,97 286,97 Q228,97 228,153 M116,791 L326,791 L462,648 L345,648"/> 
            <glyph glyph-name="&amp;" unicode="&#x26;" horiz-adv-x="341" d=" M341,434 Q341,244 308.5,160 Q276,76 226,21 Q176,-34 122,-68 Q68,-102 20,-109 L20,-68 Q48,-62 81,-43.5 Q114,-25 149.5,10 Q185,45 214,90 Q243,135 261.5,200.5 Q280,266 280,339 Q280,412 261.5,477.5 Q243,543 214,588 Q185,633 149.5,668 Q114,703 81,721.5 Q48,740 20,746 L20,787 Q68,780 122,746 Q176,712 226,657 Q276,602 341,434"/> 
            <glyph glyph-name="(" unicode="&#x28;" horiz-adv-x="238" d=" M238,150 L238,25 Q238,-9 228,-42.5 Q218,-76 203.5,-99 Q189,-122 174.5,-140 Q160,-158 150,-167 L140,-176 L39,-150 Q44,-148 51.5,-144 Q59,-140 78.5,-125.5 Q98,-111 114,-95 Q130,-79 144,-53 Q158,-27 161,0 L60,0 L60,150"/> 
            <glyph glyph-name=")" unicode="&#x29;" horiz-adv-x="462" d=" M462,248 L40,248 L40,345 L462,345"/> 
            <glyph glyph-name="," unicode="&#x2C;" horiz-adv-x="238" d=" M60,0 L60,150 L238,150 L238,0"/> 
            <glyph glyph-name="-" unicode="&#x2D;" horiz-adv-x="816" d=" M63,389 Q63,571 160,681 Q257,791 440,791 Q623,791 719.5,681 Q816,571 816,389 Q816,208 719,97.5 Q622,-13 440,-13 Q257,-13 160,97.5 Q63,208 63,389 M248,389 Q248,265 294.5,187.5 Q341,110 440,110 Q539,110 585,187.5 Q631,265 631,389 Q631,514 585,591 Q539,668 440,668 Q372,668 328,629 Q284,590 266,530 Q248,470 248,389"/> 
            <glyph glyph-name="." unicode="&#x2E;" horiz-adv-x="810" d=" M810,0 L99,0 L99,110 L412,110 L412,598 Q411,588 407,576.5 Q403,565 383.5,542.5 Q364,520 333.5,503 Q303,486 241.5,473 Q180,460 99,460 L99,589 Q261,589 336.5,630.5 Q412,672 412,777 L590,777 L590,110 L810,110"/> 
            <glyph glyph-name="0" unicode="&#x30;" horiz-adv-x="795" d=" M780,529 Q780,471 749.5,415 Q719,359 675.5,317 Q632,275 567.5,232.5 Q503,190 453,164 Q403,138 341,110 L795,110 L795,0 L85,0 L85,100 Q96,104 114,111.5 Q132,119 185,144 Q238,169 286.5,195.5 Q335,222 393.5,261.5 Q452,301 494.5,340.5 Q537,380 566,429 Q595,478 595,525 Q595,585 553,626.5 Q511,668 429,668 Q354,668 313.5,630 Q273,592 273,532 Q273,501 286,473.5 Q299,446 317.5,429 Q336,412 355,399.5 Q374,387 387,382 L400,377 L212,326 Q207,328 199,333 Q191,338 170,356.5 Q149,375 132.5,396.5 Q116,418 103,454.5 Q90,491 90,532 Q90,579 111.5,624 Q133,669 173,707 Q213,745 280.5,768 Q348,791 432,791 Q599,791 689.5,718 Q780,645 780,529"/> 
            <glyph glyph-name="1" unicode="&#x31;" horiz-adv-x="820" d=" M452,346 L358,346 L358,452 L432,452 Q615,452 615,559 Q615,608 575.5,638 Q536,668 476,668 Q434,668 400.5,657.5 Q367,647 347.5,630 Q328,613 314,592.5 Q300,572 294.5,552 Q289,532 286.5,515 Q284,498 284,488 L285,477 L98,528 Q99,533 101,542.5 Q103,552 113,579.5 Q123,607 138,632 Q153,657 182.5,687 Q212,717 248.5,739 Q285,761 342.5,776 Q400,791 468,791 Q617,791 708.5,727.5 Q800,664 800,567 Q800,522 779.5,488 Q759,454 727.5,436.5 Q696,419 679,412.5 Q662,406 648,403 Q659,401 671,398 Q683,395 712.5,382.5 Q742,370 763.5,352.5 Q785,335 802.5,302.5 Q820,270 820,229 Q820,110 716.5,48.5 Q613,-13 456,-13 Q377,-13 312.5,3 Q248,19 207.5,44.5 Q167,70 136.5,101 Q106,132 91.5,162.5 Q77,193 68.5,218.5 Q60,244 58,260 L57,276 L243,324 Q245,323 242.5,312 Q240,301 245,281.5 Q250,262 255,239.5 Q260,217 276.5,194 Q293,171 315,152.5 Q337,134 375.5,122 Q414,110 463,110 Q540,110 588,143 Q636,176 636,230 Q636,346 452,346"/> 
            <glyph glyph-name="2" unicode="&#x32;" horiz-adv-x="847" d=" M20,185 L20,318 L473,777 L683,777 L683,298 L847,298 L847,185 L683,185 L683,0 L505,0 L505,185 M505,618 L194,298 L505,298"/> 
            <glyph glyph-name="3" unicode="&#x33;" horiz-adv-x="820" d=" M820,262 Q820,133 719.5,60 Q619,-13 451,-13 Q373,-13 309,2 Q245,17 205,40.5 Q165,64 135,92.5 Q105,121 90.5,150 Q76,179 67.5,202.5 Q59,226 58,241 L56,256 L242,304 Q242,300 241.5,293 Q241,286 243.5,266 Q246,246 252,227.5 Q258,209 273,186.5 Q288,164 309.5,148 Q331,132 367.5,121 Q404,110 451,110 Q533,110 584,153.5 Q635,197 635,261 Q635,325 584,368.5 Q533,412 451,412 Q404,412 363,398.5 Q322,385 304,372 L287,358 L114,358 L197,777 L783,777 L783,668 L348,668 L303,471 Q305,474 310,478 Q315,482 333,493 Q351,504 372,512.5 Q393,521 428.5,528 Q464,535 503,535 Q633,535 726.5,458 Q820,381 820,262"/> 
            <glyph glyph-name="4" unicode="&#x34;" horiz-adv-x="827" d=" M264,249 Q265,243 268,234 Q271,225 284,201 Q297,177 315.5,158.5 Q334,140 368.5,125 Q403,110 446,110 Q528,110 577.5,150.5 Q627,191 627,249 Q627,316 584.5,358.5 Q542,401 465,401 Q413,401 373.5,385.5 Q334,370 314,347.5 Q294,325 282,302.5 Q270,280 267,264 M473,668 Q360,668 300,585.5 Q240,503 245,370 Q248,376 253.5,386.5 Q259,397 281.5,423.5 Q304,450 333,470.5 Q362,491 414,507.5 Q466,524 527,524 Q601,524 664.5,497 Q728,470 770.5,410 Q813,350 813,268 Q813,145 708.5,66 Q604,-13 447,-13 Q263,-13 161.5,98 Q60,209 60,389 Q60,569 170,680 Q280,791 480,791 Q541,791 593.5,780.5 Q646,770 680.5,752.5 Q715,735 742.5,714.5 Q770,694 785,673.5 Q800,653 810.5,635.5 Q821,618 824,608 L827,597 L643,547 Q642,552 640.5,560 Q639,568 628,589 Q617,610 600.5,626 Q584,642 550.5,655 Q517,668 473,668"/> 
            <glyph glyph-name="5" unicode="&#x35;" horiz-adv-x="848" d=" M848,777 L848,648 Q839,646 824.5,641.5 Q810,637 766.5,616 Q723,595 683.5,567 Q644,539 595.5,486.5 Q547,434 511,370 Q475,306 449.5,209.5 Q424,113 421,0 L233,0 Q239,116 266,215.5 Q293,315 327,380.5 Q361,446 408.5,500 Q456,554 493,582.5 Q530,611 573,633 Q616,655 631,659.5 Q646,664 660,668 L32,668 L32,777"/> 
            <glyph glyph-name="6" unicode="&#x36;" horiz-adv-x="826" d=" M796,582 Q796,544 779,512 Q762,480 739.5,462 Q717,444 691,431 Q665,418 650,413.5 Q635,409 629,408 Q637,407 652.5,403.5 Q668,400 700.5,386.5 Q733,373 759,354.5 Q785,336 805.5,302 Q826,268 826,226 Q826,119 717.5,53 Q609,-13 440,-13 Q270,-13 162,46.5 Q54,106 54,206 Q54,249 74,283.5 Q94,318 118.5,336.5 Q143,355 176,368.5 Q209,382 223.5,385 Q238,388 250,390 Q236,393 216.5,400 Q197,407 163,425.5 Q129,444 106.5,479.5 Q84,515 84,562 Q84,662 185.5,726.5 Q287,791 440,791 Q594,791 695,733 Q796,675 796,582 M640,177 Q640,275 589.5,308.5 Q539,342 440,342 Q341,342 290,308.5 Q239,275 239,226 Q239,177 290,143.5 Q341,110 440,110 Q539,110 640,177 M270,609 Q270,515 315,485.5 Q360,456 440,456 Q520,456 565.5,485.5 Q611,515 611,562 Q611,609 565.5,638.5 Q520,668 440,668 Q360,668 270,609"/> 
            <glyph glyph-name="7" unicode="&#x37;" horiz-adv-x="820" d=" M616,529 Q615,535 612,544 Q609,553 596,577 Q583,601 564.5,619.5 Q546,638 511.5,653 Q477,668 434,668 Q352,668 302.5,627.5 Q253,587 253,529 Q253,462 295.5,419.5 Q338,377 415,377 Q467,377 506.5,392.5 Q546,408 566,430.5 Q586,453 598,475.5 Q610,498 613,514 M407,110 Q520,110 580,192.5 Q640,275 635,408 Q632,402 626.5,391.5 Q621,381 598.5,354.5 Q576,328 547,307.5 Q518,287 466,270.5 Q414,254 353,254 Q279,254 215.5,281 Q152,308 109.5,368 Q67,428 67,510 Q67,633 171.5,712 Q276,791 433,791 Q617,791 718.5,680 Q820,569 820,389 Q820,209 710,98 Q600,-13 400,-13 Q339,-13 286.5,-2.5 Q234,8 199.5,25.5 Q165,43 137.5,63.5 Q110,84 95,104.5 Q80,125 69.5,142.5 Q59,160 56,170 L53,181 L237,231 Q238,226 239.5,218 Q241,210 252,189 Q263,168 279.5,152 Q296,136 329.5,123 Q363,110 407,110"/> 
            <glyph glyph-name="8" unicode="&#x38;" horiz-adv-x="238" d=" M60,0 L60,150 L238,150 L238,0 M60,405 L60,555 L238,555 L238,405"/> 
            <glyph glyph-name="9" unicode="&#x39;" horiz-adv-x="1053" d=" M861,0 L754,235 L308,235 L201,0 L10,0 L377,777 L686,777 L1053,0 M506,668 L358,345 L704,345 L557,668"/> 
            <glyph glyph-name=":" unicode="&#x3A;" horiz-adv-x="862" d=" M90,777 L456,777 Q655,777 748.5,724 Q842,671 842,560 Q842,523 828,494 Q814,465 796,449 Q778,433 755,422 Q732,411 720,407.5 Q708,404 700,403 Q709,402 722.5,398.5 Q736,395 762.5,382.5 Q789,370 809.5,352.5 Q830,335 846,302 Q862,269 862,227 Q862,0 476,0 L90,0 M268,346 L268,110 L486,110 Q574,110 625.5,140 Q677,170 677,228 Q677,285 628,315.5 Q579,346 495,346 M268,452 L466,452 Q657,452 657,560 Q657,668 466,668 L268,668"/> 
            <glyph glyph-name="A" unicode="&#x41;" horiz-adv-x="1023" d=" M1001,452 L818,402 Q819,408 819,417.5 Q819,427 816,454.5 Q813,482 805.5,507 Q798,532 778.5,563 Q759,594 730,616 Q701,638 651.5,653 Q602,668 539,668 Q397,668 321,591.5 Q245,515 245,389 Q245,261 325.5,185.5 Q406,110 539,110 Q601,110 651.5,122.5 Q702,135 732.5,155 Q763,175 785.5,199.5 Q808,224 818,248.5 Q828,273 833.5,293 Q839,313 840,326 L840,338 L1023,291 Q1022,285 1019.5,274 Q1017,263 1003.5,231.5 Q990,200 970.5,171 Q951,142 913,107 Q875,72 827,47 Q779,22 703.5,4.5 Q628,-13 539,-13 Q325,-13 192.5,100 Q60,213 60,389 Q60,566 191,678.5 Q322,791 538,791 Q633,791 710,772.5 Q787,754 834,724 Q881,694 915.5,658 Q950,622 965.5,585.5 Q981,549 990,519 Q999,489 1000,470"/> 
            <glyph glyph-name="B" unicode="&#x42;" horiz-adv-x="940" d=" M90,777 L477,777 Q680,777 810,671.5 Q940,566 940,388 Q940,211 810,105.5 Q680,0 477,0 L90,0 M414,668 L268,668 L268,110 L414,110 Q583,110 669,181.5 Q755,253 755,388 Q755,523 668.5,595.5 Q582,668 414,668"/> 
            <glyph glyph-name="C" unicode="&#x43;" horiz-adv-x="775" d=" M90,0 L90,777 L745,777 L745,668 L268,668 L268,442 L716,442 L716,333 L268,333 L268,110 L775,110 L775,0"/> 
            <glyph glyph-name="D" unicode="&#x44;" horiz-adv-x="744" d=" M90,0 L90,777 L744,777 L744,668 L268,668 L268,442 L716,442 L716,333 L268,333 L268,0"/> 
            <glyph glyph-name="E" unicode="&#x45;" horiz-adv-x="991" d=" M991,512 L808,462 Q808,470 806,484 Q804,498 789,533.5 Q774,569 748,596 Q722,623 666,645.5 Q610,668 534,668 Q393,668 319,589 Q245,510 245,388 Q245,266 323,188 Q401,110 534,110 Q603,110 655.5,130 Q708,150 734,178.5 Q760,207 776.5,235.5 Q793,264 796,284 L800,304 L483,304 L483,413 L967,413 L967,0 L800,0 L800,115 Q797,110 791.5,101.5 Q786,93 762.5,70.5 Q739,48 709,31.5 Q679,15 624.5,1 Q570,-13 506,-13 Q315,-13 187.5,100.5 Q60,214 60,388 Q60,566 189.5,678.5 Q319,791 535,791 Q622,791 694,775.5 Q766,760 812,735.5 Q858,711 893,681.5 Q928,652 946,622 Q964,592 975,567.5 Q986,543 988,528"/> 
            <glyph glyph-name="F" unicode="&#x46;" horiz-adv-x="916" d=" M738,-1 L738,333 L268,333 L268,-1 L90,-1 L90,776 L268,776 L268,442 L738,442 L738,776 L916,776 L916,-1"/> 
            <glyph glyph-name="G" unicode="&#x47;" horiz-adv-x="268" d=" M90,777 L268,777 L268,0 L90,0"/> 
            <glyph glyph-name="H" unicode="&#x48;" horiz-adv-x="734" d=" M20,303 L203,350 Q195,233 231.5,171.5 Q268,110 376,110 Q477,110 516.5,156 Q556,202 556,289 L556,777 L734,777 L734,303 Q734,146 637.5,66.5 Q541,-13 376,-13 Q213,-13 116.5,66.5 Q20,146 20,303"/> 
            <glyph glyph-name="I" unicode="&#x49;" horiz-adv-x="952" d=" M730,0 L399,347 L268,238 L268,0 L90,0 L90,777 L268,777 L268,411 L700,777 L922,777 L514,442 L952,0"/> 
            <glyph glyph-name="J" unicode="&#x4A;" horiz-adv-x="733" d=" M90,0 L90,777 L268,777 L268,110 L733,110 L733,0"/> 
            <glyph glyph-name="K" unicode="&#x4B;" horiz-adv-x="1222" d=" M656,170 L915,777 L1222,777 L1222,0 L1044,0 L1044,668 L743,0 L569,0 L268,668 L268,0 L90,0 L90,777 L397,777"/> 
            <glyph glyph-name="L" unicode="&#x4C;" horiz-adv-x="917" d=" M917,777 L917,0 L674,0 L268,607 L268,0 L90,0 L90,777 L333,777 L739,170 L739,777"/> 
            <glyph glyph-name="M" unicode="&#x4D;" horiz-adv-x="1050" d=" M60,212 Q60,566 196,678.5 Q332,791 555,791 Q778,791 914,678.5 Q1050,566 1050,389 Q1050,212 914,99.5 Q778,-13 555,-13 Q332,-13 60,212 M245,512 Q245,266 323,188 Q401,110 555,110 Q709,110 787,188 Q865,266 865,389 Q865,512 787,590 Q709,668 555,668 Q401,668 245,512"/> 
            <glyph glyph-name="N" unicode="&#x4E;" horiz-adv-x="842" d=" M90,0 L90,777 L456,777 Q654,777 748,722 Q842,667 842,555 Q842,443 748,388 Q654,333 456,333 L268,333 L268,0 M268,668 L268,442 L466,442 Q657,442 657,555 Q657,668 466,668"/> 
            <glyph glyph-name="O" unicode="&#x4F;" horiz-adv-x="1050" d=" M60,212 Q60,566 196,678.5 Q332,791 555,791 Q778,791 914,678.5 Q1050,566 1050,389 Q1050,253 967.5,152.5 Q885,52 741,11 Q738,10 733.5,8 Q729,6 724,-0.5 Q719,-7 719,-15 Q719,-73 807,-73 Q842,-73 871,-67 Q900,-61 916.5,-52 Q933,-43 944.5,-34 Q956,-25 960,-19 L964,-13 L1000,-134 Q998,-137 994,-141.5 Q990,-146 974.5,-158 Q959,-170 939,-179.5 Q919,-189 884.5,-196.5 Q850,-204 809,-204 Q706,-204 659.5,-164.5 Q613,-125 612,-73 Q612,-21 638,-8 Q593,-13 555,-13 Q332,-13 60,212 M245,512 Q245,266 323,188 Q401,110 555,110 Q709,110 787,188 Q865,266 865,389 Q865,512 787,590 Q709,668 555,668 Q401,668 245,512"/> 
            <glyph glyph-name="P" unicode="&#x50;" horiz-adv-x="875" d=" M90,0 L90,777 L456,777 Q654,777 748,722 Q842,667 842,555 Q842,404 621,379 Q725,366 756,286 Q773,243 799,176 Q858,23 870,6 Q872,3 875,0 L681,0 Q678,5 675,10 Q672,15 669,22.5 Q666,30 663.5,37 Q661,44 657,57.5 Q653,71 650,81 Q647,91 641.5,111 Q636,131 632,146 Q628,161 620.5,189 Q613,217 607,239 Q593,293 544.5,313 Q496,333 378,333 L268,333 L268,0 M268,668 L268,442 L466,442 Q657,442 657,555 Q657,668 466,668"/> 
            <glyph glyph-name="Q" unicode="&#x51;" horiz-adv-x="841" d=" M379,487 L593,444 Q728,417 784.5,359 Q841,301 841,217 Q841,107 737.5,47 Q634,-13 471,-13 Q376,-13 299,4 Q222,21 173.5,48 Q125,75 92.5,111 Q60,147 46,182 Q32,217 30,253 L213,300 Q215,299 212.5,289.5 Q210,280 215,262.5 Q220,245 226,225 Q232,205 251,184.5 Q270,164 295.5,147.5 Q321,131 366,120.5 Q411,110 468,110 Q557,110 607.5,134.5 Q658,159 658,203 Q658,224 649.5,239.5 Q641,255 630.5,264.5 Q620,274 594,283 Q568,292 549.5,296.5 Q531,301 490,310 L292,352 Q180,376 119,430.5 Q58,485 58,559 Q58,657 151,724 Q244,791 417,791 Q494,791 557,778.5 Q620,766 659.5,745.5 Q699,725 729,700.5 Q759,676 774,652 Q789,628 797.5,607.5 Q806,587 808,574 L810,562 L627,512 Q627,518 626,528.5 Q625,539 614,566 Q603,593 583,613.5 Q563,634 517.5,651 Q472,668 410,668 Q332,668 287,642.5 Q242,617 242,578 Q242,514 379,487"/> 
            <glyph glyph-name="R" unicode="&#x52;" horiz-adv-x="872" d=" M10,668 L10,777 L872,777 L872,668 L530,668 L530,0 L352,0 L352,668"/> 
            <glyph glyph-name="S" unicode="&#x53;" horiz-adv-x="902" d=" M724,777 L902,777 L902,324 Q902,-13 496,-13 Q90,-13 90,324 L90,777 L268,777 L268,324 Q268,200 324,155 Q380,110 496,110 Q612,110 668,155 Q724,200 724,324"/> 
            <glyph glyph-name="T" unicode="&#x54;" horiz-adv-x="993" d=" M212,777 L502,170 L792,777 L993,777 L596,0 L407,0 L10,777"/> 
            <glyph glyph-name="U" unicode="&#x55;" horiz-adv-x="1417" d=" M1417,777 L1124,0 L912,0 L713,668 L515,0 L301,0 L10,777 L212,777 L413,169 L585,777 L842,777 L1014,170 L1215,777"/> 
            <glyph glyph-name="V" unicode="&#x56;" horiz-adv-x="972" d=" M755,0 L491,275 L227,0 L10,0 L382,388 L10,777 L227,777 L491,501 L755,777 L972,777 L599,388 L972,0"/> 
            <glyph glyph-name="W" unicode="&#x57;" horiz-adv-x="972" d=" M972,777 L580,365 L580,0 L402,0 L402,365 L10,777 L227,777 L491,485 L755,777"/> 
            <glyph glyph-name="X" unicode="&#x58;" horiz-adv-x="798" d=" M798,110 L798,0 L20,0 L20,120 L563,668 L20,668 L20,777 L798,777 L798,658 L255,110"/> 
            <glyph glyph-name="Y" unicode="&#x59;" horiz-adv-x="773" d=" M634,359 L625,152 Q623,97 665,97 Q685,97 704,109.5 Q723,122 732,134 L740,147 L773,39 Q768,33 758,24.5 Q748,16 713.5,1.5 Q679,-13 640,-13 Q556,-13 523.5,35 Q491,83 491,175 Q484,162 477,151 Q470,140 443,106 Q416,72 388,49.5 Q360,27 314,7 Q268,-13 220,-13 Q143,-13 99.5,21.5 Q56,56 56,119 Q56,198 157,262.5 Q258,327 469,345 Q469,368 465,385 Q461,402 450.5,420 Q440,438 415.5,448 Q391,458 355,458 Q312,458 281,445.5 Q250,433 235.5,414.5 Q221,396 212.5,378 Q204,360 203,348 L202,335 L30,379 Q31,383 33.5,390 Q36,397 47,416.5 Q58,436 72.5,454 Q87,472 114.5,493.5 Q142,515 174.5,530.5 Q207,546 256.5,557 Q306,568 363,568 Q493,568 565,508 Q637,448 634,359 M228,153 Q228,97 286,97 Q318,97 349,113 Q380,129 401,152 Q422,175 438,198 Q454,221 462,237 L469,253 L469,292 Q344,280 286,240 Q228,200 228,153"/> 
            <glyph glyph-name="Z" unicode="&#x5A;" horiz-adv-x="745" d=" M314,97 Q484,97 528,147 Q572,197 572,277 Q572,357 528,407.5 Q484,458 399,458 Q314,458 271.5,405.5 Q229,353 229,277 Q229,201 314,97 M255,791 L255,467 Q257,471 260.5,478 Q264,485 280,502.5 Q296,520 316,533 Q336,546 373,557 Q410,568 453,568 Q579,568 662,486 Q745,404 745,277 Q745,150 662,68.5 Q579,-13 452,-13 Q402,-13 360,1.5 Q318,16 294,36.5 Q270,57 253,77.5 Q236,98 230,112 L224,127 L186,0 L90,0 L90,777 Q126,777 167.5,780.5 Q209,784 232,788"/> 
            <glyph glyph-name="a" unicode="&#x61;" horiz-adv-x="727" d=" M567,225 L727,184 Q725,176 720.5,162.5 Q716,149 693,115 Q670,81 637.5,55.5 Q605,30 541,8.5 Q477,-13 397,-13 Q256,-13 158,65 Q60,143 60,278 Q60,404 152.5,486 Q245,568 398,568 Q466,568 520,553.5 Q574,539 605.5,515.5 Q637,492 659.5,464 Q682,436 691,408 Q700,380 704,356.5 Q708,333 708,318 L707,304 L547,263 Q548,271 549,284 Q550,297 545.5,330.5 Q541,364 528.5,390 Q516,416 483,437 Q450,458 400,458 Q318,458 275,407.5 Q232,357 232,278 Q232,195 279.5,146 Q327,97 414,97 Q456,97 487.5,110 Q519,123 533.5,142 Q548,161 556.5,180 Q565,199 566,212"/> 
            <glyph glyph-name="b" unicode="&#x62;" horiz-adv-x="715" d=" M320,97 Q490,97 533,149 Q576,201 576,277 Q576,353 533,405.5 Q490,458 405,458 Q320,458 276.5,407.5 Q233,357 233,277 Q233,197 320,97 M549,467 L549,777 Q586,777 627.5,780.5 Q669,784 692,788 L715,791 L715,0 L619,0 L580,127 Q578,121 573.5,111.5 Q569,102 551.5,78 Q534,54 510.5,35.5 Q487,17 445,2 Q403,-13 353,-13 Q225,-13 142.5,68.5 Q60,150 60,277 Q60,404 142.5,486 Q225,568 352,568 Q395,568 431.5,557.5 Q468,547 488.5,532.5 Q509,518 523.5,503 Q538,488 544,478"/> 
            <glyph glyph-name="c" unicode="&#x63;" horiz-adv-x="727" d=" M236,346 L541,356 Q540,360 538.5,367.5 Q537,375 527.5,393.5 Q518,412 503.5,426 Q489,440 460,451.5 Q431,463 394,463 Q355,463 324.5,451 Q294,439 278.5,422 Q263,405 252.5,387.5 Q242,370 239,358 M712,258 L226,268 Q227,196 273.5,146.5 Q320,97 414,97 Q457,97 488,110 Q519,123 533.5,142 Q548,161 556.5,180 Q565,199 566,212 L567,225 L727,184 Q726,180 724,173 Q722,166 712,145.5 Q702,125 688,106.5 Q674,88 647.5,65 Q621,42 588.5,25.5 Q556,9 506,-2 Q456,-13 397,-13 Q256,-13 158,65 Q60,143 60,278 Q60,404 152,486 Q244,568 397,568 Q461,568 513.5,555 Q566,542 599.5,520.5 Q633,499 657,470.5 Q681,442 693,413 Q705,384 710.5,353.5 Q716,323 716,300 Q716,277 712,258"/> 
            <glyph glyph-name="d" unicode="&#x64;" horiz-adv-x="714" d=" M0,555 L149,555 Q144,557 137.5,562.5 Q131,568 120.5,586.5 Q110,605 110,628 Q110,692 182.5,741.5 Q255,791 381,791 Q438,791 487.5,780.5 Q537,770 570,753.5 Q603,737 629.5,716.5 Q656,696 671.5,676 Q687,656 697,639.5 Q707,623 710,612 L714,602 L542,558 Q542,563 541,571.5 Q540,580 531.5,602.5 Q523,625 508.5,641.5 Q494,658 463,672 Q432,686 389,686 Q321,686 294,657.5 Q267,629 267,594 Q267,583 271,573 Q275,563 279,559 L283,555 L495,555 L495,458 L293,458 L293,0 L128,0 L128,458 L0,458"/> 
            <glyph glyph-name="e" unicode="&#x65;" horiz-adv-x="774" d=" M375,170 Q319,170 278,177 Q223,180 223,140 Q223,97 324,97 L529,97 Q595,97 641.5,82.5 Q688,68 712,42.5 Q736,17 746.5,-10.5 Q757,-38 757,-70 Q757,-148 682.5,-192.5 Q608,-237 479,-237 L258,-237 Q139,-237 84.5,-199 Q30,-161 30,-111 Q30,-88 41,-69 Q52,-50 72,-37.5 Q92,-25 109,-17 Q126,-9 150.5,-4 Q175,1 182,2 Q189,3 201,5 Q191,6 173,10 Q155,14 127.5,24 Q100,34 81,55.5 Q62,77 62,105 Q62,178 202,197 Q133,222 96,267 Q59,312 59,368 Q59,455 143.5,511.5 Q228,568 373,568 Q515,568 601,512 Q577,548 577,568 Q577,605 600,626 Q623,647 664,647 Q682,647 736,643 L774,520 Q722,528 688,528 Q648,528 641,511 Q634,494 652,466 Q687,422 687,368 Q687,282 602.5,226 Q518,170 375,170 M496,-12 L301,0 Q296,0 289,-0.5 Q282,-1 265.5,-5.5 Q249,-10 236.5,-17.5 Q224,-25 214,-42 Q204,-59 204,-82 Q204,-124 244.5,-141 Q285,-158 388,-158 Q488,-158 535.5,-142.5 Q583,-127 583,-81 Q583,-49 563,-32 Q543,-15 496,-12 M226,368 Q226,267 373,267 Q518,267 518,368 Q518,471 373,471 Q226,471 226,368"/> 
            <glyph glyph-name="f" unicode="&#x66;" horiz-adv-x="725" d=" M255,791 L255,419 Q256,428 260,440 Q264,452 278.5,476.5 Q293,501 315,520 Q337,539 378,553.5 Q419,568 472,568 Q598,568 661.5,508 Q725,448 725,340 L725,0 L561,0 L561,348 Q561,402 524.5,430 Q488,458 427,458 Q387,458 354.5,445.5 Q322,433 304.5,415 Q287,397 275,379 Q263,361 259,348 L255,336 L255,0 L90,0 L90,777 Q130,777 171.5,780.5 Q213,784 234,788"/> 
            <glyph glyph-name="g" unicode="&#x67;" horiz-adv-x="255" d=" M90,0 L90,555 L255,555 L255,0 M90,650 L90,777 L255,777 L255,650"/> 
            <glyph glyph-name="h" unicode="&#x68;" horiz-adv-x="255" d=" M90,5 L90,555 L255,555 L255,13 Q255,-106 193.5,-171.5 Q132,-237 37,-237 Q3,-237 -27,-228.5 Q-57,-220 -76,-208 Q-95,-196 -109.5,-183.5 Q-124,-171 -130,-162 L-136,-154 L-104,-47 Q-103,-50 -100.5,-55.5 Q-98,-61 -89.5,-75 Q-81,-89 -70,-99.5 Q-59,-110 -40.5,-118.5 Q-22,-127 0,-127 Q46,-127 68,-97 Q90,-67 90,5 M90,635 L90,762 L255,762 L255,635"/> 
            <glyph glyph-name="i" unicode="&#x69;" horiz-adv-x="738" d=" M90,0 L90,777 Q130,777 171.5,780.5 Q213,784 234,788 L255,792 L255,311 L498,555 L698,555 L424,298 L738,0 L537,0 L330,210 L255,138 L255,0"/> 
            <glyph glyph-name="j" unicode="&#x6A;" horiz-adv-x="255" d=" M90,0 L90,777 Q126,777 167.5,780.5 Q209,784 232,788 L255,791 L255,0"/> 
            <glyph glyph-name="k" unicode="&#x6B;" horiz-adv-x="1113" d=" M1113,340 L1113,0 L948,0 L948,343 Q948,367 944.5,384 Q941,401 930.5,419.5 Q920,438 896.5,448 Q873,458 838,458 Q804,458 776,445.5 Q748,433 731.5,415 Q715,397 703.5,379 Q692,361 688,348 L684,336 L684,0 L519,0 L519,343 Q519,367 515.5,384 Q512,401 501.5,419.5 Q491,438 467.5,448 Q444,458 409,458 Q375,458 347,445.5 Q319,433 302.5,415 Q286,397 274.5,379 Q263,361 259,348 L255,336 L255,0 L90,0 L90,555 L186,555 L233,398 Q234,405 236,416.5 Q238,428 252,457 Q266,486 288,508.5 Q310,531 356.5,549.5 Q403,568 463,568 Q503,568 535.5,559 Q568,550 588,536 Q608,522 623,503 Q638,484 645,468 Q652,452 656.5,435 Q661,418 661.5,410.5 Q662,403 662,399 Q663,410 666.5,423 Q670,436 685,464.5 Q700,493 722.5,513.5 Q745,534 789.5,551 Q834,568 892,568 Q999,568 1056,510.5 Q1113,453 1113,340"/> 
            <glyph glyph-name="l" unicode="&#x6C;" horiz-adv-x="725" d=" M560,0 L560,348 Q560,458 420,458 Q383,458 352.5,445.5 Q322,433 305,415 Q288,397 276,379 Q264,361 260,348 L255,336 L255,0 L90,0 L90,555 L186,555 L233,398 Q234,405 236,416.5 Q238,428 252,457 Q266,486 288,508.5 Q310,531 356.5,549.5 Q403,568 465,568 Q725,568 725,340 L725,0"/> 
            <glyph glyph-name="m" unicode="&#x6D;" horiz-adv-x="748" d=" M60,278 Q60,403 153,485.5 Q246,568 403,568 Q562,568 655,485.5 Q748,403 748,278 Q748,152 655,69.5 Q562,-13 403,-13 Q246,-13 153,69.5 Q60,152 60,278 M233,278 Q233,200 273.5,148.5 Q314,97 403,97 Q492,97 533.5,149 Q575,201 575,278 Q575,355 533.5,406.5 Q492,458 403,458 Q313,458 273,406.5 Q233,355 233,278"/> 
            <glyph glyph-name="n" unicode="&#x6E;" horiz-adv-x="745" d=" M484,458 Q314,458 271.5,406 Q229,354 229,278 Q229,202 271.5,149.5 Q314,97 399,97 Q484,97 528,147.5 Q572,198 572,278 Q572,358 484,458 M255,89 L255,-223 L90,-223 L90,555 L186,555 L224,428 Q226,434 230.5,443.5 Q235,453 253,477 Q271,501 294.5,519.5 Q318,538 360,553 Q402,568 452,568 Q579,568 662,486.5 Q745,405 745,278 Q745,151 662,69 Q579,-13 453,-13 Q410,-13 373.5,-2.5 Q337,8 316,23 Q295,38 280.5,53 Q266,68 260,78"/> 
            <glyph glyph-name="o" unicode="&#x6F;" horiz-adv-x="715" d=" M490,458 Q320,458 276.5,408 Q233,358 233,278 Q233,198 276.5,147.5 Q320,97 405,97 Q490,97 533,149.5 Q576,202 576,278 Q576,354 490,458 M549,-223 L549,88 Q547,84 543.5,77 Q540,70 524.5,52.5 Q509,35 488.5,22 Q468,9 431.5,-2 Q395,-13 352,-13 Q225,-13 142.5,69 Q60,151 60,278 Q60,405 142.5,486.5 Q225,568 353,568 Q403,568 445,553.5 Q487,539 511,518.5 Q535,498 551.5,477.5 Q568,457 574,442 L580,428 L619,555 L715,555 L715,-223"/> 
            <glyph glyph-name="p" unicode="&#x70;" horiz-adv-x="541" d=" M255,337 L255,0 L90,0 L90,555 L186,555 L233,398 Q233,405 234,416.5 Q235,428 243,457 Q251,486 266,508.5 Q281,531 314,549.5 Q347,568 392,568 Q541,568 541,423 Q541,392 537.5,365.5 Q534,339 531,328 L528,317 L368,276 Q385,332 385,408 Q385,458 341,458 Q310,458 288.5,428 Q267,398 261,368"/> 
            <glyph glyph-name="q" unicode="&#x71;" horiz-adv-x="660" d=" M40,181 L200,222 Q200,217 201,208.5 Q202,200 211,178.5 Q220,157 236.5,140.5 Q253,124 289,110.5 Q325,97 374,97 Q427,97 462,112 Q497,127 497,155 Q497,180 471,194.5 Q445,209 385,220 L255,244 Q68,278 68,395 Q68,475 142.5,521.5 Q217,568 330,568 Q387,568 434,559 Q481,550 511,536 Q541,522 564,504.5 Q587,487 599,469.5 Q611,452 618.5,438 Q626,424 628,415 L630,406 L470,365 Q470,369 468.5,375.5 Q467,382 458.5,399 Q450,416 436,429 Q422,442 392.5,452.5 Q363,463 323,463 Q274,463 247.5,445.5 Q221,428 221,405 Q221,382 245.5,372 Q270,362 327,352 L467,329 Q660,297 660,160 Q660,78 578.5,32.5 Q497,-13 372,-13 Q307,-13 253.5,-2.5 Q200,8 166.5,25.5 Q133,43 107.5,63.5 Q82,84 70,104.5 Q58,125 50.5,142.5 Q43,160 42,170"/> 
            <glyph glyph-name="r" unicode="&#x72;" horiz-adv-x="553" d=" M0,458 L0,555 L132,555 L132,664 L291,764 L291,555 L546,555 L546,458 L291,458 L291,206 Q291,97 389,97 Q428,97 461,117 Q494,137 508,157 L521,177 L553,69 Q550,66 545,60.5 Q540,55 520.5,40.5 Q501,26 479,15.5 Q457,5 420.5,-4 Q384,-13 344,-13 Q241,-13 184.5,38 Q128,89 128,194 L128,458"/> 
            <glyph glyph-name="s" unicode="&#x73;" horiz-adv-x="725" d=" M254,555 L254,207 Q254,97 395,97 Q432,97 462.5,109.5 Q493,122 510,140 Q527,158 539,176 Q551,194 556,206 L560,219 L560,555 L725,555 L725,0 L629,0 L582,157 Q581,150 579,138.5 Q577,127 563,98 Q549,69 527,46.5 Q505,24 458.5,5.5 Q412,-13 350,-13 Q90,-13 90,215 L90,555"/> 
            <glyph glyph-name="t" unicode="&#x74;" horiz-adv-x="738" d=" M738,555 L454,0 L294,0 L10,555 L191,555 L374,146 L557,555"/> 
            <glyph glyph-name="u" unicode="&#x75;" horiz-adv-x="1087" d=" M246,0 L10,555 L191,555 L333,146 L469,555 L628,555 L764,146 L906,555 L1087,555 L851,0 L688,0 L548,401 L409,0"/> 
            <glyph glyph-name="v" unicode="&#x76;" horiz-adv-x="748" d=" M201,555 L379,374 L557,555 L748,555 L474,277 L748,0 L557,0 L379,180 L201,0 L10,0 L283,277 L10,555"/> 
            <glyph glyph-name="w" unicode="&#x77;" horiz-adv-x="728" d=" M287,15 L10,555 L191,555 L364,156 L547,555 L728,555 L403,-62 Q353,-157 300.5,-197 Q248,-237 170,-237 Q140,-237 113,-228.5 Q86,-220 69,-208 Q52,-196 39,-183.5 Q26,-171 20,-162 L14,-154 L46,-47 Q47,-50 49.5,-55.5 Q52,-61 60.5,-75 Q69,-89 80.5,-99.5 Q92,-110 111.5,-118.5 Q131,-127 154,-127 Q195,-127 225,-90 Q255,-53 287,15"/> 
            <glyph glyph-name="x" unicode="&#x78;" horiz-adv-x="645" d=" M60,0 L60,107 L443,458 L60,458 L60,555 L645,555 L645,448 L268,97 L645,97 L645,0"/> 
            <glyph glyph-name="y" unicode="&#x79;" horiz-adv-x="1053" d=" M861,0 L754,235 L308,235 L201,0 L10,0 L377,777 L686,777 L1053,0 M506,668 L358,345 L704,345 L557,668 M278,1018 L488,1018 L624,875 L507,875"/> 
            <glyph glyph-name="z" unicode="&#x7A;" horiz-adv-x="775" d=" M90,0 L90,777 L745,777 L745,668 L268,668 L268,442 L716,442 L716,333 L268,333 L268,110 L775,110 L775,0 M213,1018 L423,1018 L559,875 L442,875"/> 
            <glyph glyph-name="À" unicode="&#xC0;" horiz-adv-x="775" d=" M90,0 L90,777 L745,777 L745,668 L268,668 L268,442 L716,442 L716,333 L268,333 L268,110 L775,110 L775,0 M459,1019 L669,1019 L440,875 L323,875"/> 
            <glyph glyph-name="È" unicode="&#xC8;" horiz-adv-x="1050" d=" M60,212 Q60,566 196,678.5 Q332,791 555,791 Q778,791 914,678.5 Q1050,566 1050,389 Q1050,212 914,99.5 Q778,-13 555,-13 Q332,-13 60,212 M245,512 Q245,266 323,188 Q401,110 555,110 Q709,110 787,188 Q865,266 865,389 Q865,512 787,590 Q709,668 555,668 Q401,668 245,512 M302,1018 L512,1018 L648,875 L531,875"/> 
            <glyph glyph-name="É" unicode="&#xC9;" horiz-adv-x="902" d=" M724,777 L902,777 L902,324 Q902,-13 496,-13 Q90,-13 90,324 L90,777 L268,777 L268,324 Q268,200 324,155 Q380,110 496,110 Q612,110 668,155 Q724,200 724,324 M258,1018 L468,1018 L604,875 L487,875"/> 
            <glyph glyph-name="Ò" unicode="&#xD2;" horiz-adv-x="773" d=" M625,152 L634,359 Q637,448 565,508 Q493,568 363,568 Q306,568 256.5,557.5 Q207,547 174,530.5 Q141,514 114.5,494 Q88,474 72.5,453.5 Q57,433 47,416.5 Q37,400 34,390 L30,379 L202,335 Q202,340 203,348.5 Q204,357 212.5,378 Q221,399 235.5,415 Q250,431 281,444.5 Q312,458 355,458 Q423,458 446,426.5 Q469,395 469,345 Q258,327 157,262.5 Q56,198 56,119 Q56,56 99.5,21.5 Q143,-13 220,-13 Q268,-13 314,7 Q360,27 388,49.5 Q416,72 443,106 Q470,140 477,151 Q484,162 491,175 Q491,83 523.5,35 Q556,-13 640,-13 Q679,-13 712,0 Q745,13 759,26 L773,39 L740,147 Q737,141 731,133 Q725,125 705,111 Q685,97 665,97 Q623,97 625,152 M228,153 Q228,200 286,240 Q344,280 469,292 L469,253 Q466,247 461,236.5 Q456,226 438,199 Q420,172 400.5,151.5 Q381,131 349.5,114 Q318,97 286,97 Q228,97 228,153 M116,791 L326,791 L462,648 L345,648"/> 
            <glyph glyph-name="Ù" unicode="&#xD9;" horiz-adv-x="727" d=" M541,356 L236,346 Q237,351 239,359 Q241,367 252,387 Q263,407 278.5,422.5 Q294,438 324.5,450.5 Q355,463 394,463 Q431,463 460,452 Q489,441 503.5,425.5 Q518,410 527.5,394 Q537,378 539,367 M226,268 L712,258 Q716,277 716,300 Q716,323 710.5,353.5 Q705,384 693,413 Q681,442 657,470.5 Q633,499 599.5,520.5 Q566,542 513.5,555 Q461,568 397,568 Q244,568 152,486 Q60,404 60,278 Q60,143 158,65 Q256,-13 397,-13 Q456,-13 506,-2 Q556,9 588.5,26 Q621,43 647.5,64 Q674,85 688,106.5 Q702,128 711.5,145 Q721,162 724,173 L727,184 L567,225 Q567,220 566,211.5 Q565,203 556.5,180.5 Q548,158 533.5,141.5 Q519,125 488,111 Q457,97 414,97 Q320,97 273.5,146.5 Q227,196 226,268 M146,791 L356,791 L492,648 L375,648"/> 
            <glyph glyph-name="à" unicode="&#xE0;" horiz-adv-x="727" d=" M541,356 L236,346 Q237,351 239,359 Q241,367 252,387 Q263,407 278.5,422.5 Q294,438 324.5,450.5 Q355,463 394,463 Q431,463 460,452 Q489,441 503.5,425.5 Q518,410 527.5,394 Q537,378 539,367 M226,268 L712,258 Q716,277 716,300 Q716,323 710.5,353.5 Q705,384 693,413 Q681,442 657,470.5 Q633,499 599.5,520.5 Q566,542 513.5,555 Q461,568 397,568 Q244,568 152,486 Q60,404 60,278 Q60,143 158,65 Q256,-13 397,-13 Q456,-13 506,-2 Q556,9 588.5,26 Q621,43 647.5,64 Q674,85 688,106.5 Q702,128 711.5,145 Q721,162 724,173 L727,184 L567,225 Q567,220 566,211.5 Q565,203 556.5,180.5 Q548,158 533.5,141.5 Q519,125 488,111 Q457,97 414,97 Q320,97 273.5,146.5 Q227,196 226,268 M452,791 L662,791 L433,647 L316,647"/> 
            <glyph glyph-name="è" unicode="&#xE8;" horiz-adv-x="748" d=" M60,278 Q60,403 153,485.5 Q246,568 403,568 Q562,568 655,485.5 Q748,403 748,278 Q748,152 655,69.5 Q562,-13 403,-13 Q246,-13 153,69.5 Q60,152 60,278 M233,278 Q233,200 273.5,148.5 Q314,97 403,97 Q492,97 533.5,149 Q575,201 575,278 Q575,355 533.5,406.5 Q492,458 403,458 Q313,458 273,406.5 Q233,355 233,278 M124,791 L334,791 L470,648 L353,648"/> 
            <glyph glyph-name="é" unicode="&#xE9;" horiz-adv-x="725" d=" M254,555 L254,207 Q254,97 395,97 Q432,97 462.5,109.5 Q493,122 510,140 Q527,158 539,176 Q551,194 556,206 L560,219 L560,555 L725,555 L725,0 L629,0 L582,157 Q581,150 579,138.5 Q577,127 563,98 Q549,69 527,46.5 Q505,24 458.5,5.5 Q412,-13 350,-13 Q90,-13 90,215 L90,555 M145,791 L355,791 L491,648 L374,648"/> 
            <glyph glyph-name="ò" unicode="&#xF2;" horiz-adv-x="249" d=" M50,481 L50,606 Q50,640 60,673.5 Q70,707 84.5,730 Q99,753 113.5,771 Q128,789 138,798 L148,807 L249,781 Q244,779 236.5,775 Q229,771 209.5,756.5 Q190,742 174,726 Q158,710 144,684 Q130,658 127,631 L228,631 L228,481"/> 
            <glyph glyph-name="ù" unicode="&#xF9;" horiz-adv-x="238" d=" M238,807 L238,682 Q238,648 228,614.5 Q218,581 203.5,558 Q189,535 174.5,517 Q160,499 150,490 L140,481 L39,507 Q44,509 51.5,513 Q59,517 78.5,531.5 Q98,546 114,562 Q130,578 144,604 Q158,630 161,657 L60,657 L60,807"/> 
        </font>
</defs>
</svg>
