<?xml version="1.0" standalone="no"?>
<!DOCTYPE svg PUBLIC "-//W3C//DTD SVG 20010904//EN"
 "http://www.w3.org/TR/2001/REC-SVG-20010904/DTD/svg10.dtd">
<svg version="1.0" xmlns="http://www.w3.org/2000/svg"
 width="260.000000pt" height="260.000000pt" viewBox="0 0 260.000000 260.000000"
 preserveAspectRatio="xMidYMid meet">
<metadata>
Created by potrace 1.11, written by Peter Selinger 2001-2013
</metadata>
<g transform="translate(0.000000,260.000000) scale(0.100000,-0.100000)"
fill="#000000" stroke="none">
<path d="M1203 2562 c-22 -3 -23 -8 -23 -88 l0 -84 684 0 c640 0 685 2 689 18
10 37 5 152 -7 153 -36 3 -1325 3 -1343 1z"/>
<path d="M130 2538 c-7 -16 -19 -28 -27 -28 -21 0 -15 -21 7 -27 11 -3 20 -8
20 -12 0 -3 -14 -39 -31 -80 -17 -40 -29 -75 -26 -77 2 -3 16 0 30 5 20 8 27
7 31 -6 5 -12 9 -13 20 -4 8 7 25 9 40 5 l26 -6 -24 63 c-13 35 -29 76 -35 91
-8 22 -7 26 4 22 8 -3 22 -1 31 4 16 9 15 11 -4 21 -12 7 -22 8 -22 4 -1 -4
-7 6 -14 22 l-13 30 -13 -27z"/>
<path d="M426 2544 c-3 -9 -3 -21 1 -27 3 -7 3 -9 -2 -5 -4 4 -17 2 -29 -4
-21 -11 -21 -12 6 -22 l26 -11 -33 -83 c-33 -81 -32 -92 5 -72 15 8 21 6 29
-7 11 -17 11 -17 22 0 8 13 14 15 29 7 37 -20 38 -9 6 74 l-33 84 23 6 c29 8
32 26 5 26 -12 0 -21 9 -25 25 -7 28 -21 33 -30 9z"/>
<path d="M736 2553 c-3 -3 -6 -15 -6 -25 0 -11 -7 -18 -20 -18 -11 0 -20 -5
-20 -11 0 -6 9 -13 20 -16 11 -3 20 -7 20 -9 0 -2 -13 -37 -30 -79 -16 -42
-30 -78 -30 -81 0 -4 12 -3 26 0 15 4 32 2 40 -5 11 -9 15 -8 20 5 5 12 10 13
26 5 36 -19 37 -4 4 79 -28 69 -31 82 -17 82 9 0 23 4 31 10 11 7 9 11 -13 19
-15 6 -27 17 -27 25 0 17 -14 28 -24 19z"/>
<path d="M1020 2538 c-7 -14 -22 -29 -34 -33 -20 -6 -20 -7 5 -18 21 -10 25
-16 19 -32 -5 -11 -20 -50 -34 -88 l-26 -68 29 16 c28 14 31 14 41 -3 9 -16
11 -16 21 1 8 14 14 15 30 6 12 -6 23 -8 26 -5 3 2 -9 40 -25 83 l-31 78 25 8
c28 10 32 27 6 27 -11 0 -22 11 -28 28 l-11 27 -13 -27z"/>
<path d="M276 2287 c-3 -14 -15 -29 -27 -32 -22 -7 -16 -21 12 -27 14 -3 12
-14 -16 -88 -18 -47 -32 -86 -30 -88 1 -1 14 2 27 7 18 7 29 6 37 -2 8 -8 14
-8 22 0 8 8 20 8 35 3 13 -5 24 -7 24 -5 0 2 -13 41 -30 87 -16 45 -30 83 -30
85 0 2 9 3 19 3 28 0 35 17 11 25 -11 3 -20 10 -20 14 0 4 -6 15 -14 26 -12
17 -13 17 -20 -8z"/>
<path d="M566 2275 c-9 -14 -23 -25 -32 -25 -8 0 -12 -4 -9 -10 3 -5 17 -10
30 -10 l23 0 -34 -86 c-19 -48 -33 -88 -30 -91 2 -3 14 1 27 7 19 11 24 10 35
-5 12 -16 14 -16 20 -2 4 13 11 14 31 6 14 -5 27 -8 29 -6 2 2 -10 40 -26 86
-17 45 -30 84 -30 86 0 3 9 5 19 5 30 0 33 16 6 28 -14 7 -25 18 -25 27 0 23
-16 18 -34 -10z"/>
<path d="M869 2288 c-1 -7 -1 -16 0 -20 0 -4 -11 -11 -26 -14 -24 -7 -25 -8
-8 -20 10 -7 22 -11 28 -7 11 7 4 -19 -33 -109 -15 -38 -26 -68 -25 -68 2 0
16 5 31 10 21 8 29 7 39 -6 11 -15 12 -15 18 -1 5 14 11 15 33 7 15 -6 28 -9
29 -8 2 2 -12 41 -30 88 -28 74 -30 85 -16 88 27 6 34 20 13 26 -11 4 -22 16
-25 26 -6 22 -26 27 -28 8z"/>
<path d="M1180 2085 c0 -74 2 -85 18 -86 9 0 317 -1 685 -2 586 -2 668 0 671
13 2 8 4 48 4 88 l1 72 -690 0 -689 0 0 -85z"/>
<path d="M132 2053 c-6 -11 -9 -23 -6 -25 3 -3 -8 -9 -23 -13 -25 -6 -26 -8
-10 -17 10 -5 24 -7 32 -5 8 4 1 -25 -21 -81 -19 -48 -34 -90 -34 -94 0 -4 11
-3 25 4 19 8 28 8 40 -2 14 -12 18 -11 25 0 7 11 14 12 34 2 14 -6 26 -10 26
-9 0 2 -15 42 -34 89 l-33 86 31 7 31 7 -26 11 c-15 7 -26 14 -26 17 0 3 -4
14 -10 24 -10 19 -11 19 -21 -1z"/>
<path d="M433 2059 c-7 -7 -13 -18 -13 -25 0 -6 -10 -15 -22 -19 -23 -6 -23
-6 3 -18 21 -9 25 -16 19 -32 -4 -11 -19 -50 -33 -87 l-26 -66 31 10 c23 8 32
8 38 -3 7 -10 11 -10 25 1 14 11 20 11 37 1 11 -7 21 -11 23 -9 2 2 -12 42
-30 91 -30 79 -31 87 -14 87 25 0 35 20 12 26 -11 3 -24 17 -29 30 -7 21 -11
23 -21 13z"/>
<path d="M722 2053 c-6 -11 -8 -24 -4 -28 4 -5 2 -6 -3 -2 -6 3 -19 -1 -29 -9
-19 -13 -18 -14 11 -20 l30 -6 -27 -66 c-15 -37 -31 -77 -35 -90 -6 -21 -5
-22 21 -10 23 11 29 10 37 -4 10 -15 12 -15 23 0 10 14 16 14 38 4 14 -6 26
-10 26 -9 0 1 -13 38 -30 80 -16 43 -30 82 -30 87 0 4 12 11 28 15 l27 8 -26
11 c-15 6 -26 13 -26 16 0 3 -4 14 -10 24 -10 19 -11 19 -21 -1z"/>
<path d="M1013 2041 c-3 -11 -14 -22 -25 -24 -24 -7 -15 -27 13 -27 23 0 23 1
4 -44 -9 -20 -24 -59 -35 -86 l-19 -49 30 11 c25 8 33 8 40 -3 8 -12 10 -12
18 0 8 12 14 13 35 3 14 -6 26 -8 26 -4 0 5 -13 45 -30 90 -28 77 -29 82 -10
82 27 0 36 20 12 27 -11 2 -22 13 -25 24 -3 10 -10 19 -17 19 -7 0 -14 -9 -17
-19z"/>
<path d="M47 1771 c-3 -5 -1 -147 2 -161 1 -4 2481 -5 2502 -1 4 0 6 38 5 84
l-1 82 -1253 1 c-689 1 -1254 -1 -1255 -5z"/>
<path d="M45 1308 l0 -83 1256 -3 1256 -2 1 85 0 85 -1257 0 -1257 0 1 -82z"/>
<path d="M51 990 c-4 -3 -7 -40 -7 -82 l0 -78 76 0 c116 -1 2392 -1 2416 0 19
0 21 5 20 82 l-1 83 -1248 0 c-687 0 -1252 -2 -1256 -5z"/>
<path d="M57 600 c-10 -4 -15 -95 -8 -157 1 -9 299 -12 1250 -12 1167 0 1250
1 1254 17 10 37 5 152 -7 153 -52 4 -2480 3 -2489 -1z"/>
<path d="M49 206 c-1 -6 -2 -44 -3 -84 l-2 -72 1257 0 1257 0 -2 83 -1 82
-1252 1 c-928 1 -1253 -1 -1254 -10z"/>
</g>
</svg>
